<svg width="200" height="142" viewBox="0 0 200 142" fill="none" xmlns="http://www.w3.org/2000/svg">
<g clip-path="url(#clip0_1_25175)">
<path opacity="0.1" d="M66.4915 141.588C76.2314 141.588 84.1271 140.319 84.1271 138.755C84.1271 137.191 76.2314 135.923 66.4915 135.923C56.7517 135.923 48.856 137.191 48.856 138.755C48.856 140.319 56.7517 141.588 66.4915 141.588Z" fill="#6C63FF"/>
<path opacity="0.1" d="M162.356 141.667C174.51 141.667 184.362 140.399 184.362 138.835C184.362 137.271 174.51 136.002 162.356 136.002C150.202 136.002 140.35 137.271 140.35 138.835C140.35 140.399 150.202 141.667 162.356 141.667Z" fill="#6C63FF"/>
<path opacity="0.1" d="M2.50488 61.2104H20.8734V86.2466H3.84962C3.80438 86.5036 3.76094 86.7625 3.71388 87.0213H20.8734V107.212C20.8427 107.203 20.8155 107.193 20.7866 107.182C20.3015 106.99 19.8201 106.787 19.3387 106.57L19.031 106.431C18.5483 106.202 18.0657 105.961 17.5831 105.707C17.4147 105.618 17.2464 105.526 17.0799 105.431C14.4005 103.931 11.9664 102.029 9.86208 99.7919C9.80054 99.7321 9.74262 99.6688 9.68109 99.6109C9.38788 99.2923 9.10011 98.9702 8.82139 98.6408L8.51371 98.2788C8.18431 97.8752 7.86577 97.4607 7.55628 97.0408C7.51103 96.9793 7.46759 96.9178 7.42053 96.8598C6.16184 95.1146 5.11673 93.2249 4.30752 91.2311C4.28219 91.1714 4.26047 91.1062 4.23694 91.0501C3.98838 90.4106 3.76818 89.7651 3.57633 89.1135C3.49307 88.8402 3.41344 88.5705 3.34466 88.2864C3.31933 88.2031 3.29761 88.1217 3.2777 88.0403C2.24968 84.0277 2.12842 79.8596 2.12842 75.7203C2.12842 75.2371 2.12842 74.752 2.12842 74.2724C2.12842 72.5983 2.14833 70.9133 2.17729 69.2301C2.17729 68.7939 2.19538 68.3595 2.20443 67.9215C2.22977 66.8102 2.26597 65.699 2.31303 64.5877C2.32389 64.2782 2.33837 63.9705 2.35465 63.6629C2.35465 63.4855 2.3637 63.3081 2.3818 63.1307C2.42524 62.4864 2.46144 61.8475 2.50488 61.2104Z" fill="#6C63FF"/>
<path opacity="0.1" d="M20.8735 33.3345H10.7979C12.4357 30.7709 14.2253 28.3075 16.1569 25.9574C17.6537 24.1185 19.2337 22.3267 20.8735 20.6001V33.3345Z" fill="#6C63FF"/>
<path opacity="0.1" d="M20.8736 34.1091V60.4358H2.56299C2.56299 60.3598 2.57566 60.2819 2.58109 60.2059C2.59738 59.9978 2.61366 59.7896 2.63176 59.5833C2.65167 59.3408 2.67339 59.0965 2.69692 58.8594C2.72045 58.6223 2.74579 58.3327 2.77294 58.0703C2.80008 57.8078 2.82542 57.5418 2.85619 57.2793C2.88696 57.0169 2.91411 56.7545 2.94668 56.4938C2.97926 56.2332 3.00822 55.969 3.04261 55.7083C3.06976 55.4912 3.09871 55.2758 3.12767 55.0586C3.1693 54.7527 3.21274 54.445 3.2598 54.141C3.2598 54.0957 3.27246 54.0487 3.2797 54.0052C3.61004 51.7794 4.06015 49.5729 4.62807 47.3955C5.22255 45.1114 5.98167 42.8734 6.89948 40.6989C7.87495 38.4242 9.01708 36.2247 10.3166 34.1182L20.8736 34.1091Z" fill="#6C63FF"/>
<path opacity="0.1" d="M25.2588 61.2086V86.2466H64.4918V61.2086H25.2588ZM25.2588 87.0194V108.521C25.4832 108.568 25.7058 108.613 25.9266 108.651C26.2271 108.709 26.5257 108.762 26.8316 108.807C26.8895 108.816 26.9492 108.825 27.0126 108.83C27.132 108.85 27.2551 108.867 27.3745 108.883C27.6768 108.924 27.9772 108.959 28.2795 108.986C28.4225 109.001 28.5673 109.013 28.7121 109.024L29.0614 109.051C29.2514 109.066 29.4396 109.077 29.626 109.082C29.7419 109.082 29.8577 109.093 29.9772 109.096C30.0677 109.096 30.1582 109.096 30.2523 109.096C30.3464 109.096 30.4803 109.096 30.5943 109.096C30.75 109.096 30.9056 109.096 31.0595 109.096H31.2676C31.4233 109.096 31.5789 109.096 31.7328 109.082H31.7436C31.8504 109.082 31.959 109.082 32.0676 109.067C32.0977 109.069 32.1279 109.069 32.1581 109.067C32.2486 109.067 32.3391 109.067 32.4259 109.055H32.4893L33.0956 109.008C33.2947 108.99 33.4956 108.966 33.6983 108.944L34.111 108.896C35.7898 108.66 37.4499 108.307 39.0791 107.839C42.7387 106.818 46.3187 105.39 49.9764 104.344C54.7057 102.995 59.9308 102.333 64.5008 103.982V87.0194H25.2588ZM64.4918 33.3345V0.00173916C60.1964 -0.0447974 55.9127 0.457592 51.7447 1.49671C41.8102 3.99255 32.8965 9.40592 25.2588 16.3197V33.3327H27.2279V34.1055H25.2588V60.4357H64.4918V34.1073H35.3127V33.3345H64.4918ZM114.884 22.0751C112.427 21.9883 109.983 21.21 107.773 20.0083C103.547 17.7097 100.172 14.1605 96.4001 11.1651C88.5633 4.92645 78.8442 1.16188 68.8735 0.227975V33.3345H124.881L125.02 33.1879L114.884 22.0751ZM119.987 21.1702L125.396 27.1066V19.6137C123.585 19.8381 121.997 20.372 119.994 21.163L119.987 21.1702ZM125.396 113.86V87.0194H113.869C113.838 86.9054 113.808 86.7896 113.771 86.6737C113.806 86.7896 113.835 86.9054 113.867 87.0194H68.8807V106.43C69.3079 106.747 69.7296 107.08 70.1477 107.419C70.5983 107.781 71.0436 108.163 71.4906 108.537L71.9413 108.91C72.1566 109.091 72.3738 109.272 72.5928 109.442C73.0272 109.794 73.4658 110.142 73.9086 110.485C74.1276 110.666 74.352 110.828 74.5746 110.999C78.1088 113.701 81.837 116.139 85.729 118.294C86.6014 118.777 87.4816 119.248 88.3696 119.708C88.9615 120.01 89.5569 120.311 90.1542 120.602C91.0519 121.04 91.9568 121.462 92.869 121.869C101.279 125.644 110.172 128.234 119.293 129.566C121.319 129.866 123.353 130.101 125.395 130.272V113.858H125.576L125.396 113.86ZM68.8807 34.1073V60.4357H125.404V34.1073H68.8807ZM68.8807 61.2086V86.2466H125.404V61.2086H68.8807ZM129.791 19.5811V27.9392L136.695 20.363C134.408 19.9938 132.106 19.7301 129.791 19.5721V19.5811ZM129.791 61.2176V86.2466H184.766V61.2086L129.791 61.2176ZM184.565 115.847L184.759 87.0194H129.791V130.56C133.332 130.709 136.878 130.666 140.415 130.433H140.476C142.166 130.327 143.847 130.173 145.52 129.97H145.558C154.487 128.931 163.217 126.601 171.476 123.054M195.367 65.3315C195.16 64.8446 194.945 64.3614 194.726 63.8836C194.317 62.9786 193.884 62.099 193.439 61.2194H189.15V86.2466H199.995C199.989 79.159 198.195 71.9195 195.372 65.3224L195.367 65.3315ZM189.15 87.0285V111.824C192.205 108.896 194.786 105.545 196.644 101.716C198.88 97.1041 199.902 92.1106 199.985 87.0248L189.15 87.0285ZM189.15 53.922V60.4376H193.037C191.861 58.1946 190.565 56.0166 189.155 53.9129L189.15 53.922ZM151.866 24.4932C151.58 24.3846 151.294 24.2742 151.006 24.1674C147.971 23.0466 144.87 22.1145 141.72 21.3765L131.154 32.9725L130.951 33.1879L131.087 33.3363H168.693C163.455 29.7311 157.809 26.7596 151.871 24.4841L151.866 24.4932ZM169.795 34.1163H130.562L129.791 34.8222V60.4357H136.549H136.56H184.773V48.029C180.412 42.7542 175.378 38.0738 169.8 34.1073L169.795 34.1163Z" fill="#6C63FF"/>
<path opacity="0.1" d="M20.8736 47.3884V60.4359H2.56299C2.56299 60.3599 2.57566 60.2821 2.58109 60.2061C2.59738 59.9979 2.61366 59.7898 2.63176 59.5835C2.65167 59.3409 2.67339 59.0966 2.69692 58.8595C2.72045 58.6224 2.74579 58.3328 2.77294 58.0704C2.80008 57.808 2.82542 57.5419 2.85619 57.2795C2.88696 57.017 2.91411 56.7546 2.94668 56.494C2.97926 56.2334 3.00822 55.9691 3.04261 55.7085C3.06976 55.4913 3.09871 55.2759 3.12767 55.0587C3.1693 54.7529 3.21274 54.4452 3.2598 54.1411C3.2598 54.0959 3.27246 54.0488 3.2797 54.0054C3.61004 51.7795 4.06015 49.5731 4.62807 47.3957L20.8736 47.3884Z" fill="#6C63FF"/>
<path opacity="0.1" d="M2.50488 61.2104H20.8734V86.2466H3.84962C3.80438 86.5036 3.76094 86.7625 3.71388 87.0213H20.8734V107.212C20.8427 107.203 20.8155 107.193 20.7866 107.182C20.3015 106.99 19.8201 106.787 19.3387 106.57L19.031 106.431C18.5483 106.202 18.0657 105.961 17.5831 105.707C17.4147 105.618 17.2464 105.526 17.0799 105.431C14.4005 103.931 11.9664 102.029 9.86208 99.7919C9.80054 99.7321 9.74262 99.6688 9.68109 99.6109C9.38788 99.2923 9.10011 98.9702 8.82139 98.6408L8.51371 98.2788C8.18431 97.8752 7.86577 97.4607 7.55628 97.0408C7.51103 96.9793 7.46759 96.9178 7.42053 96.8598C6.16184 95.1146 5.11673 93.2249 4.30752 91.2311C4.28219 91.1714 4.26047 91.1062 4.23694 91.0501C3.98838 90.4106 3.76818 89.7651 3.57633 89.1135C3.49307 88.8402 3.41344 88.5705 3.34466 88.2864C3.31933 88.2031 3.29761 88.1217 3.2777 88.0403C2.24968 84.0277 2.12842 79.8596 2.12842 75.7203C2.12842 75.2371 2.12842 74.752 2.12842 74.2724C2.12842 72.5983 2.14833 70.9133 2.17729 69.2301C2.17729 68.7939 2.19538 68.3595 2.20443 67.9215C2.22977 66.8102 2.26597 65.699 2.31303 64.5877C2.32389 64.2782 2.33837 63.9705 2.35465 63.6629C2.35465 63.4855 2.3637 63.3081 2.3818 63.1307C2.42524 62.4864 2.46144 61.8475 2.50488 61.2104Z" fill="#6C63FF"/>
<path opacity="0.1" d="M39.0701 37.8775V60.4359H25.2588V37.8775H27.2279V30.2397H35.3109V37.8775H39.0701Z" fill="#6C63FF"/>
<path opacity="0.1" d="M39.0702 61.2087H25.2607V86.2449H39.0702V61.2087Z" fill="#6C63FF"/>
<path opacity="0.1" d="M25.2588 87.0212H39.0701V107.835C37.4409 108.303 35.7807 108.656 34.1019 108.89L33.6893 108.941C33.4865 108.964 33.2856 108.984 33.0866 109.004C32.8875 109.024 32.6811 109.039 32.4802 109.051H32.4169C32.33 109.051 32.2359 109.062 32.1508 109.064H32.0585C31.9499 109.064 31.8414 109.075 31.7328 109.078C31.5789 109.087 31.4251 109.089 31.2676 109.091C31.2007 109.091 31.1373 109.091 31.0703 109.091C30.9147 109.091 30.7609 109.091 30.6052 109.091H30.2631C30.1708 109.091 30.0821 109.091 29.9862 109.091L29.6369 109.078C29.4559 109.078 29.2605 109.058 29.0722 109.046L28.7247 109.02L28.2922 108.981C27.9881 108.953 27.6858 108.919 27.3872 108.877L27.0252 108.827L26.8443 108.801C26.542 108.754 26.2434 108.704 25.9393 108.646C25.7167 108.608 25.4959 108.561 25.2715 108.515L25.2588 87.0212Z" fill="#6C63FF"/>
<path opacity="0.1" d="M125.403 35.2131H114.016V60.4339H125.403V35.2131Z" fill="#6C63FF"/>
<path opacity="0.1" d="M125.406 61.2087V86.2467H68.8809V75.4471H98.9884V81.8179H114.016V61.2087H125.406Z" fill="#6C63FF"/>
<path opacity="0.1" d="M125.585 113.865H125.404V130.29C123.365 130.118 121.331 129.883 119.304 129.586C110.178 128.25 101.282 125.654 92.8691 121.872C90.4403 120.779 88.0609 119.586 85.7309 118.292C81.839 116.136 78.1103 113.698 74.5748 110.997C73.6867 110.316 72.8101 109.62 71.945 108.908C71.3459 108.414 70.7505 107.907 70.1478 107.415C69.7297 107.077 69.308 106.744 68.8809 106.425V87.0212H113.866C113.835 86.9054 113.804 86.7896 113.772 86.6755C113.806 86.7896 113.839 86.9054 113.869 87.0212H125.404V113.855C125.465 113.856 125.525 113.862 125.585 113.865Z" fill="#6C63FF"/>
<path opacity="0.1" d="M155.104 33.3345H147.683V31.0287H151.01V24.1602C151.298 24.2651 151.585 24.3731 151.871 24.4841V31.0287H155.104V33.3345Z" fill="#6C63FF"/>
<path opacity="0.1" d="M172.982 60.4358H136.553C136.553 60.4358 136.553 60.4358 136.565 60.4448L136.549 60.4358H129.791V35.215H131.706V53.8568H140.457V42.8165H147.685V34.1091H155.106V42.8237H162.335V53.8641H172.982V60.4358Z" fill="#6C63FF"/>
<path opacity="0.1" d="M129.791 61.2087V86.2467H172.982V61.2087H129.791ZM184.707 115.719L184.766 95.9007H172.982V87.0322H129.791V130.56C133.332 130.709 136.879 130.667 140.415 130.433H140.477C142.166 130.327 143.847 130.173 145.521 129.97H145.559C154.487 128.931 163.217 126.601 171.476 123.054" fill="#6C63FF"/>
<path opacity="0.1" d="M189.917 87.0212H199.993C199.904 92.1052 198.883 97.0987 196.65 101.71C194.791 105.542 192.208 108.892 189.157 111.819V95.8915H189.917V87.0212Z" fill="#6C63FF"/>
<path opacity="0.1" d="M199.998 86.2466H189.917V65.3225H195.372C198.195 71.9196 199.989 79.1591 199.998 86.2466Z" fill="#6C63FF"/>
<path opacity="0.1" d="M125.405 42.2246H119.304V50.132H125.405V42.2246Z" fill="#6C63FF"/>
<path opacity="0.1" d="M125.405 58.615H119.304V60.4357H125.405V58.615Z" fill="#6C63FF"/>
<path opacity="0.1" d="M125.405 61.2087H119.304V66.5208H125.405V61.2087Z" fill="#6C63FF"/>
<path opacity="0.1" d="M125.405 75.0054H119.304V82.9128H125.405V75.0054Z" fill="#6C63FF"/>
<path opacity="0.1" d="M125.405 91.3958H119.304V99.3032H125.405V91.3958Z" fill="#6C63FF"/>
<path opacity="0.1" d="M125.404 113.855C125.465 113.855 125.525 113.855 125.585 113.866H125.404V115.703H119.304V107.786H125.404V113.855Z" fill="#6C63FF"/>
<path opacity="0.1" d="M125.404 124.173V130.281C123.364 130.109 121.331 129.874 119.304 129.577V124.173H125.404Z" fill="#6C63FF"/>
<path opacity="0.1" d="M95.0283 85.6658H68.8809V86.2467H95.0283V85.6658Z" fill="#6C63FF"/>
<path opacity="0.1" d="M95.0283 87.0195H68.8809V89.2457H95.0283V87.0195Z" fill="#6C63FF"/>
<path opacity="0.1" d="M95.0283 96.5432H68.8809V100.123H95.0283V96.5432Z" fill="#6C63FF"/>
<path opacity="0.1" d="M95.0265 107.421V111.001H74.5748C73.6867 110.323 72.8095 109.626 71.9432 108.912C71.3441 108.418 70.7505 107.911 70.146 107.421H95.0265Z" fill="#6C63FF"/>
<path opacity="0.1" d="M95.0266 118.296V121.873H92.8673C90.4409 120.778 88.0621 119.584 85.731 118.291L95.0266 118.296Z" fill="#6C63FF"/>
<path opacity="0.1" d="M145.564 63.6357H140.417V68.7831H145.564V63.6357Z" fill="#6C63FF"/>
<path opacity="0.1" d="M34.1146 39.6528H28.9673V44.8002H34.1146V39.6528Z" fill="#6C63FF"/>
<path opacity="0.1" d="M34.1146 51.6089H28.9673V56.7562H34.1146V51.6089Z" fill="#6C63FF"/>
<path opacity="0.1" d="M34.1146 63.5652H28.9673V68.7125H34.1146V63.5652Z" fill="#6C63FF"/>
<path opacity="0.1" d="M34.1146 75.5195H28.9673V80.6669H34.1146V75.5195Z" fill="#6C63FF"/>
<path opacity="0.1" d="M34.1146 87.4756H28.9673V92.6229H34.1146V87.4756Z" fill="#6C63FF"/>
<path opacity="0.1" d="M34.1146 99.4316H28.9673V104.579H34.1146V99.4316Z" fill="#6C63FF"/>
<path opacity="0.1" d="M165.214 63.6357H160.066V68.7831H165.214V63.6357Z" fill="#6C63FF"/>
<path opacity="0.1" d="M145.564 76.332H140.417V81.4794H145.564V76.332Z" fill="#6C63FF"/>
<path opacity="0.1" d="M165.214 76.332H160.066V81.4794H165.214V76.332Z" fill="#6C63FF"/>
<path opacity="0.1" d="M145.564 89.0266H140.417V94.1739H145.564V89.0266Z" fill="#6C63FF"/>
<path opacity="0.1" d="M165.214 89.0266H160.066V94.1739H165.214V89.0266Z" fill="#6C63FF"/>
<path opacity="0.1" d="M145.564 101.723H140.417V106.87H145.564V101.723Z" fill="#6C63FF"/>
<path opacity="0.1" d="M165.214 101.723H160.066V106.87H165.214V101.723Z" fill="#6C63FF"/>
<path opacity="0.1" d="M145.564 114.419H140.417V119.567H145.564V114.419Z" fill="#6C63FF"/>
<path opacity="0.1" d="M165.214 114.419H160.066V119.567H165.214V114.419Z" fill="#6C63FF"/>
<path opacity="0.1" d="M140.417 130.433V127.114H145.562V129.961L140.417 130.433Z" fill="#6C63FF"/>
<path opacity="0.1" d="M3.25781 54.0017V56.9464H20.8735V54.0017H3.25781ZM5.01341 56.7618H3.57635V54.1827H5.02426L5.01341 56.7618ZM6.76719 56.7618H5.31928V54.1827H6.76719V56.7618ZM8.51735 56.7618H7.06944V54.1827H8.51735V56.7618ZM10.2711 56.7618H8.82503V54.1827H10.2729L10.2711 56.7618ZM12.0231 56.7618H10.5752V54.1827H12.0231V56.7618ZM13.7769 56.7618H12.329V54.1827H13.7769V56.7618ZM15.5307 56.7618H14.0828V54.1827H15.5307V56.7618ZM17.2826 56.7618H15.8347V54.1827H17.2826V56.7618ZM19.0346 56.7618H17.5867V54.1827H19.0346V56.7618ZM20.7866 56.7618H19.3387V54.1827H20.7866V56.7618Z" fill="#6C63FF"/>
<path opacity="0.1" d="M3.25781 62.5696V65.5143H20.8735V62.5696H3.25781ZM5.01341 65.3278H3.57635V62.756H5.02426L5.01341 65.3278ZM6.76719 65.3278H5.31928V62.756H6.76719V65.3278ZM8.51735 65.3278H7.06944V62.756H8.51735V65.3278ZM10.2711 65.3278H8.82503V62.756H10.2729L10.2711 65.3278ZM12.0231 65.3278H10.5752V62.756H12.0231V65.3278ZM13.7769 65.3278H12.329V62.756H13.7769V65.3278ZM15.5307 65.3278H14.0828V62.756H15.5307V65.3278ZM17.2826 65.3278H15.8347V62.756H17.2826V65.3278ZM19.0346 65.3278H17.5867V62.756H19.0346V65.3278ZM20.7866 65.3278H19.3387V62.756H20.7866V65.3278Z" fill="#6C63FF"/>
<path opacity="0.1" d="M3.25781 71.1414V74.0915H20.8735V71.1414H3.25781ZM5.01341 73.8996H3.57635V71.326H5.02426L5.01341 73.8996ZM6.76719 73.8996H5.31928V71.326H6.76719V73.8996ZM8.51735 73.8996H7.06944V71.326H8.51735V73.8996ZM10.2711 73.8996H8.82503V71.326H10.2729L10.2711 73.8996ZM12.0231 73.8996H10.5752V71.326H12.0231V73.8996ZM13.7769 73.8996H12.329V71.326H13.7769V73.8996ZM15.5307 73.8996H14.0828V71.326H15.5307V73.8996ZM17.2826 73.8996H15.8347V71.326H17.2826V73.8996ZM19.0346 73.8996H17.5867V71.326H19.0346V73.8996ZM20.7866 73.8996H19.3387V71.326H20.7866V73.8996Z" fill="#6C63FF"/>
<path opacity="0.1" d="M3.25781 79.7129V82.654H20.8735V79.7129H3.25781ZM5.01341 82.4712H3.57635V79.8957H5.02426L5.01341 82.4712ZM6.76719 82.4712H5.31928V79.8957H6.76719V82.4712ZM8.51735 82.4712H7.06944V79.8957H8.51735V82.4712ZM10.2711 82.4712H8.82503V79.8957H10.2729L10.2711 82.4712ZM12.0231 82.4712H10.5752V79.8957H12.0231V82.4712ZM13.7769 82.4712H12.329V79.8957H13.7769V82.4712ZM15.5307 82.4712H14.0828V79.8957H15.5307V82.4712ZM17.2826 82.4712H15.8347V79.8957H17.2826V82.4712ZM19.0346 82.4712H17.5867V79.8957H19.0346V82.4712ZM20.7866 82.4712H19.3387V79.8957H20.7866V82.4712Z" fill="#6C63FF"/>
<path opacity="0.1" d="M3.33398 88.2827C3.40457 88.5596 3.4842 88.8365 3.56746 89.1098V88.4673H5.01537V91.041H4.24074C4.26427 91.1007 4.28779 91.1659 4.31132 91.222H20.8736V88.2827H3.33398ZM6.77277 91.041H5.32486V88.4673H6.77277V91.041ZM8.52294 91.041H7.07503V88.4673H8.52294V91.041ZM10.2767 91.041H8.82519V88.4673H10.2731L10.2767 91.041ZM12.0287 91.041H10.5808V88.4673H12.0287V91.041ZM13.7825 91.041H12.3346V88.4673H13.7825V91.041ZM15.5363 91.041H14.0883V88.4673H15.5363V91.041ZM17.2882 91.041H15.8403V88.4673H17.2882V91.041ZM19.0402 91.041H17.5923V88.4673H19.0402V91.041ZM20.7922 91.041H19.3443V88.4673H20.7922V91.041Z" fill="#6C63FF"/>
<path opacity="0.1" d="M7.42432 96.8545C7.46956 96.9124 7.513 96.9776 7.56006 97.0355H8.51749V98.2716C8.62065 98.3947 8.72201 98.5178 8.82698 98.6336V97.0282H10.2749V99.6109H9.68849C9.7464 99.6707 9.80251 99.734 9.86948 99.7919H20.879V96.8545H7.42432ZM12.0232 99.6109H10.5753V97.0391H12.0232V99.6109ZM13.777 99.6109H12.3291V97.0391H13.777V99.6109ZM15.5308 99.6109H14.0829V97.0391H15.5308V99.6109ZM17.2828 99.6109H15.8349V97.0391H17.2828V99.6109ZM19.0348 99.6109H17.5868V97.0391H19.0348V99.6109ZM20.7867 99.6109H19.3388V97.0391H20.7867V99.6109Z" fill="#6C63FF"/>
<path opacity="0.1" d="M17.0874 105.424C17.2521 105.518 17.4204 105.605 17.5906 105.699V105.609H19.0385V106.423L19.3461 106.566V105.609H20.7941V107.174C20.8218 107.188 20.8509 107.199 20.8809 107.207V105.424H17.0874Z" fill="#6C63FF"/>
<path opacity="0.1" d="M113.772 86.6738C113.806 86.7896 113.835 86.9054 113.868 87.0195C113.839 86.9054 113.808 86.7896 113.772 86.6738ZM27.2354 33.3291V34.1019H35.3201V33.3291H27.2354ZM113.772 86.6738C113.806 86.7896 113.835 86.9054 113.868 87.0195C113.839 86.9054 113.808 86.7896 113.772 86.6738ZM113.772 86.6738C113.806 86.7896 113.835 86.9054 113.868 87.0195C113.839 86.9054 113.808 86.7896 113.772 86.6738Z" fill="#6C63FF"/>
<path d="M83.5446 68.7161C83.5446 68.7161 82.8315 68.6166 82.8315 67.5777C82.8315 66.5389 82.3211 64.5986 82.3211 64.5986C82.3211 64.5896 81.8795 61.2196 81.2695 60.6839C80.6596 60.1481 79.8759 57.0025 79.8759 57.0025C79.8759 57.0025 79.742 55.2958 79.4687 54.9284C79.1954 54.561 78.8262 53.6615 78.2814 52.3783C77.7366 51.0951 75.4652 50.2064 75.4652 50.2064C75.4652 50.2064 71.3586 47.8246 70.1948 47.0482C70.089 46.9844 69.9902 46.9098 69.8998 46.8255C69.6971 46.5595 68.8139 46.5541 68.8139 46.5541C68.7216 45.9713 68.6329 45.3016 68.6039 44.6953C68.6039 44.6301 68.6039 44.565 68.5949 44.4998C69.8925 43.7328 70.87 42.5233 71.3477 41.0936C71.3694 41.0248 71.3875 40.9524 71.4074 40.8837C71.4852 40.8581 71.5568 40.8165 71.6175 40.7616C71.6783 40.7068 71.727 40.6399 71.7604 40.5651C71.8653 40.3317 71.8672 40.0584 71.9975 39.8412C72.1495 39.5842 72.4391 39.4466 72.6671 39.253C73.2427 38.7643 73.3911 37.9408 73.3639 37.1915C73.3458 36.5852 73.2481 35.9734 73.2861 35.3707L73.297 35.2187C73.3078 35.1282 73.3205 35.0377 73.3368 34.9509C73.4255 34.502 73.6191 34.0785 73.7277 33.6333C73.8363 33.188 73.8472 32.6867 73.5938 32.303C73.2228 31.7401 72.4499 31.6279 71.7712 31.57C71.002 31.5048 70.3143 31.5899 69.822 30.951C69.5916 30.6171 69.3324 30.304 69.0473 30.0153C68.946 29.9212 67.9614 29.3203 67.9614 29.2805C67.0005 28.8354 65.9112 28.7519 64.8937 29.0452C64.3833 29.1936 63.9018 29.4361 63.3842 29.5574C62.2675 29.8216 60.9825 29.5357 60.0341 30.1746C59.5056 30.5365 59.1889 31.1121 58.8921 31.6731C58.6507 32.1353 58.4058 32.5968 58.1572 33.0577C57.7573 33.8161 57.35 34.5871 57.1817 35.4269C57.1463 35.6096 57.1245 35.7947 57.1166 35.9807V35.9897C57.1166 36.0567 57.1166 36.1237 57.1166 36.1906V36.2757C57.1166 36.339 57.1166 36.4006 57.1274 36.4567C57.1383 36.5128 57.1365 36.5309 57.1419 36.5689C57.1473 36.6069 57.1564 36.692 57.1672 36.7499C57.1781 36.8078 57.1998 36.9092 57.2215 36.9888C57.2306 37.0232 57.2432 37.0558 57.2541 37.0883C57.2722 37.1499 57.2939 37.2096 57.3175 37.2693C57.3301 37.3001 57.3428 37.3327 57.3573 37.3634C57.3844 37.4268 57.417 37.4883 57.4496 37.5444C57.4641 37.5698 57.4749 37.5933 57.4894 37.6168C57.5399 37.701 57.5955 37.782 57.6559 37.8593C58.0432 38.3426 58.6133 38.6503 59.035 39.1027C59.035 39.1208 59.035 39.1389 59.035 39.1552C59.035 39.2059 59.035 39.2548 59.035 39.3054C59.0574 40.3146 59.326 41.3029 59.8174 42.1846C60.3089 43.0662 61.0083 43.8144 61.8548 44.3641C61.8548 44.4329 61.8639 44.5035 61.8675 44.5722C61.9028 45.1095 61.8962 45.6486 61.8476 46.1848C61.7739 46.098 61.6817 46.0289 61.5776 45.9825C61.4736 45.9362 61.3606 45.9138 61.2467 45.917C61.169 45.9132 61.091 45.9199 61.0151 45.9369L60.9988 45.9242V45.9405C60.6006 46.0382 60.1101 46.4527 59.6414 47.6309C59.6414 47.6309 58.2152 49.2381 57.1292 49.1712C56.0433 49.1042 53.2941 50.8435 53.2941 50.8435C53.2941 50.8435 50.6118 52.5846 50.0363 54.3583C49.7146 55.3641 49.3289 56.3482 48.8816 57.3048L45.5658 64.1371L44.9541 69.5578C44.9541 69.5578 45.2926 71.9685 45.2256 72.3359C45.1586 72.7033 46.6174 76.0172 46.6174 76.0172C46.6174 76.0172 51.4371 84.4857 53.4063 84.9201L53.5475 84.8205C53.6317 84.8646 53.7211 84.898 53.8135 84.9201L54.2189 84.6341C54.2433 84.9528 54.233 85.2733 54.1882 85.5897C53.9167 86.4259 54.2895 91.8827 54.7637 92.9524C55.2379 94.022 55.0696 108.047 55.0696 108.047L55.0026 109.285C55.0026 109.285 55.0026 109.325 55.0189 109.393L55.0026 109.687L55.0515 109.712C55.1022 110.105 55.0857 110.503 55.0026 110.89C54.8325 111.433 54.7637 112.968 54.7637 112.968C54.7637 112.968 53.4081 121.634 54.0506 123.375C54.6931 125.116 55.2397 127.024 55.2397 127.024C55.2397 127.024 55.9184 129.195 55.2723 129.566C54.6262 129.937 52.7891 130.56 53.1674 131.465C53.5113 132.301 54.8162 134.542 55.0098 134.869L54.9936 135.041L54.7275 137.925C54.7706 138.305 54.8738 138.677 55.0334 139.025C55.3248 139.653 55.8913 140.305 56.9681 140.234C57.1491 140.221 57.3591 140.2 57.5618 140.172C59.5328 139.908 61.9598 139.029 61.9598 139.029C61.8338 138.948 61.7183 138.853 61.6159 138.744C61.5191 138.651 61.4423 138.538 61.3903 138.413C61.3384 138.289 61.3123 138.155 61.3137 138.02C61.3427 137.496 60.3599 134.994 60.1155 134.379C60.0775 134.29 60.0576 134.24 60.0576 134.24C60.0576 134.24 62.2983 131.898 61.9254 129.822C61.9254 129.822 59.4459 128.374 60.2621 127.579C61.0784 126.785 62.5372 124.502 62.5372 124.502C62.5372 124.502 62.6041 115.969 62.5372 114.695C62.4673 113.81 62.5093 112.921 62.6621 112.047C62.6892 111.915 62.7218 111.786 62.7562 111.659C63.885 111.828 65.0246 111.914 66.166 111.918C66.5823 111.918 67.0058 111.918 67.4329 111.893C67.4329 112.014 67.4384 112.144 67.4492 112.284C67.5433 114.398 67.7189 118.104 67.8619 119.482C68.0646 121.456 69.1849 126.777 69.1849 126.777C69.1849 126.777 67.0474 128.149 69.5577 131.53C69.5577 131.53 69.5577 132.755 69.3912 132.933C69.2135 133.513 69.0702 134.103 68.9623 134.699C68.8573 135.336 68.8139 135.981 68.984 136.316C69.3912 137.115 71.8346 137.05 71.8346 137.05L71.8943 137.039C72.3556 136.992 72.8217 137.036 73.2657 137.17C73.7097 137.304 74.1227 137.525 74.4806 137.82C75.4091 138.565 78.933 138.238 80.8406 138.001C81.5881 137.906 82.0876 137.82 82.0876 137.82C82.1118 137.735 82.1204 137.647 82.1129 137.559C82.093 137.09 81.7256 136.062 79.2352 135.145C79.2352 135.145 76.8932 133.57 76.9258 132.198H76.8769H76.6054C76.8027 132.187 76.9294 132.198 76.9294 132.198C76.9294 132.198 76.0118 128.85 76.3864 128.578C76.7611 128.307 75.639 124.596 75.639 124.596C75.639 124.596 74.9965 118.37 74.9621 117.934C74.9635 117.56 75.0202 117.188 75.1304 116.83L74.9621 113.417C74.9621 113.417 74.9295 112.282 74.9621 111.913C74.9566 111.592 74.9306 111.272 74.8842 110.955C74.868 110.829 74.8517 110.697 74.8336 110.566C75.7114 110.344 76.2815 110.137 76.2815 110.137L76.1801 98.2553C76.9258 96.8074 77.0634 93.6311 77.0597 91.3778C77.0597 89.9299 76.9946 88.8584 76.9946 88.8584L78.0135 87.1951C78.0135 87.1951 78.2488 85.2042 77.876 84.7681C77.7113 84.5708 77.7855 84.3663 77.9212 84.1979C77.9917 84.142 78.0661 84.0912 78.1439 84.0459C78.1439 84.0459 78.133 84.0296 78.1203 84.0061C78.1915 83.9467 78.2671 83.8928 78.3466 83.845C78.3466 83.845 77.9846 83.2839 78.3086 83.0468C78.6126 83.2532 78.8841 83.4088 79.0904 83.5355C79.0759 83.6676 79.0615 83.7437 79.0615 83.7437L79.1483 83.5627C79.3474 83.6749 79.4687 83.7437 79.4687 83.7437C79.4687 83.7437 81.065 80.5637 81.0306 80.0949C80.9962 79.6262 82.1166 77.6516 82.1166 77.6516C82.1166 77.6516 82.2523 76.6145 82.864 76.1801C83.4758 75.7458 83.3382 72.5984 83.3382 72.5984C83.3382 72.5984 83.5084 70.9586 83.9156 70.2889C84.3228 69.6193 83.5446 68.7161 83.5446 68.7161ZM53.0009 67.3207L53.0316 68.0791C52.8506 67.7877 52.7203 67.5777 52.7203 67.5777L53.0009 67.3207Z" fill="url(#paint0_linear_1_25175)"/>
<path d="M79.5555 82.3699L79.1645 84.035C79.1645 84.035 76.0334 82.4369 75.4687 80.4062C74.9041 78.3755 76.4135 77.6045 76.4135 77.6045L79.331 78.8406L79.5555 82.3699Z" fill="white"/>
<path opacity="0.1" d="M79.5555 82.3699L79.1645 84.035C79.1645 84.035 76.0334 82.4369 75.4687 80.4062C74.9041 78.3755 76.4135 77.6045 76.4135 77.6045L79.331 78.8406L79.5555 82.3699Z" fill="black"/>
<path d="M61.9833 139.039C61.9833 139.039 59.0875 140.103 57.0966 140.237C56.0396 140.308 55.484 139.66 55.198 139.036C55.0418 138.688 54.9411 138.319 54.8994 137.941L55.1582 135.072L55.2958 133.544L59.5255 132.446L60.1246 134.277L60.1807 134.417C60.4214 135.029 61.3861 137.517 61.3571 138.037C61.3559 138.17 61.3816 138.301 61.4326 138.424C61.4836 138.547 61.5589 138.658 61.6539 138.751C61.751 138.861 61.8617 138.958 61.9833 139.039Z" fill="white"/>
<path d="M81.7637 137.581C81.7709 137.668 81.7623 137.755 81.7383 137.839C81.7383 137.839 75.5449 138.873 74.278 137.839C73.9208 137.537 73.5044 137.314 73.0556 137.182C72.6067 137.05 72.1354 137.014 71.6717 137.076C71.6717 137.076 69.2754 137.141 68.8754 136.352C68.7089 136.02 68.7524 135.378 68.8555 134.744C68.9608 134.151 69.101 133.564 69.2754 132.987L69.3713 132.911L69.9415 132.453L76.6163 132.256H76.667C76.6344 133.621 78.933 135.186 78.933 135.186C81.3745 136.091 81.7347 137.114 81.7637 137.581Z" fill="white"/>
<path opacity="0.1" d="M81.7637 137.58C81.77 137.668 81.7608 137.755 81.7365 137.839C81.7365 137.839 75.5449 138.873 74.278 137.839C73.921 137.538 73.5049 137.314 73.0564 137.182C72.6079 137.051 72.1369 137.014 71.6735 137.076C71.6735 137.076 69.2754 137.141 68.8773 136.352C68.7108 136.019 68.7524 135.378 68.8555 134.744C69.7786 134.837 71.2355 135.067 71.8075 135.615C72.6726 136.449 74.1386 137.282 75.0381 137.347C75.7422 137.392 79.9538 137.526 81.7637 137.58Z" fill="black"/>
<path opacity="0.1" d="M61.9832 139.039C61.9832 139.039 59.0873 140.103 57.0965 140.237C56.0395 140.308 55.4839 139.66 55.1997 139.034C55.9363 139.282 56.9589 139.542 57.4965 139.303C58.1335 139.021 60.3923 138.838 61.6592 138.76C61.7556 138.866 61.8644 138.96 61.9832 139.039Z" fill="black"/>
<path d="M66.2802 53.2778C63.8911 52.3493 60.8179 49.2816 61.5853 47.8481C61.7557 47.4864 61.857 47.096 61.8839 46.697C61.9333 46.1555 61.9406 45.6108 61.9056 45.0681C61.8518 44.1793 61.7449 43.2945 61.5853 42.4185C61.5853 42.4185 69.0438 42.5868 68.6095 43.6854C68.4828 44.0075 68.4629 44.5668 68.4973 45.193C68.5317 45.8192 68.6221 46.5269 68.7163 47.126C68.8466 47.9477 68.9769 48.5739 68.9769 48.5739C68.9769 48.5739 68.5208 49.2128 68.2529 49.2472C67.9851 49.2816 69.7081 54.6008 66.2802 53.2778Z" fill="#CF6F80"/>
<path opacity="0.1" d="M60.1753 134.417L60.1192 134.478C57.8894 131.782 55.1926 135.143 55.1926 135.143L55.1528 135.072L55.2904 133.544L59.5201 132.446L60.1192 134.277L60.1753 134.417Z" fill="black"/>
<path opacity="0.1" d="M76.6688 132.446C76.6688 132.446 75.0399 132.411 74.1712 133.179C73.3024 133.946 69.1035 133.345 69.2845 133.179C69.3381 133.096 69.3704 133.002 69.3786 132.904L69.9487 132.446L76.6236 132.249C76.6489 132.37 76.6688 132.446 76.6688 132.446Z" fill="black"/>
<path d="M54.9229 113.087L55.0228 113.092L55.0228 113.092L55.0228 113.092L55.0228 113.091L55.023 113.088L55.0236 113.075L55.026 113.026C55.0282 112.983 55.0315 112.921 55.036 112.846C55.045 112.694 55.0587 112.487 55.0775 112.263C55.1155 111.811 55.1733 111.306 55.2519 111.052L55.2523 111.052L55.2541 111.043C55.3394 110.648 55.3566 110.24 55.3047 109.839C55.2937 109.706 55.281 109.595 55.2719 109.521C55.2679 109.487 55.2641 109.462 55.2612 109.443L55.2681 109.431L55.2681 109.431L55.2698 109.428L56.1344 107.816L56.1355 107.817C56.1886 107.835 56.2666 107.863 56.3658 107.898C56.5641 107.969 56.847 108.071 57.1852 108.197C57.8617 108.448 58.7586 108.795 59.6416 109.175C60.5256 109.555 61.3915 109.966 62.0081 110.347C62.3172 110.538 62.5575 110.717 62.7062 110.878C62.8608 111.044 62.8872 111.157 62.8572 111.231L62.857 111.231C62.7333 111.537 62.6393 111.854 62.5765 112.178L62.5764 112.178L62.5761 112.18C62.4238 113.057 62.3814 113.95 62.45 114.839C62.4832 115.47 62.4832 117.904 62.4749 120.185C62.4707 121.326 62.4644 122.426 62.4592 123.242C62.4566 123.65 62.4542 123.987 62.4525 124.221L62.4505 124.493L62.45 124.56L62.4491 124.561L62.4025 124.634C62.3619 124.697 62.303 124.789 62.2298 124.901C62.0835 125.125 61.88 125.432 61.6518 125.764C61.1934 126.431 60.6408 127.189 60.2493 127.581C60.134 127.696 60.0734 127.827 60.0612 127.968C60.0492 128.106 60.0847 128.246 60.1472 128.379C60.2711 128.644 60.5119 128.909 60.7681 129.141C61.0262 129.374 61.3086 129.581 61.5257 129.729C61.6344 129.803 61.7272 129.863 61.7929 129.905C61.819 129.921 61.8409 129.935 61.8578 129.945C62.0117 130.927 61.5758 131.979 61.083 132.803C60.8343 133.218 60.5742 133.57 60.3762 133.819C60.2772 133.943 60.1939 134.041 60.1355 134.107C60.13 134.114 60.1246 134.12 60.1195 134.126C59.5701 133.496 58.9881 133.209 58.418 133.145C57.8249 133.078 57.2582 133.253 56.7711 133.511C56.2838 133.768 55.8696 134.111 55.5781 134.388C55.4321 134.526 55.3162 134.649 55.2367 134.737C55.226 134.749 55.2161 134.76 55.2067 134.771C55.1664 134.701 55.1104 134.603 55.0429 134.484C54.8999 134.233 54.7054 133.888 54.4996 133.515C54.0866 132.767 53.6319 131.913 53.4519 131.467C53.3753 131.278 53.4091 131.103 53.5218 130.933C53.6376 130.758 53.8342 130.593 54.0715 130.438C54.3075 130.283 54.5754 130.144 54.8265 130.02C54.8864 129.991 54.9457 129.962 55.0034 129.933C55.1844 129.845 55.35 129.764 55.4727 129.693C55.6749 129.575 55.7562 129.326 55.7835 129.066C55.8115 128.799 55.7866 128.484 55.7428 128.187C55.6989 127.889 55.635 127.603 55.5823 127.392C55.5559 127.287 55.5322 127.2 55.5151 127.139C55.5066 127.109 55.4997 127.085 55.4949 127.069L55.4893 127.05L55.4879 127.045L55.4879 127.045L55.4878 127.045L55.4878 127.045L55.4875 127.044L55.4874 127.044L55.4873 127.043L55.4873 127.043L55.4863 127.04L55.4817 127.023L55.4636 126.96C55.4477 126.904 55.4243 126.823 55.3943 126.721C55.3342 126.515 55.2476 126.223 55.1411 125.877C54.9282 125.185 54.6357 124.276 54.3182 123.407C54.2442 123.205 54.1963 122.893 54.1722 122.493C54.1483 122.096 54.1483 121.621 54.1661 121.097C54.2018 120.048 54.3086 118.811 54.4355 117.626C54.5622 116.441 54.7088 115.31 54.8237 114.475C54.8812 114.058 54.9307 113.715 54.9658 113.476C54.9834 113.356 54.9974 113.263 55.007 113.2L55.0179 113.127L55.0208 113.109L55.0215 113.104L55.0216 113.103L55.0217 113.103L54.9229 113.087ZM54.9229 113.087L55.0228 113.092L55.0223 113.103L54.9229 113.087Z" fill="#6C63FF" stroke="#6C63FF" stroke-width="0.2"/>
<path d="M69.0887 126.844L69.1866 126.824L69.2005 126.891L69.0887 126.844ZM69.0887 126.844L69.1866 126.824L69.1866 126.824L69.1864 126.823L69.1858 126.82L69.1835 126.809L69.1742 126.764L69.139 126.593C69.1085 126.444 69.0648 126.23 69.0117 125.967C68.9055 125.44 68.7618 124.717 68.6118 123.933C68.3117 122.363 67.9877 120.553 67.8887 119.576L67.8887 119.576C67.7497 118.208 67.5779 114.525 67.4855 112.419L67.4855 112.419C67.4656 111.966 67.4498 111.585 67.4389 111.316L67.4265 111.003L67.4255 110.977M69.0887 126.844L69.6133 110.536M67.3223 110.895L67.4222 110.892L67.4222 110.892L67.4222 110.892L67.4222 110.892L67.4223 110.894L67.4225 110.899L67.4233 110.92L67.4255 110.977M67.3223 110.895L67.342 110.994L67.4255 110.977M67.3223 110.895L69.3349 110.49L69.5937 110.438L74.3496 109.484L67.3856 112.423C67.3458 111.518 67.3223 110.895 67.3223 110.895ZM67.4255 110.977L69.3546 110.588L69.3547 110.588L69.6133 110.536M69.6133 110.536L69.6136 110.536L74.3641 109.583L74.3712 109.631C74.3851 109.727 74.4047 109.864 74.4271 110.023C74.4718 110.341 74.5278 110.752 74.573 111.121L74.5729 111.121L74.5732 111.123C74.6175 111.433 74.6425 111.746 74.6482 112.059C74.6318 112.248 74.632 112.624 74.636 112.947C74.6381 113.112 74.6411 113.265 74.6437 113.377L74.6469 113.511L74.6479 113.548L74.6482 113.557L74.6483 113.56L74.6483 113.56L74.6483 113.561L74.6483 113.561L74.7482 113.558L74.6483 113.561L74.6484 113.563L74.8122 116.943C74.7051 117.303 74.6499 117.677 74.6482 118.053L74.6479 118.053L74.6485 118.061C74.6649 118.279 74.8312 119.938 74.9931 121.539C75.0741 122.34 75.1541 123.128 75.2138 123.715L75.2858 124.423L75.3059 124.62L75.3112 124.672L75.3125 124.685L75.3129 124.689L75.313 124.689L75.313 124.69L75.4125 124.68M69.6133 110.536L69.5507 131.571L69.5507 131.571L69.5507 131.571L69.5507 131.572L69.5507 131.574L69.5508 131.585L69.551 131.625C69.551 131.659 69.5509 131.709 69.5501 131.768C69.5486 131.887 69.5448 132.048 69.5351 132.215C69.5256 132.38 69.5101 132.554 69.4851 132.699C69.4726 132.771 69.4572 132.839 69.438 132.895C69.432 132.913 69.4252 132.93 69.4172 132.948C69.4231 132.95 69.4294 132.952 69.4361 132.954C69.5292 132.983 69.6769 133.016 69.8665 133.049C70.2443 133.115 70.7757 133.181 71.3404 133.218C71.9054 133.255 72.5003 133.262 73.006 133.214C73.2588 133.191 73.487 133.153 73.6768 133.099C73.868 133.045 74.0125 132.976 74.1051 132.895C74.5607 132.498 75.2077 132.313 75.729 132.226C75.9915 132.182 76.2262 132.162 76.3953 132.153C76.4504 132.151 76.4987 132.149 76.5387 132.148C76.5371 132.141 76.5354 132.135 76.5336 132.128C76.5094 132.036 76.4754 131.904 76.4357 131.745C76.3563 131.427 76.2544 131 76.1641 130.564C76.0739 130.129 75.9948 129.682 75.9619 129.326C75.9456 129.149 75.9402 128.989 75.9522 128.863C75.9581 128.8 75.9687 128.742 75.9865 128.692C76.0038 128.644 76.0314 128.594 76.078 128.56C76.0779 128.56 76.0857 128.553 76.0943 128.524C76.1035 128.494 76.1103 128.449 76.113 128.39C76.1184 128.272 76.1071 128.113 76.0822 127.923C76.0326 127.544 75.9313 127.062 75.8177 126.584C75.7041 126.107 75.5789 125.638 75.4819 125.288C75.4334 125.113 75.3921 124.968 75.3629 124.867C75.3483 124.816 75.3367 124.776 75.3288 124.749L75.3197 124.719L75.3174 124.711L75.3168 124.709L75.3167 124.708L75.3166 124.708L75.4125 124.68M75.4125 124.68L75.313 124.69L75.3139 124.699L75.3166 124.708L75.4125 124.68ZM69.1433 126.928L69.1432 126.928L69.1433 126.928ZM69.1433 126.928L69.1434 126.928L69.1433 126.928ZM74.4623 109.563C74.4994 109.818 74.5997 110.516 74.6722 111.109L74.4623 109.563Z" fill="#6C63FF" stroke="#6C63FF" stroke-width="0.2"/>
<path opacity="0.1" d="M68.6091 43.6854C68.4824 44.0075 68.4625 44.5668 68.4969 45.193C67.4979 45.7946 66.3494 46.1022 65.1834 46.0804C64.0174 46.0587 62.8812 45.7084 61.9053 45.0699C61.8516 44.1805 61.7446 43.2951 61.585 42.4185C61.585 42.4185 69.0435 42.5832 68.6091 43.6854Z" fill="black"/>
<path d="M71.4926 39.6855C71.494 40.3377 71.3914 40.986 71.1885 41.6058C70.7351 42.9947 69.8052 44.1785 68.5634 44.9481C67.3215 45.7177 65.8476 46.0235 64.402 45.8114C62.9565 45.5994 61.6325 44.8832 60.664 43.7893C59.6954 42.6955 59.1448 41.2945 59.1093 39.834C59.1093 39.7833 59.1093 39.7362 59.1093 39.6855C59.0952 38.8634 59.245 38.0467 59.5499 37.2831C59.8548 36.5195 60.3087 35.8242 60.8851 35.2378C61.4616 34.6515 62.149 34.1858 62.9073 33.8679C63.6656 33.55 64.4796 33.3862 65.3018 33.3862C66.1241 33.3862 66.9381 33.55 67.6964 33.8679C68.4547 34.1858 69.1421 34.6515 69.7185 35.2378C70.295 35.8242 70.7489 36.5195 71.0537 37.2831C71.3586 38.0467 71.5084 38.8634 71.4944 39.6855H71.4926Z" fill="#CF6F80"/>
<path opacity="0.1" d="M66.2802 53.2778C63.8911 52.3493 60.8179 49.2815 61.5853 47.8481C61.7557 47.4864 61.857 47.096 61.8839 46.697L65.1544 49.3847L67.1779 51.0444L68.7163 47.1278C68.8466 47.9495 68.9769 48.5757 68.9769 48.5757C68.9769 48.5757 68.5208 49.2146 68.2529 49.249C67.9851 49.2833 69.7081 54.6008 66.2802 53.2778Z" fill="black"/>
<path d="M74.7374 65.156L72.0063 111.037L68.4444 111.27L59.2212 84.6666L60.7343 53.0822L61.0528 46.4092L65.154 49.7774L67.1793 51.4371L68.7629 47.4064L71.7076 49.9728L74.7374 65.156Z" fill="#6C63FF"/>
<path opacity="0.1" d="M62.9498 111.268C62.8285 111.568 62.7363 111.879 62.6747 112.197C60.0829 111.797 57.5657 111.01 55.2071 109.864L55.1582 109.838L55.1745 109.547L55.1835 109.395L56.0885 107.708C56.0885 107.708 63.3841 110.206 62.9498 111.268Z" fill="black"/>
<path opacity="0.1" d="M69.3766 112.204C68.714 112.317 68.0458 112.393 67.3749 112.432C67.3351 111.527 67.3115 110.905 67.3115 110.905L69.3241 110.499L69.3766 112.204Z" fill="black"/>
<path opacity="0.1" d="M74.6616 111.118C73.3747 111.453 71.3875 111.829 69.6083 111.594L69.583 110.447L74.4371 109.473C74.4371 109.473 74.5711 110.369 74.6616 111.118Z" fill="black"/>
<path opacity="0.1" d="M69.5759 111.804C62.1554 113.071 55.3592 109.439 55.3592 109.439L55.4244 108.208C55.4244 108.208 55.5927 94.2555 55.1258 93.1858C54.6588 92.1162 54.295 86.692 54.5593 85.8594C54.8235 85.0269 53.5946 72.5422 53.5946 72.5422L53.3955 67.4746L46.1089 64.5226L49.3667 57.7319C49.8067 56.7798 50.1852 55.8005 50.4997 54.7999C51.0662 53.0371 53.6959 51.305 53.6959 51.305C53.6959 51.305 56.3927 49.5747 57.4587 49.6399C58.5247 49.7051 59.922 48.1087 59.922 48.1087C60.9536 45.479 61.8875 46.6699 61.8875 46.6699C61.8875 46.7948 61.8875 46.6699 61.8368 47.059C61.4748 49.9458 67.69 59.0676 67.7787 59.2287L68.3705 73.6463L68.9696 91.8918L69.5759 111.804Z" fill="black"/>
<path d="M69.3767 111.804C61.9562 113.071 55.1583 109.439 55.1583 109.439L55.2252 108.208C55.2252 108.208 55.3935 94.2553 54.9248 93.1857C54.456 92.1161 54.094 86.6918 54.3601 85.8593C54.6262 85.0267 53.3954 72.5421 53.3954 72.5421L53.1945 67.4744L45.9043 64.5116L49.1621 57.7209C49.6012 56.7684 49.9796 55.7891 50.2951 54.7889C50.8598 53.0261 53.4914 51.294 53.4914 51.294C53.4914 51.294 56.1881 49.5638 57.2523 49.6289C58.3165 49.6941 59.7156 48.0978 59.7156 48.0978C60.749 45.468 61.8874 46.6589 61.8874 46.6589C61.8874 46.7838 61.7788 46.8399 61.8368 47.048C62.6331 49.8479 67.4908 59.0566 67.5795 59.2177L68.1786 73.6353L68.7777 91.8808L69.3767 111.804Z" fill="white"/>
<path opacity="0.1" d="M67.377 59.6285C66.5788 59.2955 62.3509 54.4685 62.3509 54.4685V53.3699C62.1971 53.008 61.2831 53.2288 60.541 53.4821L60.8596 46.8091L61.2215 47.1095C62.0143 49.9076 67.2847 59.4674 67.377 59.6285Z" fill="black"/>
<path d="M67.5775 59.2286C66.7775 58.8956 62.5496 54.0686 62.5496 54.0686V52.97C62.3958 52.6081 61.4818 52.8289 60.7397 53.0822L61.0601 46.4092L61.4221 46.7096C62.2166 49.5077 67.4888 59.0694 67.5775 59.2286Z" fill="white"/>
<path opacity="0.1" d="M55.3589 83.3019C55.4584 83.3019 60.5189 82.7698 60.5189 82.7698C60.5189 82.7698 63.583 88.7949 63.3821 90.2609C63.1812 91.7269 62.8174 93.0246 61.5849 92.7948C60.3524 92.5649 54.9517 92.9757 54.9517 92.9757L55.3589 83.3019Z" fill="black"/>
<path d="M55.1582 82.902C55.2577 82.902 60.3182 82.3699 60.3182 82.3699C60.3182 82.3699 63.3805 88.3968 63.1814 89.861C62.9824 91.3252 62.6149 92.6247 61.3842 92.3949C60.1535 92.165 54.751 92.5758 54.751 92.5758L55.1582 82.902Z" fill="white"/>
<path d="M58.9714 80.073C58.9714 80.073 63.6156 82.5688 63.7151 83.3308C63.8147 84.0928 61.3514 82.9978 60.8193 82.8657C60.4691 82.7813 60.1126 82.7256 59.7533 82.6991L56.2041 82.7951L58.9714 80.073Z" fill="#CF6F80"/>
<path opacity="0.1" d="M66.081 59.94C66.3508 59.94 66.5696 59.7212 66.5696 59.4513C66.5696 59.1814 66.3508 58.9626 66.081 58.9626C65.8111 58.9626 65.5923 59.1814 65.5923 59.4513C65.5923 59.7212 65.8111 59.94 66.081 59.94Z" fill="black"/>
<path d="M66.081 59.7408C66.3508 59.7408 66.5696 59.522 66.5696 59.2521C66.5696 58.9822 66.3508 58.7634 66.081 58.7634C65.8111 58.7634 65.5923 58.9822 65.5923 59.2521C65.5923 59.522 65.8111 59.7408 66.081 59.7408Z" fill="#3F3D56"/>
<path opacity="0.1" d="M66.9804 81.0938C67.2503 81.0938 67.469 80.875 67.469 80.6051C67.469 80.3352 67.2503 80.1165 66.9804 80.1165C66.7105 80.1165 66.4917 80.3352 66.4917 80.6051C66.4917 80.875 66.7105 81.0938 66.9804 81.0938Z" fill="black"/>
<path d="M66.9804 80.8931C67.2503 80.8931 67.469 80.6743 67.469 80.4044C67.469 80.1346 67.2503 79.9158 66.9804 79.9158C66.7105 79.9158 66.4917 80.1346 66.4917 80.4044C66.4917 80.6743 66.7105 80.8931 66.9804 80.8931Z" fill="#3F3D56"/>
<path opacity="0.1" d="M66.5678 70.5169C66.8377 70.5169 67.0564 70.2981 67.0564 70.0282C67.0564 69.7583 66.8377 69.5396 66.5678 69.5396C66.2979 69.5396 66.0791 69.7583 66.0791 70.0282C66.0791 70.2981 66.2979 70.5169 66.5678 70.5169Z" fill="black"/>
<path d="M66.5678 70.3179C66.8377 70.3179 67.0564 70.0991 67.0564 69.8292C67.0564 69.5594 66.8377 69.3406 66.5678 69.3406C66.2979 69.3406 66.0791 69.5594 66.0791 69.8292C66.0791 70.0991 66.2979 70.3179 66.5678 70.3179Z" fill="#3F3D56"/>
<path d="M77.8326 82.5978C77.8326 82.5978 78.1656 83.0974 77.8326 83.3308C77.4996 83.5643 77.8652 84.129 77.8652 84.129C77.8652 84.129 77.0344 84.6159 77.4 85.0538C77.7656 85.4918 77.5339 87.47 77.5339 87.47L76.5349 89.1243C76.5349 89.1243 76.5946 90.1903 76.5982 91.631C76.5982 93.8789 76.4661 97.0389 75.7349 98.4796L75.8363 110.3C75.8363 110.3 72.3378 111.578 69.4094 111.189L68.975 92.221C68.975 92.221 69.6084 81.4648 69.8419 79.4016C69.9785 78.3304 70.0342 77.2504 70.0084 76.1709C70.0084 76.1709 69.9089 72.9421 69.5741 71.4435C69.5741 71.4435 69.2121 64.9514 69.1759 63.1542C69.1596 62.2945 69.2048 59.786 69.2555 57.4005C69.3116 54.7925 69.375 52.3329 69.375 52.3329L68.7144 47.1059C68.7144 47.1059 69.375 47.0389 69.5741 47.305C69.6632 47.3883 69.7602 47.4628 69.8636 47.5276C71.0039 48.2986 75.0327 50.6696 75.0327 50.6696C75.0327 50.6696 77.2625 51.5564 77.7964 52.827C78.3303 54.0975 78.7013 54.9988 78.9601 55.3608C79.219 55.7228 79.3601 57.4241 79.3601 57.4241C79.3601 57.4241 80.1275 60.5552 80.7266 61.0855C81.3257 61.6158 81.7637 64.9894 81.7637 64.9894L76.4697 69.1522C76.4697 69.1522 76.0046 76.0768 75.905 76.3447C75.8055 76.6125 77.8326 82.5978 77.8326 82.5978Z" fill="white"/>
<path d="M78.0335 82.5979C78.0335 82.5979 78.3647 83.0974 78.0335 83.3309C77.7022 83.5643 78.0642 84.129 78.0642 84.129C78.0642 84.129 77.2389 84.6213 77.6009 85.0593C77.9629 85.4973 77.7348 87.4755 77.7348 87.4755L76.7358 89.1297C76.7358 89.1297 76.7955 90.1958 76.8009 91.6364C76.8009 93.8843 76.6688 97.0444 75.9376 98.4851L76.0371 110.305C76.0371 110.305 72.5332 111.583 69.6084 111.194L69.1759 92.2265C69.1759 92.2265 69.8093 81.4703 70.0428 79.407C70.1796 78.3359 70.2346 77.2559 70.2075 76.1764C70.2075 76.1764 70.1079 72.9475 69.7749 71.4489C69.7749 71.4489 69.4129 64.9569 69.3749 63.1596C69.3587 62.2999 69.4057 59.7914 69.4546 57.406C69.5107 54.798 69.574 52.3383 69.574 52.3383L68.7017 47.0408C68.7017 47.0408 69.574 47.0408 69.7749 47.3104C69.8633 47.3947 69.9603 47.4694 70.0645 47.5331C71.2047 48.3041 75.2354 50.675 75.2354 50.675C75.2354 50.675 77.4633 51.5619 77.9973 52.8324C78.5312 54.103 78.9022 55.0043 79.1628 55.3663C79.4234 55.7282 79.561 57.4295 79.561 57.4295C79.561 57.4295 80.3284 60.5606 80.9275 61.0909C81.5265 61.6212 81.9591 64.9876 81.9591 64.9876L76.6652 69.1504C76.6652 69.1504 76.2 76.075 76.0987 76.3429C75.9973 76.6107 78.0335 82.5979 78.0335 82.5979Z" fill="white"/>
<path opacity="0.1" d="M71.6932 53.875L72.171 55.2686L69.6553 57.8025C69.7114 55.1962 69.7747 52.7348 69.7747 52.7348L68.9023 47.4373C68.9023 47.4373 69.7747 47.4373 69.9756 47.7069C70.0637 47.791 70.1608 47.865 70.2652 47.9277L72.4045 54.0995L71.6932 53.875Z" fill="black"/>
<path d="M71.4925 53.4749L71.9721 54.8685L69.4564 57.4023C69.5125 54.7943 69.5758 52.3347 69.5758 52.3347L68.7017 47.0371C68.7017 47.0371 69.5758 47.0371 69.7749 47.3068C69.8637 47.3906 69.9607 47.4651 70.0645 47.5294L72.2056 53.6993L71.4925 53.4749Z" fill="white"/>
<path opacity="0.1" d="M71.4926 39.6855C71.494 40.3377 71.3914 40.986 71.1885 41.6058C71.1543 41.6112 71.1194 41.6096 71.0858 41.6012C71.0522 41.5928 71.0207 41.5778 70.993 41.557C70.946 39.9281 70.1442 38.3987 69.1578 37.0974C68.8809 36.7045 68.5451 36.3565 68.1624 36.0658C67.7754 35.7751 67.2941 35.639 66.8122 35.6839C66.2692 35.7581 65.7896 36.1273 65.2412 36.1744C64.5173 36.2341 63.8693 35.7327 63.1508 35.7074C62.8587 35.7102 62.5705 35.7752 62.3056 35.8982C62.0406 36.0212 61.8049 36.1992 61.6142 36.4205C61.2367 36.8671 60.9563 37.3873 60.7907 37.948C60.5061 38.7984 60.3511 39.6868 60.331 40.5832C60.3219 41.09 60.2731 41.7253 59.8025 41.9099C59.8379 41.5372 59.7956 41.1612 59.6781 40.8057C59.5607 40.4503 59.3707 40.123 59.1202 39.8448L59.1093 39.834C59.1093 39.7833 59.1093 39.7362 59.1093 39.6855C59.0952 38.8634 59.245 38.0467 59.5499 37.2831C59.8548 36.5195 60.3087 35.8242 60.8851 35.2378C61.4616 34.6515 62.149 34.1858 62.9073 33.8679C63.6656 33.55 64.4796 33.3862 65.3018 33.3862C66.1241 33.3862 66.9381 33.55 67.6964 33.8679C68.4547 34.1858 69.1421 34.6515 69.7185 35.2378C70.295 35.8242 70.7489 36.5195 71.0537 37.2831C71.3586 38.0467 71.5084 38.8634 71.4944 39.6855H71.4926Z" fill="black"/>
<path d="M67.8656 29.8524C66.9251 29.41 65.8554 29.3263 64.8576 29.6171C64.3562 29.7655 63.8839 30.0062 63.3753 30.1275C62.2893 30.3899 61.0224 30.1057 60.0903 30.741C59.5727 31.103 59.2614 31.6749 58.9718 32.2306L58.2479 33.6097C57.8533 34.3644 57.4551 35.1318 57.2904 35.9625C57.1257 36.7933 57.2253 37.7236 57.752 38.3914C58.1356 38.8783 58.7021 39.1841 59.1184 39.642C59.3678 39.9206 59.557 40.2476 59.6741 40.6026C59.7912 40.9577 59.8337 41.3331 59.7989 41.7053C60.2713 41.5243 60.3166 40.8872 60.3274 40.3805C60.3476 39.484 60.5026 38.5956 60.7871 37.7453C60.9523 37.1843 61.2328 36.664 61.6106 36.2177C61.8015 35.9966 62.0372 35.8187 62.3022 35.6957C62.5671 35.5728 62.8552 35.5076 63.1472 35.5046C63.8712 35.53 64.5209 36.0295 65.2377 35.9698C65.7806 35.9245 66.2621 35.5535 66.8086 35.4811C67.2906 35.4355 67.7722 35.5717 68.1588 35.863C68.5415 36.1533 68.8767 36.5014 69.1524 36.8946C70.1406 38.1959 70.9424 39.7217 70.9895 41.3542C71.194 41.5044 71.489 41.309 71.5904 41.0773C71.6917 40.8456 71.6953 40.5741 71.8238 40.3533C71.9723 40.0981 72.2564 39.9624 72.479 39.7705C73.0437 39.2837 73.1849 38.4638 73.1632 37.7199C73.1414 36.9761 72.9966 36.2214 73.1378 35.4902C73.2229 35.0413 73.4147 34.6214 73.5197 34.178C73.6247 33.7346 73.6374 33.2368 73.3894 32.855C73.0274 32.2939 72.2655 32.1835 71.6012 32.131C70.8465 32.0658 70.1714 32.1491 69.69 31.5138C69.464 31.1823 69.2097 30.8711 68.9298 30.5835C68.8339 30.4894 67.8656 29.8922 67.8656 29.8524Z" fill="#512E4E"/>
<path opacity="0.1" d="M48.1935 68.0192L46.3022 64.5225L45.7031 69.9177C45.7031 69.9177 46.0361 72.314 45.9692 72.6814C45.9022 73.0488 47.3338 76.3428 47.3338 76.3428C47.3338 76.3428 52.0631 84.7661 53.9942 85.2004L60.5189 80.5382L58.7886 78.341C58.7886 78.341 58.1896 78.1075 58.0393 78.341C58.0393 78.341 54.8268 72.8136 54.4938 72.4136C54.1607 72.0136 54.2259 71.2154 54.2259 71.2154C54.2259 71.2154 53.7264 70.6833 53.8929 70.1838C54.0594 69.6843 52.9282 67.9522 52.9282 67.9522L53.9598 66.9875L48.1935 68.0192Z" fill="black"/>
<path d="M46.4018 64.1243L45.9023 64.5224L45.3032 69.9177C45.3032 69.9177 45.6362 72.314 45.5693 72.6814C45.5023 73.0488 46.9357 76.3428 46.9357 76.3428C46.9357 76.3428 51.6632 84.7661 53.5943 85.2004L60.1208 80.5382L58.3887 78.341C58.3887 78.341 57.7896 78.1075 57.6394 78.341C57.6394 78.341 54.4269 72.8135 54.0939 72.4136C53.7608 72.0136 53.8278 71.2154 53.8278 71.2154C53.8278 71.2154 53.3283 70.6833 53.4948 70.1838C53.6613 69.6842 52.5283 67.9522 52.5283 67.9522L53.5599 66.9875L46.4018 64.1243Z" fill="white"/>
<path opacity="0.1" d="M77.3999 85.2603C77.7619 85.7001 77.5339 87.6747 77.5339 87.6747L76.5348 89.3289C76.5348 89.3289 76.5945 90.3967 76.5981 91.8356L74.9186 92.3605C74.7668 92.4079 74.6059 92.4183 74.4492 92.3909C74.2926 92.3634 74.1448 92.2989 74.0181 92.2028C73.8915 92.1066 73.7897 91.9815 73.7212 91.838C73.6527 91.6945 73.6196 91.5367 73.6245 91.3777L73.9141 82.0369L77.8325 83.5355C77.4995 83.7671 77.8651 84.3354 77.8651 84.3354C77.8651 84.3354 77.0343 84.8205 77.3999 85.2603Z" fill="black"/>
<path d="M77.6009 85.0592C77.9629 85.4991 77.7349 87.4755 77.7349 87.4755L76.7358 89.1297C76.7358 89.1297 76.7955 90.1957 76.801 91.6364L75.0906 92.1703C74.942 92.2165 74.7844 92.2265 74.6311 92.1995C74.4778 92.1725 74.3331 92.1093 74.2092 92.0151C74.0853 91.9209 73.9856 91.7985 73.9186 91.658C73.8515 91.5175 73.819 91.363 73.8237 91.2074L74.1151 81.8376L78.0353 83.3362C77.7005 83.5679 78.0661 84.1344 78.0661 84.1344C78.0661 84.1344 77.2389 84.6213 77.6009 85.0592Z" fill="white"/>
<path d="M78.8984 80.607C78.8984 80.607 78.6323 82.3065 77.9663 82.406C77.3003 82.5056 77.0016 85.1553 76.3374 85.0612C75.6732 84.967 76.113 82.5979 76.1365 82.1382C76.16 81.6785 75.4126 79.7745 75.9718 79.3419C76.5311 78.9093 78.3011 79.3419 78.3011 79.3419L78.8984 80.607Z" fill="#CF6F80"/>
<path opacity="0.1" d="M80.3158 67.5197L81.5718 64.9858C81.5718 64.9858 82.0714 66.917 82.0714 67.9486C82.0714 68.9803 82.77 69.0816 82.77 69.0816C82.77 69.0816 83.5356 69.9866 83.132 70.6454C82.7284 71.3042 82.5655 72.9439 82.5655 72.9439C82.5655 72.9439 82.6976 76.0732 82.0985 76.5058C81.4994 76.9383 81.3746 77.9718 81.3746 77.9718C81.3746 77.9718 80.2741 79.9355 80.3085 80.4025C80.3429 80.8694 78.7774 84.0313 78.7774 84.0313C78.7774 84.0313 79.543 80.102 75.0816 78.4044C75.0816 78.4044 75.0472 77.0705 75.3802 76.7049C75.7132 76.3393 76.2327 76.1728 75.9069 74.3249C75.5811 72.477 75.8128 70.2689 75.8128 69.8255C75.8128 69.3821 76.8118 66.6166 76.8118 66.6166L80.3158 67.5197Z" fill="black"/>
<path d="M80.8588 64.624L81.9555 64.986C81.9555 64.986 82.4569 66.9172 82.4569 67.9488C82.4569 68.9804 83.1555 69.0818 83.1555 69.0818C83.1555 69.0818 83.9211 69.9867 83.5175 70.6455C83.1139 71.3043 82.9528 72.9441 82.9528 72.9441C82.9528 72.9441 83.0849 76.0734 82.4858 76.5059C81.8868 76.9385 81.7528 77.972 81.7528 77.972C81.7528 77.972 80.6542 79.9357 80.6886 80.4026C80.723 80.8696 79.1556 84.0315 79.1556 84.0315C79.1556 84.0315 79.923 80.1022 75.4599 78.4045C75.4599 78.4045 75.4273 77.0706 75.7603 76.705C76.0933 76.3394 76.6128 76.1729 76.287 74.325C75.9612 72.4771 76.1929 70.2691 76.1929 69.8256C76.1929 69.3822 77.1919 66.6167 77.1919 66.6167L80.8588 64.624Z" fill="white"/>
<path opacity="0.1" d="M56.6333 130.299C56.6333 130.299 58.3817 129.201 59.5291 129.999C60.6766 130.797 56.6333 130.299 56.6333 130.299Z" fill="black"/>
<path opacity="0.1" d="M70.2183 126.902C70.2183 126.902 71.7657 126.703 73.0652 128.102C74.3647 129.501 70.2183 126.902 70.2183 126.902Z" fill="black"/>
<g opacity="0.1">
<path d="M72.4826 39.3744C72.26 39.5662 71.974 39.7038 71.8256 39.959C71.6989 40.178 71.6953 40.4476 71.594 40.6829C71.4926 40.9182 71.1976 41.11 70.9931 40.9616C70.946 39.3327 70.1424 37.8034 69.156 36.5003C68.8803 36.107 68.5451 35.759 68.1624 35.4686C67.775 35.1774 67.2929 35.0412 66.8104 35.0867C66.2675 35.1609 65.7896 35.5302 65.2412 35.5754C64.5173 35.6369 63.8675 35.1356 63.149 35.1103C62.857 35.1132 62.569 35.1785 62.3043 35.3018C62.0396 35.4251 61.8043 35.6035 61.6142 35.8252C61.2364 36.2708 60.9559 36.7905 60.7907 37.3509C60.5063 38.2013 60.3514 39.0896 60.331 39.9861C60.3202 40.4911 60.2731 41.1209 59.8062 41.3091C59.817 41.4428 59.817 41.5772 59.8062 41.7109C60.2767 41.5299 60.3238 40.8929 60.3346 40.3861C60.3548 39.4896 60.5098 38.6013 60.7944 37.7509C60.9595 37.1899 61.24 36.6697 61.6179 36.2233C61.8084 36.0023 62.0438 35.8244 62.3084 35.7014C62.573 35.5784 62.8608 35.5133 63.1526 35.5102C63.8766 35.5356 64.5282 36.0351 65.2449 35.9754C65.7878 35.9301 66.2693 35.5591 66.814 35.4867C67.2965 35.4412 67.7787 35.5774 68.166 35.8686C68.5487 36.1589 68.8839 36.507 69.1597 36.9002C70.146 38.2016 70.9496 39.7273 70.9967 41.3598C71.2012 41.51 71.4962 41.3146 71.5976 41.0829C71.6989 40.8512 71.7026 40.5797 71.8292 40.3589C71.9777 40.1037 72.2636 39.968 72.4862 39.7762C73.0509 39.2893 73.1921 38.4694 73.1704 37.7256C73.1704 37.702 73.1704 37.6785 73.1704 37.6568C73.136 38.3011 72.964 38.9581 72.4826 39.3744Z" fill="black"/>
<path d="M59.1219 39.2458C58.7056 38.7879 58.1373 38.482 57.7555 37.9969C57.4339 37.5676 57.2502 37.0507 57.2288 36.5146C57.1718 37.1845 57.3589 37.8523 57.7555 38.3951C58.1373 38.882 58.7056 39.1879 59.1219 39.6458C59.5216 40.0937 59.7616 40.6614 59.8043 41.2602C59.832 40.8958 59.7858 40.5295 59.6686 40.1834C59.5513 39.8372 59.3654 39.5183 59.1219 39.2458Z" fill="black"/>
<path d="M73.523 33.7817C73.4162 34.2251 73.2262 34.6468 73.1393 35.0939C73.0878 35.3926 73.069 35.696 73.0832 35.9988C73.0892 35.8263 73.108 35.6545 73.1393 35.4848C73.2262 35.036 73.4162 34.6161 73.523 34.1726C73.5852 33.9281 73.6054 33.6747 73.5827 33.4233C73.5715 33.5441 73.5515 33.6638 73.523 33.7817Z" fill="black"/>
</g>
<path opacity="0.1" d="M24.0228 137.658C33.7626 137.658 41.6583 136.39 41.6583 134.826C41.6583 133.262 33.7626 131.993 24.0228 131.993C14.2829 131.993 6.38721 133.262 6.38721 134.826C6.38721 136.39 14.2829 137.658 24.0228 137.658Z" fill="#6C63FF"/>
<path d="M24.5909 80.5654H23.4561V106.116H24.5909V80.5654Z" fill="#535461"/>
<path d="M31.7219 106.038L31.6513 107.189L31.55 108.818L31.5083 109.495L31.4088 111.124L31.3653 111.801L31.264 113.429L30.1201 131.903C30.0704 132.698 29.7197 133.444 29.1394 133.989C28.559 134.535 27.7927 134.838 26.9963 134.839H21.049C20.2528 134.838 19.4866 134.534 18.9066 133.989C18.3265 133.444 17.9762 132.698 17.9269 131.903L16.7885 113.417L16.6871 111.788L16.6455 111.111L16.5442 109.482L16.5025 108.805L16.4012 107.176L16.3288 106.025C16.3162 105.804 16.349 105.582 16.4252 105.373C16.5015 105.165 16.6194 104.974 16.772 104.813C16.9245 104.652 17.1084 104.524 17.3123 104.436C17.5161 104.349 17.7358 104.304 17.9577 104.304H30.122C30.343 104.306 30.5614 104.353 30.7635 104.443C30.9656 104.532 31.1472 104.662 31.2971 104.825C31.4471 104.987 31.5621 105.179 31.6352 105.387C31.7082 105.596 31.7377 105.817 31.7219 106.038Z" fill="#3F3D56"/>
<path d="M31.6514 107.189L31.5501 108.812H16.4954L16.394 107.189H31.6514Z" fill="#9D9CB5"/>
<path d="M31.5085 109.489L31.409 111.115H16.6385L16.5371 109.489H31.5085Z" fill="#9D9CB5"/>
<path d="M31.3656 111.793L31.2661 113.417H16.7815L16.6802 111.793H31.3656Z" fill="#9D9CB5"/>
<path d="M0.171407 85.1554C0.169567 85.1506 0.167806 85.1461 0.166125 85.1418C0.170763 85.142 0.175609 85.1423 0.180662 85.1425C0.240256 85.1457 0.328658 85.1509 0.443596 85.1593C0.673473 85.176 1.00948 85.2052 1.43344 85.2552C2.28139 85.3551 3.48101 85.5382 4.88695 85.8705C7.6992 86.5352 11.3348 87.7964 14.6326 90.1821C17.9295 92.5678 20.2669 95.6271 21.7803 98.091C22.537 99.3228 23.0874 100.405 23.4485 101.18C23.6291 101.567 23.7624 101.877 23.8504 102.09C23.8945 102.197 23.9272 102.279 23.9489 102.335C23.9507 102.34 23.9525 102.344 23.9542 102.348C23.9495 102.348 23.9447 102.348 23.9397 102.348C23.88 102.344 23.7916 102.339 23.6766 102.331C23.4466 102.314 23.1105 102.285 22.6864 102.235C21.8381 102.135 20.638 101.951 19.2316 101.619C16.4184 100.954 12.7819 99.692 9.48415 97.3062C6.18637 94.9205 3.84985 91.8617 2.33753 89.3983C1.58148 88.1667 1.03171 87.0844 0.671016 86.3102C0.490678 85.9231 0.357624 85.6131 0.269703 85.3999C0.225743 85.2933 0.193068 85.211 0.171407 85.1554Z" fill="#6C63FF" stroke="#6C63FF" stroke-width="0.1"/>
<path d="M0.0869141 85.0884C0.0869141 85.0884 8.35449 89.6764 11.006 93.4754C13.6575 97.2744 24.0281 102.402 24.0281 102.402" stroke="#535461" stroke-width="2" stroke-miterlimit="10"/>
<path d="M18.8987 80.5498L18.8987 80.5498C20.6898 81.8451 21.9607 83.5072 22.7841 84.8464C23.1957 85.5159 23.4952 86.1043 23.6918 86.5251C23.79 86.7355 23.8625 86.904 23.9104 87.0197C23.9283 87.063 23.9428 87.0989 23.9539 87.1268C23.9239 87.1251 23.8853 87.1227 23.8386 87.1193C23.7137 87.1102 23.5311 87.0943 23.3006 87.0671C22.8396 87.0127 22.1872 86.9132 21.4227 86.7326C19.8932 86.3713 17.9168 85.6861 16.1248 84.3908C14.3329 83.0956 13.0624 81.4331 12.2396 80.0934C11.8284 79.4237 11.5293 78.8351 11.333 78.4141C11.2349 78.2036 11.1626 78.0351 11.1148 77.9193C11.0969 77.876 11.0825 77.84 11.0714 77.8121C11.1014 77.8138 11.14 77.8162 11.1866 77.8196C11.3115 77.8287 11.494 77.8446 11.7244 77.8718C12.1853 77.9262 12.8374 78.0258 13.6018 78.2065C15.1308 78.568 17.1067 79.2537 18.8987 80.5498Z" fill="#6C63FF" stroke="#6C63FF" stroke-width="0.1"/>
<path d="M10.9971 77.7583C10.9971 77.7583 15.4965 80.2559 16.9389 82.3228C18.3814 84.3897 24.0283 87.1806 24.0283 87.1806" stroke="#535461" stroke-width="2" stroke-miterlimit="10"/>
<path d="M39.1427 81.0691C39.1353 81.1131 39.1243 81.1759 39.1093 81.2561C39.0773 81.4265 39.0271 81.6752 38.9539 81.9881C38.8074 82.6137 38.5692 83.4954 38.2022 84.5188C37.4681 86.5661 36.2194 89.1785 34.161 91.4435C32.1027 93.7084 29.6204 95.1981 27.6515 96.1217C26.6672 96.5834 25.8118 96.9034 25.2026 97.108C24.898 97.2102 24.655 97.2836 24.4883 97.3314C24.4098 97.3539 24.3483 97.3707 24.3051 97.3822C24.3125 97.3381 24.3234 97.2753 24.3384 97.195C24.3703 97.0246 24.4204 96.7758 24.4935 96.4629C24.6397 95.8371 24.8775 94.9552 25.2443 93.9317C25.978 91.8842 27.2267 89.2718 29.2868 87.0077C31.3469 84.7437 33.8293 83.254 35.7977 82.3302C36.7818 81.8683 37.6369 81.5482 38.2458 81.3435C38.5503 81.2412 38.7931 81.1677 38.9597 81.1199C39.0381 81.0974 39.0996 81.0806 39.1427 81.0691Z" fill="#6C63FF" stroke="#6C63FF" stroke-width="0.1"/>
<path d="M39.2078 81.0034C39.2078 81.0034 33.8252 85.6585 32.4569 88.8656C31.0887 92.0727 24.2437 97.4499 24.2437 97.4499" stroke="#535461" stroke-width="2" stroke-miterlimit="10"/>
<path d="M180.929 85.3762C180.929 85.3762 177.941 70.5098 179.085 68.66C179.085 68.66 179.127 66.9407 179.058 64.7489C179.058 64.6656 179.058 64.5824 179.058 64.4973C179.259 64.6315 179.469 64.7524 179.686 64.8593C180.74 65.4007 181.95 65.5569 183.107 65.3009L182.202 64.2928C181.984 64.0521 181.758 63.7914 181.711 63.4729C181.664 63.1544 181.794 62.8702 181.907 62.5861C182.766 60.4142 182.812 57.6831 181.156 56.0252C179.756 54.6316 179.416 52.8326 177.898 51.5602C176.788 50.6281 176.178 49.2617 175.603 47.9404C175.116 46.8237 174.625 45.698 174.347 44.5143C174.13 43.5895 174.043 42.632 173.744 41.7289C173.445 40.8258 172.886 39.948 172.012 39.5444C171.701 39.4014 171.355 39.3199 171.071 39.1299C170.698 38.8783 170.474 38.4693 170.204 38.1109C168.834 36.301 164.246 37.3671 162.074 38.1019C161.483 38.2869 160.937 38.5899 160.467 38.9923L160.487 38.9598C160.503 38.9326 160.523 38.9055 160.541 38.8783C160.303 39.0706 160.098 39.2997 159.933 39.557C159.616 40.0584 159.484 40.643 159.22 41.1859C158.901 41.8284 157.129 43.622 157.891 44.3442C157.945 44.3927 158.006 44.4318 158.072 44.46C158.358 44.5791 158.673 44.6106 158.977 44.5505L158.945 44.6283C158.684 45.2655 158.551 45.9473 158.552 46.6355C158.552 49.6092 161.004 52.0199 164.032 52.0199C164.601 52.0205 165.167 51.9332 165.71 51.7611C165.723 51.8299 165.733 51.8987 165.746 51.9674C165.746 51.9946 165.755 52.0217 165.759 52.0489L165.663 52.1828C165.658 52.1746 165.653 52.1667 165.647 52.1593L162.805 56.1302C162.371 56.4361 159.869 58.246 159.728 59.6034C159.58 61.0893 159.431 62.8286 159.431 62.8286L159.411 63.2014C159.287 63.3052 159.142 63.3808 158.986 63.423C158.83 63.4651 158.666 63.4729 158.507 63.4458C157.62 63.301 157.62 66.7036 157.62 66.7036C157.62 66.7036 157.03 67.2465 156.624 66.776C156.219 66.3054 155.147 67.8999 155.147 67.8999L148.433 68.1895L148.279 68.1985L147.917 67.0782C147.878 66.96 147.794 66.862 147.683 66.8054C147.572 66.7488 147.444 66.7382 147.325 66.776C147.297 66.7852 147.27 66.7967 147.244 66.8103L147.218 66.8248L147.171 66.8574L147.148 66.8791C147.135 66.8909 147.123 66.9036 147.111 66.9171L147.09 66.9425L147.079 66.9533C147.037 67.0111 147.009 67.0779 146.998 67.1483C146.987 67.2187 146.992 67.2908 147.014 67.3587L147.325 68.3198C146.029 68.5804 144.704 69.3152 145.785 71.3387L140.308 70.327L142.08 71.8147L151.227 73.7024C151.106 73.9196 151.186 74.2345 151.564 74.6779C153.193 76.591 156.161 77.1104 157.355 77.2444C157.671 77.95 158.065 78.6179 158.53 79.2352L158.427 81.141C158.427 81.141 155.403 95.6672 154.849 96.4038C155.128 96.0871 155.384 95.7501 155.614 95.3957C154.737 98.3802 153.509 102.465 153.187 103.077C152.67 104.054 152.19 108.009 152.78 108.262C152.961 108.34 153.479 108.302 154.217 108.246V108.574L154.185 120.988C154.185 120.988 154.333 128.602 153.926 129.328C153.518 130.053 153.41 131.575 153.41 131.575C153.41 131.575 151.781 134.578 150.491 135.785C150.482 135.795 150.472 135.803 150.462 135.811L150.422 135.528C150.422 135.528 148.871 137.487 145.439 137.376C145.439 137.376 143.374 138.719 146.436 138.791C149.499 138.864 153.41 138.683 153.41 138.683C153.41 138.683 156.141 134.52 158.429 135.063V138.218H159.129V135.012C159.454 134.799 159.732 134.521 159.946 134.196C160.161 133.872 160.307 133.507 160.376 133.125C160.436 132.73 160.392 132.327 160.249 131.955C160.105 131.582 159.867 131.254 159.558 131.002C159.419 130.876 159.308 130.723 159.231 130.553C159.154 130.382 159.113 130.197 159.111 130.01L159.086 130.032C159.086 129.968 159.069 129.903 159.062 129.836C158.861 128.207 158.61 124.846 159.498 122.359C160.716 118.95 161.086 114.2 160.199 111.373C159.913 110.47 159.678 109.551 159.495 108.621C159.473 108.503 159.453 108.391 159.435 108.286C160.041 108.368 160.642 108.489 161.232 108.648C163.286 109.214 167.78 109.319 171.617 109.288C171.626 109.393 171.637 109.504 171.65 109.614C171.718 110.382 171.861 111.141 172.077 111.88C172.559 113.328 172.779 119.712 172.779 119.712C172.779 119.712 173.4 124.96 173.062 127.096C172.881 128.283 172.7 129.476 172.597 130.674V130.698C172.597 130.698 171.579 133.593 170.836 135.166C170.817 135.206 170.798 135.246 170.779 135.284C170.581 135.302 170.386 135.345 170.198 135.412C170.198 135.412 169.201 137.403 168.208 137.733C167.214 138.062 167.543 139.146 169.793 138.748C172.043 138.35 175.44 138.024 175.44 138.024L175.586 135.993L176.278 135.128L176.097 137.153L176.833 137.009L176.736 134.545L177.867 133.13C177.867 133.13 179.233 131.914 177.203 129.521V129.574C177.181 129.539 177.161 129.503 177.138 129.469V129.458C176.801 128.937 176.533 127.965 177.024 126.24C177.91 123.123 178.426 120.294 178.426 120.294C178.426 120.294 180.406 112.716 178.026 109.131H178.131C177.887 108.626 177.715 108.09 177.619 107.538C177.607 107.473 177.596 107.406 177.586 107.337C179.347 107.236 181.076 106.917 182.486 106.23C182.48 106.222 181.632 88.2394 180.929 85.3762ZM158.572 72.8337V72.8699L158.21 72.888L158.572 72.8337ZM157.33 73.0056C157.271 73.0188 157.215 73.0454 157.167 73.0834C157.012 73.3036 156.914 73.5594 156.883 73.8273L156.318 73.7006C156.318 73.7006 155.922 73.6155 155.352 73.5196L155.082 73.2481C155.824 73.1866 156.595 73.0961 157.33 73.0056Z" fill="url(#paint1_linear_1_25175)"/>
<path d="M176.014 134.571L175.798 137.135L176.52 136.991L176.412 134.209L176.014 134.571Z" fill="#1D2366"/>
<path d="M159.538 122.394C158.667 124.873 158.914 128.22 159.109 129.845C159.181 130.446 159.248 130.812 159.248 130.812C159.248 130.812 157.947 133.776 157.838 133.888C157.73 134.001 154.009 136.272 154.009 136.272L151.408 137.791C151.408 137.791 148.769 136.634 150.034 136.236C150.293 136.132 150.526 135.973 150.717 135.771C151.983 134.567 153.574 131.575 153.574 131.575C153.574 131.575 153.683 130.057 154.081 129.335C154.479 128.613 154.334 121.024 154.334 121.024L154.365 108.653V107.041L159.315 107.077C159.347 107.624 159.418 108.169 159.529 108.706C159.707 109.633 159.937 110.549 160.218 111.449C161.091 114.271 160.729 118.997 159.538 122.394Z" fill="#FFB0B1"/>
<path opacity="0.1" d="M159.248 130.811C159.248 130.811 157.947 133.776 157.838 133.888C157.73 134.001 154.009 136.272 154.009 136.272L151.408 137.79C151.408 137.79 148.769 136.634 150.034 136.236C150.293 136.132 150.526 135.973 150.717 135.771L150.829 136.562L151.696 136.525L159.116 129.849C159.181 130.446 159.248 130.811 159.248 130.811Z" fill="black"/>
<path d="M159.158 130.017L151.696 136.739L150.829 136.775L150.648 135.508C150.648 135.508 149.131 137.459 145.761 137.351C145.761 137.351 143.738 138.688 146.737 138.761C149.736 138.833 153.566 138.652 153.566 138.652C153.566 138.652 156.241 134.489 158.479 135.032V138.176H159.167V135.003C159.487 134.788 159.76 134.51 159.969 134.187C160.179 133.863 160.321 133.501 160.387 133.121C160.447 132.73 160.404 132.33 160.265 131.96C160.125 131.589 159.892 131.261 159.589 131.007C159.453 130.88 159.345 130.727 159.271 130.557C159.197 130.386 159.159 130.203 159.158 130.017Z" fill="#1D2366"/>
<path d="M176.701 126.26C176.22 127.979 176.482 128.947 176.812 129.467V129.478C177.234 130.119 177.528 130.836 177.677 131.59L177.706 131.753L174.311 136.703L172.468 137.427C172.468 137.427 169.505 136.415 170.047 136.125C170.182 136.055 170.394 135.678 170.637 135.159C171.36 133.593 172.36 130.705 172.36 130.705V130.681C172.465 129.489 172.631 128.3 172.816 127.116C173.147 124.986 172.539 119.757 172.539 119.757C172.539 119.757 172.322 113.399 171.851 111.953C171.639 111.217 171.497 110.463 171.429 109.701C171.332 108.796 171.31 108.05 171.31 108.05C171.31 108.05 173.261 105.336 176.837 108.268C177.123 108.502 177.375 108.774 177.585 109.079C180.055 112.593 178.066 120.336 178.066 120.336C178.066 120.336 177.568 123.152 176.701 126.26Z" fill="#FFB0B1"/>
<path opacity="0.1" d="M177.711 131.753L174.316 136.703L172.474 137.427C172.474 137.427 169.511 136.415 170.052 136.125C170.188 136.055 170.399 135.678 170.642 135.159C171.896 135.148 172.546 136.343 172.546 136.343L174.135 136.089C174.135 136.089 176.231 131.97 176.701 131.718C177.172 131.467 176.774 129.838 176.774 129.838V129.423C176.786 129.438 176.797 129.454 176.812 129.469V129.479C177.234 130.121 177.528 130.838 177.677 131.592L177.711 131.753Z" fill="black"/>
<path d="M172.654 136.449C172.654 136.449 171.749 134.788 170.015 135.401C170.015 135.401 169.04 137.392 168.064 137.714C167.089 138.037 167.415 139.123 169.619 138.726C171.823 138.33 175.146 138.002 175.146 138.002L175.291 135.977L177.532 133.123C177.532 133.123 178.868 131.912 176.88 129.528V129.943C176.88 129.943 177.278 131.572 176.808 131.823C176.337 132.075 174.249 136.196 174.249 136.196L172.654 136.449Z" fill="#1D2366"/>
<path opacity="0.1" d="M159.321 107.073C159.352 107.621 159.423 108.165 159.534 108.702C157.496 108.403 155.605 108.552 154.365 108.649V107.037L159.321 107.073Z" fill="black"/>
<path opacity="0.1" d="M177.785 109.529C177.785 109.529 174.89 109.67 171.436 109.699C171.339 108.794 171.317 108.049 171.317 108.049C171.317 108.049 173.268 105.334 176.844 108.266C177.13 108.5 177.382 108.773 177.592 109.077C177.648 109.231 177.713 109.382 177.785 109.529Z" fill="black"/>
<path d="M177.785 109.203C177.785 109.203 165.102 109.817 161.236 108.733C157.37 107.649 153.538 108.588 152.961 108.336C152.384 108.085 152.852 104.145 153.359 103.169C153.866 102.194 156.646 92.3279 156.646 92.3279L159.321 78.3809L162.139 77.6045L162.338 77.5484L167.248 76.1946L170.846 75.2009C170.846 75.2009 178.001 103.133 177.387 105.193C177.164 105.981 177.128 106.811 177.282 107.616C177.376 108.166 177.545 108.7 177.785 109.203Z" fill="#1D2366"/>
<path d="M149.996 68.8428C149.996 68.8428 147.463 71.5576 149.381 73.0707C151.299 74.5837 152.561 73.2155 152.561 73.2155L149.996 68.8428Z" fill="#C7DAF5"/>
<path opacity="0.1" d="M149.996 68.8428C149.996 68.8428 147.463 71.5576 149.381 73.0707C151.299 74.5837 152.561 73.2155 152.561 73.2155L149.996 68.8428Z" fill="black"/>
<path d="M170.468 50.9937C170.468 50.9937 170.171 51.2761 169.724 51.6924C169.087 52.2878 168.144 53.1584 167.308 53.8878C166.15 54.8959 165.194 55.6361 165.536 55.0045C165.878 54.3728 165.813 53.2724 165.643 52.2426C165.63 52.1738 165.619 52.105 165.607 52.038C165.466 51.2817 165.279 50.5347 165.047 49.801C165.047 49.801 166.919 47.383 167.954 46.4292C168.34 46.0672 168.609 45.9188 168.626 46.1704C168.644 46.5088 168.897 47.2563 169.212 48.049C169.221 48.0744 169.23 48.0979 169.241 48.1233C169.451 48.6662 169.688 49.2237 169.896 49.7051C170.215 50.4435 170.468 50.9937 170.468 50.9937Z" fill="#FFB0B1"/>
<path opacity="0.1" d="M169.241 48.1231C169.065 49.069 168.638 49.9503 168.005 50.675C167.372 51.3996 166.557 51.9409 165.643 52.2424C165.499 51.4162 165.3 50.6005 165.047 49.8009C165.047 49.8009 168.571 45.249 168.626 46.1702C168.638 46.5195 168.913 47.2942 169.241 48.1231Z" fill="black"/>
<path opacity="0.1" d="M165.292 53.4587L165.748 52.8162C165.748 52.8162 166.05 54.6586 167.161 53.846C168.273 53.0333 168.327 59.9616 168.327 59.9616L167.134 77.7944L158.516 77.2786L158.76 68.6617L159.735 64.318L162.148 58.0033L163.583 55.9165L165.292 53.4587Z" fill="black"/>
<path d="M168.327 60.072L167.241 76.1963L167.127 77.9048L162.322 77.617L162.141 77.6062L158.521 77.389L158.765 68.7703L159.741 64.4266L162.153 58.1119L163.589 56.0251L165.297 53.5582L165.753 52.9175C165.753 52.9175 166.056 54.7599 167.167 53.9473L167.19 53.931C168.276 53.2433 168.327 60.072 168.327 60.072Z" fill="#1D2366"/>
<path d="M159.862 62.9172C159.862 62.9172 159.43 63.8222 158.561 63.6756C157.692 63.529 157.694 66.9334 157.694 66.9334C157.694 66.9334 157.117 67.4763 156.718 67.0058C156.32 66.5352 155.271 68.1261 155.271 68.1261L148.693 68.4157C148.693 68.4157 151.62 69.7532 151.046 73.8001C151.046 73.8001 160.983 73.1847 161.308 72.2454C161.634 71.3061 159.862 62.9172 159.862 62.9172Z" fill="white"/>
<path opacity="0.03" d="M159.862 62.9172C159.862 62.9172 159.43 63.8222 158.561 63.6756C157.692 63.529 157.694 66.9334 157.694 66.9334C157.694 66.9334 157.117 67.4763 156.718 67.0058C156.32 66.5352 155.271 68.1261 155.271 68.1261L148.693 68.4157C148.693 68.4157 151.62 69.7532 151.046 73.8001C151.046 73.8001 160.983 73.1847 161.308 72.2454C161.634 71.3061 159.862 62.9172 159.862 62.9172Z" fill="black"/>
<path d="M140.748 70.5422L142.482 72.0227L156.755 75.0217L154.985 73.2154L140.748 70.5422Z" fill="white"/>
<path d="M165.319 54.0289C165.082 54.3909 164.403 56.2442 163.837 57.8623C163.364 59.2106 162.97 60.3961 162.97 60.3961C162.97 60.3961 162.049 66.3941 161.578 67.4782C161.107 68.5623 161.363 72.7902 161.363 72.7902L159.609 83.2315C159.609 83.2315 158.814 88.6159 157.587 91.8321C156.376 94.9976 155.028 96.4817 154.986 96.5287C155.529 95.7939 158.488 81.3257 158.488 81.3257L159.466 63.0784C159.466 63.0784 159.609 61.3445 159.754 59.8622C159.898 58.3799 162.83 56.3564 162.83 56.3564L165.657 52.3367C165.942 52.7167 165.752 53.3792 165.319 54.0289Z" fill="white"/>
<path d="M157.947 77.4794C157.947 77.4794 153.784 77.2984 151.768 74.8768C149.752 72.4552 156.429 73.9103 156.429 73.9103L158.164 74.3085L157.947 77.4794Z" fill="#FFB0B1"/>
<path opacity="0.1" d="M177.387 105.194C177.165 105.983 177.129 106.813 177.283 107.618C172.741 107.94 167.884 106.713 167.884 106.713C166.979 107.545 164.595 108.772 164.595 108.772L163.296 92.6644C162.465 90.4926 162.139 79.1138 162.139 79.1138C162.139 79.1138 162.213 78.5183 162.32 77.6261C162.32 77.6043 162.32 77.5808 162.329 77.5591C162.653 75.0669 163.296 70.3883 163.611 69.7567C164.045 68.8879 162.275 66.5767 162.275 66.5767L163.08 59.7082L163.178 58.8792C164.876 58.1209 166.177 55.6993 166.177 55.6993L167.176 53.9491C168.262 53.2523 168.318 60.081 168.318 60.081L167.232 76.2053L170.83 75.2117C170.83 75.2117 178.001 103.135 177.387 105.194Z" fill="black"/>
<path d="M182.048 106.307C177.098 108.765 168.101 106.488 168.101 106.488C167.196 107.321 164.812 108.548 164.812 108.548L163.511 92.44C162.682 90.2681 162.356 78.8894 162.356 78.8894C162.356 78.8894 163.402 70.3992 163.836 69.5322C163.963 69.2789 163.902 68.9024 163.751 68.497C163.013 66.5673 162.741 64.4903 162.959 62.4357L163.306 59.4837L163.402 58.6566C165.102 57.8965 166.403 55.4748 166.403 55.4748L167.308 53.8894L168.973 50.9682L169.762 49.5854L169.896 49.7067L170.919 50.6334C170.919 50.6334 171.353 50.9954 172.004 51.5383C173.422 52.7328 175.87 54.8359 177.134 56.1228C178.245 57.2558 178.596 61.6628 178.697 64.9804C178.764 67.1649 178.725 68.8771 178.725 68.8771C177.604 70.7213 180.534 85.528 180.534 85.528C181.217 88.3895 182.048 106.307 182.048 106.307Z" fill="white"/>
<path opacity="0.03" d="M172.546 55.4386C172.546 55.4386 169.149 61.9054 169.543 64.3632C169.938 66.821 171.06 69.6028 170.519 70.2526C170.333 70.4987 170.093 70.6986 169.817 70.8364C169.541 70.9742 169.237 71.0463 168.928 71.0471C168.385 71.0833 166.937 72.095 166.937 72.2036C166.937 72.3122 165.6 72.3122 164.403 72.819C163.207 73.3258 161.441 73.6135 161.441 73.6135C161.441 73.6135 158.002 73.5049 157.681 73.8307C157.361 74.1565 157.032 76.1058 157.718 77.6604C158.404 79.2151 159.165 80.3753 159.741 80.587C160.317 80.7988 163.969 79.5753 166.932 79.2857C169.895 78.9962 173.111 76.6487 173.111 76.6487C173.111 76.6487 176.653 75.3818 177.273 73.2516C177.894 71.1213 176.515 59.4131 176.515 59.4131C176.515 59.4131 175.473 53.9563 172.546 55.4386Z" fill="black"/>
<path opacity="0.03" d="M172.112 54.8956C172.112 54.8956 168.714 61.3642 169.113 63.8202C169.511 66.2762 170.629 69.0598 170.086 69.7114C169.901 69.9578 169.661 70.1579 169.385 70.2958C169.11 70.4336 168.805 70.5056 168.497 70.5059C167.954 70.5421 166.506 71.5539 166.506 71.6625C166.506 71.7711 165.169 71.7711 163.972 72.276C162.776 72.781 161.01 73.0706 161.01 73.0706C161.01 73.0706 157.571 72.962 157.252 73.2877C156.934 73.6135 156.601 75.5646 157.289 77.1175C157.976 78.6704 158.736 79.8323 159.312 80.0441C159.888 80.2558 163.54 79.0323 166.503 78.7446C169.465 78.4568 172.682 76.1057 172.682 76.1057C172.682 76.1057 176.222 74.8388 176.835 72.7104C177.449 70.582 176.077 58.8702 176.077 58.8702C176.077 58.8702 175.038 53.4152 172.112 54.8956Z" fill="black"/>
<path d="M172.439 55.1129C172.439 55.1129 169.042 61.5814 169.44 64.0374C169.838 66.4935 170.957 69.2771 170.415 69.9268C170.23 70.1738 169.99 70.3744 169.714 70.5126C169.438 70.6508 169.133 70.7229 168.825 70.7232C168.282 70.7594 166.834 71.7711 166.834 71.8779C166.834 71.9847 165.498 71.9865 164.3 72.4932C163.102 73 161.337 73.2878 161.337 73.2878C161.337 73.2878 157.898 73.1792 157.578 73.505C157.258 73.8307 156.928 75.7818 157.614 77.3347C158.3 78.8876 159.062 80.0495 159.638 80.2613C160.213 80.473 163.865 79.2496 166.828 78.96C169.791 78.6704 173.007 76.323 173.007 76.323C173.007 76.323 176.549 75.056 177.17 72.9258C177.791 70.7956 176.421 59.0874 176.421 59.0874C176.421 59.0874 175.364 53.6396 172.439 55.1129Z" fill="white"/>
<path opacity="0.1" d="M172.365 72.4626C172.365 72.4626 169.65 71.9196 170.595 72.8245C171.539 73.7295 171.534 74.5222 172.691 74.486C173.847 74.4498 172.365 72.4626 172.365 72.4626Z" fill="black"/>
<path opacity="0.1" d="M176.953 91.9333C176.953 91.9333 175.726 92.7641 178.073 94.6789C180.421 96.5938 176.953 91.9333 176.953 91.9333Z" fill="black"/>
<path opacity="0.1" d="M174.611 98.762C174.611 98.8706 174.176 102.744 175.802 103.712C177.427 104.68 174.611 98.762 174.611 98.762Z" fill="black"/>
<path d="M148.805 68.4065C147.495 68.4517 144.664 68.8517 146.132 71.5901C147.43 74.0135 149.611 72.3937 150.838 71.1648C150.539 70.019 149.811 69.0318 148.805 68.4065Z" fill="#FFB0B1"/>
<path opacity="0.1" d="M172.004 51.6489C170.614 52.5991 169.449 53.4008 169.221 53.5674C168.598 54.0289 167.411 56.7383 166.645 58.121C166.035 59.2341 164.054 59.5201 163.306 59.5907L163.402 58.7635C165.102 58.0034 166.403 55.5818 166.403 55.5818L169.762 49.6924L170.919 50.7439C170.919 50.7439 171.353 51.1059 172.004 51.6489Z" fill="black"/>
<path d="M172.004 51.5402C170.614 52.4904 169.449 53.2922 169.221 53.4605C168.598 53.9202 167.411 56.6296 166.645 58.0124C166.035 59.1255 164.054 59.4114 163.306 59.482L163.402 58.6549C165.102 57.8948 166.403 55.4731 166.403 55.4731L169.762 49.5837L170.919 50.6317C170.919 50.6317 171.353 50.99 172.004 51.5402Z" fill="#DCE7FF"/>
<path d="M169.33 46.9287C169.33 48.0152 169.001 49.0762 168.385 49.9712C167.657 51.0293 166.574 51.7915 165.333 52.1196C164.091 52.4477 162.773 52.3199 161.618 51.7594C160.463 51.1988 159.547 50.2427 159.036 49.0645C158.525 47.8863 158.454 46.5641 158.835 45.3377C159.216 44.1113 160.023 43.0621 161.112 42.3804C162.2 41.6987 163.496 41.4297 164.766 41.6222C166.036 41.8147 167.194 42.4559 168.031 43.4295C168.869 44.4031 169.329 45.6446 169.33 46.9287Z" fill="#FFB0B1"/>
<path opacity="0.1" d="M178.698 64.9822C177.963 64.53 177.364 63.887 176.965 63.1216C176.663 62.5243 176.462 61.8348 175.947 61.4112C175.481 61.0312 174.861 60.9389 174.281 60.7687C172.377 60.2059 170.781 58.4684 170.721 56.4847C170.692 55.5508 170.984 54.6187 170.852 53.6939C170.777 53.1704 170.568 52.675 170.247 52.255C170.088 52.0541 169.913 51.8659 169.724 51.6921C169.471 51.4532 169.205 51.2216 168.973 50.9682C168.827 50.8113 168.7 50.6382 168.593 50.4524C168.507 50.3003 168.437 50.1395 168.385 49.9727C168.023 48.8651 168.352 47.5511 167.954 46.4308L167.932 46.3692C167.782 45.9711 167.476 45.5729 167.051 45.5421C166.626 45.5114 166.262 45.8643 165.856 46.0218C165.008 46.3512 164.092 45.7901 163.384 45.2182C162.676 44.6462 161.878 43.9929 160.979 44.1196C160.383 44.2046 159.913 44.61 159.364 44.82C159.24 44.8679 159.113 44.9049 158.982 44.9304C159.447 43.773 160.299 42.8133 161.394 42.2163C162.489 41.6193 163.757 41.4222 164.982 41.6588C166.206 41.8954 167.31 42.5511 168.103 43.5131C168.897 44.475 169.33 45.6833 169.33 46.9303C169.33 47.3069 169.291 47.6824 169.212 48.0506C169.221 48.076 169.23 48.0995 169.241 48.1248C169.451 48.6678 169.688 49.2253 169.896 49.7067L170.919 50.6334C170.919 50.6334 171.353 50.9953 172.005 51.5383C173.422 52.7328 175.87 54.8359 177.134 56.1227C178.245 57.2594 178.593 61.6646 178.698 64.9822Z" fill="black"/>
<path d="M159.301 41.5134C159.56 40.9867 159.688 40.3967 159.998 39.8971C160.452 39.1732 161.245 38.7099 162.059 38.4293C164.186 37.6963 168.68 36.6321 170.023 38.4293C170.287 38.7913 170.506 39.1931 170.872 39.4429C171.15 39.6329 171.487 39.7143 171.793 39.8573C172.649 40.2591 173.195 41.1351 173.487 42.0292C173.778 42.9233 173.865 43.8825 174.079 44.8038C174.352 45.9856 174.832 47.1059 175.309 48.219C175.872 49.533 176.47 50.8958 177.555 51.8243C179.038 53.0912 179.365 54.8848 180.741 56.2748C182.37 57.9255 182.317 60.6493 181.478 62.8122C181.367 63.0963 181.242 63.3931 181.286 63.6954C181.329 63.9976 181.554 64.2727 181.765 64.5134L182.656 65.5179C180.549 66.0265 178.165 64.9261 177.184 62.995C176.882 62.3977 176.681 61.7099 176.164 61.2846C175.7 60.9045 175.078 60.814 174.5 60.6439C172.596 60.0792 171 58.3399 170.94 56.3563C170.911 55.4242 171.203 54.4921 171.071 53.569C170.997 53.0421 170.788 52.5432 170.464 52.1211C169.967 51.4714 169.216 51.0352 168.81 50.3112C168.124 49.1004 168.645 47.5276 168.151 46.2281C167.999 45.83 167.695 45.4318 167.27 45.401C166.845 45.3703 166.481 45.7232 166.074 45.8806C165.227 46.21 164.311 45.6508 163.603 45.077C162.895 44.5033 162.097 43.8518 161.196 43.9803C160.6 44.0635 160.132 44.4689 159.583 44.6807C159.178 44.8363 158.356 44.9757 158.001 44.6336C157.252 43.9441 158.988 42.1577 159.301 41.5134Z" fill="#591D4B"/>
<path opacity="0.1" d="M177.688 62.3977C177.384 61.8004 177.184 61.1127 176.667 60.6892C176.203 60.3091 175.581 60.2168 175.002 60.0466C173.099 59.4838 171.503 57.7445 171.442 55.7608C171.413 54.8287 171.704 53.8948 171.574 52.9718C171.498 52.4482 171.289 51.9528 170.967 51.5329C170.468 50.8832 169.717 50.447 169.313 49.723C168.627 48.514 169.149 46.9412 168.653 45.6399C168.502 45.2436 168.197 44.8454 167.773 44.8128C167.349 44.7802 166.982 45.1368 166.577 45.2942C165.73 45.6236 164.812 45.0626 164.106 44.4906C163.4 43.9187 162.599 43.2653 161.699 43.392C161.104 43.4771 160.633 43.8825 160.086 44.0925C159.681 44.2481 158.857 44.3893 158.503 44.0472C157.757 43.3233 159.493 41.5405 159.804 40.8998C160.063 40.3713 160.191 39.7831 160.503 39.2836C160.519 39.2564 160.537 39.2293 160.555 39.2021C160.322 39.3951 160.121 39.6235 159.96 39.879C159.65 40.3786 159.522 40.965 159.263 41.4953C158.95 42.136 157.214 43.9241 157.962 44.6427C158.324 44.9866 159.138 44.8454 159.543 44.6897C160.086 44.478 160.561 44.0726 161.156 43.9893C162.061 43.8608 162.857 44.5142 163.563 45.0861C164.269 45.658 165.192 46.2191 166.036 45.8897C166.441 45.7322 166.796 45.3775 167.23 45.4101C167.664 45.4426 167.954 45.839 168.111 46.2372C168.606 47.5367 168.084 49.1095 168.77 50.3203C169.176 51.0316 169.927 51.4768 170.424 52.1302C170.748 52.5523 170.957 53.0512 171.031 53.5781C171.163 54.5011 170.872 55.4332 170.9 56.3653C170.96 58.3562 172.557 60.0883 174.461 60.653C175.034 60.8231 175.66 60.9136 176.124 61.2937C176.643 61.719 176.848 62.4067 177.145 63.004C178.126 64.9352 180.509 66.0356 182.616 65.527L182.196 65.0528C180.37 65.0799 178.522 64.0411 177.688 62.3977Z" fill="black"/>
<path opacity="0.1" d="M165.21 54.1373C164.973 54.4993 164.295 56.3527 163.728 57.9707C163.198 57.7644 162.716 56.4486 162.716 56.4486L165.543 52.427C165.833 52.8252 165.643 53.4858 165.21 54.1373Z" fill="black"/>
<path d="M165.319 54.0288C165.082 54.3908 164.403 56.2442 163.836 57.8622C163.306 57.6577 162.825 56.3401 162.825 56.3401L165.652 52.3203C165.941 52.7167 165.751 53.3791 165.319 54.0288Z" fill="#DCE7FF"/>
<path d="M148.881 72.5187L147.314 67.5759C147.295 67.518 147.289 67.4571 147.294 67.3965C147.299 67.336 147.316 67.277 147.344 67.223C147.371 67.169 147.41 67.1211 147.456 67.082C147.503 67.0428 147.557 67.0132 147.614 66.9949C147.731 66.9585 147.857 66.9697 147.966 67.0259C148.074 67.0822 148.156 67.179 148.194 67.2954L149.761 72.2328L149.605 73.2662L148.881 72.5187Z" fill="#BE8B87"/>
<path opacity="0.1" d="M147.463 67.1414C147.58 67.1044 147.706 67.1153 147.815 67.1716C147.924 67.2279 148.006 67.3251 148.044 67.4418L149.611 72.3792L149.493 73.1538L149.607 73.2733L149.763 72.2398L148.187 67.3025C148.149 67.1861 148.067 67.0893 147.959 67.033C147.85 66.9767 147.724 66.9656 147.607 67.002C147.509 67.0339 147.425 67.0975 147.367 67.183C147.397 67.1665 147.43 67.1526 147.463 67.1414Z" fill="white"/>
<path d="M148.881 72.5187L149.761 72.24L149.632 73.087L149.605 73.2734L149.348 73.0056L148.881 72.5187Z" fill="#EFC8C4"/>
<path d="M149.349 73.0054C149.364 72.9861 149.383 72.97 149.405 72.9584C149.417 72.9503 149.432 72.946 149.447 72.946C149.462 72.946 149.477 72.9503 149.49 72.9584C149.502 72.9732 149.512 72.9897 149.521 73.0072C149.533 73.0272 149.549 73.0442 149.568 73.0571C149.588 73.0699 149.61 73.0782 149.633 73.0814L149.606 73.2624L149.349 73.0054Z" fill="#727A9C"/>
<path d="M147.305 69.3313C147.305 69.3313 150.449 69.3132 149.709 70.6507C148.968 71.9882 147.812 72.1493 147.812 72.1493L147.305 69.3313Z" fill="#FFB0B1"/>
<path d="M114.693 16.5644L114.609 16.4358C111.879 12.2452 107.133 9.4064 101.768 9.4064H101.633C97.6064 9.44489 93.7577 11.0709 90.9232 13.931C88.0885 16.7912 86.4972 20.6545 86.495 24.6814L114.693 16.5644ZM114.693 16.5644L114.776 16.4358C117.507 12.2452 122.252 9.4064 127.617 9.4064H127.752M114.693 16.5644L127.752 9.4064M127.752 9.4064C131.779 9.44537 135.627 11.0715 138.461 13.9316C141.295 16.7918 142.886 20.6549 142.888 24.6814C142.888 29.6912 140.694 36.8127 136.405 42.6742L136.405 42.6742C132.317 48.2653 126.875 53.5083 122.453 57.355C120.242 59.278 118.287 60.8512 116.885 61.9436C116.184 62.4898 115.621 62.9157 115.233 63.2051C115.04 63.3497 114.89 63.4602 114.788 63.5346C114.749 63.5633 114.717 63.5866 114.693 63.6044C114.688 63.6008 114.682 63.5969 114.677 63.5928C114.655 63.5768 114.628 63.5574 114.597 63.5345C114.496 63.4602 114.346 63.3497 114.152 63.205C113.764 62.9156 113.201 62.4896 112.5 61.9433C111.098 60.8508 109.143 59.2774 106.932 57.3543C102.509 53.5074 97.0672 48.2644 92.9787 42.6742C88.6913 36.8127 86.495 29.6912 86.495 24.6815L127.752 9.4064ZM113.971 43.612L110.741 24.2065C110.741 24.2063 110.741 24.2061 110.741 24.2059C110.702 23.9507 110.575 23.7169 110.382 23.5446C110.19 23.3722 109.943 23.272 109.685 23.2612C109.427 23.2504 109.173 23.3297 108.966 23.4854C108.76 23.6412 108.614 23.8637 108.554 24.1151L108.553 24.1173L105.222 39.5148H101.553C101.404 39.5088 101.255 39.5328 101.116 39.5855C100.975 39.6385 100.847 39.7193 100.739 39.8231C100.631 39.9268 100.545 40.0514 100.486 40.1893C100.427 40.3273 100.397 40.4757 100.397 40.6256C100.397 40.7756 100.427 40.924 100.486 41.0619C100.545 41.1998 100.631 41.3244 100.739 41.4282C100.847 41.5319 100.975 41.6127 101.116 41.6657C101.255 41.7184 101.404 41.7425 101.553 41.7364H106.099H106.099V41.6364M113.971 43.612L109.432 29.9075M113.971 43.612L116.662 34.2266C116.662 34.2266 116.662 34.2265 116.662 34.2265L116.662 34.2264L116.758 34.2539L113.971 43.612ZM106.099 41.6364C106.325 41.6366 106.543 41.5613 106.721 41.4225C106.898 41.2837 107.024 41.0895 107.078 40.8709L109.386 29.6328L109.432 29.9075M106.099 41.6364H101.551H106.099ZM109.432 29.9075L112.578 48.8288L109.432 29.9075ZM117.8 38.2921L114.751 48.947L114.751 48.9473C114.684 49.1791 114.543 49.383 114.35 49.5282C114.157 49.6734 113.922 49.7521 113.681 49.7524H113.681H113.618H113.613L113.613 49.7523C113.361 49.7401 113.12 49.6418 112.932 49.4737C112.744 49.3057 112.619 49.0781 112.578 48.8291L117.8 38.2921ZM117.8 38.2921L118.69 40.9729L118.69 40.9734C118.765 41.1946 118.906 41.3871 119.095 41.5239C119.285 41.6607 119.512 41.735 119.745 41.7364H119.746H122.907C123.138 42.3022 123.529 42.7891 124.033 43.1369C124.542 43.4884 125.143 43.682 125.76 43.6942L125.766 43.702L125.816 43.702C126.394 43.702 126.96 43.5425 127.452 43.241C127.945 42.9396 128.344 42.508 128.607 41.9938C128.869 41.4796 128.985 40.9029 128.94 40.3272C128.896 39.7516 128.693 39.1994 128.355 38.7317C128.016 38.264 127.555 37.8988 127.022 37.6766C126.489 37.4544 125.905 37.3837 125.335 37.4724C124.764 37.5611 124.229 37.8057 123.789 38.1792C123.367 38.537 123.048 38.9998 122.863 39.5202H120.549L118.778 34.1938L117.8 38.2921Z" fill="#6C63FF" stroke="#6C63FF" stroke-width="0.2"/>
</g>
<defs>
<linearGradient id="paint0_linear_1_25175" x1="64.4919" y1="140.243" x2="64.4919" y2="28.8732" gradientUnits="userSpaceOnUse">
<stop stop-color="#808080" stop-opacity="0.25"/>
<stop offset="0.54" stop-color="#808080" stop-opacity="0.12"/>
<stop offset="1" stop-color="#808080" stop-opacity="0.1"/>
</linearGradient>
<linearGradient id="paint1_linear_1_25175" x1="161.701" y1="138.835" x2="161.701" y2="37.1191" gradientUnits="userSpaceOnUse">
<stop stop-color="#808080" stop-opacity="0.25"/>
<stop offset="0.54" stop-color="#808080" stop-opacity="0.12"/>
<stop offset="1" stop-color="#808080" stop-opacity="0.1"/>
</linearGradient>
<clipPath id="clip0_1_25175">
<rect width="200" height="141.667" fill="white"/>
</clipPath>
</defs>
</svg>
