<svg width="200" height="140" viewBox="0 0 200 140" fill="none" xmlns="http://www.w3.org/2000/svg">
<g clip-path="url(#clip0_1_25504)">
<path d="M167.107 21.5043L151.679 21.6546C150.954 18.0844 148.517 8.71699 150.711 6.16193C150.811 5.20027 151.278 4.31424 152.015 3.68828C152.752 3.06232 153.702 2.74466 154.667 2.80144C157.058 -0.941765 161.042 -0.379747 163.734 1.95805C166.443 2.8929 167.464 4.55373 167.107 6.80754C169.114 8.56385 169.484 10.7006 168.583 13.133L167.107 21.5043Z" fill="#2F2E41"/>
<path d="M165.622 31.0085L154.491 29.4673L152.265 26.2135C155.331 24.1793 156.417 21.3381 155.005 17.4798L162.711 17.3086C162.35 20.7444 163.486 23.4047 166.65 25.0148L165.622 31.0085Z" fill="#FFB9B9"/>
<path d="M151.859 131.409L151.434 137.228C151.414 137.491 151.452 137.755 151.543 138.003C151.634 138.251 151.778 138.476 151.963 138.664C152.149 138.852 152.372 138.998 152.619 139.093C152.866 139.187 153.129 139.228 153.393 139.212L156.382 139.031C156.52 139.022 156.655 138.983 156.777 138.917C156.899 138.85 157.004 138.758 157.086 138.646C157.169 138.534 157.225 138.406 157.252 138.27C157.278 138.133 157.275 137.993 157.241 137.858L155.582 131.223L151.859 131.409Z" fill="#E6E6E6"/>
<path d="M161.535 131.223L159.876 137.858C159.842 137.993 159.839 138.133 159.865 138.27C159.892 138.406 159.948 138.534 160.03 138.646C160.113 138.758 160.218 138.85 160.34 138.917C160.462 138.983 160.597 139.022 160.735 139.031L163.724 139.212C163.987 139.228 164.251 139.187 164.498 139.093C164.745 138.998 164.968 138.852 165.154 138.664C165.339 138.476 165.483 138.251 165.574 138.003C165.665 137.755 165.703 137.491 165.683 137.228L165.258 131.409L161.535 131.223Z" fill="#E6E6E6"/>
<path d="M157.153 88.8817L155.644 131.415L152.147 131.289L145.523 72.5293H170.487L165.224 131.942L161.647 131.584L157.651 88.8673L157.153 88.8817Z" fill="#6C63FF" stroke="#6C63FF" stroke-width="0.5"/>
<path d="M159.286 20.22C163.542 20.22 166.992 16.7698 166.992 12.5138C166.992 8.2578 163.542 4.80762 159.286 4.80762C155.03 4.80762 151.58 8.2578 151.58 12.5138C151.58 16.7698 155.03 20.22 159.286 20.22Z" fill="#FFB9B9"/>
<path d="M174.527 73.6495L143.36 73.992C147.985 56.3837 150.752 40.0271 145.929 28.7823L153.635 25.0149C157.351 28.8905 161.489 28.4909 165.965 24.6724L173.328 26.5561C172.067 41.3018 172.632 57.0946 174.527 73.6495Z" fill="#6C63FF"/>
<path d="M134.797 55.4973L154.148 63.2035L158.475 64.4759C158.668 64.5329 158.871 64.5501 159.072 64.5265C159.272 64.503 159.466 64.4392 159.641 64.339C159.816 64.2388 159.969 64.1042 160.091 63.9434C160.212 63.7826 160.3 63.5988 160.349 63.4031C160.435 63.06 160.396 62.6975 160.24 62.3801C160.084 62.0627 159.821 61.8107 159.497 61.669L155.005 60.2922L141.476 52.4148L144.302 44.9655L138.394 41.7974L134.797 55.4973Z" fill="#FFB9B9"/>
<path d="M134.969 41.4546C138.65 42.891 141.579 45.3423 143.874 48.6471L151.066 38.2009L145.929 28.7822L134.969 41.4546Z" fill="#6C63FF"/>
<path d="M167.971 11.2647C164.843 10.4588 161.768 10.3482 158.779 11.3704C156.875 12.2926 154.588 12.2076 152.045 11.4478V3.75928L165.774 4.1254L167.971 11.2647Z" fill="#2F2E41"/>
<path d="M154.084 46.5186C153.479 46.5192 152.899 46.7599 152.471 47.1878C152.043 47.6157 151.802 48.1958 151.802 48.8009L152.703 67.6596C152.703 68.2647 152.944 68.8449 153.372 69.2727C153.8 69.7006 154.38 69.9413 154.985 69.942H165.285C165.89 69.9413 166.47 69.7006 166.898 69.2727C167.326 68.8449 167.567 68.2647 167.568 67.6596L168.468 48.8009C168.468 48.1958 168.227 47.6157 167.799 47.1878C167.371 46.7599 166.791 46.5192 166.186 46.5186H154.084Z" fill="#6C63FF"/>
<path d="M183.309 54.0725L166.442 60.7887L165.169 61.2955C165.129 61.3112 165.088 61.3247 165.045 61.3383L160.782 62.5928C160.237 62.7527 159.482 62.0184 159.041 61.5117C158.822 61.2675 158.698 60.953 158.692 60.6253C158.685 60.2977 158.796 59.9785 159.005 59.7256C159.064 59.6577 159.128 59.5952 159.198 59.5387C159.363 59.4108 159.556 59.3257 159.761 59.291L164.02 58.4531C164.173 58.4231 164.32 58.3684 164.455 58.291L166.442 57.1333L176.755 51.1288C177.041 50.9621 177.26 50.699 177.371 50.3863C177.482 50.0737 177.478 49.7318 177.361 49.4216L175.392 44.2302C175.271 43.9125 175.27 43.5618 175.389 43.2435C175.508 42.9252 175.739 42.661 176.038 42.5004L179.3 40.7527C179.486 40.6526 179.693 40.5962 179.904 40.5876C180.115 40.579 180.326 40.6185 180.52 40.703C180.714 40.7876 180.886 40.9151 181.023 41.0758C181.161 41.2366 181.26 41.4264 181.313 41.631L184.144 52.4148C184.231 52.7455 184.194 53.0966 184.041 53.402C183.887 53.7073 183.626 53.9458 183.309 54.0725Z" fill="#FFB9B9"/>
<path d="M184.288 39.5711C180.607 41.0074 177.678 43.4588 175.383 46.7635L168.191 36.3173L173.328 26.5562L184.288 39.5711Z" fill="#6C63FF"/>
<path d="M164.414 19.3727C161.043 20.775 157.508 20.718 153.829 19.3727C154.9 17.5452 153.299 16.1139 152.478 14.2691L166.216 13.8608C165.166 15.4635 163.615 17.3569 164.414 19.3727Z" fill="white"/>
<path d="M166.071 14.1657L165.911 14.0064L166.136 13.7812L167.482 12.2109L167.653 12.3573L166.302 13.9339L166.071 14.1657Z" fill="white"/>
<path d="M151.536 13.2112L151.392 13.3843L152.743 14.5104L152.887 14.3373L151.536 13.2112Z" fill="white"/>
<path d="M166.459 15.4897L164.093 19.2056L164.283 19.3265L166.649 15.6107L166.459 15.4897Z" fill="white"/>
<path d="M151.784 15.4894L151.594 15.6104L153.959 19.3266L154.149 19.2056L151.784 15.4894Z" fill="white"/>
<path d="M166.892 56.8145V60.8948L165.471 61.4604C165.426 61.478 165.381 61.4931 165.333 61.5082L160.574 62.9085C159.966 63.087 159.123 62.2674 158.631 61.7018C158.387 61.4292 158.248 61.0782 158.241 60.7124C158.234 60.3466 158.358 59.9903 158.59 59.7081C158.656 59.6323 158.728 59.5625 158.807 59.4994C158.99 59.3567 159.206 59.2617 159.435 59.2229L164.189 58.2877C164.36 58.2542 164.524 58.1931 164.674 58.1067L166.892 56.8145Z" fill="white"/>
<path d="M168.95 42.2605H168.136C168.136 30.7491 165.766 22.727 163.456 22.727L163.253 21.9131C165.324 21.9131 166.645 25.2518 167.388 28.0528C168.395 31.8499 168.95 36.8957 168.95 42.2605Z" fill="#3F3D56"/>
<path d="M150.231 39.4121H149.417C149.417 28.8695 151.804 22.3203 155.318 22.3203L155.114 23.1342C152.683 23.1342 150.231 28.1675 150.231 39.4121Z" fill="#3F3D56"/>
<path d="M168.544 44.4992C169.667 44.4992 170.578 43.5882 170.578 42.4644C170.578 41.3407 169.667 40.4297 168.544 40.4297C167.42 40.4297 166.509 41.3407 166.509 42.4644C166.509 43.5882 167.42 44.4992 168.544 44.4992Z" fill="#3F3D56"/>
<path d="M146.975 44.2957H146.161C146.161 41.3786 147.804 39.0054 149.824 39.0054V39.8193C148.253 39.8193 146.975 41.8274 146.975 44.2957Z" fill="#3F3D56"/>
<path d="M153.486 44.2957H152.672C152.672 41.8274 151.395 39.8193 149.824 39.8193V39.0054C151.843 39.0054 153.486 41.3786 153.486 44.2957Z" fill="#3F3D56"/>
<path d="M153.08 45.3129C153.529 45.3129 153.893 44.9485 153.893 44.499C153.893 44.0495 153.529 43.6851 153.08 43.6851C152.63 43.6851 152.266 44.0495 152.266 44.499C152.266 44.9485 152.63 45.3129 153.08 45.3129Z" fill="#3F3D56"/>
<path d="M146.568 45.3129C147.018 45.3129 147.382 44.9485 147.382 44.499C147.382 44.0495 147.018 43.6851 146.568 43.6851C146.119 43.6851 145.754 44.0495 145.754 44.499C145.754 44.9485 146.119 45.3129 146.568 45.3129Z" fill="#3F3D56"/>
<path d="M48.4846 17.1471L34.1904 19.5678C33.8373 19.628 33.4744 19.5551 33.1719 19.3632C32.8695 19.1713 32.6489 18.874 32.553 18.5289C31.5203 14.8015 29.3611 9.93906 31.4575 7.49811C31.5643 6.47122 32.063 5.52508 32.8498 4.85665C33.6367 4.18822 34.651 3.84901 35.6817 3.90964C38.2352 -0.0875099 42.4885 0.512637 45.3632 3.00903C48.2563 4.00731 49.347 5.78081 48.9656 8.18752C50.2154 9.28153 50.8707 10.5138 51.0089 11.8663C51.0744 12.619 50.9786 13.377 50.728 14.0897C50.4773 14.8024 50.0775 15.4534 49.5553 15.9994L48.4846 17.1471Z" fill="#2F2E41"/>
<path d="M46.2618 28.4006L35.1807 27.7488C36.2666 25.2562 36.7004 22.856 36.2671 20.5786H44.5236C44.5049 22.3272 45.3751 25.352 46.2618 28.4006Z" fill="#9F616A"/>
<path d="M32.9232 130.794L32.4687 137.007C32.4481 137.289 32.4879 137.571 32.5854 137.836C32.6829 138.1 32.8358 138.341 33.034 138.542C33.2322 138.742 33.4709 138.898 33.7343 138.999C33.9977 139.1 34.2795 139.143 34.561 139.126L37.7525 138.933C37.9004 138.924 38.0445 138.882 38.1745 138.811C38.3046 138.741 38.4174 138.642 38.505 138.522C38.5926 138.403 38.6528 138.266 38.6813 138.12C38.7099 137.975 38.706 137.825 38.6701 137.681L36.8986 130.595L32.9232 130.794Z" fill="#E6E6E6"/>
<path d="M43.2558 130.595L41.4842 137.681C41.4483 137.825 41.4445 137.975 41.473 138.12C41.5015 138.266 41.5617 138.403 41.6493 138.522C41.7369 138.642 41.8497 138.741 41.9798 138.811C42.1098 138.882 42.2539 138.924 42.4018 138.933L45.5933 139.126C45.8748 139.143 46.1567 139.1 46.42 138.999C46.6834 138.898 46.9222 138.742 47.1203 138.542C47.3185 138.341 47.4714 138.1 47.5689 137.836C47.6664 137.571 47.7062 137.289 47.6857 137.007L47.2312 130.794L43.2558 130.595Z" fill="#E6E6E6"/>
<path d="M38.5926 85.3825L36.981 130.818L33.2149 130.683L26.1386 67.9033H52.8328L47.2103 131.383L43.36 130.996L39.0914 85.3681L38.5926 85.3825Z" fill="#6C63FF" stroke="#6C63FF" stroke-width="0.5"/>
<path d="M40.6133 23.2163C45.158 23.2163 48.8423 19.532 48.8423 14.9873C48.8423 10.4425 45.158 6.7583 40.6133 6.7583C36.0685 6.7583 32.3843 10.4425 32.3843 14.9873C32.3843 19.532 36.0685 23.2163 40.6133 23.2163Z" fill="#9F616A"/>
<path d="M49.8879 11.0558C46.548 10.4742 43.2643 10.3943 40.0723 11.1321C38.0389 11.7977 35.597 11.7364 32.8813 11.188V5.63867L47.5422 5.90292L49.8879 11.0558Z" fill="#2F2E41"/>
<path d="M46.09 21.5899C42.4901 23.0873 38.7153 23.0265 34.7863 21.5899C35.9296 19.6384 34.2206 18.11 33.3433 16.1401L48.0141 15.7041C46.8921 17.4154 45.2367 19.4373 46.09 21.5899Z" fill="white"/>
<path d="M32.3327 15.0163L32.1885 15.1895L33.6314 16.3919L33.7757 16.2188L32.3327 15.0163Z" fill="white"/>
<path d="M48.2798 17.4475L45.7539 21.4155L45.9439 21.5365L48.4699 17.5685L48.2798 17.4475Z" fill="white"/>
<path d="M32.5958 17.4474L32.4058 17.5684L34.9311 21.5367L35.1211 21.4158L32.5958 17.4474Z" fill="white"/>
<path d="M24.9685 52.5182L18.6675 48.6072L24.0412 32.8687C24.6405 31.2447 25.7885 29.8812 27.2866 29.0138L29.0968 27.9658L29.2542 43.843L24.9685 52.5182Z" fill="#6C63FF"/>
<path d="M52.2046 60.1624L51.2724 52.1776C51.2226 47.963 51.9396 43.8883 53.6493 40.1338L54.5184 28.4007L44.9582 24.4897C44.9288 24.6846 44.9039 24.8793 44.876 25.074L40.3953 27.3144L36.0256 26.3212L36.0498 24.9243L27.3586 28.8353C30.2328 42.1975 28.6652 56.0735 23.7227 72.4635L35.1724 75.5943L35.2676 70.0964L45.4718 69.3675C45.5769 71.1513 45.6614 72.9033 45.7104 74.6165C51.4683 76.7363 51.6661 76.7012 56.9123 73.666C54.8231 69.2734 53.1689 64.7026 52.2046 60.1624Z" fill="#6C63FF"/>
<path d="M66.9035 50.5626L61.0371 48.6071L51.6533 37.683L54.5186 28.4004L67.5553 46.6517L66.9035 50.5626Z" fill="#6C63FF"/>
<path d="M48.5177 59.0203C48.6137 59.4415 48.8728 59.8075 49.2383 60.038C49.6037 60.2684 50.0456 60.3446 50.4671 60.2498L55.447 59.122L54.7272 55.9434L49.7473 57.0709C49.3257 57.1664 48.9594 57.4254 48.7289 57.791C48.4983 58.1566 48.4223 58.5987 48.5177 59.0203Z" fill="#E6E6E6"/>
<path d="M52.9976 55.343L55.8222 60.5577C60.5731 59.2326 64.6906 55.0552 68.6416 50.1283L67.5552 46.6519L60.8196 48.3901L52.9976 55.343Z" fill="#6C63FF"/>
<path d="M16.1689 38.9858L21.5915 39.9541L33.9858 57.5773L27.4014 56.028L16.1689 38.9858Z" fill="#E6E6E6"/>
<path d="M15.2072 38.77C15.1246 38.7713 15.0438 38.7947 14.9733 38.8378C14.9028 38.881 14.8452 38.9423 14.8066 39.0153C14.7679 39.0883 14.7495 39.1704 14.7534 39.253C14.7574 39.3355 14.7834 39.4155 14.8288 39.4846L26.4142 57.0625C26.4789 57.1608 26.5787 57.2306 26.6932 57.2574L32.0836 58.5257C32.1745 58.5471 32.2697 58.5403 32.3567 58.5063C32.4436 58.4723 32.5182 58.4127 32.5705 58.3354C32.6228 58.258 32.6504 58.1666 32.6495 58.0732C32.6486 57.9799 32.6194 57.889 32.5657 57.8126L19.8456 39.7262C19.8111 39.677 19.7672 39.635 19.7165 39.6026C19.6657 39.5703 19.6091 39.5483 19.5499 39.5379L15.2941 38.7779C15.2654 38.7727 15.2363 38.7701 15.2072 38.77Z" fill="#6C63FF"/>
<path d="M22.4341 51.338L22.7561 54.5813L27.8371 54.0769C28.2672 54.0342 28.6627 53.8224 28.9366 53.4881C29.2105 53.1538 29.3404 52.7244 29.2978 52.2943C29.2551 51.8643 29.0433 51.4687 28.709 51.1948C28.3747 50.9209 27.9453 50.791 27.5152 50.8337L22.4341 51.338Z" fill="#E6E6E6"/>
<path d="M18.0161 50.9627C18.0235 52.0685 18.4676 53.1267 19.2518 53.9065C20.0359 54.6864 21.0965 55.1247 22.2024 55.126H23.0379L23.6461 50.0572L18.61 48.2441L18.0161 50.9627Z" fill="#6C63FF"/>
<path d="M47.6124 16.265L47.4531 16.1058L47.6937 15.8652L49.1308 14.188L49.3018 14.3344L47.8588 16.0179L47.6124 16.265Z" fill="white"/>
<path d="M200 138.861H0V139.311H200V138.861Z" fill="#3F3D56"/>
<path d="M76.3516 138.635H123.649V81.2669C123.649 78.2291 120.657 75.7578 116.979 75.7578H83.0214C79.3436 75.7578 76.3516 78.2291 76.3516 81.2669V138.635Z" fill="#E6E6E6"/>
<path d="M79.9551 136.263H120.045V87.6364C120.045 85.0615 117.509 82.9668 114.392 82.9668H85.6086C82.4912 82.9668 79.9551 85.0615 79.9551 87.6364V136.263Z" fill="white"/>
<path d="M75.9942 71.293C74.8252 71.293 73.874 72.0786 73.874 73.0442V78.0991C73.874 79.0647 74.8252 79.8503 75.9942 79.8503H124.006C125.175 79.8503 126.126 79.0647 126.126 78.0991V73.0442C126.126 72.0786 125.175 71.293 124.006 71.293H75.9942Z" fill="#3F3D56"/>
<path d="M85.8516 130.028C85.3027 130.029 84.7768 130.248 84.3887 130.636C84.0006 131.024 83.7819 131.55 83.7803 132.099C83.7819 132.648 84.0006 133.174 84.3887 133.562C84.7768 133.95 85.3027 134.169 85.8516 134.17H89.7287V130.028H85.8516Z" fill="#3F3D56"/>
<path d="M93.287 130.028H89.5161V134.17H93.287C93.8358 134.169 94.3618 133.95 94.7499 133.562C95.138 133.174 95.3567 132.648 95.3583 132.099C95.3567 131.55 95.138 131.024 94.7499 130.636C94.3617 130.248 93.8358 130.029 93.287 130.028Z" fill="#6C63FF"/>
<path opacity="0.2" d="M94.6386 130.535C94.9652 130.91 95.1454 131.39 95.1459 131.887C95.1443 132.436 94.9255 132.962 94.5374 133.35C94.1493 133.738 93.6234 133.956 93.0745 133.958H89.5161V134.171H93.287C93.8358 134.169 94.3618 133.95 94.7499 133.562C95.138 133.174 95.3567 132.648 95.3583 132.099C95.3578 131.802 95.2933 131.509 95.1691 131.239C95.0449 130.969 94.8639 130.729 94.6386 130.535Z" fill="black"/>
<path d="M103.347 98.8282C102.969 98.4299 102.449 98.1973 101.901 98.1811C101.352 98.1649 100.82 98.3665 100.419 98.7418C100.021 99.1194 99.7881 99.6393 99.7719 100.188C99.7557 100.737 99.9573 101.269 100.333 101.67L102.992 104.491L106.006 101.649L103.347 98.8282Z" fill="#3F3D56"/>
<path d="M108.447 104.239L105.861 101.495L102.846 104.337L105.433 107.081C105.81 107.479 106.33 107.712 106.879 107.728C107.428 107.744 107.96 107.542 108.361 107.167C108.759 106.789 108.992 106.27 109.008 105.721C109.024 105.172 108.823 104.64 108.447 104.239Z" fill="#6C63FF"/>
<path opacity="0.2" d="M109.005 105.57C108.957 106.065 108.731 106.525 108.37 106.867C107.969 107.242 107.436 107.444 106.888 107.427C106.339 107.411 105.819 107.179 105.442 106.78L103.001 104.191L102.846 104.337L105.433 107.081C105.81 107.479 106.33 107.711 106.879 107.728C107.428 107.744 107.96 107.542 108.361 107.167C108.577 106.963 108.746 106.715 108.857 106.439C108.968 106.164 109.019 105.867 109.005 105.57Z" fill="black"/>
<path d="M92.3109 105.36C91.9333 104.962 91.4133 104.729 90.8647 104.713C90.3161 104.697 89.7834 104.898 89.3829 105.274C88.9846 105.651 88.752 106.171 88.7358 106.72C88.7196 107.268 88.9211 107.801 89.2965 108.202L91.9559 111.023L94.9703 108.181L92.3109 105.36Z" fill="#3F3D56"/>
<path d="M97.4116 110.771L94.825 108.027L91.8105 110.868L94.3971 113.612C94.7747 114.011 95.2947 114.243 95.8433 114.259C96.3919 114.276 96.9246 114.074 97.3251 113.699C97.7234 113.321 97.9561 112.801 97.9723 112.253C97.9884 111.704 97.7869 111.171 97.4116 110.771Z" fill="#6C63FF"/>
<path opacity="0.2" d="M97.9696 112.102C97.9211 112.597 97.6953 113.057 97.334 113.398C96.9335 113.774 96.4008 113.975 95.8522 113.959C95.3035 113.943 94.7836 113.71 94.406 113.312L91.9651 110.723L91.8105 110.868L94.3971 113.612C94.7747 114.011 95.2947 114.243 95.8433 114.259C96.3919 114.276 96.9246 114.074 97.3251 113.699C97.541 113.495 97.7103 113.246 97.8215 112.971C97.9327 112.695 97.9832 112.399 97.9696 112.102Z" fill="black"/>
<path d="M103.347 111.441C102.969 111.043 102.449 110.81 101.901 110.794C101.352 110.778 100.82 110.979 100.419 111.355C100.021 111.732 99.7881 112.252 99.7719 112.801C99.7557 113.349 99.9573 113.882 100.333 114.283L102.992 117.104L106.006 114.262L103.347 111.441Z" fill="#3F3D56"/>
<path d="M108.447 116.852L105.861 114.108L102.846 116.949L105.433 119.693C105.81 120.092 106.33 120.324 106.879 120.341C107.428 120.357 107.96 120.155 108.361 119.78C108.759 119.402 108.992 118.882 109.008 118.334C109.024 117.785 108.823 117.252 108.447 116.852Z" fill="#6C63FF"/>
<path opacity="0.2" d="M109.005 118.183C108.957 118.678 108.731 119.138 108.37 119.479C107.969 119.855 107.436 120.056 106.888 120.04C106.339 120.024 105.819 119.791 105.442 119.393L103.001 116.804L102.846 116.949L105.433 119.693C105.81 120.092 106.33 120.324 106.879 120.34C107.428 120.357 107.96 120.155 108.361 119.78C108.577 119.576 108.746 119.327 108.857 119.052C108.968 118.776 109.019 118.48 109.005 118.183Z" fill="black"/>
<path d="M110.08 124.384C110.473 124.001 110.7 123.479 110.709 122.93C110.719 122.381 110.511 121.851 110.131 121.455C109.748 121.061 109.225 120.835 108.677 120.826C108.128 120.816 107.598 121.024 107.202 121.404L104.413 124.098L107.291 127.077L110.08 124.384Z" fill="#3F3D56"/>
<path d="M104.731 129.55L107.444 126.93L104.566 123.95L101.853 126.57C101.46 126.952 101.233 127.475 101.224 128.024C101.214 128.573 101.422 129.103 101.803 129.499C102.185 129.892 102.708 130.119 103.257 130.128C103.805 130.138 104.336 129.93 104.731 129.55Z" fill="#6C63FF"/>
<path opacity="0.2" d="M103.407 130.124C102.912 130.081 102.449 129.861 102.103 129.504C101.723 129.108 101.515 128.578 101.524 128.029C101.534 127.48 101.76 126.958 102.154 126.575L104.713 124.103L104.566 123.95L101.853 126.57C101.46 126.952 101.233 127.475 101.224 128.024C101.214 128.573 101.422 129.103 101.803 129.499C102.009 129.712 102.26 129.878 102.537 129.986C102.813 130.094 103.11 130.141 103.407 130.124Z" fill="black"/>
<path d="M95.215 117.853C95.6087 117.47 95.835 116.947 95.8445 116.399C95.8541 115.85 95.646 115.32 95.2659 114.924C94.8834 114.53 94.3607 114.304 93.812 114.294C93.2632 114.285 92.7329 114.493 92.3371 114.873L89.5483 117.566L92.4263 120.546L95.215 117.853Z" fill="#3F3D56"/>
<path d="M89.8667 123.018L92.579 120.399L89.701 117.419L86.9887 120.039C86.595 120.421 86.3687 120.944 86.3592 121.493C86.3497 122.041 86.5577 122.572 86.9379 122.967C87.3203 123.361 87.843 123.587 88.3918 123.597C88.9406 123.607 89.4708 123.399 89.8667 123.018Z" fill="#6C63FF"/>
<path opacity="0.2" d="M88.5421 123.592C88.0469 123.55 87.5838 123.33 87.2382 122.973C86.8581 122.577 86.6501 122.047 86.6596 121.498C86.6691 120.949 86.8954 120.426 87.2891 120.044L89.8486 117.572L89.701 117.419L86.9887 120.039C86.595 120.421 86.3687 120.944 86.3592 121.493C86.3497 122.041 86.5577 122.572 86.9379 122.967C87.1446 123.181 87.395 123.347 87.6718 123.455C87.9486 123.563 88.2455 123.61 88.5421 123.592Z" fill="black"/>
<path d="M116.386 109.97C116.78 109.587 117.006 109.065 117.015 108.516C117.025 107.967 116.817 107.437 116.437 107.041C116.054 106.647 115.532 106.421 114.983 106.411C114.434 106.402 113.904 106.61 113.508 106.99L110.719 109.684L113.597 112.663L116.386 109.97Z" fill="#3F3D56"/>
<path d="M111.038 115.135L113.75 112.515L110.872 109.536L108.16 112.155C107.766 112.538 107.54 113.061 107.531 113.609C107.521 114.158 107.729 114.688 108.109 115.084C108.492 115.478 109.014 115.704 109.563 115.714C110.112 115.723 110.642 115.515 111.038 115.135Z" fill="#6C63FF"/>
<path opacity="0.2" d="M109.713 115.709C109.218 115.667 108.755 115.447 108.41 115.089C108.029 114.694 107.821 114.163 107.831 113.614C107.841 113.066 108.067 112.543 108.46 112.161L111.02 109.688L110.872 109.536L108.16 112.155C107.766 112.538 107.54 113.061 107.531 113.609C107.521 114.158 107.729 114.688 108.109 115.084C108.316 115.298 108.566 115.464 108.843 115.572C109.12 115.68 109.417 115.726 109.713 115.709Z" fill="black"/>
<path d="M111.681 126.306C111.303 125.907 110.783 125.675 110.234 125.659C109.686 125.642 109.153 125.844 108.753 126.219C108.354 126.597 108.122 127.117 108.105 127.665C108.089 128.214 108.291 128.747 108.666 129.147L111.325 131.969L114.34 129.127L111.681 126.306Z" fill="#3F3D56"/>
<path d="M116.781 131.717L114.194 128.973L111.18 131.814L113.766 134.558C114.144 134.956 114.664 135.189 115.212 135.205C115.761 135.221 116.294 135.02 116.694 134.645C117.093 134.267 117.325 133.747 117.341 133.198C117.358 132.65 117.156 132.117 116.781 131.717Z" fill="#6C63FF"/>
<path opacity="0.2" d="M117.339 133.048C117.29 133.543 117.064 134.003 116.703 134.344C116.303 134.72 115.77 134.921 115.221 134.905C114.673 134.889 114.153 134.656 113.775 134.258L111.334 131.668L111.18 131.814L113.766 134.558C114.144 134.956 114.664 135.189 115.212 135.205C115.761 135.221 116.294 135.02 116.694 134.645C116.91 134.44 117.079 134.192 117.191 133.917C117.302 133.641 117.352 133.345 117.339 133.048Z" fill="black"/>
<path d="M97.0409 126.081C96.6632 125.682 96.1433 125.45 95.5947 125.434C95.0461 125.417 94.5134 125.619 94.1129 125.994C93.7146 126.372 93.4819 126.892 93.4657 127.44C93.4496 127.989 93.6511 128.522 94.0264 128.922L96.6858 131.743L99.7003 128.902L97.0409 126.081Z" fill="#3F3D56"/>
<path d="M102.141 131.491L99.5545 128.748L96.54 131.589L99.1266 134.333C99.5042 134.731 100.024 134.964 100.573 134.98C101.121 134.996 101.654 134.795 102.055 134.42C102.453 134.042 102.686 133.522 102.702 132.973C102.718 132.425 102.516 131.892 102.141 131.491Z" fill="#6C63FF"/>
<path opacity="0.2" d="M102.699 132.823C102.651 133.318 102.425 133.778 102.063 134.119C101.663 134.494 101.13 134.696 100.582 134.68C100.033 134.664 99.5131 134.431 99.1355 134.033L96.6946 131.443L96.54 131.589L99.1266 134.333C99.5042 134.731 100.024 134.964 100.573 134.98C101.121 134.996 101.654 134.795 102.055 134.419C102.27 134.215 102.44 133.967 102.551 133.691C102.662 133.416 102.713 133.12 102.699 132.823Z" fill="black"/>
<path d="M101.162 118.65C101.162 119.338 100.924 120.006 100.489 120.539C100.053 121.073 99.4469 121.44 98.7721 121.577C98.3778 121.657 97.9716 121.657 97.5773 121.577C96.9026 121.439 96.2963 121.073 95.8608 120.539C95.4253 120.006 95.1875 119.338 95.1875 118.65C95.1875 117.961 95.4253 117.294 95.8608 116.76C96.2963 116.227 96.9026 115.86 97.5773 115.722C97.9716 115.643 98.3778 115.643 98.7721 115.722C99.4469 115.86 100.053 116.227 100.489 116.76C100.924 117.294 101.162 117.961 101.162 118.65Z" fill="#6C63FF"/>
<path opacity="0.2" d="M98.772 115.722V121.577C98.3777 121.657 97.9715 121.657 97.5771 121.577V115.722C97.9715 115.643 98.3777 115.643 98.772 115.722Z" fill="black"/>
<path d="M102.513 106.713C102.513 107.401 102.275 108.069 101.84 108.602C101.404 109.136 100.798 109.503 100.123 109.64C99.7289 109.72 99.3226 109.72 98.9283 109.64C98.2537 109.502 97.6473 109.136 97.2119 108.602C96.7764 108.069 96.5386 107.401 96.5386 106.713C96.5386 106.024 96.7764 105.357 97.2119 104.823C97.6473 104.29 98.2537 103.923 98.9283 103.785C99.3226 103.706 99.7289 103.706 100.123 103.785C100.798 103.923 101.404 104.29 101.84 104.823C102.275 105.357 102.513 106.024 102.513 106.713Z" fill="#6C63FF"/>
<path opacity="0.2" d="M100.123 103.785V109.64C99.7288 109.72 99.3225 109.72 98.9282 109.64V103.785C99.3225 103.706 99.7288 103.706 100.123 103.785Z" fill="black"/>
<path d="M102.513 123.83C102.513 124.519 102.275 125.186 101.84 125.72C101.404 126.253 100.798 126.62 100.123 126.757C99.7289 126.837 99.3226 126.837 98.9283 126.757C98.2537 126.62 97.6473 126.253 97.2119 125.719C96.7764 125.186 96.5386 124.519 96.5386 123.83C96.5386 123.141 96.7764 122.474 97.2119 121.94C97.6473 121.407 98.2537 121.04 98.9283 120.903C99.3226 120.823 99.7289 120.823 100.123 120.903C100.798 121.04 101.404 121.407 101.84 121.94C102.275 122.474 102.513 123.141 102.513 123.83Z" fill="#6C63FF"/>
<path opacity="0.2" d="M100.123 120.903V126.757C99.7288 126.837 99.3225 126.837 98.9282 126.757V120.903C99.3225 120.823 99.7288 120.823 100.123 120.903Z" fill="black"/>
<path d="M109.946 132.163C109.946 132.852 109.708 133.52 109.272 134.053C108.837 134.587 108.231 134.953 107.556 135.091C107.162 135.171 106.755 135.171 106.361 135.091C105.686 134.953 105.08 134.586 104.644 134.053C104.209 133.52 103.971 132.852 103.971 132.163C103.971 131.475 104.209 130.807 104.644 130.274C105.08 129.741 105.686 129.374 106.361 129.236C106.755 129.156 107.162 129.156 107.556 129.236C108.231 129.374 108.837 129.74 109.272 130.274C109.708 130.807 109.946 131.475 109.946 132.163Z" fill="#6C63FF"/>
<path opacity="0.2" d="M107.556 129.236V135.091C107.161 135.171 106.755 135.171 106.361 135.091V129.236C106.755 129.156 107.161 129.156 107.556 129.236Z" fill="black"/>
<path d="M116.511 116.831C117.007 117.309 117.323 117.943 117.405 118.627C117.486 119.311 117.33 120.002 116.961 120.583C116.744 120.922 116.462 121.215 116.131 121.444C115.564 121.834 114.879 122.016 114.193 121.959C113.507 121.902 112.861 121.61 112.365 121.133C111.869 120.655 111.554 120.02 111.472 119.337C111.39 118.653 111.547 117.962 111.916 117.38C112.132 117.041 112.414 116.749 112.745 116.52C113.312 116.13 113.997 115.948 114.683 116.004C115.37 116.061 116.015 116.353 116.511 116.831Z" fill="#6C63FF"/>
<path opacity="0.2" d="M112.745 116.52L116.96 120.583C116.744 120.922 116.462 121.215 116.131 121.443L111.916 117.38C112.132 117.041 112.414 116.749 112.745 116.52Z" fill="black"/>
<path d="M117.412 123.362C117.908 123.84 118.224 124.475 118.305 125.158C118.387 125.842 118.23 126.533 117.861 127.114C117.645 127.454 117.363 127.746 117.032 127.975C116.465 128.365 115.78 128.547 115.094 128.49C114.407 128.434 113.762 128.142 113.266 127.664C112.77 127.186 112.455 126.551 112.373 125.868C112.291 125.184 112.448 124.493 112.817 123.912C113.033 123.572 113.315 123.28 113.646 123.051C114.213 122.661 114.898 122.479 115.584 122.536C116.271 122.592 116.916 122.884 117.412 123.362Z" fill="#6C63FF"/>
<path opacity="0.2" d="M113.646 123.051L117.861 127.114C117.645 127.454 117.363 127.746 117.032 127.975L112.816 123.912C113.033 123.572 113.315 123.28 113.646 123.051Z" fill="black"/>
<path d="M90.6103 124.939C91.1062 125.417 91.4218 126.051 91.5037 126.735C91.5856 127.419 91.4287 128.11 91.0596 128.691C90.8433 129.03 90.5614 129.323 90.2304 129.551C89.663 129.942 88.9782 130.124 88.2919 130.067C87.6056 130.01 86.96 129.718 86.4642 129.24C85.9684 128.763 85.6529 128.128 85.571 127.444C85.4891 126.761 85.6459 126.07 86.0149 125.488C86.2312 125.149 86.5131 124.857 86.8441 124.628C87.4115 124.238 88.0963 124.056 88.7826 124.112C89.4689 124.169 90.1146 124.461 90.6103 124.939Z" fill="#6C63FF"/>
<path opacity="0.2" d="M86.8439 124.628L91.0594 128.691C90.8431 129.03 90.5612 129.323 90.2302 129.551L86.0146 125.488C86.2309 125.149 86.5129 124.857 86.8439 124.628Z" fill="black"/>
<path opacity="0.2" d="M80.9684 71.293H79.8423V79.6263H80.9684V71.293Z" fill="black"/>
<path opacity="0.2" d="M87.5001 71.293H86.374V79.6263H87.5001V71.293Z" fill="black"/>
<path opacity="0.2" d="M94.0314 71.293H92.9053V79.6263H94.0314V71.293Z" fill="black"/>
<path opacity="0.2" d="M100.563 71.293H99.437V79.6263H100.563V71.293Z" fill="black"/>
<path opacity="0.2" d="M107.094 71.293H105.968V79.6263H107.094V71.293Z" fill="black"/>
<path opacity="0.2" d="M113.626 71.293H112.5V79.6263H113.626V71.293Z" fill="black"/>
<path opacity="0.2" d="M120.158 71.293H119.032V79.6263H120.158V71.293Z" fill="black"/>
</g>
<defs>
<clipPath id="clip0_1_25504">
<rect width="200" height="139.213" fill="white" transform="translate(0 0.0981445)"/>
</clipPath>
</defs>
</svg>
