<svg width="200" height="158" viewBox="0 0 200 158" fill="none" xmlns="http://www.w3.org/2000/svg">
<g clip-path="url(#clip0_1_25059)">
<path d="M199.683 157.151L0.317097 157.233C0.233173 157.233 0.152771 157.199 0.0935128 157.14C0.034255 157.08 0.000976562 157 0.000976562 156.916C0.000976562 156.832 0.034255 156.751 0.0935128 156.692C0.152771 156.632 0.233173 156.599 0.317097 156.599L199.683 156.517C199.767 156.517 199.847 156.551 199.907 156.61C199.966 156.669 199.999 156.75 199.999 156.834C199.999 156.918 199.966 156.998 199.907 157.058C199.847 157.117 199.767 157.151 199.683 157.151Z" fill="#CACACA"/>
<path d="M160.73 150.426V133.276C160.731 132.929 160.869 132.596 161.114 132.35C161.36 132.105 161.693 131.967 162.04 131.967H174.992C175.339 131.967 175.672 132.105 175.917 132.35C176.163 132.596 176.301 132.929 176.301 133.276V150.426C176.301 150.773 176.163 151.106 175.917 151.351C175.672 151.597 175.339 151.735 174.992 151.735H162.04C161.693 151.735 161.36 151.597 161.114 151.351C160.869 151.106 160.731 150.773 160.73 150.426Z" fill="#E6E6E6"/>
<path d="M161.724 145.246V134.22C161.724 133.895 161.854 133.583 162.084 133.353C162.314 133.124 162.625 132.994 162.95 132.994H174.081C174.407 132.994 174.718 133.124 174.948 133.353C175.178 133.583 175.307 133.895 175.308 134.22V149.481C175.307 149.806 175.178 150.118 174.948 150.348C174.718 150.578 174.407 150.707 174.081 150.707H167.186C165.738 150.706 164.35 150.13 163.326 149.106C162.302 148.082 161.726 146.694 161.724 145.246Z" fill="white"/>
<path d="M163.526 137.297C163.527 136.979 163.653 136.674 163.878 136.45C164.102 136.225 164.407 136.099 164.725 136.098H172.446C172.764 136.098 173.069 136.225 173.294 136.449C173.518 136.674 173.644 136.979 173.644 137.297C173.644 137.614 173.518 137.919 173.294 138.144C173.069 138.369 172.764 138.495 172.446 138.495H164.725C164.407 138.494 164.102 138.368 163.878 138.143C163.653 137.919 163.527 137.614 163.526 137.297Z" fill="#E6E6E6"/>
<path d="M163.526 141.024C163.527 140.706 163.653 140.402 163.878 140.177C164.102 139.953 164.407 139.826 164.725 139.826H172.446C172.764 139.826 173.069 139.952 173.294 140.177C173.518 140.402 173.644 140.706 173.644 141.024C173.644 141.342 173.518 141.647 173.294 141.871C173.069 142.096 172.764 142.222 172.446 142.222H164.725C164.407 142.222 164.102 142.096 163.878 141.871C163.653 141.646 163.527 141.342 163.526 141.024Z" fill="#E6E6E6"/>
<path d="M163.526 144.752C163.527 144.434 163.653 144.13 163.878 143.905C164.102 143.68 164.407 143.554 164.725 143.554H172.446C172.764 143.554 173.069 143.68 173.294 143.905C173.518 144.129 173.644 144.434 173.644 144.752C173.644 145.07 173.518 145.374 173.294 145.599C173.069 145.824 172.764 145.95 172.446 145.95H164.725C164.407 145.95 164.102 145.823 163.878 145.599C163.653 145.374 163.527 145.07 163.526 144.752Z" fill="#E6E6E6"/>
<path d="M163.132 61.5736C158.254 69.5388 153.394 85.3235 146.624 85.8777C137.537 86.6216 130.115 70.691 130.115 61.5736C130.115 57.1953 131.855 52.9963 134.95 49.9004C138.046 46.8045 142.245 45.0652 146.624 45.0652C155.741 45.0652 167.894 53.7986 163.132 61.5736Z" fill="#CCCCCC"/>
<path d="M148.887 88.7695C147.331 88.7695 145.79 89.076 144.353 89.6715C142.915 90.2669 141.609 91.1397 140.509 92.24C139.408 93.3402 138.535 94.6464 137.94 96.084C137.345 97.5215 137.038 99.0623 137.038 100.618L144.227 136.697V153.036C143.47 153.215 142.794 153.645 142.311 154.256C141.828 154.866 141.565 155.622 141.565 156.401H147.955V136.697H152.215V152.985C151.4 153.111 150.656 153.525 150.119 154.151C149.582 154.778 149.287 155.576 149.286 156.401H155.943V136.697L160.736 100.618C160.736 99.0623 160.429 97.5215 159.834 96.084C159.238 94.6464 158.366 93.3402 157.265 92.2399C156.165 91.1397 154.859 90.2669 153.421 89.6715C151.984 89.076 150.443 88.7695 148.887 88.7695Z" fill="#CCCCCC"/>
<path d="M115.002 97.9703C114.116 97.0849 112.513 96.4912 110.678 96.4912C107.884 96.4912 105.619 97.8621 105.619 99.5533C105.619 101.244 107.884 102.615 110.678 102.615C111.97 102.644 113.245 102.31 114.357 101.65L114.356 101.666L142.205 103.041L142.576 99.3317L115.002 97.9703Z" fill="#CCCCCC"/>
<path d="M158.941 127.985C158.296 129.059 158.107 130.758 158.55 132.539C159.225 135.25 161.102 137.117 162.743 136.709C164.384 136.301 165.168 133.772 164.493 131.06C164.209 129.799 163.577 128.643 162.668 127.722L162.684 127.72L157.294 100.363L153.605 100.898L158.941 127.985Z" fill="#CCCCCC"/>
<path d="M150.3 54.525C150.669 52.9972 149.485 51.6026 148.093 51.1376C146.253 50.523 144.33 51.3859 142.544 51.7783C141.624 51.9806 140.648 52.0821 139.74 51.7678C139.062 51.5172 138.476 51.0676 138.058 50.4778C137.068 49.1173 137.018 47.3847 137.537 45.8289C138.551 42.7946 141.41 40.5848 144.484 39.9363C148.17 39.1586 151.738 41.0017 155.054 42.3631L158.255 43.6772C159.235 44.0794 160.236 44.4503 161.184 44.9252C162.706 45.688 164.433 47.2078 163.808 49.1156C163.647 49.6052 164.418 49.8151 164.578 49.3279C165.125 47.6573 164.142 45.9745 162.828 44.9893C162.095 44.4739 161.301 44.0506 160.465 43.7289C159.515 43.3296 158.559 42.9444 157.606 42.5531C155.633 41.7432 153.67 40.8977 151.679 40.1354C149.891 39.4513 148.004 38.8922 146.072 38.9485C144.438 39.0074 142.84 39.4486 141.407 40.2366C139.975 41.0246 138.746 42.1375 137.822 43.486C136.789 45.0184 136.176 46.9149 136.488 48.7671C136.738 50.2533 137.695 51.7057 139.081 52.3556C141.167 53.3335 143.342 52.2882 145.422 51.8742C146.423 51.6751 147.54 51.6183 148.44 52.1758C149.156 52.6199 149.741 53.4391 149.53 54.3127C149.41 54.8122 150.18 55.0254 150.3 54.525Z" fill="#3F3D56"/>
<path d="M109.198 99.4233C106.371 99.4517 103.546 99.2558 100.75 98.8375C97.8236 98.3421 96.4604 97.6052 96.4604 96.5178L96.4624 96.4746L101.26 59.9335L98.8758 53.0979C98.7461 52.7332 98.7072 52.3423 98.7626 51.9592C98.818 51.5761 98.966 51.2123 99.1937 50.8992C99.4157 50.5801 99.7136 50.3212 100.061 50.146C100.408 49.9708 100.793 49.8848 101.182 49.8957L117.106 50.0615C117.486 50.0654 117.859 50.1589 118.196 50.3345C118.532 50.5101 118.823 50.7627 119.043 51.0718C119.263 51.3809 119.407 51.7378 119.464 52.1132C119.52 52.4886 119.487 52.872 119.367 53.2321L117.134 59.9291L121.934 96.4721V96.4895C121.935 97.6671 120.399 98.4358 117.101 98.9225C114.481 99.2652 111.84 99.4325 109.198 99.4233ZM101.128 50.4276C100.833 50.4274 100.543 50.4984 100.281 50.6346C100.02 50.7708 99.795 50.9682 99.6262 51.2099C99.4488 51.4537 99.3336 51.7371 99.2904 52.0355C99.2473 52.334 99.2776 52.6384 99.3787 52.9225L101.805 59.8775L101.797 59.9402L96.9923 96.5235L96.9926 96.5321C96.993 97.0397 97.6602 97.7745 100.839 98.3122C103.606 98.7257 106.401 98.9192 109.198 98.8908C111.814 98.9 114.429 98.7346 117.023 98.3957C120.642 97.8616 121.402 97.0719 121.401 96.5038L116.59 59.8769L118.861 53.0636C118.955 52.7831 118.981 52.4844 118.937 52.192C118.893 51.8996 118.781 51.6217 118.609 51.381C118.437 51.1402 118.211 50.9434 117.949 50.8067C117.687 50.6699 117.396 50.597 117.101 50.594L101.173 50.4281C101.158 50.4277 101.143 50.4276 101.128 50.4276Z" fill="#3F3D56"/>
<path opacity="0.5" d="M118.277 92.0419H100.118L102.996 72.5762L103.075 72.0397L104.274 63.9361C104.347 63.4418 104.916 63.8257 105.319 63.5293C107.817 61.6896 110.345 61.6363 112.895 63.4095C113.289 63.6836 113.834 63.3628 113.907 63.8372L115.167 71.9654L115.289 72.7517L118.277 92.0419Z" fill="#6C63FF"/>
<path d="M116.036 94.7676H102.34C101.981 94.7676 101.626 94.6902 101.299 94.5407C100.973 94.3912 100.682 94.1731 100.448 93.9013C100.213 93.6294 100.04 93.3102 99.9399 92.9654C99.8398 92.6206 99.8152 92.2582 99.8677 91.903L103.869 64.8432C103.89 64.7048 103.947 64.5744 104.034 64.4651C104.121 64.3557 104.236 64.2714 104.366 64.2206C104.497 64.1698 104.638 64.1543 104.776 64.1757C104.915 64.1972 105.045 64.2547 105.154 64.3426C107.592 66.2963 110.25 66.2523 113.054 64.2125C113.162 64.133 113.29 64.0831 113.424 64.0675C113.557 64.0519 113.693 64.0712 113.817 64.1236C113.943 64.1756 114.055 64.2595 114.139 64.3671C114.224 64.4748 114.279 64.6025 114.299 64.7379L118.506 91.8862C118.561 92.2424 118.538 92.6064 118.439 92.9531C118.341 93.2998 118.168 93.6211 117.933 93.8948C117.699 94.1685 117.408 94.3882 117.08 94.5389C116.753 94.6896 116.397 94.7676 116.036 94.7676Z" fill="#6C63FF"/>
<path d="M110.525 91.5952H102.743V92.0328H110.525V91.5952Z" fill="white"/>
<path d="M110.525 88.9697H102.743V89.4073H110.525V88.9697Z" fill="white"/>
<path d="M110.525 86.3442H102.743V86.7818H110.525V86.3442Z" fill="white"/>
<path d="M110.525 83.7188H102.743V84.1563H110.525V83.7188Z" fill="white"/>
<path d="M110.525 81.0933H102.743V81.5308H110.525V81.0933Z" fill="white"/>
<path d="M115.656 74.2059C115.053 74.8052 114.327 75.2669 113.528 75.5592C112.729 75.8515 111.877 75.9675 111.029 75.8993C110.078 75.7843 109.16 75.4768 108.331 74.9957C107.454 74.5253 106.605 73.963 105.634 73.7005C104.782 73.4708 103.774 73.4401 103.043 74.009C102.983 74.0553 102.91 74.0813 102.835 74.0832C102.759 74.0852 102.685 74.063 102.623 74.0199L102.706 73.4511C103.112 73.1882 103.567 73.0116 104.044 72.9322C104.521 72.8528 105.009 72.8723 105.478 72.9894C107.43 73.3833 108.911 74.9979 110.911 75.2298C111.773 75.3269 112.647 75.2082 113.452 74.8844C114.257 74.5606 114.97 74.0417 115.525 73.3745L115.527 73.3723L115.656 74.2059Z" fill="white"/>
<path d="M60.6199 13.1504C60.3494 19.0263 55.8413 23.4557 49.9693 23.801C43.6196 24.1743 37.9599 20.0978 39.3187 13.1504C40.8319 5.41367 44.1984 3.63439 49.9693 2.49977C56.7322 1.17013 60.9122 6.80155 60.6199 13.1504Z" fill="#2F2E41"/>
<path d="M82.1054 54.3562C81.7666 54.558 81.3876 54.6831 80.9951 54.7227C80.6027 54.7622 80.2064 54.7152 79.8341 54.585C79.4618 54.4548 79.1225 54.2446 78.8403 53.9691C78.558 53.6936 78.3396 53.3596 78.2004 52.9906L65.7452 55.4084L53.564 50.4206L56.6735 45.4453L65.7549 49.9985L79.9448 49.4212C80.5803 49.2284 81.2644 49.2754 81.8675 49.5533C82.4706 49.8312 82.9508 50.3207 83.2171 50.929C83.4834 51.5373 83.5173 52.2222 83.3124 52.8538C83.1076 53.4855 82.6781 54.02 82.1054 54.3562Z" fill="#FFB6B6"/>
<path d="M43.8047 44.2544C43.8047 44.2544 42.9687 45.4087 45.7167 46.6604C47.9167 47.6624 59.7332 54.0564 63.047 54.5897C63.0801 55.059 63.2684 55.5038 63.5823 55.8543C63.8961 56.2047 64.3176 56.4408 64.7804 56.5253L66.6514 49.8049C65.8086 48.4677 64.8724 48.9547 64.4033 49.3614L60.767 46.4963L50.7583 40.1831L44.3942 43.4093L43.8047 44.2544Z" fill="#F2F2F2"/>
<path d="M61.1526 29.3926L56.5002 28.5999L47.9651 32.5014L43.1724 98.8014L58.2234 91.8408C60.6493 90.7189 63.3946 90.4943 65.9705 91.2069C66.4143 91.3297 66.8817 91.3401 67.3305 91.2372C67.7794 91.1343 68.1955 90.9213 68.5415 90.6174C68.8875 90.3136 69.1524 89.9284 69.3124 89.4966C69.4724 89.0648 69.5224 88.6 69.4579 88.1441L61.1526 29.3926Z" fill="#F2F2F2"/>
<path d="M47.1982 150.612H50.8511L52.5893 136.523H47.1982V150.612Z" fill="#FFB6B6"/>
<path d="M45.2705 156.941H47.89L48.3576 154.468L49.5551 156.941H56.5027C56.8358 156.941 57.1601 156.834 57.4283 156.637C57.6966 156.44 57.8947 156.162 57.9938 155.844C58.0929 155.526 58.0878 155.184 57.9792 154.87C57.8706 154.555 57.6642 154.283 57.3902 154.094L51.842 150.262V147.762L46.0063 148.11L45.2705 156.941Z" fill="#2F2E41"/>
<path d="M28.9946 142.839L31.9411 144.998L41.6704 134.66L37.3218 131.474L28.9946 142.839Z" fill="#FFB6B6"/>
<path d="M23.6987 146.804L25.8117 148.353L27.6506 146.634L27.1549 149.337L32.7591 153.443C33.0277 153.64 33.3522 153.746 33.6853 153.745C34.0183 153.745 34.3424 153.638 34.6103 153.44C34.8781 153.242 35.0757 152.963 35.1742 152.645C35.2726 152.327 35.2668 151.986 35.1576 151.671L32.947 145.301L34.4247 143.284L29.5116 140.116L23.6987 146.804Z" fill="#2F2E41"/>
<path d="M60.5828 86.0244C60.3804 88.8308 56.9723 99.0714 56.9723 99.0714L56.3625 105.265L54.6265 122.91L52.7493 141.98C49.9429 146.994 45.1288 143.578 45.1288 143.578V140.382C45.1288 140.382 44.7534 137.499 44.3753 133.843C43.8161 128.467 43.2489 121.419 43.8454 119.39C43.7866 119.116 43.7422 118.838 43.7123 118.559C43.0998 113.809 41.6088 92.5132 43.7389 90.2367C40.5239 87.0339 38.5702 82.7804 38.2352 78.2548C38.1873 77.5971 38.1473 76.9075 38.1234 76.1912C37.9609 71.6647 41.0523 66.3607 42.2611 64.4755C42.554 64.0176 42.3956 63.2615 42.3956 63.2615L60.0996 70.2855L60.479 70.802V73.004L60.5828 86.0244Z" fill="#35323E"/>
<path d="M56.3624 105.265L54.6264 122.91L44.3752 133.843L39.5717 138.966C34.2917 141.229 32.5557 135.587 32.5557 135.587L34.5021 133.055C34.5021 133.055 39.9658 123.642 43.7122 118.559C44.7479 117.156 45.6532 116.08 46.2736 115.628C47.6742 114.611 51.9051 109.083 55.8778 103.683L56.3624 105.265Z" fill="#35323E"/>
<path d="M37.7337 63.9279C37.7525 64.3198 37.8334 64.7063 37.9733 65.0729C37.9893 65.1181 38.0053 65.1607 38.0239 65.206C38.3524 65.9914 38.9358 66.6432 39.6801 67.0565C39.8991 67.18 40.1302 67.2808 40.3697 67.3574L42.4439 67.6902L60.281 70.5419L60.9973 68.3878L59.6473 65.0116L60.5419 62.1093L60.6636 45.2067C62.7151 41.1727 63.1278 37.3766 60.7443 33.9864V33.9651L57.5039 28.7969L55.3471 25.5298L48.4295 25.3088L47.447 27.8011L45.506 28.962C41.2031 31.5341 39.6534 36.2443 39.7466 41.2581C41.2297 47.0014 40.1381 53.3865 39.0331 60.2322L38.1304 62.0374C37.8379 62.623 37.7013 63.2741 37.7337 63.9279Z" fill="#6C63FF"/>
<path opacity="0.2" d="M37.7339 63.9278C37.7527 64.3197 37.8336 64.7061 37.9735 65.0727L39.6803 67.0564C39.8994 67.1798 40.1304 67.2806 40.3699 67.3573L42.4441 67.6901L39.4433 62.0479L46.0387 47.6084L37.7339 63.9278Z" fill="black"/>
<path d="M53.9633 30.1913L47.4471 27.801L38.9119 31.7026L39.3187 58.948C36.786 61.0385 36.2759 64.052 38.0964 68.1291L34.8048 92.8531C34.7373 93.3601 34.8072 93.8759 35.0071 94.3466C35.2071 94.8173 35.5299 95.2257 35.9416 95.5291C36.3534 95.8325 36.8391 96.0197 37.3479 96.0712C37.8568 96.1228 38.3701 96.0367 38.8343 95.822L45.3281 92.8188C50.2346 90.5497 55.7871 90.0954 60.9973 91.5368L53.9633 30.1913Z" fill="#F2F2F2"/>
<path d="M43.4606 16.8586C43.7639 19.0713 44.9333 21.0731 46.7117 22.424C48.4902 23.775 50.7322 24.3647 52.9452 24.0635C55.1582 23.7623 57.1611 22.5949 58.5138 20.8178C59.8665 19.0406 60.4584 16.7992 60.1593 14.5859L60.1431 14.4663C59.7939 12.2827 58.6004 10.324 56.8201 9.01244C55.0397 7.70094 52.8151 7.14183 50.6263 7.45572C48.4374 7.76962 46.4596 8.93136 45.1195 10.6903C43.7795 12.4493 43.1846 14.6646 43.4632 16.8582L43.4606 16.8586Z" fill="#FFB8B8"/>
<path d="M63.2824 13.6829C61.4486 14.1414 59.53 14.1414 57.6962 13.6829C57.5867 13.1353 57.387 12.6098 57.1051 12.1279C57.0691 12.6602 56.9543 13.1843 56.7643 13.6829C55.2262 14.7493 51.7419 14.1678 48.3716 13.6829V5.16237H54.7619C60.1715 4.67755 64.0974 8.41722 63.2824 13.6829Z" fill="#2F2E41"/>
<path d="M47.1406 0.907717C46.6547 0.230605 45.6953 -0.0648728 44.8343 0.0118514C43.9917 0.125854 43.1874 0.435194 42.4856 0.915193C41.2849 1.65489 40.2033 2.57255 39.278 3.63682C38.4799 4.5589 37.8025 5.83664 38.4283 6.90842C38.9505 7.80273 40.2257 8.14849 41.2841 7.94954C42.3424 7.75061 43.2272 7.12931 44.0465 6.49755C44.8658 5.8658 45.6836 5.1928 46.6947 4.85551L45.8793 4.79117C46.4338 4.28781 46.8968 3.6921 47.2477 3.03053C47.4166 2.6981 47.4956 2.32726 47.4768 1.95485C47.458 1.58245 47.3421 1.22145 47.1406 0.907717Z" fill="#2F2E41"/>
<path d="M55.0284 6.49365H48.1726C46.3187 6.49365 44.5408 7.2301 43.2299 8.54097C41.9191 9.85184 41.1826 11.6298 41.1826 13.4836C41.1829 16.1837 42.1899 18.7866 44.0068 20.7838C45.8238 22.781 48.3202 24.029 51.0082 24.2839L48.638 17.4105L53.2139 24.3334H55.0284C48.8399 19.1696 50.5755 13.0034 55.0284 6.49365Z" fill="#2F2E41"/>
<path d="M76.2114 154.05C75.3184 154.059 74.426 153.998 73.5427 153.866C72.7203 153.726 72.3032 153.529 72.3032 153.278L72.3035 153.274L73.8378 141.592L73.0651 139.377C73.0326 139.284 73.0231 139.185 73.0372 139.087C73.0513 138.99 73.0886 138.897 73.1461 138.817C73.2035 138.737 73.2794 138.672 73.3673 138.627C73.4552 138.583 73.5525 138.56 73.651 138.561L78.7325 138.614C78.8292 138.615 78.9243 138.639 79.0101 138.684C79.0958 138.729 79.1697 138.793 79.2259 138.872C79.282 138.95 79.3187 139.041 79.3331 139.137C79.3474 139.233 79.3389 139.33 79.3083 139.422L78.585 141.592L80.1193 153.274C80.1196 153.888 77.663 154.05 76.2114 154.05Z" fill="#F2F2F2"/>
<path d="M75.7971 152.406H73.3149V152.546H75.7971V152.406Z" fill="#CCCCCC"/>
<path d="M75.7971 151.569H73.3149V151.708H75.7971V151.569Z" fill="#CCCCCC"/>
<path d="M75.7971 150.731H73.3149V150.871H75.7971V150.731Z" fill="#CCCCCC"/>
<path d="M75.7971 149.894H73.3149V150.033H75.7971V149.894Z" fill="#CCCCCC"/>
<path d="M75.7971 149.056H73.3149V149.196H75.7971V149.056Z" fill="#CCCCCC"/>
<path d="M98.544 154.05C97.6509 154.059 96.7585 153.998 95.8752 153.866C95.0528 153.726 94.6357 153.529 94.6357 153.278L94.6361 153.274L96.1703 141.592L95.3976 139.377C95.3652 139.284 95.3556 139.185 95.3697 139.087C95.3838 138.99 95.4211 138.897 95.4786 138.817C95.5361 138.737 95.6119 138.672 95.6998 138.627C95.7877 138.583 95.885 138.56 95.9835 138.561L101.065 138.614C101.162 138.615 101.257 138.639 101.343 138.684C101.428 138.729 101.502 138.793 101.558 138.872C101.615 138.95 101.651 139.041 101.666 139.137C101.68 139.233 101.671 139.33 101.641 139.422L100.918 141.592L102.452 153.274C102.452 153.888 99.9955 154.05 98.544 154.05Z" fill="#F2F2F2"/>
<path d="M98.1301 152.406H95.6479V152.546H98.1301V152.406Z" fill="#CCCCCC"/>
<path d="M98.1301 151.569H95.6479V151.708H98.1301V151.569Z" fill="#CCCCCC"/>
<path d="M98.1301 150.731H95.6479V150.871H98.1301V150.731Z" fill="#CCCCCC"/>
<path d="M98.1301 149.894H95.6479V150.033H98.1301V149.894Z" fill="#CCCCCC"/>
<path d="M98.1301 149.056H95.6479V149.196H98.1301V149.056Z" fill="#CCCCCC"/>
<path d="M88.0757 154.05C87.1826 154.059 86.2903 153.998 85.407 153.866C84.5845 153.726 84.1675 153.529 84.1675 153.278L84.1678 153.274L85.7021 141.592L84.9293 139.377C84.8969 139.284 84.8873 139.185 84.9014 139.087C84.9155 138.99 84.9529 138.897 85.0103 138.817C85.0678 138.737 85.1437 138.672 85.2315 138.627C85.3194 138.583 85.4167 138.56 85.5152 138.561L90.5968 138.614C90.6935 138.615 90.7886 138.639 90.8743 138.684C90.9601 138.729 91.034 138.793 91.0901 138.872C91.1463 138.95 91.183 139.041 91.1973 139.137C91.2117 139.233 91.2032 139.33 91.1726 139.422L90.4493 141.592L91.9836 153.274C91.9839 153.888 89.5273 154.05 88.0757 154.05Z" fill="#F2F2F2"/>
<path d="M87.6614 152.406H85.1792V152.546H87.6614V152.406Z" fill="#CCCCCC"/>
<path d="M87.6614 151.569H85.1792V151.708H87.6614V151.569Z" fill="#CCCCCC"/>
<path d="M87.6614 150.731H85.1792V150.871H87.6614V150.731Z" fill="#CCCCCC"/>
<path d="M87.6614 149.894H85.1792V150.033H87.6614V149.894Z" fill="#CCCCCC"/>
<path d="M87.6614 149.056H85.1792V149.196H87.6614V149.056Z" fill="#CCCCCC"/>
<path d="M104.581 154.918H99.8354V146.962H104.581C104.84 146.962 105.088 146.859 105.271 146.676C105.454 146.492 105.557 146.244 105.557 145.985C105.557 145.726 105.454 145.478 105.271 145.295C105.088 145.112 104.84 145.009 104.581 145.008H71.5008C71.242 145.009 70.9939 145.112 70.811 145.295C70.6281 145.478 70.5254 145.726 70.5254 145.985C70.5254 146.244 70.6281 146.492 70.811 146.676C70.9939 146.859 71.242 146.962 71.5008 146.962H75.5486V154.918H71.5008C71.242 154.919 70.9939 155.022 70.811 155.205C70.6281 155.388 70.5254 155.637 70.5254 155.895C70.5254 156.154 70.6281 156.403 70.811 156.586C70.9939 156.769 71.242 156.872 71.5008 156.873H104.581C104.84 156.872 105.088 156.769 105.271 156.586C105.454 156.403 105.557 156.154 105.557 155.895C105.557 155.637 105.454 155.388 105.271 155.205C105.088 155.022 104.84 154.919 104.581 154.918ZM77.5027 154.918V146.962H97.8813V154.918H77.5027Z" fill="#CCCCCC"/>
<path d="M62.0137 91.3428V74.1928C62.0141 73.8457 62.1521 73.5129 62.3976 73.2674C62.643 73.022 62.9758 72.8839 63.3229 72.8835H76.275C76.6221 72.8839 76.9549 73.022 77.2003 73.2674C77.4458 73.5129 77.5838 73.8457 77.5842 74.1928V91.3428C77.5838 91.6899 77.4458 92.0227 77.2003 92.2681C76.9549 92.5136 76.6221 92.6516 76.275 92.652H63.3229C62.9758 92.6516 62.643 92.5136 62.3976 92.2681C62.1521 92.0227 62.0141 91.6899 62.0137 91.3428Z" fill="#E6E6E6"/>
<path d="M63.0073 86.1626V75.137C63.0077 74.812 63.137 74.5003 63.3669 74.2704C63.5967 74.0406 63.9084 73.9113 64.2335 73.9109H75.3647C75.6898 73.9112 76.0014 74.0405 76.2313 74.2704C76.4612 74.5003 76.5905 74.812 76.5909 75.137V90.3982C76.5905 90.7233 76.4612 91.035 76.2313 91.2648C76.0014 91.4947 75.6898 91.624 75.3647 91.6243H68.4691C67.0211 91.6227 65.6328 91.0468 64.6089 90.0228C63.5849 88.9989 63.009 87.6107 63.0073 86.1626Z" fill="white"/>
<path d="M64.8096 78.2136C64.8099 77.8959 64.9363 77.5913 65.1609 77.3667C65.3855 77.1421 65.6901 77.0157 66.0078 77.0154H73.7294C74.0472 77.0154 74.352 77.1416 74.5767 77.3663C74.8014 77.591 74.9276 77.8958 74.9276 78.2136C74.9276 78.5314 74.8014 78.8361 74.5767 79.0608C74.352 79.2855 74.0472 79.4118 73.7294 79.4118H66.0078C65.6901 79.4114 65.3855 79.2851 65.1609 79.0604C64.9363 78.8358 64.8099 78.5312 64.8096 78.2136Z" fill="#E6E6E6"/>
<path d="M64.8096 81.9411C64.8099 81.6234 64.9363 81.3189 65.1609 81.0942C65.3855 80.8696 65.6901 80.7433 66.0078 80.7429H73.7294C74.0472 80.7429 74.352 80.8692 74.5767 81.0939C74.8014 81.3186 74.9276 81.6233 74.9276 81.9411C74.9276 82.2589 74.8014 82.5637 74.5767 82.7884C74.352 83.0131 74.0472 83.1393 73.7294 83.1393H66.0078C65.6901 83.139 65.3855 83.0126 65.1609 82.788C64.9363 82.5634 64.8099 82.2588 64.8096 81.9411Z" fill="#E6E6E6"/>
<path d="M64.8096 85.6689C64.8099 85.3512 64.9363 85.0467 65.1609 84.822C65.3855 84.5974 65.6901 84.4711 66.0078 84.4707H73.7294C74.0472 84.4707 74.352 84.5969 74.5767 84.8216C74.8014 85.0464 74.9276 85.3511 74.9276 85.6689C74.9276 85.9867 74.8014 86.2914 74.5767 86.5161C74.352 86.7408 74.0472 86.8671 73.7294 86.8671H66.0078C65.6901 86.8667 65.3855 86.7404 65.1609 86.5158C64.9363 86.2911 64.8099 85.9866 64.8096 85.6689Z" fill="#E6E6E6"/>
<path d="M62.2335 74.731C61.869 74.5803 61.5419 74.3516 61.2754 74.0609C61.0088 73.7702 60.8093 73.4245 60.6907 73.0483C60.5722 72.6722 60.5376 72.2746 60.5894 71.8836C60.6412 71.4926 60.778 71.1177 60.9904 70.7853L51.5992 62.2541L48.3047 49.5101L54.1516 49.0237L55.9389 59.0241L64.894 70.0465C65.4287 70.4403 65.8005 71.0164 65.9388 71.6659C66.0771 72.3154 65.9724 72.9931 65.6444 73.5705C65.3165 74.1479 64.7881 74.585 64.1594 74.7988C63.5308 75.0127 62.8455 74.9886 62.2335 74.731Z" fill="#FFB6B6"/>
<path d="M47.4039 38.0011C47.4039 38.0011 45.9788 38.0222 46.6207 40.9728C47.1346 43.335 49.0842 56.6283 50.6402 59.6022C50.2841 59.9096 50.0404 60.3268 49.9475 60.7879C49.8545 61.2491 49.9177 61.7281 50.1269 62.1494L56.6307 59.6262C57.1975 58.1508 56.247 57.6922 55.6405 57.5598L55.7595 52.9319L54.8272 41.1352L48.4338 37.9675L47.4039 38.0011Z" fill="#F2F2F2"/>
</g>
<defs>
<clipPath id="clip0_1_25059">
<rect width="200" height="157.233" fill="white"/>
</clipPath>
</defs>
</svg>
