<svg width="200" height="115" viewBox="0 0 200 115" fill="none" xmlns="http://www.w3.org/2000/svg">
<g clip-path="url(#clip0_1_30228)">
<path d="M5.18356 104.339C5.97192 104.616 6.81837 104.685 7.64135 104.54C8.46433 104.395 9.23611 104.041 9.88233 103.511C11.5281 102.13 12.0442 99.8546 12.4639 97.7475L13.7057 91.5146L11.1059 93.3048C9.23608 94.5922 7.32431 95.9209 6.02981 97.7856C4.73532 99.6502 4.17057 102.196 5.21035 104.214" fill="#E6E6E6"/>
<path d="M5.58484 112.318C5.25761 109.934 4.92093 107.52 5.15102 105.11C5.35492 102.97 6.00782 100.88 7.33703 99.166C8.04257 98.258 8.90108 97.48 9.87397 96.867C10.1276 96.707 10.3611 97.1089 10.1085 97.2683C8.42514 98.3322 7.12306 99.9031 6.39005 101.755C5.58051 103.814 5.45052 106.058 5.58996 108.245C5.67425 109.568 5.85335 110.882 6.03323 112.195C6.04743 112.254 6.03857 112.317 6.00843 112.37C5.97828 112.423 5.92911 112.462 5.87086 112.481C5.81143 112.497 5.74808 112.488 5.69457 112.458C5.64105 112.428 5.60168 112.377 5.585 112.318L5.58484 112.318Z" fill="#F2F2F2"/>
<path d="M7.94043 108.493C8.27849 109.007 8.74324 109.425 9.28989 109.708C9.83654 109.99 10.4467 110.126 11.0615 110.104C12.6418 110.029 13.9588 108.927 15.1442 107.88L18.6512 104.783L16.3303 104.672C14.6611 104.592 12.9489 104.517 11.3591 105.033C9.76931 105.548 8.30314 106.786 8.01248 108.432" fill="#E6E6E6"/>
<path d="M4.65997 113.689C6.23536 110.901 8.06254 107.803 11.3277 106.813C12.2355 106.539 13.1873 106.441 14.132 106.524C14.4298 106.549 14.3555 107.008 14.0583 106.983C12.4747 106.851 10.8942 107.269 9.58278 108.167C8.32082 109.026 7.33821 110.22 6.50666 111.486C5.99723 112.262 5.54094 113.071 5.08465 113.878C4.93885 114.136 4.51247 113.95 4.65997 113.689Z" fill="#F2F2F2"/>
<path d="M79.3109 35.6609C80.0228 35.6609 80.5998 35.0838 80.5998 34.3719C80.5998 33.6601 80.0228 33.083 79.3109 33.083C78.599 33.083 78.022 33.6601 78.022 34.3719C78.022 35.0838 78.599 35.6609 79.3109 35.6609Z" fill="#E5E5E5"/>
<path d="M110.137 44.4187C105.122 42.3378 100.305 39.8105 95.743 36.8674C84.7878 29.8205 77.3181 21.67 77.1557 16.5855C77.1081 15.0995 77.6601 13.921 78.7964 13.083C80.6343 11.7273 83.911 11.402 88.2725 12.1416L88.1648 12.777C83.9799 12.0671 80.8726 12.3523 79.1789 13.6016C78.2235 14.3064 77.7595 15.3033 77.7998 16.565C77.9558 21.4469 85.3067 29.3881 96.0916 36.3253C100.621 39.2473 105.403 41.7564 110.381 43.8223L110.137 44.4187Z" fill="#3F3D56"/>
<path d="M125.648 48.2375C123.736 48.2375 121.473 47.9298 118.899 47.3128L119.049 46.6862C124.453 47.9814 128.543 47.8737 130.564 46.3825C131.52 45.6778 131.984 44.6807 131.944 43.4192C131.787 38.5371 124.437 30.5961 113.652 23.6589C108.186 20.1429 102.38 17.2147 96.8628 15.191L97.0847 14.5859C102.646 16.6257 108.495 19.5756 114 23.1169C124.955 30.1636 132.425 38.3142 132.588 43.3986C132.635 44.8847 132.083 46.0631 130.947 46.9011C129.74 47.7911 127.949 48.2375 125.648 48.2375Z" fill="#3F3D56"/>
<path d="M84.1144 48.2305C81.8063 48.2306 79.9988 47.7879 78.7964 46.901C77.6601 46.063 77.1081 44.8845 77.1557 43.3985C77.3181 38.314 84.7878 30.1635 95.743 23.1167C107.987 15.2411 121.73 10.5736 128.421 12.0192L128.285 12.6492C121.745 11.2356 108.206 15.8665 96.0916 23.6588C85.3067 30.5959 77.9558 38.5369 77.7998 43.419C77.7594 44.6806 78.2235 45.6776 79.1789 46.3824C84.0179 49.9511 99.4822 45.44 113.652 36.3258C123.385 30.065 130.301 23.0599 131.701 18.0444L132.322 18.2177C130.881 23.3788 123.861 30.5251 114 36.8679C107.061 41.3315 99.5991 44.8393 92.9898 46.7449C89.5568 47.7348 86.5557 48.2304 84.1144 48.2305Z" fill="#3F3D56"/>
<path d="M94.559 13.4266C94.559 14.4667 93.7158 15.31 92.6756 15.31C91.6354 15.31 90.7922 14.4667 90.7922 13.4266C90.7922 12.3864 91.6354 11.5432 92.6756 11.5432C93.7158 11.5432 94.559 12.3864 94.559 13.4266Z" fill="#6C63FF" stroke="#6C63FF" stroke-width="0.1"/>
<path d="M116.149 45.7576C116.149 46.7978 115.306 47.641 114.265 47.641C113.225 47.641 112.382 46.7978 112.382 45.7576C112.382 44.7174 113.225 43.8742 114.265 43.8742C115.306 43.8742 116.149 44.7174 116.149 45.7576Z" fill="#6C63FF" stroke="#6C63FF" stroke-width="0.1"/>
<path d="M120.28 64.6619C120.992 64.6619 121.569 64.0848 121.569 63.3729C121.569 62.6611 120.992 62.084 120.28 62.084C119.568 62.084 118.991 62.6611 118.991 63.3729C118.991 64.0848 119.568 64.6619 120.28 64.6619Z" fill="#E5E5E5"/>
<path d="M88.4867 2.57787C89.1986 2.57787 89.7756 2.0008 89.7756 1.28894C89.7756 0.577077 89.1986 0 88.4867 0C87.7748 0 87.1978 0.577077 87.1978 1.28894C87.1978 2.0008 87.7748 2.57787 88.4867 2.57787Z" fill="#E5E5E5"/>
<path d="M133.12 14.3934C133.12 15.4335 132.276 16.2768 131.236 16.2768C130.196 16.2768 129.353 15.4335 129.353 14.3934C129.353 13.3532 130.196 12.51 131.236 12.51C132.276 12.51 133.12 13.3532 133.12 14.3934Z" fill="#6C63FF" stroke="#6C63FF" stroke-width="0.1"/>
<path d="M68.3136 114.501H0.214823C0.157848 114.501 0.103207 114.478 0.06292 114.438C0.0226329 114.398 0 114.343 0 114.286C0 114.229 0.0226329 114.174 0.06292 114.134C0.103207 114.094 0.157848 114.071 0.214823 114.071H68.3136C68.3706 114.071 68.4253 114.094 68.4655 114.134C68.5058 114.174 68.5285 114.229 68.5285 114.286C68.5285 114.343 68.5058 114.398 68.4655 114.438C68.4253 114.478 68.3706 114.501 68.3136 114.501Z" fill="#CBCBCB"/>
<path d="M40.5361 111.624L43.1698 111.623L44.4226 101.465L40.5356 101.465L40.5361 111.624Z" fill="#FFB7B7"/>
<path d="M39.8643 110.764L45.0509 110.764H45.0512C45.9278 110.764 46.7685 111.112 47.3883 111.732C48.0082 112.352 48.3565 113.192 48.3565 114.069V114.176L39.8644 114.177L39.8643 110.764Z" fill="#2F2E41"/>
<path d="M30.0097 111.838L32.6434 111.838L33.8963 101.68L30.0093 101.68L30.0097 111.838Z" fill="#FFB7B7"/>
<path d="M29.3379 110.979L34.5246 110.979H34.5248C35.4014 110.979 36.2421 111.327 36.862 111.947C37.4818 112.567 37.8301 113.407 37.8301 114.284V114.391L29.338 114.392L29.3379 110.979Z" fill="#2F2E41"/>
<path d="M46.0636 68.9144L44.7245 108.056H40.4281L36.3561 72.9799L34.6279 108.486H29.2573L27.7734 66.43L44.2611 66.2041L46.0636 68.9144Z" fill="#2F2E41"/>
<path d="M32.8552 37.189L40.4282 36.9492L42.1156 68.1232L30.145 67.8835L32.8552 37.189Z" fill="#CBCBCB"/>
<path d="M38.8406 69.8172L46.7457 69.5913L44.4871 58.2984L44.7129 51.7485L46.5198 41.1331L41.5509 38.1969L40.4216 36.8418C40.4216 36.8418 38.6147 38.6487 38.6147 47.0054C38.6147 55.3622 38.8406 69.8172 38.8406 69.8172Z" fill="#2F2E41"/>
<path d="M32.0648 69.5913C32.0648 69.5913 38.8406 53.2761 35.9044 45.9624C35.9044 45.9624 34.905 37.9711 33.259 36.8418L30.7097 37.9711L25.2891 40.6814L27.3218 46.3279L26.6442 51.0709L26.1925 67.5586L32.0648 69.5913Z" fill="#2F2E41"/>
<path d="M27.3944 69.9282C27.1141 69.7965 26.8662 69.6051 26.6679 69.3672C26.4697 69.1294 26.326 68.851 26.247 68.5516C26.168 68.2522 26.1556 67.9392 26.2107 67.6345C26.2658 67.3298 26.387 67.0409 26.5658 66.7881L23.9873 62.6925L26.094 60.5186L29.6541 66.3535C30.0588 66.682 30.329 67.1476 30.4134 67.662C30.4977 68.1764 30.3905 68.7039 30.112 69.1445C29.8334 69.5851 29.4029 69.9083 28.9021 70.0527C28.4012 70.1971 27.8648 70.1528 27.3944 69.9282Z" fill="#FFB7B7"/>
<path d="M47.9879 73.8413C47.7571 73.6349 47.5743 73.3805 47.4524 73.0958C47.3306 72.8112 47.2726 72.5033 47.2826 72.1939C47.2926 71.8844 47.3703 71.5809 47.5103 71.3048C47.6503 71.0286 47.8491 70.7865 48.0928 70.5955L46.7944 65.9332L49.4353 64.4531L51.1763 71.063C51.4701 71.4936 51.5957 72.017 51.5293 72.534C51.4629 73.0511 51.2092 73.5258 50.8162 73.8683C50.4232 74.2107 49.9182 74.3971 49.3969 74.3922C48.8757 74.3872 48.3743 74.1912 47.9879 73.8413Z" fill="#FFB7B7"/>
<path d="M27.7737 40.2305L25.2893 40.6822L19.8687 53.782L24.8376 66.656L28.2254 63.4939L25.0634 55.8147C25.0634 55.8147 25.2893 54.9113 25.0634 54.7984C24.8376 54.6854 25.3953 53.9584 25.2893 53.902C25.0634 53.782 25.741 52.6527 25.741 52.6527L28.4513 47.0062L27.7737 40.2305Z" fill="#2F2E41"/>
<path d="M44.0355 41.1338H46.5201L49.2303 55.137L49.0045 57.3957L49.9079 63.0421L51.1502 68.8015L47.1977 68.9145L45.1648 58.299L43.3579 51.0717L44.0355 41.1338Z" fill="#2F2E41"/>
<path d="M36.7685 35.1053C39.6825 35.1053 42.0447 32.743 42.0447 29.829C42.0447 26.915 39.6825 24.5527 36.7685 24.5527C33.8545 24.5527 31.4922 26.915 31.4922 29.829C31.4922 32.743 33.8545 35.1053 36.7685 35.1053Z" fill="#FFB7B7"/>
<path d="M40.9598 25.5661L41.8967 25.2254C41.8967 25.2254 39.9378 23.2666 37.2124 23.4369L37.9789 22.6704C37.9789 22.6704 36.1052 21.989 34.4019 23.7776C33.5064 24.7178 32.4704 25.8229 31.8246 27.0678H30.8213L31.24 27.9053L29.7744 28.7428L31.2787 28.5924C31.1362 29.3154 31.1852 30.0631 31.421 30.7614L31.7617 31.6982C31.7617 31.6982 33.1244 28.9728 33.1244 28.6322V29.4839C33.1244 29.4839 34.0612 28.7173 34.0612 28.2063L34.5722 28.8025L34.8277 27.8656L37.979 28.8025L37.468 28.036L39.4268 28.2915L38.6603 27.3546C38.6603 27.3546 40.8747 28.4618 40.9599 29.3987C41.045 30.3355 42.1522 31.5279 42.1522 31.5279L42.6632 30.6762C42.6632 30.6762 43.4297 26.8436 40.9598 25.5661Z" fill="#2F2E41"/>
<path d="M161.346 101.712L157.574 100.616L155.926 110.83L158.482 111.572L161.346 101.712Z" fill="#9F616A"/>
<path d="M150.307 111.772L150.415 111.398C150.626 110.674 151.115 110.063 151.776 109.699C152.436 109.336 153.214 109.25 153.938 109.461L159.242 111.001L158.341 114.105L150.307 111.772Z" fill="#2F2E41"/>
<path d="M184.901 101.365L180.972 101.365L182.238 111.633L184.9 111.633L184.901 101.365Z" fill="#9F616A"/>
<path d="M177.104 114.104L177.104 113.715C177.104 113.342 177.178 112.972 177.32 112.627C177.463 112.282 177.673 111.969 177.937 111.705C178.201 111.441 178.514 111.231 178.859 111.088C179.204 110.946 179.574 110.872 179.947 110.872L185.47 110.872L185.47 114.105L177.104 114.104Z" fill="#2F2E41"/>
<path d="M181.288 76.4851C181.813 76.2335 182.217 75.7836 182.41 75.2344C182.603 74.6853 182.57 74.0818 182.319 73.5568L181.575 66.5494L177.867 64.9648L179.249 72.5998C178.756 72.882 178.391 73.3446 178.232 73.8902C178.073 74.4358 178.131 75.022 178.395 75.5253C178.659 76.0286 179.108 76.4099 179.648 76.5889C180.187 76.7679 180.775 76.7307 181.288 76.4851Z" fill="#9F616A"/>
<path d="M180.624 57.6113L176.274 44.4061C176.183 44.2546 175.101 42.5505 172.743 43.2754C172.483 43.3486 172.24 43.4746 172.031 43.6454C171.821 43.8162 171.649 44.0283 171.525 44.2685C170.835 45.5916 171.479 47.6356 171.482 47.6464L176.837 59.6472L176.843 59.6596L178.533 71.984L182.183 71.2428L180.624 57.6113Z" fill="#6C63FF"/>
<path d="M151.712 106.463L158.26 86.3871L165.851 69.0356L165.741 60.6201L174.75 58.5195L175.799 62.0463C181.866 66.0496 179.867 73.7506 179.725 74.2667L188.866 108.003L178.898 109.111L172.208 77.1684L166.037 90.1477L161.674 109.563L151.712 106.463Z" fill="#2F2E41"/>
<path d="M165.092 53.5559C163.301 50.1227 164.596 48.8154 166.554 46.838C167.354 46.0569 168.105 45.2269 168.802 44.3525C171.857 40.425 175.403 42.3539 175.438 42.3739L175.458 42.3851L176.334 43.6991C179.221 46.6044 174.843 54.5877 174.511 55.1823L174.73 60.8909L165.421 61.7775L165.092 53.5559Z" fill="#6C63FF"/>
<path d="M170.842 40.6794C173.787 40.6794 176.175 38.2918 176.175 35.3466C176.175 32.4013 173.787 30.0137 170.842 30.0137C167.896 30.0137 165.509 32.4013 165.509 35.3466C165.509 38.2918 167.896 40.6794 170.842 40.6794Z" fill="#9F616A"/>
<path d="M168.639 75.5946C168.862 76.0837 169.256 76.4741 169.747 76.6918C170.239 76.9095 170.793 76.9394 171.305 76.7759C171.817 76.6123 172.251 76.2667 172.525 75.8044C172.799 75.3422 172.894 74.7954 172.792 74.2678L173.845 67.3002L170.659 64.8291L170.064 72.5653C169.756 72.6466 169.469 72.7945 169.223 72.9987C168.978 73.2029 168.78 73.4584 168.644 73.7472C168.508 74.036 168.437 74.3511 168.437 74.6703C168.436 74.9895 168.505 75.305 168.639 75.5946Z" fill="#9F616A"/>
<path d="M169.313 71.9676L170.817 59.4414L168.674 46.4792C168.669 46.3883 168.562 44.2387 169.618 43.0736C169.816 42.8535 170.056 42.6763 170.325 42.5532C170.594 42.4301 170.886 42.3637 171.181 42.358C173.86 42.2407 174.5 44.4722 174.506 44.4947L175.379 58.4197L173.411 72.1953L169.313 71.9676Z" fill="#6C63FF"/>
<path d="M165.404 34.4236L165.694 33.9564C166.416 33.8124 167.165 33.8973 167.836 34.1993C168.507 34.5014 169.068 35.0054 169.439 35.6411C169.622 34.9663 170.71 35.0011 171.113 35.5726C171.516 36.1442 171.427 36.9164 171.296 37.6033C171.165 38.2902 171.018 39.0367 171.335 39.6599C171.504 39.9509 171.747 40.1919 172.04 40.3583C172.333 40.5248 172.664 40.6107 173.001 40.6074C173.676 40.591 174.332 40.3821 174.893 40.0053C175.923 39.3491 176.748 38.4149 177.27 37.3104C177.792 36.2059 177.991 34.9762 177.845 33.7632C177.709 32.8185 177.358 31.9177 176.819 31.1301C177.128 31.1068 177.416 30.9666 177.625 30.7381C177.77 30.5494 177.86 30.3243 177.885 30.0878C177.91 29.8512 177.869 29.6124 177.767 29.3977C177.588 29.0221 177.315 28.6988 176.976 28.4588C177.22 28.6537 177.507 28.7877 177.813 28.8498C178.189 28.904 178.629 28.7086 178.697 28.3459C178.762 28.0004 178.485 27.686 178.229 27.4328C178.064 27.2685 177.898 27.1042 177.732 26.9399C177.818 26.8426 177.898 26.7401 177.971 26.6328C178.248 26.2455 178.406 25.7866 178.428 25.3112C178.45 24.8359 178.334 24.3643 178.095 23.9531C178.569 24.7636 178.153 25.728 177.317 26.385C177.29 26.4061 177.26 26.4247 177.232 26.4453L176.915 26.131C176.667 25.8493 176.363 25.6221 176.023 25.4637C175.672 25.3291 175.223 25.3684 174.994 25.6541C174.749 25.9598 174.818 26.446 174.531 26.715C174.28 26.9503 173.871 26.9109 173.533 26.8116C173.195 26.7123 172.846 26.567 172.505 26.6415C172.275 26.7093 172.079 26.8601 171.954 27.0646C171.829 27.269 171.785 27.5125 171.829 27.7478C171.868 27.9507 171.953 28.1417 172.079 28.3054C171.135 28.2252 170.186 28.2222 169.241 28.2966C168.129 28.3585 166.993 28.4356 165.967 28.8696C164.942 29.3036 164.03 30.1669 163.841 31.2643C163.652 32.3617 164.294 34.3271 165.404 34.4236Z" fill="#2F2E41"/>
<path d="M199.785 114.501H131.687C131.63 114.501 131.575 114.478 131.535 114.438C131.494 114.398 131.472 114.343 131.472 114.286C131.472 114.229 131.494 114.174 131.535 114.134C131.575 114.094 131.63 114.071 131.687 114.071H199.785C199.842 114.071 199.897 114.094 199.937 114.134C199.978 114.174 200 114.229 200 114.286C200 114.343 199.978 114.398 199.937 114.438C199.897 114.478 199.842 114.501 199.785 114.501Z" fill="#CBCBCB"/>
</g>
<defs>
<clipPath id="clip0_1_30228">
<rect width="200" height="114.501" fill="white"/>
</clipPath>
</defs>
</svg>
