<svg width="200" height="122" viewBox="0 0 200 122" fill="none" xmlns="http://www.w3.org/2000/svg">
<g clip-path="url(#clip0_1_30138)">
<path d="M158.198 82.7385H152.968L152.949 82.7195C152.02 81.7328 151.601 80.3439 151.832 79.0093C151.905 78.5771 152.044 78.1585 152.245 77.7644L153.835 74.6521L153.205 63.5051C153.194 63.2985 153.264 63.1028 153.406 62.9506C153.547 62.8011 153.74 62.7168 153.947 62.7168H154.925C155.327 62.7168 155.654 63.0321 155.67 63.4317L156.097 74.4482L158.298 77.8894C158.486 78.183 158.638 78.4955 158.747 78.819C159.179 80.0721 159.021 81.4338 158.312 82.5537L158.195 82.7358H158.198V82.7385Z" fill="#3F3D56"/>
<path d="M157.747 81.9667C157.698 82.0456 157.611 82.0918 157.519 82.0918H153.539C153.463 82.0918 153.387 82.0592 153.338 82.0021C152.667 81.2383 152.37 80.2353 152.487 79.2595C152.501 79.1535 152.58 79.0638 152.683 79.0366C153.515 78.8164 154.518 78.6914 155.597 78.6914C156.442 78.6914 157.239 78.7702 157.945 78.9089C158.043 78.9279 158.122 78.9985 158.149 79.0937C158.432 80.0505 158.299 81.0997 157.75 81.9667H157.747Z" fill="#6C63FF"/>
<path d="M199.728 85.0954H0.271813C0.122316 85.0954 0 84.9731 0 84.8236C0 84.6741 0.122316 84.5518 0.271813 84.5518H199.728C199.878 84.5518 200 84.6741 200 84.8236C200 84.9731 199.878 85.0954 199.728 85.0954Z" fill="#3F3D56"/>
<path d="M58.5622 34.6091C55.6402 33.7338 53.7212 31.5158 54.2784 29.6566C54.8356 27.7974 57.657 26.9983 60.579 27.8735C61.7505 28.2079 62.8269 28.8167 63.7157 29.6512L76.0533 33.5136L74.118 39.2652L62.161 34.8455C60.9595 35.0548 59.7255 34.9733 58.5621 34.6063L58.5622 34.6091Z" fill="#A0616A"/>
<path d="M113.291 36.1202L113.441 46.2779C113.441 46.2779 100.671 46.1094 96.2026 46.46C91.734 46.8134 63.8867 36.6204 63.8867 36.6204L68.513 30.0615L99.2333 37.4766L113.291 36.1175V36.1202Z" fill="#E6E6E6"/>
<path d="M57.6198 48.0789V22.3566H59.4225V48.0789H57.6198Z" fill="#6C63FF" stroke="#6C63FF" stroke-width="0.1"/>
<path d="M66.3412 84.8236H55.3355L55.2948 84.7801C53.3377 82.7008 52.457 79.7815 52.9409 76.9709C53.0958 76.0631 53.3866 75.1824 53.8107 74.3534L57.1594 67.8054L55.8302 44.3479C55.8058 43.913 55.958 43.4999 56.257 43.1846C56.556 42.8693 56.961 42.6953 57.3959 42.6953H59.4535C60.2989 42.6953 60.9893 43.3558 61.0219 44.2012L61.9161 67.3868L66.5533 74.6279C66.9501 75.2476 67.2681 75.9054 67.4992 76.585C68.407 79.2215 68.0754 82.0865 66.5859 84.4431L66.3413 84.8263L66.3412 84.8236Z" fill="#3F3D56"/>
<path d="M65.3957 83.201C65.2924 83.3641 65.1103 83.4647 64.9146 83.4647H56.5373C56.3769 83.4647 56.2193 83.3967 56.1132 83.2771C54.6998 81.668 54.0774 79.5614 54.322 77.5065C54.3492 77.2809 54.515 77.0961 54.7352 77.039C56.4829 76.5769 58.5949 76.3105 60.8673 76.3105C62.6449 76.3105 64.3247 76.4764 65.8088 76.7672C66.0127 76.808 66.1812 76.9547 66.2383 77.1532C66.8308 79.1646 66.5509 81.3744 65.3957 83.201Z" fill="#6C63FF"/>
<path d="M105.137 21.763L106.768 32.9074L93.7212 34.2664L94.5366 19.8604L105.137 21.763Z" fill="#A0616A"/>
<path d="M92.7346 25.0815C97.5939 25.0815 101.533 21.1423 101.533 16.283C101.533 11.4236 97.5939 7.48438 92.7346 7.48438C87.8753 7.48438 83.936 11.4236 83.936 16.283C83.936 21.1423 87.8753 25.0815 92.7346 25.0815Z" fill="#A0616A"/>
<path d="M65.3192 56.2043C62.8294 53.97 59.6274 53.4671 58.1651 55.0817C56.7027 56.6963 57.5345 59.8167 60.0243 62.051C61.0055 62.9588 62.1961 63.6112 63.498 63.9564L74.1667 73.2877L78.5673 68.0934L67.5834 59.447C67.105 58.1939 66.3276 57.0822 65.3192 56.2043Z" fill="#A0616A"/>
<path d="M94.5365 31.5482L107.855 29.6455L115.738 35.6254L116.553 68.5148L124.164 120.975L73.6069 121.518C73.6069 121.518 77.4123 87.5417 79.315 85.639C81.2177 83.7363 82.5768 75.0383 82.5768 75.0383L86.3821 37.5281L94.5365 31.5482Z" fill="#E6E6E6"/>
<path d="M89.5081 37.392C89.5081 37.392 82.441 36.8484 80.8101 41.741C79.1792 46.6336 77.2765 62.6706 77.2765 62.6706L72.9275 63.2142L69.1221 59.137L65.0449 68.9223C65.0449 68.9223 79.451 84.6875 84.8873 77.6203C90.3235 70.5532 89.5081 37.392 89.5081 37.392Z" fill="#E6E6E6"/>
<path d="M107.72 20.8251C107.72 20.8251 107.72 12.1135 108.535 9.39539C109.351 6.67726 104.73 3.68732 103.371 0.969189C102.012 -1.74894 93.5854 2.05644 90.0518 2.60007C86.5183 3.14369 86.7901 5.3182 84.6156 8.85177C82.4411 12.3853 86.7901 17.8216 90.0518 18.3652C93.3136 18.9088 92.2263 21.3552 94.4634 24.0733C96.7004 26.7914 103.849 24.0733 103.849 24.0733L104.73 25.4324C104.73 25.4324 102.827 33.0431 106.361 39.5666L115.602 42.013C112.884 33.8586 115.874 33.8586 117.578 29.6455C119.283 25.4324 107.72 20.8251 107.72 20.8251Z" fill="#2F2E41"/>
<path d="M172.359 82.4645H167.515V74.3428H172.359C172.911 74.3428 173.354 73.8943 173.354 73.3425C173.354 72.7907 172.908 72.3504 172.359 72.3477H138.589C138.037 72.3477 137.594 72.7961 137.594 73.3479C137.594 73.8997 138.04 74.34 138.589 74.3428H142.721V82.4645H138.589C138.037 82.4645 137.594 82.913 137.594 83.4648C137.594 84.0166 138.04 84.4569 138.589 84.4596H172.359C172.911 84.4596 173.354 84.0111 173.354 83.4594C173.354 82.9076 172.908 82.4672 172.359 82.4645ZM144.716 82.4645L146.994 76.3977L165.518 74.3428V82.4645H144.716Z" fill="#F2F2F2"/>
</g>
<defs>
<clipPath id="clip0_1_30138">
<rect width="200" height="121.518" fill="white"/>
</clipPath>
</defs>
</svg>
