<svg width="201" height="159" viewBox="0 0 201 159" fill="none" xmlns="http://www.w3.org/2000/svg">
<g clip-path="url(#clip0_1_8673)">
<path d="M55.4739 154.774L59.0455 154.368L59.1819 140.4L53.9106 140.998L55.4739 154.774Z" fill="#FFB8B8"/>
<path d="M66.3096 156.903L55.0849 158.177L54.5928 153.84L61.4807 153.059C62.6309 152.928 63.7858 153.26 64.6914 153.981C65.597 154.702 66.1791 155.753 66.3096 156.903Z" fill="#2F2E41"/>
<path d="M18.7438 154.551H22.3382L24.0481 140.686L18.7432 140.687L18.7438 154.551Z" fill="#FFB8B8"/>
<path d="M29.2701 157.888L17.9733 157.888L17.9731 153.524L24.9052 153.523C26.0628 153.523 27.173 153.983 27.9916 154.802C28.8101 155.62 29.27 156.73 29.2701 157.888Z" fill="#2F2E41"/>
<path d="M44.5326 92.5509L46.5849 99.2266L57.7261 123.336L60.658 146.204L53.9146 146.497L49.81 125.388L35.737 110.142L23.4231 150.016L17.8525 149.429C17.8525 149.429 22.5435 97.8283 28.9937 92.5509C28.9937 92.5509 39.5484 87.5667 44.5326 92.5509Z" fill="#2F2E41"/>
<path d="M35.429 63.7465C39.406 63.7465 42.63 60.5225 42.63 56.5455C42.63 52.5685 39.406 49.3445 35.429 49.3445C31.452 49.3445 28.228 52.5685 28.228 56.5455C28.228 60.5225 31.452 63.7465 35.429 63.7465Z" fill="#FFB8B8"/>
<path d="M45.2659 93.8703C45.2659 93.8703 46.1454 63.9652 33.8316 66.0175C21.5177 68.0698 26.6485 96.9488 26.6485 96.9488C26.6485 96.9488 29.2871 102.226 35.7373 96.3624C42.1874 90.4987 45.2659 93.8703 45.2659 93.8703Z" fill="#CCCCCC"/>
<path opacity="0.2" d="M28.2607 78.6245L31.1583 89.7313L35.5728 94.1462L29.4335 92.1112L28.2607 78.6245Z" fill="black"/>
<path d="M45.3566 106.518C44.9514 106.371 44.5834 106.137 44.2784 105.833C43.9734 105.528 43.7389 105.16 43.5914 104.755C43.4439 104.35 43.3869 103.918 43.4246 103.489C43.4623 103.059 43.5937 102.643 43.8095 102.27L36.9609 94.3414L42.3598 93.6387L48.0356 101.276C48.6383 101.68 49.0719 102.291 49.2542 102.993C49.4365 103.696 49.3548 104.441 49.0245 105.087C48.6943 105.733 48.1386 106.236 47.4625 106.499C46.7865 106.763 46.0372 106.77 45.3566 106.518Z" fill="#FFB8B8"/>
<path d="M37.0184 72.1087L37.7895 87.2736L46.8783 99.0011L43.0669 101.933L30.753 89.6191C30.753 89.6191 26.3552 74.6665 29.5803 70.2687C30.7897 68.6195 32.1227 68.166 33.3167 68.2433C34.299 68.3251 35.2176 68.7632 35.8994 69.4752C36.5812 70.1871 36.9792 71.1237 37.0184 72.1087Z" fill="#CCCCCC"/>
<path d="M34.5727 64.1117C34.6071 64.0809 34.6338 64.0425 34.6508 63.9995C34.6677 63.9566 34.6744 63.9102 34.6704 63.8642C34.6663 63.8182 34.6516 63.7738 34.6273 63.7345C34.6031 63.6952 34.57 63.6621 34.5307 63.6378C33.8913 63.2417 33.3703 62.6808 33.0225 62.0139C32.6747 61.347 32.5129 60.5987 32.5542 59.8477C32.5955 59.0967 32.8383 58.3706 33.2571 57.7459C33.6759 57.1211 34.2552 56.6206 34.9342 56.2971C37.0513 55.2877 39.9202 56.073 41.4852 54.1332C41.8035 53.7182 42.0286 53.2395 42.1451 52.7296C42.2616 52.2198 42.2668 51.6908 42.1603 51.1787C41.8226 49.3467 40.4454 47.9861 38.9029 47.0537C37.0082 45.9083 34.8305 45.3164 32.6166 45.3452C30.4028 45.374 28.2412 46.0223 26.3769 47.2166C24.5126 48.4109 23.02 50.1035 22.0684 52.1026C21.1167 54.1017 20.744 56.3274 20.9924 58.5274C21.1915 60.2907 21.7355 62.2679 20.6871 63.6995C19.7643 64.9594 18.0225 65.1957 16.4925 65.5087C13.2108 66.1802 10.0448 67.7293 7.81781 70.2315C5.59079 72.7336 4.40274 76.2442 5.07419 79.5259C5.74565 82.8076 8.4394 85.6917 11.7503 86.2003C14.4451 86.6144 17.2278 85.4699 19.2068 83.5944C21.1857 81.7189 22.4366 79.1862 23.2256 76.5764C24.1621 73.4787 24.5315 70.1408 26.2223 67.3815C27.8768 64.6813 31.4422 62.7457 34.2365 64.1519C34.2901 64.1799 34.3509 64.191 34.4109 64.1839C34.4709 64.1767 34.5273 64.1516 34.5727 64.1117Z" fill="#2F2E41"/>
<path d="M90.4039 158.253H0.395239C0.31748 158.253 0.242902 158.222 0.187919 158.167C0.132935 158.112 0.102051 158.038 0.102051 157.96C0.102051 157.882 0.132935 157.808 0.187919 157.753C0.242902 157.698 0.31748 157.667 0.395239 157.667H90.4039C90.4817 157.667 90.5562 157.698 90.6112 157.753C90.6662 157.808 90.6971 157.882 90.6971 157.96C90.6971 158.038 90.6662 158.112 90.6112 158.167C90.5562 158.222 90.4817 158.253 90.4039 158.253Z" fill="#3F3D56"/>
<path d="M181.33 58.4311C181.314 66.736 178.191 74.7344 172.577 80.8539C166.962 86.9734 159.262 90.7712 150.989 91.5008C142.716 92.2304 134.469 89.839 127.87 84.7967C121.272 79.7544 116.797 72.4259 115.328 64.252C113.858 56.0782 115.499 47.6502 119.929 40.6251C124.358 33.5999 131.255 28.4857 139.264 26.288C147.273 24.0902 155.814 24.9679 163.208 28.7483C170.603 32.5288 176.316 38.9387 179.224 46.7178C179.297 46.9131 179.367 47.1084 179.436 47.3057V47.3075C179.743 48.1745 180.014 49.0576 180.247 49.9568C180.969 52.7238 181.332 55.5717 181.33 58.4311Z" fill="#3F3D56"/>
<path d="M144.178 35.8372C142.673 35.0234 141.003 34.5639 139.293 34.494C137.584 34.4241 135.881 34.7454 134.314 35.4336C132.935 36.0338 131.483 37.1105 131.023 39.0549C132.884 37.9567 135.292 39.6918 135.771 42.4753L135.66 42.5061C135.407 44.434 135.971 46.533 137.064 47.7285C137.145 47.189 137.346 46.6745 137.651 46.2222C137.956 45.7699 138.358 45.3913 138.827 45.1137C139.63 44.5858 140.519 44.2023 141.132 43.2949C141.858 42.2191 142.043 40.6469 142.332 39.2126C142.62 37.7784 143.168 36.2368 144.178 35.8372Z" fill="#6C63FF"/>
<path d="M133.762 52.2432C133.247 53.0171 132.558 53.5027 131.941 54.1073C131.228 54.7559 130.76 55.6304 130.616 56.5836C130.538 57.2571 130.659 57.9417 130.642 58.6226C130.626 59.3035 130.399 60.07 129.935 60.2393C129.204 60.5035 128.646 59.1454 127.894 59.0505C127.297 58.9761 126.76 59.9156 126.933 60.7305C127.106 61.5454 127.919 61.9063 128.386 61.3742C128.808 62.083 128.51 63.3686 127.876 63.5862C127.809 64.0327 127.742 64.4774 127.677 64.9239C126.073 63.802 124.453 62.6616 123.089 61.0188C121.572 59.2073 120.632 56.9838 120.388 54.6338C120.211 52.7455 120.473 50.5855 119.606 49.1325C118.912 47.9698 117.722 47.713 116.65 47.7856C116.455 47.7986 116.257 47.8209 116.062 47.8451C116.694 45.947 117.497 44.1101 118.46 42.3568C118.678 42.2632 118.881 42.1371 119.061 41.9828C120.058 41.1364 120.501 39.4229 121.31 38.2378C121.362 38.1615 121.416 38.0871 121.472 38.0145C122.3 36.9336 123.409 36.3773 124.48 35.8601C126.852 34.7085 129.293 33.542 131.798 33.702L131.085 33.7709C130.253 36.1001 129.421 38.4294 128.588 40.7587C128.462 41.1159 128.334 41.4737 128.205 41.8322C127.732 43.1568 127.245 44.567 127.318 46.0498C127.36 46.9279 127.666 47.8656 128.246 48.1669C128.787 48.446 129.379 48.1037 129.902 47.7651C130.123 47.6237 130.343 47.4823 130.564 47.339C131.358 46.8274 132.238 46.3028 133.077 46.6451C133.846 46.9576 134.413 48.0013 134.521 49.1269C134.62 50.221 134.353 51.3171 133.762 52.2432Z" fill="#6C63FF"/>
<path d="M138.487 68.1456C136.167 66.7171 133.847 65.2885 131.526 63.86L131.566 63.7585C130.123 64.308 129.524 66.8722 129.763 68.9692C130.001 71.0662 130.81 72.9408 131.218 74.984C131.769 77.7802 131.561 80.6727 130.616 83.3614C133.667 79.9382 136.367 76.2177 138.675 72.2558C138.998 71.7565 139.244 71.2116 139.405 70.6393C139.575 70.0294 139.514 69.3782 139.234 68.8103C139.044 68.5301 138.787 68.3016 138.487 68.1456Z" fill="#6C63FF"/>
<path d="M129.33 42.1563C129.058 42.7412 129.016 43.4074 129.213 44.022C129.442 44.5171 129.857 44.9017 130.368 45.0921L131.65 45.7276C132.076 45.939 132.536 46.1525 132.971 45.9785C133.495 45.7688 133.859 44.9466 133.765 44.1834C133.665 43.3713 133.153 42.8126 132.679 42.3369C132.017 41.6711 131.354 41.0054 130.692 40.3396L130.318 40.797C129.914 41.1909 129.58 41.6505 129.33 42.1563Z" fill="#6C63FF"/>
<path d="M174.458 50.8387C175.034 50.9745 175.611 51.1103 176.188 51.2461C176.087 53.194 175.122 54.9968 173.827 55.6497C173.287 55.9214 172.687 56.0218 172.24 56.5297C171.836 56.9911 171.632 57.7092 171.444 58.3957C171.114 59.5939 170.785 60.792 170.456 61.9901C170.102 63.2812 169.648 64.7157 168.729 65.1808C167.941 65.5807 167.038 65.0914 166.432 64.271C165.825 63.4506 165.455 62.3473 165.096 61.272C165.118 62.4441 164.573 63.5938 163.801 64.0013C163.027 64.4087 162.086 64.0403 161.569 63.1306C161.196 62.4776 161.042 61.6162 160.677 60.9539C160.313 60.2915 159.548 59.912 159.15 60.5334C158.888 60.9464 158.921 61.579 158.791 62.1036C158.725 62.4519 158.553 62.7712 158.297 63.0169C158.042 63.2626 157.716 63.4227 157.366 63.4748C157.043 63.4674 156.726 63.3945 156.433 63.2604C156.139 63.1264 155.876 62.9341 155.66 62.6952C154.521 61.5298 153.779 60.0341 153.541 58.4218C153.379 57.6488 153.4 56.8489 153.6 56.0851C153.829 55.3614 154.382 54.8033 154.931 54.941C155.291 54.1781 154.579 53.1661 153.937 53.2554C153.293 53.3447 152.789 54.0349 152.261 54.5651C151.734 55.0954 150.998 55.4805 150.467 54.954C150.479 55.1465 150.414 55.3359 150.286 55.4805C150.158 55.6251 149.978 55.7129 149.786 55.7248C149.767 55.726 149.748 55.7264 149.729 55.726C149.376 55.6248 149.049 55.4512 148.767 55.2163C147.552 54.4591 146.01 54.9614 145.146 56.3939C145.686 54.0982 146.477 51.4638 148.134 50.9242C148.812 50.7028 149.55 50.8852 150.19 50.5019C151.323 49.8229 151.552 47.2573 150.573 46.1987C150.698 47.1996 150.674 48.368 150.145 49.0527C149.617 49.7373 148.508 49.2908 148.575 48.2787C148.56 48.4211 148.501 48.555 148.405 48.6613C148.309 48.7677 148.182 48.8409 148.042 48.8707C147.902 48.9004 147.756 48.8851 147.625 48.8269C147.495 48.7687 147.386 48.6706 147.314 48.5466C146.962 48.0108 146.992 47.1346 147.241 46.4946C147.498 45.9149 147.867 45.3915 148.326 44.9541C149.21 44.0072 150.106 43.0491 151.13 42.4537C152.155 41.8584 153.338 41.6574 154.365 42.2491C154.906 42.5616 155.383 43.0825 155.935 43.3579C156.065 43.4384 156.209 43.4926 156.36 43.5174C156.511 43.5421 156.665 43.5369 156.814 43.5021C156.963 43.4672 157.103 43.4034 157.227 43.3143C157.352 43.2252 157.457 43.1125 157.537 42.9827C157.544 42.9726 157.55 42.9625 157.556 42.9523C157.967 42.2304 157.773 41.1588 157.926 40.2565C158.199 38.6621 159.794 37.9161 160.677 38.9691C160.017 38.7998 159.334 39.5812 159.252 40.5282C159.169 41.4751 159.647 42.4314 160.287 42.7179C161.362 43.1941 162.415 41.996 163.228 40.8872C164.076 39.7263 164.926 38.566 165.777 37.4063C165.913 37.2089 166.065 37.0234 166.233 36.8519C166.499 36.5922 166.854 36.4434 167.226 36.4359C167.599 36.4283 167.96 36.5624 168.236 36.811C169.096 37.5124 169.5 38.9505 170.205 39.9402C171.228 41.3784 172.759 41.7281 174.184 42.0072C175.246 42.2137 176.309 42.4215 177.373 42.6304C178.082 43.9494 178.7 45.315 179.224 46.7178C177.274 47.6072 175.62 49.0374 174.458 50.8387Z" fill="#6C63FF"/>
<path d="M177.892 73.2234C177.095 74.8418 176.168 76.3929 175.12 77.8614C174.45 77.5749 173.73 78.0865 173.103 78.5665C172.448 79.0689 171.661 79.5582 170.99 79.1005C170.303 78.6317 170.082 77.3201 170.299 76.2801C170.549 75.3207 170.987 74.4203 171.587 73.6308C172.145 72.7973 172.742 71.9322 173.518 71.6085C174.296 71.2848 175.295 71.7424 175.522 72.8476L176.072 72.8289C175.763 72.4048 175.925 71.5266 176.34 71.3722C176.818 71.1918 177.233 71.8485 177.516 72.429C177.642 72.6913 177.771 72.9555 177.892 73.2234Z" fill="#6C63FF"/>
<path d="M156.801 65.3651C155.617 65.4395 154.68 63.9823 154.057 62.5488C153.434 61.1153 152.865 59.476 151.797 58.7463C151.187 58.3294 150.491 58.2722 149.829 58.0701C149.454 57.9753 149.106 57.7924 148.816 57.5365C148.525 57.2806 148.3 56.9591 148.158 56.5987L147.407 56.2954C146.357 56.8204 145.395 57.5062 144.556 58.3281C143.598 59.3461 143.001 60.651 142.858 62.0418C142.714 63.5447 143.244 65.2205 144.234 65.7851C145.016 66.2312 145.926 65.95 146.718 66.3584C147.708 66.8687 148.295 68.3509 148.518 69.8144C148.74 71.2779 148.684 72.7988 148.843 74.2789C149.002 75.7591 149.44 77.2992 150.348 78.0577C151.484 79.0069 153.15 78.2181 153.66 76.4903C153.91 75.6428 153.901 74.6864 154.088 73.8067C154.417 72.2573 155.306 71.1079 156.01 69.837C156.715 68.5661 157.27 66.84 156.801 65.3651Z" fill="#6C63FF"/>
<path d="M145.105 50.1408C145.215 50.2425 145.318 50.3518 145.413 50.4681C145.511 50.6373 145.561 50.8301 145.558 51.0258C145.555 51.2214 145.498 51.4124 145.394 51.5782C145.537 51.5701 145.676 51.5325 145.803 51.4678C145.931 51.4031 146.043 51.3127 146.134 51.2023C146.35 50.9563 146.54 50.6885 146.701 50.4034C146.777 50.3058 146.831 50.1932 146.859 50.073C146.888 49.9529 146.891 49.828 146.868 49.7066C146.812 49.547 146.68 49.479 146.587 49.3589C146.459 49.1243 146.371 48.8695 146.328 48.6055C146.276 48.358 146.157 48.1298 145.983 47.9465C145.809 47.7631 145.587 47.6319 145.343 47.5676L145.402 47.579C145.301 47.6389 145.222 47.7289 145.174 47.8364C145.127 47.9439 145.115 48.0634 145.139 48.1783C145.175 48.4105 145.324 48.6032 145.309 48.84C145.288 49.1805 144.947 49.3403 144.926 49.6808C144.923 49.8516 144.987 50.0169 145.105 50.1408Z" fill="#6C63FF"/>
<path d="M143.077 44.3547L143.082 44.3537C143.118 44.3205 143.152 44.2845 143.183 44.2461L143.077 44.3547Z" fill="#6C63FF"/>
<path d="M143.432 45.9528C143.574 45.8281 143.679 45.6667 143.736 45.4862C143.792 45.3058 143.798 45.1132 143.753 44.9296C143.667 44.5424 143.363 44.2821 143.082 44.3536C143.001 44.4362 142.9 44.4967 142.788 44.5294C142.677 44.5622 142.559 44.5661 142.446 44.5409C142.273 44.4962 142.082 44.3811 141.931 44.5119C141.845 44.6095 141.785 44.7272 141.756 44.8541C141.701 45.0252 141.645 45.1962 141.589 45.3672C141.563 45.4284 141.556 45.4963 141.569 45.5616C141.58 45.5878 141.597 45.6108 141.619 45.6283C141.641 45.6459 141.668 45.6575 141.696 45.662L142.698 45.9576C142.814 46.0107 142.939 46.0377 143.066 46.0369C143.192 46.0361 143.317 46.0074 143.432 45.9528Z" fill="#6C63FF"/>
<path d="M168.667 68.0175C168.512 67.7645 168.358 67.5115 168.203 67.2586C168.051 66.9656 167.844 66.7051 167.592 66.4916C167.482 66.3994 167.34 66.3547 167.197 66.3673C167.054 66.38 166.922 66.4489 166.83 66.5589L166.822 66.5688L166.841 66.7133C167.254 67.1568 167.536 67.7069 167.655 68.3018C167.69 68.5604 167.678 68.828 167.709 69.0876C167.712 69.208 167.739 69.3266 167.788 69.4366C167.837 69.5466 167.907 69.6458 167.995 69.7285C168.238 69.8911 168.524 69.6514 168.697 69.359C168.852 69.1188 168.921 68.8335 168.894 68.549C168.856 68.3581 168.778 68.1772 168.667 68.0175Z" fill="#6C63FF"/>
<path d="M171.091 68.3467C171.12 68.1098 171.101 67.8695 171.034 67.6404C171.023 67.3303 171.106 67.0241 171.27 66.7613C171.434 66.5134 171.558 66.2415 171.638 65.9553C171.672 65.8249 171.666 65.6875 171.62 65.5606C171.569 65.4457 171.445 65.3933 171.374 65.4843L171.526 65.5822C171.321 65.5456 171.11 65.5558 170.909 65.6121C170.795 65.656 170.692 65.7268 170.611 65.8186C170.529 65.9103 170.471 66.0204 170.442 66.1394C170.416 66.3249 170.375 66.5079 170.319 66.6864C170.228 66.8729 170.053 66.9349 169.942 67.0985C169.867 67.2436 169.829 67.4051 169.832 67.5686C169.834 67.732 169.878 67.8921 169.958 68.0346C170.096 68.2677 170.317 68.441 170.576 68.5207C170.761 68.5873 171.006 68.5908 171.091 68.3467Z" fill="#6C63FF"/>
<path d="M175.407 69.6492C175.475 69.8239 175.564 69.9889 175.675 70.1401C175.882 70.3482 176.162 70.2203 176.413 70.1697C176.641 70.1338 176.874 70.1601 177.087 70.2458C177.301 70.3316 177.488 70.4736 177.627 70.6567C177.53 70.1719 177.318 69.7174 177.009 69.3315C176.699 68.9456 176.302 68.6396 175.85 68.4391C175.262 68.2358 174.643 68.1389 174.022 68.1532L173.916 68.1804C174.186 68.9679 175.036 68.9503 175.407 69.6492Z" fill="#6C63FF"/>
<path d="M157.125 71.2599L157.127 71.2633L157.157 71.2039L157.125 71.2599Z" fill="#6C63FF"/>
<path d="M156.47 72.5273C156.327 72.7865 156.204 73.0563 156.103 73.3343C155.968 73.7846 155.879 74.2472 155.836 74.7152C155.803 74.9814 155.793 75.3213 155.96 75.4509C156.007 75.4827 156.065 75.496 156.122 75.4882C156.179 75.4805 156.231 75.4523 156.269 75.4089C156.362 75.3109 156.437 75.1983 156.493 75.0755C156.821 74.5111 157.075 73.9073 157.25 73.2785C157.433 72.6115 157.389 71.9028 157.126 71.2632C156.908 71.6846 156.689 72.1059 156.47 72.5273Z" fill="#6C63FF"/>
<path d="M150.153 38.7574C150.257 38.8591 150.388 38.9281 150.531 38.956C150.674 38.9838 150.821 38.9693 150.956 38.9142C151.235 38.7923 151.491 38.6234 151.712 38.4149C151.896 38.2791 152.051 38.1094 152.17 37.9149C152.236 37.7987 152.278 37.6706 152.294 37.5381C152.31 37.4055 152.3 37.2711 152.264 37.1425C152.213 37.0193 152.131 36.9112 152.026 36.8285C151.922 36.7457 151.798 36.691 151.666 36.6695C151.295 36.5594 150.924 36.4494 150.553 36.3394L150.821 36.0975C150.545 35.9493 150.24 36.2243 150.067 36.5649C149.957 36.7872 149.879 37.0247 149.838 37.2697C149.78 37.5256 149.777 37.7913 149.832 38.0482C149.886 38.3051 149.995 38.5471 150.153 38.7574Z" fill="#6C63FF"/>
<path d="M156.703 36.5585C156.807 36.6738 156.952 36.7449 157.107 36.7576C157.262 36.7702 157.416 36.7233 157.538 36.6264C157.643 36.5477 157.73 36.4477 157.794 36.333C157.858 36.2184 157.896 36.0916 157.908 35.9609C157.934 35.6691 157.79 35.3447 157.584 35.3195L157.631 35.0462C157.234 34.9745 156.745 34.9602 156.532 35.4423C156.461 35.627 156.439 35.8273 156.469 36.0232C156.498 36.219 156.579 36.4036 156.703 36.5585Z" fill="#6C63FF"/>
<path d="M129.712 56.2149C131.08 56.2149 132.189 54.728 132.189 52.8938C132.189 51.0597 131.08 49.5728 129.712 49.5728C128.344 49.5728 127.235 51.0597 127.235 52.8938C127.235 54.728 128.344 56.2149 129.712 56.2149Z" fill="#E6E6E6"/>
<path d="M174.971 97.3389C176.154 97.024 176.935 96.102 176.716 95.2794C176.496 94.4569 175.36 94.0454 174.178 94.3603C172.996 94.6752 172.215 95.5972 172.434 96.4197C172.653 97.2423 173.789 97.6538 174.971 97.3389Z" fill="#E6E6E6"/>
<path d="M160.489 97.6067C161.672 97.2918 162.453 96.3698 162.234 95.5472C162.015 94.7247 160.878 94.3132 159.696 94.6281C158.514 94.943 157.733 95.865 157.952 96.6876C158.171 97.5101 159.307 97.9216 160.489 97.6067Z" fill="#E6E6E6"/>
<path d="M177.544 85.2896C178.726 84.9747 179.507 84.0526 179.288 83.2301C179.069 82.4076 177.933 81.9961 176.751 82.3109C175.568 82.6258 174.787 83.5479 175.006 84.3704C175.226 85.193 176.362 85.6045 177.544 85.2896Z" fill="#E6E6E6"/>
<path d="M181.816 80.1678C182.349 80.1016 182.705 79.4259 182.61 78.6584C182.515 77.891 182.005 77.3225 181.471 77.3887C180.937 77.4549 180.582 78.1307 180.677 78.8981C180.772 79.6656 181.282 80.234 181.816 80.1678Z" fill="#E6E6E6"/>
<path d="M182.897 71.0775C183.431 71.0113 183.786 70.3355 183.691 69.5681C183.596 68.8006 183.086 68.2322 182.552 68.2984C182.018 68.3646 181.663 69.0403 181.758 69.8078C181.853 70.5752 182.363 71.1437 182.897 71.0775Z" fill="#E6E6E6"/>
<path d="M168.299 88.5526C168.832 88.4864 169.188 87.8106 169.093 87.0432C168.998 86.2757 168.488 85.7073 167.954 85.7735C167.42 85.8397 167.064 86.5154 167.16 87.2829C167.255 88.0503 167.765 88.6188 168.299 88.5526Z" fill="#E6E6E6"/>
<path d="M175.62 91.2027C176.154 91.1365 176.51 90.4608 176.415 89.6933C176.32 88.9259 175.81 88.3574 175.276 88.4236C174.742 88.4898 174.386 89.1656 174.481 89.933C174.577 90.7005 175.086 91.2689 175.62 91.2027Z" fill="#E6E6E6"/>
<path d="M166.73 98.7091C167.264 98.6429 167.62 97.9671 167.525 97.1997C167.429 96.4322 166.919 95.8638 166.386 95.93C165.852 95.9961 165.496 96.6719 165.591 97.4394C165.686 98.2068 166.196 98.7753 166.73 98.7091Z" fill="#E6E6E6"/>
<path d="M102.985 85.177C104.167 84.8622 104.948 83.9401 104.729 83.1176C104.51 82.295 103.374 81.8835 102.192 82.1984C101.009 82.5133 100.228 83.4353 100.447 84.2579C100.666 85.0804 101.803 85.4919 102.985 85.177Z" fill="#E6E6E6"/>
<path d="M88.5025 85.4454C89.6849 85.1305 90.4658 84.2084 90.2468 83.3859C90.0277 82.5633 88.8916 82.1518 87.7093 82.4667C86.5269 82.7816 85.7459 83.7037 85.965 84.5262C86.184 85.3487 87.3201 85.7602 88.5025 85.4454Z" fill="#E6E6E6"/>
<path d="M105.558 73.1275C106.741 72.8126 107.522 71.8905 107.302 71.068C107.083 70.2455 105.947 69.8339 104.765 70.1488C103.583 70.4637 102.802 71.3858 103.021 72.2083C103.24 73.0308 104.376 73.4424 105.558 73.1275Z" fill="#E6E6E6"/>
<path d="M109.829 68.006C110.363 67.9398 110.719 67.264 110.624 66.4966C110.529 65.7291 110.019 65.1606 109.485 65.2268C108.951 65.293 108.595 65.9688 108.69 66.7363C108.786 67.5037 109.295 68.0722 109.829 68.006Z" fill="#E6E6E6"/>
<path d="M110.911 58.9154C111.445 58.8492 111.8 58.1734 111.705 57.406C111.61 56.6385 111.1 56.0701 110.566 56.1363C110.032 56.2024 109.677 56.8782 109.772 57.6457C109.867 58.4131 110.377 58.9816 110.911 58.9154Z" fill="#E6E6E6"/>
<path d="M96.3122 76.3905C96.8461 76.3243 97.2017 75.6485 97.1066 74.8811C97.0114 74.1136 96.5015 73.5452 95.9676 73.6114C95.4338 73.6775 95.0781 74.3533 95.1733 75.1208C95.2684 75.8882 95.7783 76.4567 96.3122 76.3905Z" fill="#E6E6E6"/>
<path d="M103.634 79.0409C104.168 78.9747 104.523 78.2989 104.428 77.5315C104.333 76.764 103.823 76.1955 103.289 76.2617C102.756 76.3279 102.4 77.0037 102.495 77.7712C102.59 78.5386 103.1 79.1071 103.634 79.0409Z" fill="#E6E6E6"/>
<path d="M94.7438 86.5472C95.2777 86.481 95.6334 85.8052 95.5382 85.0378C95.4431 84.2704 94.9331 83.7019 94.3993 83.7681C93.8654 83.8343 93.5098 84.5101 93.6049 85.2775C93.7001 86.0449 94.21 86.6134 94.7438 86.5472Z" fill="#E6E6E6"/>
<path d="M190.972 29.4903C192.155 29.1754 192.936 28.2533 192.717 27.4308C192.497 26.6083 191.361 26.1967 190.179 26.5116C188.997 26.8265 188.216 27.7486 188.435 28.5711C188.654 29.3936 189.79 29.8052 190.972 29.4903Z" fill="#E6E6E6"/>
<path d="M176.49 29.7586C177.672 29.4437 178.453 28.5216 178.234 27.6991C178.015 26.8766 176.879 26.465 175.697 26.7799C174.514 27.0948 173.733 28.0169 173.952 28.8394C174.171 29.6619 175.307 30.0735 176.49 29.7586Z" fill="#E6E6E6"/>
<path d="M193.546 17.4402C194.728 17.1253 195.509 16.2033 195.29 15.3807C195.071 14.5582 193.935 14.1467 192.752 14.4616C191.57 14.7765 190.789 15.6985 191.008 16.5211C191.227 17.3436 192.363 17.7551 193.546 17.4402Z" fill="#E6E6E6"/>
<path d="M197.817 12.3192C198.35 12.253 198.706 11.5772 198.611 10.8098C198.516 10.0423 198.006 9.47387 197.472 9.54006C196.938 9.60625 196.583 10.282 196.678 11.0495C196.773 11.8169 197.283 12.3854 197.817 12.3192Z" fill="#E6E6E6"/>
<path d="M198.898 3.22862C199.432 3.16243 199.788 2.48664 199.693 1.7192C199.597 0.951765 199.087 0.383294 198.554 0.449485C198.02 0.515676 197.664 1.19147 197.759 1.9589C197.854 2.72634 198.364 3.29482 198.898 3.22862Z" fill="#E6E6E6"/>
<path d="M184.299 20.7037C184.833 20.6375 185.189 19.9617 185.094 19.1943C184.999 18.4269 184.489 17.8584 183.955 17.9246C183.421 17.9908 183.065 18.6666 183.161 19.434C183.256 20.2014 183.766 20.7699 184.299 20.7037Z" fill="#E6E6E6"/>
<path d="M191.621 23.3541C192.155 23.2879 192.511 22.6121 192.416 21.8447C192.321 21.0773 191.811 20.5088 191.277 20.575C190.743 20.6412 190.387 21.317 190.482 22.0844C190.577 22.8518 191.087 23.4203 191.621 23.3541Z" fill="#E6E6E6"/>
<path d="M182.731 30.8605C183.265 30.7943 183.621 30.1185 183.526 29.351C183.43 28.5836 182.92 28.0151 182.387 28.0813C181.853 28.1475 181.497 28.8233 181.592 29.5907C181.687 30.3582 182.197 30.9266 182.731 30.8605Z" fill="#E6E6E6"/>
<path d="M98.6336 87.2374C96.2642 87.2374 94.7237 86.6486 94.0419 85.4781C92.6975 83.1701 94.9492 79.1203 100.735 73.4412L101.221 73.9363C95.8466 79.2117 93.51 83.1866 94.6413 85.129C95.3572 86.3575 97.4877 86.7979 100.804 86.4018C104.096 86.0089 108.458 84.8375 113.771 82.9204C124.707 78.9735 138.427 72.3159 152.405 64.174C166.382 56.0322 178.941 47.3812 187.77 39.8149C189.465 38.3614 191.004 36.963 192.344 35.659C194.102 33.989 195.724 32.1812 197.194 30.2529C199.175 27.5642 199.843 25.4935 199.127 24.2648C197.932 22.2125 192.909 22.4055 184.985 24.8089L184.783 24.145C193.286 21.5667 198.313 21.4894 199.727 23.9156C200.605 25.4231 199.941 27.6937 197.753 30.6644C196.26 32.6233 194.613 34.4597 192.828 36.1561C191.478 37.4704 189.928 38.8785 188.221 40.3417C179.362 47.9346 166.766 56.6113 152.754 64.7733C138.742 72.9358 124.981 79.6124 114.006 83.573C108.645 85.508 104.23 86.6916 100.886 87.0906C100.139 87.1838 99.3867 87.2328 98.6336 87.2374Z" fill="#3F3D56"/>
</g>
<defs>
<clipPath id="clip0_1_8673">
<rect width="200" height="157.809" fill="white" transform="translate(0.102051 0.444336)"/>
</clipPath>
</defs>
</svg>
