<svg width="200" height="147" viewBox="0 0 200 147" fill="none" xmlns="http://www.w3.org/2000/svg">
<g clip-path="url(#clip0_1_29951)">
<path d="M189.038 146.812L189.266 146.391C186.212 144.74 182.411 142.684 180.426 139.311C178.469 135.986 178.425 131.471 180.311 127.527C181.916 124.171 184.865 121.164 188.839 118.832C189.622 118.371 190.445 117.935 191.241 117.514C193.164 116.494 195.153 115.44 196.792 113.945C199.051 111.885 200.76 108.429 199.486 105.351C199.067 104.368 198.381 103.522 197.506 102.91C196.631 102.298 195.601 101.943 194.535 101.886L194.508 102.364C195.485 102.416 196.428 102.741 197.23 103.302C198.032 103.862 198.661 104.637 199.045 105.537C200.228 108.398 198.605 111.644 196.47 113.591C194.875 115.046 192.913 116.085 191.016 117.091C190.216 117.515 189.389 117.953 188.596 118.419C184.54 120.8 181.526 123.878 179.879 127.32C177.925 131.406 177.976 136.093 180.013 139.554C182.066 143.042 185.932 145.133 189.038 146.812Z" fill="#F1F1F1"/>
<path d="M191.499 104.41C193.814 104.41 195.69 103.499 195.69 102.375C195.69 101.251 193.814 100.339 191.499 100.339C189.185 100.339 187.309 101.251 187.309 102.375C187.309 103.499 189.185 104.41 191.499 104.41Z" fill="#F1F1F1"/>
<path d="M188.147 117.82C190.461 117.82 192.337 116.909 192.337 115.785C192.337 114.661 190.461 113.75 188.147 113.75C185.832 113.75 183.956 114.661 183.956 115.785C183.956 116.909 185.832 117.82 188.147 117.82Z" fill="#F1F1F1"/>
<path d="M195.81 119.975C198.124 119.975 200 119.064 200 117.94C200 116.816 198.124 115.904 195.81 115.904C193.495 115.904 191.619 116.816 191.619 117.94C191.619 119.064 193.495 119.975 195.81 119.975Z" fill="#F1F1F1"/>
<path d="M183.837 131.23C186.151 131.23 188.027 130.319 188.027 129.195C188.027 128.07 186.151 127.159 183.837 127.159C181.522 127.159 179.646 128.07 179.646 129.195C179.646 130.319 181.522 131.23 183.837 131.23Z" fill="#F1F1F1"/>
<path d="M175.455 131.23C177.77 131.23 179.646 130.319 179.646 129.195C179.646 128.07 177.77 127.159 175.455 127.159C173.141 127.159 171.265 128.07 171.265 129.195C171.265 130.319 173.141 131.23 175.455 131.23Z" fill="#F1F1F1"/>
<path d="M32.8745 104.989H18.0058C17.6694 104.988 17.3469 104.855 17.109 104.617C16.8711 104.379 16.7373 104.056 16.7368 103.72V54.7273C16.7373 54.3909 16.8711 54.0684 17.109 53.8306C17.3468 53.5927 17.6693 53.4589 18.0057 53.4585H32.8746C33.211 53.4589 33.5335 53.5927 33.7714 53.8306C34.0093 54.0684 34.1431 54.391 34.1435 54.7274V103.72C34.1431 104.056 34.0093 104.379 33.7714 104.617C33.5335 104.855 33.2109 104.988 32.8745 104.989Z" fill="#6C63FF" stroke="#F1F1F1" stroke-width="0.5"/>
<path d="M59.9902 104.989H45.1216C44.7851 104.988 44.4626 104.855 44.2247 104.617C43.9868 104.379 43.853 104.056 43.8525 103.72V35.2859C43.853 34.9495 43.9868 34.627 44.2247 34.3892C44.4626 34.1513 44.785 34.0175 45.1214 34.0171H59.9903C60.3267 34.0175 60.6492 34.1513 60.8871 34.3892C61.125 34.627 61.2588 34.9496 61.2592 35.286V103.72C61.2588 104.056 61.125 104.379 60.8871 104.617C60.6492 104.855 60.3266 104.988 59.9902 104.989Z" fill="#6C63FF" stroke="#F1F1F1" stroke-width="0.5"/>
<path d="M87.1059 104.989H72.2373C71.9008 104.988 71.5783 104.855 71.3404 104.617C71.1025 104.379 70.9687 104.056 70.9683 103.72V54.7273C70.9687 54.3909 71.1025 54.0684 71.3404 53.8306C71.5783 53.5927 71.9008 53.4589 72.2372 53.4585H87.1061C87.4424 53.4589 87.7649 53.5927 88.0028 53.8306C88.2407 54.0684 88.3745 54.391 88.3749 54.7274V103.72C88.3745 104.056 88.2407 104.379 88.0028 104.617C87.7649 104.855 87.4424 104.988 87.1059 104.989Z" fill="#6C63FF" stroke="#F1F1F1" stroke-width="0.5"/>
<path d="M114.227 104.989L114.227 104.989H114.222L99.3527 104.989L99.3474 104.989C99.02 104.996 98.7032 104.873 98.4664 104.647C98.2303 104.421 98.0929 104.112 98.084 103.786V27.5457C98.0929 27.2195 98.2303 26.91 98.4664 26.6846C98.7032 26.4585 99.02 26.3355 99.3474 26.3426L99.3474 26.3426H99.3527H114.222V26.3427L114.227 26.3426C114.555 26.3355 114.871 26.4585 115.108 26.6846C115.344 26.91 115.482 27.2195 115.491 27.5457V103.786C115.482 104.112 115.344 104.421 115.108 104.647C114.871 104.873 114.555 104.996 114.227 104.989Z" fill="#6C63FF" stroke="#F1F1F1" stroke-width="0.5"/>
<path d="M141.338 104.989H126.469C126.133 104.988 125.81 104.854 125.572 104.617C125.334 104.379 125.201 104.056 125.2 103.72V13.7976C125.201 13.4612 125.334 13.1387 125.572 12.9009C125.81 12.663 126.133 12.5292 126.469 12.5288H141.338C141.674 12.5292 141.997 12.663 142.235 12.9009C142.473 13.1388 142.606 13.4613 142.607 13.7977V103.72C142.606 104.056 142.473 104.379 142.235 104.617C141.997 104.854 141.674 104.988 141.338 104.989Z" fill="#6C63FF" stroke="#F1F1F1" stroke-width="0.5"/>
<path d="M25.4398 47.0691C27.1352 47.0691 28.5096 45.6948 28.5096 43.9994C28.5096 42.304 27.1352 40.9297 25.4398 40.9297C23.7445 40.9297 22.3701 42.304 22.3701 43.9994C22.3701 45.6948 23.7445 47.0691 25.4398 47.0691Z" fill="#3F3D56"/>
<path d="M52.5556 27.116C54.2509 27.116 55.6253 25.7416 55.6253 24.0463C55.6253 22.3509 54.2509 20.9766 52.5556 20.9766C50.8602 20.9766 49.4858 22.3509 49.4858 24.0463C49.4858 25.7416 50.8602 27.116 52.5556 27.116Z" fill="#3F3D56"/>
<path d="M79.6718 47.0691C81.3671 47.0691 82.7415 45.6948 82.7415 43.9994C82.7415 42.304 81.3671 40.9297 79.6718 40.9297C77.9764 40.9297 76.6021 42.304 76.6021 43.9994C76.6021 45.6948 77.9764 47.0691 79.6718 47.0691Z" fill="#3F3D56"/>
<path d="M106.787 17.3953C108.483 17.3953 109.857 16.0209 109.857 14.3256C109.857 12.6302 108.483 11.2559 106.787 11.2559C105.092 11.2559 103.718 12.6302 103.718 14.3256C103.718 16.0209 105.092 17.3953 106.787 17.3953Z" fill="#3F3D56"/>
<path d="M133.903 6.13944C135.599 6.13944 136.973 4.76508 136.973 3.06972C136.973 1.37436 135.599 0 133.903 0C132.208 0 130.833 1.37436 130.833 3.06972C130.833 4.76508 132.208 6.13944 133.903 6.13944Z" fill="#3F3D56"/>
<path d="M158.762 105.809H0.23946C0.175951 105.809 0.115043 105.784 0.070136 105.739C0.0252285 105.694 0 105.633 0 105.57C0 105.506 0.0252285 105.445 0.070136 105.4C0.115043 105.355 0.175951 105.33 0.23946 105.33H158.762C158.825 105.33 158.886 105.355 158.931 105.4C158.976 105.445 159.001 105.506 159.001 105.57C159.001 105.633 158.976 105.694 158.931 105.739C158.886 105.784 158.825 105.809 158.762 105.809Z" fill="#CBCBCB"/>
<path d="M198.273 146.756H120.688C120.624 146.756 120.563 146.731 120.518 146.686C120.473 146.641 120.448 146.58 120.448 146.517C120.448 146.453 120.473 146.392 120.518 146.347C120.563 146.303 120.624 146.277 120.688 146.277H198.273C198.336 146.277 198.397 146.303 198.442 146.347C198.487 146.392 198.512 146.453 198.512 146.517C198.512 146.58 198.487 146.641 198.442 146.686C198.397 146.731 198.336 146.756 198.273 146.756Z" fill="#CBCBCB"/>
<path d="M148.45 101.917C148.647 101.721 148.798 101.485 148.894 101.224C148.99 100.963 149.027 100.685 149.003 100.408C148.98 100.132 148.896 99.8636 148.757 99.623C148.619 99.3823 148.429 99.175 148.202 99.0155L149.144 94.7796L146.709 93.5796L145.463 99.5802C145.221 99.9797 145.133 100.454 145.217 100.914C145.301 101.374 145.551 101.787 145.919 102.075C146.287 102.363 146.748 102.506 147.214 102.477C147.681 102.448 148.12 102.248 148.45 101.917Z" fill="#FFB7B7"/>
<path d="M175.074 102.009C175.255 101.799 175.388 101.552 175.463 101.284C175.538 101.017 175.554 100.737 175.509 100.463C175.464 100.189 175.359 99.928 175.203 99.6988C175.046 99.4696 174.841 99.2776 174.602 99.1361L175.213 94.84L172.693 93.832L171.916 99.9111C171.705 100.328 171.654 100.808 171.773 101.26C171.892 101.712 172.173 102.104 172.563 102.363C172.952 102.622 173.423 102.729 173.885 102.663C174.348 102.598 174.771 102.366 175.074 102.009Z" fill="#FFB7B7"/>
<path d="M156.095 144.173L153.612 144.173L152.431 134.597L156.095 134.597L156.095 144.173Z" fill="#FFB7B7"/>
<path d="M156.728 146.58L148.723 146.58V146.479C148.723 145.652 149.051 144.86 149.635 144.275C150.22 143.691 151.012 143.363 151.839 143.363L156.728 143.363L156.728 146.58Z" fill="#2F2E41"/>
<path d="M164.398 144.173L161.915 144.173L160.734 134.597L164.398 134.597L164.398 144.173Z" fill="#FFB7B7"/>
<path d="M165.031 146.58L157.025 146.58V146.479C157.025 145.652 157.354 144.86 157.938 144.275C158.522 143.691 159.315 143.363 160.141 143.363L165.031 143.363L165.031 146.58Z" fill="#2F2E41"/>
<path d="M169.397 63.6077L172.074 62.6416C172.074 62.6416 173.21 62.8829 173.21 65.9643C173.21 69.0458 176.228 97.7843 176.228 97.7843L170.946 99.1748L167.961 71.9092L169.397 63.6077Z" fill="#2F2E41"/>
<path d="M151.507 63.6077L148.83 62.6416C148.83 62.6416 147.694 62.8829 147.694 65.9643C147.694 69.0458 144.676 97.7843 144.676 97.7843L149.957 99.1748L152.942 71.9092L151.507 63.6077Z" fill="#2F2E41"/>
<path d="M151.541 96.3844L150.81 117.972L152.43 141.852L156.604 141.948L157.211 119.673L160.654 108.535L160.307 141.363L165.034 141.306L167.961 118.721C167.961 118.721 171.827 100.03 169.683 96.3844L159.81 93.1011L151.541 96.3844Z" fill="#2F2E41"/>
<path d="M151.622 93.7832L151.384 98.9763C151.384 98.9763 154.715 100.634 160.57 99.6243C166.426 98.6144 170.318 99.2802 170.318 99.2802L169.868 92.6602L151.622 93.7832Z" fill="#E5E5E5"/>
<path d="M148.724 62.7186L156.423 59.3447L156.882 57.5776L164.373 57.7946L164.696 59.5999L172.073 62.6419L168.823 73.9438L169.157 81.8943L173.21 96.3845C173.21 96.3845 169.791 99.2879 161.577 98.0387L160.16 95.183L159.293 98.203C159.293 98.203 152.091 100.853 150.095 97.4035L151.541 72.4887L148.724 62.7186Z" fill="#2F2E41"/>
<path d="M160.559 55.9173C163.306 55.9173 165.533 53.6904 165.533 50.9435C165.533 48.1966 163.306 45.9697 160.559 45.9697C157.812 45.9697 155.585 48.1966 155.585 50.9435C155.585 53.6904 157.812 55.9173 160.559 55.9173Z" fill="#FFB7B7"/>
<path d="M166.469 49.016C166.38 48.6113 166.209 48.229 165.966 47.893C165.87 46.9638 165.56 46.0695 165.061 45.2797C164.865 44.9096 164.587 44.5892 164.249 44.343C163.861 44.1198 163.419 44.0096 162.972 44.0247C162.891 44.0234 162.745 44.0479 162.614 44.0539C162.53 44.0279 162.445 44.0047 162.36 43.9829C162.311 43.8726 162.212 43.551 162.185 43.5728L161.815 43.8672C161.658 43.84 161.5 43.8188 161.342 43.802C161.285 43.6378 161.227 43.4737 161.17 43.3096C161.076 43.4564 160.995 43.6102 160.925 43.7696C160.768 43.7619 160.61 43.7592 160.453 43.7615L160.138 43.459C160.119 43.5434 160.077 43.6205 160.015 43.6809C159.953 43.7414 159.875 43.7825 159.791 43.7993C159.646 43.8142 159.501 43.8336 159.357 43.8567C159.346 43.8566 159.334 43.8567 159.322 43.8564C158.547 43.8371 157.712 43.8023 157.064 44.2281C156.761 44.4364 156.514 44.7168 156.345 45.044C156.266 45.098 156.186 45.1516 156.109 45.2088C155.849 45.3862 155.623 45.6097 155.444 45.8682C155.313 46.0912 155.214 46.3312 155.149 46.5814C154.902 47.3344 154.787 48.1247 154.811 48.917C154.837 49.7147 155.138 50.4789 155.663 51.0804C155.995 51.4377 156.418 51.7016 156.751 52.0585C157.437 52.7934 157.565 53.8184 158.152 54.5961C158.772 55.4186 159.905 55.9598 160.899 56.1149C161.497 56.205 162.107 56.1761 162.693 56.0298C163.28 55.8835 163.832 55.6227 164.317 55.2624C164.55 55.1001 164.748 54.8926 164.899 54.6521C165.245 54.0552 165.098 53.3048 165.226 52.6273C165.467 51.3572 166.679 50.2914 166.469 49.016Z" fill="#2F2E41"/>
<path d="M25.2761 44.1915L24.9902 43.8074L52.5559 23.285L79.584 43.4451L106.982 13.6984L107.031 13.6783L133.621 2.7041L133.803 3.14686L107.263 14.1007L79.6436 44.0871L52.5557 23.8822L25.2761 44.1915Z" fill="#3F3D56"/>
</g>
<defs>
<clipPath id="clip0_1_29951">
<rect width="200" height="146.812" fill="white"/>
</clipPath>
</defs>
</svg>
