<svg width="201" height="127" viewBox="0 0 201 127" fill="none" xmlns="http://www.w3.org/2000/svg">
<g clip-path="url(#clip0_1_8795)">
<path d="M145.79 31.3167C145.79 34.2946 144.622 38.7584 142.679 44.1097C140.74 49.4518 138.04 55.6487 134.999 62.0803C128.917 74.9428 121.478 88.728 116.056 98.4613L116.274 98.583L116.056 98.4613C115.342 99.7435 114.298 100.812 113.033 101.555C111.768 102.299 110.327 102.691 108.859 102.691C107.392 102.691 105.951 102.299 104.685 101.555C103.42 100.812 102.377 99.7435 101.663 98.4613L101.444 98.583L101.663 98.4613C96.24 88.728 88.8018 74.9428 82.7198 62.0803C79.6787 55.6488 76.9785 49.4518 75.0392 44.1097C73.0965 38.7584 71.9287 34.2946 71.9287 31.3167C71.9287 14.53 88.4163 0.844727 108.859 0.844727C129.302 0.844727 145.79 14.53 145.79 31.3167Z" fill="#6C63FF" stroke="#6C63FF" stroke-width="0.5"/>
<path d="M109.034 51.2161C120.217 51.2161 129.282 42.1505 129.282 30.9676C129.282 19.7846 120.217 10.719 109.034 10.719C97.8508 10.719 88.7852 19.7846 88.7852 30.9676C88.7852 42.1505 97.8508 51.2161 109.034 51.2161Z" fill="white"/>
<path d="M24.5382 49.2889C31.2364 49.2889 36.6663 43.8589 36.6663 37.1608C36.6663 30.4626 31.2364 25.0327 24.5382 25.0327C17.8401 25.0327 12.4102 30.4626 12.4102 37.1608C12.4102 43.8589 17.8401 49.2889 24.5382 49.2889Z" fill="#FF6584"/>
<path d="M137.953 124.479C137.944 124.488 137.932 124.499 137.914 124.512C137.842 124.567 137.719 124.632 137.533 124.702C137.163 124.842 136.604 124.981 135.865 125.116C134.392 125.384 132.253 125.628 129.599 125.833C124.295 126.242 116.962 126.496 108.86 126.496C100.757 126.496 93.4243 126.242 88.1199 125.833C85.4664 125.628 83.3268 125.384 81.8539 125.116C81.1155 124.981 80.5564 124.842 80.1866 124.702C80.0003 124.632 79.8771 124.567 79.8048 124.512C79.7874 124.499 79.7751 124.488 79.7665 124.479C79.7751 124.471 79.7874 124.46 79.8048 124.447C79.8771 124.392 80.0003 124.327 80.1866 124.257C80.5564 124.117 81.1155 123.978 81.8539 123.843C83.3268 123.574 85.4664 123.331 88.1199 123.126C93.4243 122.717 100.757 122.463 108.86 122.463C116.962 122.463 124.295 122.717 129.599 123.126C132.253 123.331 134.392 123.574 135.865 123.843C136.604 123.978 137.163 124.117 137.533 124.257C137.719 124.327 137.842 124.392 137.914 124.447C137.932 124.46 137.944 124.471 137.953 124.479Z" fill="#6C63FF" stroke="#6C63FF" stroke-width="0.5"/>
<path opacity="0.4" d="M22.0684 47.9459C22.6857 44.1422 20.1026 40.5583 16.2988 39.941C12.4951 39.3238 8.91118 41.9069 8.29392 45.7106C7.67666 49.5144 10.2598 53.0983 14.0635 53.7155C17.8673 54.3328 21.4512 51.7497 22.0684 47.9459Z" fill="#6C63FF"/>
<path d="M178.423 82.8213C123.476 62.2236 56.4604 82.3046 17.7682 123.381C17.5483 123.612 17.3284 123.846 17.1154 124.079H16.5254C16.7279 123.846 16.9373 123.612 17.1433 123.381C56.6385 79.18 122.764 61.5638 178.423 82.8213Z" fill="#3F3D56"/>
<path d="M193.438 89.6534C188.581 87.0633 183.566 84.7814 178.423 82.8213C183.58 84.7491 188.597 87.0319 193.438 89.6534Z" fill="#3F3D56"/>
<path opacity="0.4" d="M163.366 69.1031C167.592 69.1031 171.019 65.6769 171.019 61.4505C171.019 57.224 167.592 53.7979 163.366 53.7979C159.14 53.7979 155.713 57.224 155.713 61.4505C155.713 65.6769 159.14 69.1031 163.366 69.1031Z" fill="#6C63FF"/>
<path d="M164.218 120.313C164.81 122.499 166.835 123.853 166.835 123.853C166.835 123.853 167.902 121.663 167.311 119.477C166.719 117.29 164.694 115.937 164.694 115.937C164.694 115.937 163.627 118.127 164.218 120.313Z" fill="#3F3D56"/>
<path d="M164.913 120.022C165.684 120.772 166.122 121.731 166.368 122.514C166.49 122.904 166.563 123.246 166.606 123.49C166.61 123.518 166.615 123.544 166.619 123.57C166.594 123.566 166.567 123.562 166.539 123.558C166.294 123.522 165.95 123.459 165.557 123.347C164.768 123.122 163.798 122.71 163.027 121.96C162.256 121.209 161.818 120.25 161.572 119.467C161.45 119.078 161.377 118.736 161.334 118.492C161.33 118.464 161.325 118.437 161.321 118.412C161.346 118.416 161.373 118.419 161.401 118.423C161.646 118.459 161.99 118.523 162.383 118.635C163.172 118.859 164.142 119.272 164.913 120.022Z" fill="#6C63FF" stroke="#6C63FF" stroke-width="0.5"/>
<path d="M1.27939 89.9172V93.2897L1.11182 93.4712V89.8823C1.16767 89.8928 1.22355 89.9068 1.27939 89.9172Z" fill="#3F3D56"/>
<path d="M12.0251 123.38C11.9762 123.46 11.9239 123.54 11.8715 123.62H1.11182V90.0847L1.27939 89.9171L2.70727 91.5405V89.1665H7.24574V96.7004L11.8296 101.906L11.8715 101.955C11.9273 102.129 11.9797 102.304 12.0321 102.478C12.0324 102.481 12.0337 102.483 12.0356 102.485C12.723 104.685 13.2871 106.922 13.7253 109.185C14.7237 114.523 14.5736 119.417 12.0251 123.38Z" fill="#CCCCCC"/>
<path d="M4.8897 108.454H2.00098V110.862H4.8897V108.454Z" fill="#3F3D56"/>
<path d="M4.8897 112.787H2.00098V115.195H4.8897V112.787Z" fill="#3F3D56"/>
<path d="M93.874 103.881L92.4297 101.473L105.91 89.9184C115.877 85.1214 127.89 86.5055 140.575 89.9184V93.2884L128.057 106.769L113.614 109.658L93.874 103.881Z" fill="#3F3D56"/>
<path d="M146.542 96.6991C148.936 94.0363 149.269 91.5042 146.542 89.1663H142.004V91.5416L140.575 89.9182L129.02 101.473L127.094 103.399L124.687 113.028L129.02 123.62H151.167V101.955L146.542 96.6991Z" fill="#CCCCCC"/>
<path d="M92.4296 101.473H129.02V123.62H92.4296C88.0029 118.831 90.3025 110.101 92.4296 101.473Z" fill="#F2F2F2"/>
<path d="M123.965 108.454H116.262V115.195H123.965V108.454Z" fill="#3F3D56"/>
<path d="M113.132 108.214H106.392V123.62H113.132V108.214Z" fill="#CCCCCC"/>
<path d="M98.6889 110.621V108.214H95.8003V110.621H98.448H98.6889Z" fill="#3F3D56"/>
<path d="M98.448 112.547H95.8003V114.954H98.6889V112.547H98.448Z" fill="#3F3D56"/>
<path d="M103.503 108.214H100.614V110.621H103.503V108.214Z" fill="#3F3D56"/>
<path d="M103.503 112.547H100.614V114.954H103.503V112.547Z" fill="#3F3D56"/>
<path d="M139.371 110.862V108.454H136.482V110.862H139.13H139.371Z" fill="#3F3D56"/>
<path d="M139.13 112.787H136.482V115.194H139.371V112.787H139.13Z" fill="#3F3D56"/>
<path d="M144.186 108.454H141.297V110.862H144.186V108.454Z" fill="#3F3D56"/>
<path d="M144.186 112.787H141.297V115.195H144.186V112.787Z" fill="#3F3D56"/>
<path d="M28.7221 63.4385L26.3149 61.5124L39.7956 49.4761H73.9787V60.0682L51.832 74.9935L28.7221 63.4385Z" fill="#3F3D56"/>
<path d="M80.2109 56.2279V49.7166H75.6725V51.3114L73.9785 49.4761L62.905 61.5124L58.5722 64.4014L51.8535 113.488L61.9858 123.62H85.5335C89.1415 105.47 92.0026 86.8255 85.5335 61.9939L80.2109 56.2279Z" fill="#CCCCCC"/>
<path d="M26.3146 61.5125H62.9051V123.62H26.3146C22.3106 99.4917 20.3551 77.1162 26.3146 61.5125Z" fill="#F2F2F2"/>
<path d="M47.2579 108.454H40.5176V123.62H47.2579V108.454Z" fill="#CCCCCC"/>
<path d="M33.2958 112.788V110.38H30.4072V112.788H33.0552H33.2958Z" fill="#3F3D56"/>
<path d="M33.0552 114.713H30.4072V117.121H33.2958V114.713H33.0552Z" fill="#3F3D56"/>
<path d="M38.1099 110.38H35.2212V112.787H38.1099V110.38Z" fill="#3F3D56"/>
<path d="M52.7945 114.713H50.1465V117.121H53.035V114.713H52.7945Z" fill="#3F3D56"/>
<path d="M57.8497 110.38H54.9609V112.787H57.8497V110.38Z" fill="#3F3D56"/>
<path d="M57.8497 114.713H54.9609V117.12H57.8497V114.713Z" fill="#3F3D56"/>
<path d="M73.2562 64.642V62.2349H70.3677V64.642H73.0157H73.2562Z" fill="#3F3D56"/>
<path d="M73.0157 66.5681H70.3677V68.9753H73.2562V66.5681H73.0157Z" fill="#3F3D56"/>
<path d="M78.0708 62.2346H75.1821V64.6419H78.0708V62.2346Z" fill="#3F3D56"/>
<path d="M78.0708 66.5679H75.1821V68.9751H78.0708V66.5679Z" fill="#3F3D56"/>
<path d="M73.2562 78.1231V75.7156H70.3677V78.1231H73.0157H73.2562Z" fill="#3F3D56"/>
<path d="M73.0157 80.0486H70.3677V82.4557H73.2562V80.0486H73.0157Z" fill="#3F3D56"/>
<path d="M78.0708 75.7153H75.1821V78.1226H78.0708V75.7153Z" fill="#3F3D56"/>
<path d="M78.0708 80.0486H75.1821V82.4559H78.0708V80.0486Z" fill="#3F3D56"/>
<path d="M73.2562 91.6035V89.196H70.3677V91.6035H73.0157H73.2562Z" fill="#3F3D56"/>
<path d="M73.0157 93.5293H70.3677V95.9364H73.2562V93.5293H73.0157Z" fill="#3F3D56"/>
<path d="M78.0708 89.196H75.1821V91.6033H78.0708V89.196Z" fill="#3F3D56"/>
<path d="M78.0708 93.5293H75.1821V95.9366H78.0708V93.5293Z" fill="#3F3D56"/>
<path d="M73.2562 105.084V102.677H70.3677V105.084H73.0157H73.2562Z" fill="#3F3D56"/>
<path d="M73.0157 107.01H70.3677V109.417H73.2562V107.01H73.0157Z" fill="#3F3D56"/>
<path d="M78.0708 102.677H75.1821V105.084H78.0708V102.677Z" fill="#3F3D56"/>
<path d="M78.0708 107.01H75.1821V109.417H78.0708V107.01Z" fill="#3F3D56"/>
<path d="M30.4067 64.6421H58.331V70.4195C49.3804 67.9493 40.0467 68.1265 30.4067 70.4195V64.6421Z" fill="#3F3D56"/>
<path d="M30.4067 76.1968C39.1222 78.7646 48.4303 78.7646 58.331 76.1968V81.9742H30.4067V76.1968Z" fill="#3F3D56"/>
<path d="M30.4067 87.7517H58.331V93.5292C48.8145 90.4904 39.4966 90.3472 30.4067 93.5292V87.7517Z" fill="#3F3D56"/>
<path d="M30.4067 99.3066C39.5137 102.817 48.8302 102.67 58.331 99.3066V105.084H30.4067V99.3066Z" fill="#3F3D56"/>
<path d="M180.486 89.2695H200.106V98.7235L198.354 99.2718L192.524 101.091L183.377 98.9725L174.24 96.8553L169.416 95.7376L167.007 94.8464C169.011 92.0968 172.655 89.9343 180.486 89.2695Z" fill="#3F3D56"/>
<path d="M200.107 94.8464V123.621H167.007C166.997 123.603 166.99 123.587 166.979 123.569V123.567C166.971 123.547 166.962 123.528 166.951 123.509C166.435 122.469 165.971 121.432 165.562 120.397C162.088 111.642 162.465 103.118 167.007 94.8464H200.107Z" fill="#F2F2F2"/>
<path d="M187.95 108.454H181.21V123.62H187.95V108.454Z" fill="#CCCCCC"/>
<path d="M173.988 112.788V110.38H171.1V112.788H173.748H173.988Z" fill="#3F3D56"/>
<path d="M173.748 114.713H171.1V117.121H173.988V114.713H173.748Z" fill="#3F3D56"/>
<path d="M178.803 110.38H175.914V112.787H178.803V110.38Z" fill="#3F3D56"/>
<path d="M178.803 114.713H175.914V117.12H178.803V114.713Z" fill="#3F3D56"/>
<path d="M193.728 112.788V110.38H190.839V112.788H193.487H193.728Z" fill="#3F3D56"/>
<path d="M193.487 114.713H190.839V117.121H193.728V114.713H193.487Z" fill="#3F3D56"/>
<path d="M198.543 110.38H195.654V112.787H198.543V110.38Z" fill="#3F3D56"/>
<path d="M198.543 114.713H195.654V117.12H198.543V114.713Z" fill="#3F3D56"/>
<path d="M174.242 78.0979H178.391C182.484 78.0979 186.409 79.7237 189.303 82.6176C192.197 85.5116 193.823 89.4366 193.823 93.5292H174.242V78.0979Z" fill="#3F3D56"/>
<path d="M48.5605 36.2043H52.71C56.8027 36.2043 60.7277 37.8301 63.6217 40.7241C66.5156 43.618 68.1414 47.543 68.1414 51.6357H48.5605V36.2043Z" fill="#3F3D56"/>
<path d="M114.892 74.9558H119.042C123.134 74.9558 127.059 76.5816 129.953 79.4755C132.847 82.3695 134.473 86.2945 134.473 90.3871H114.892V74.9558Z" fill="#3F3D56"/>
<path d="M193.823 99.3066H174.242V105.084H193.823V99.3066Z" fill="#3F3D56"/>
<path d="M200.106 123.381H1.11182V124.08H200.106V123.381Z" fill="#3F3D56"/>
<path d="M19.4648 95.7998H18.7666V123.38H19.4648V95.7998Z" fill="#3F3D56"/>
<path d="M19.1472 116.442C19.0985 116.394 19.0411 116.337 18.9759 116.272C18.7449 116.039 18.4159 115.695 18.0262 115.252C17.2465 114.366 16.2254 113.087 15.2602 111.516C13.3268 108.368 11.635 104.075 12.5124 99.4236C13.4053 94.6896 15.2448 90.3492 16.7837 87.1808C17.3479 86.0191 17.8697 85.0187 18.2906 84.2119C18.4441 83.9177 18.5841 83.6492 18.7079 83.4081C18.9036 83.0268 19.0616 82.7081 19.1652 82.4657C19.3461 82.6914 19.5901 83.0052 19.8776 83.3986C20.516 84.2723 21.3683 85.5377 22.222 87.1023C23.931 90.2345 25.637 94.5503 25.6589 99.3155C25.6809 104.081 24.0148 108.412 22.3347 111.56C21.4955 113.132 20.6549 114.406 20.0246 115.285C19.7095 115.725 19.4471 116.066 19.264 116.296C19.2205 116.351 19.1814 116.4 19.1472 116.442Z" fill="#6C63FF" stroke="#6C63FF" stroke-width="0.5"/>
<path d="M89.2876 95.7998H88.5894V123.38H89.2876V95.7998Z" fill="#3F3D56"/>
<path d="M88.9963 116.427C88.9647 116.389 88.9293 116.345 88.8903 116.297C88.705 116.068 88.4395 115.73 88.1204 115.293C87.482 114.419 86.6297 113.154 85.776 111.589C84.0671 108.457 82.361 104.141 82.3391 99.3761C82.3171 94.6109 83.9833 90.2796 85.6633 87.1317C86.5025 85.5593 87.3431 84.2861 87.9734 83.4066C88.2 83.0905 88.3993 82.8253 88.5615 82.6156C88.585 82.7854 88.6239 82.9608 88.675 83.1407C88.8117 83.6222 89.0429 84.1589 89.3339 84.7396C89.7412 85.5522 90.2784 86.4747 90.8621 87.4768C91.1099 87.9024 91.3662 88.3424 91.6244 88.7945C93.3685 91.8477 95.2313 95.5002 95.4818 99.3307C95.7922 104.076 94.13 108.4 92.3785 111.548C91.5037 113.121 90.6093 114.395 89.934 115.276C89.5964 115.716 89.3139 116.057 89.1162 116.288C89.0718 116.34 89.0318 116.386 88.9963 116.427Z" fill="#6C63FF" stroke="#6C63FF" stroke-width="0.5"/>
<path d="M43.9248 50.9679L74.2537 49.4841L86.9764 60.1038L84.7271 62.1346L64.5801 61.6811L43.9248 50.9679Z" fill="#3F3D56"/>
<path d="M13.6625 100.251L12.0287 101.728L11.8297 101.906L11.4142 102.283L1.11189 102.052V89.8822C0.776744 89.8089 0.441594 89.7391 0.106445 89.6728L0.940831 89.6309L1.11189 89.774L2.70734 91.1041L7.24581 94.8955L12.3149 99.1267L13.6625 100.251Z" fill="#3F3D56"/>
<path d="M110.256 91.1158L140.585 89.6321L153.308 100.252L151.059 102.283L130.912 101.829L110.256 91.1158Z" fill="#3F3D56"/>
</g>
<defs>
<clipPath id="clip0_1_8795">
<rect width="200" height="126.151" fill="white" transform="translate(0.106445 0.594727)"/>
</clipPath>
</defs>
</svg>
