<svg width="201" height="144" viewBox="0 0 201 144" fill="none" xmlns="http://www.w3.org/2000/svg">
<g clip-path="url(#clip0_1_8735)">
<path d="M162.757 91.6504C162.936 91.667 163.116 91.6282 163.272 91.5393C163.428 91.4504 163.553 91.3157 163.63 91.1535C163.706 90.9912 163.732 90.8093 163.702 90.6322C163.672 90.4552 163.588 90.2916 163.462 90.1637C163.444 90.075 163.431 90.0113 163.413 89.9226C163.422 89.9039 163.431 89.8853 163.44 89.8666C163.64 89.4486 163.959 89.0992 164.358 88.8622C164.756 88.6252 165.215 88.5111 165.678 88.5344C166.141 88.5577 166.587 88.7172 166.959 88.993C167.332 89.2688 167.615 89.6485 167.772 90.0844C168.401 91.8243 169.224 93.5762 169.362 95.3914C169.423 96.1937 169.344 97.0005 169.129 97.7758C170.963 94.2222 172.011 90.3158 172.202 86.3215C172.249 85.3192 172.24 84.315 172.175 83.3137C172.121 82.4927 172.031 81.6759 171.905 80.8633C171.216 76.4539 169.491 72.2707 166.872 68.6574C165.559 67.8601 164.523 66.6798 163.903 65.2755C163.678 64.7706 163.527 64.2358 163.455 63.6877C163.606 63.7147 163.76 63.7344 163.911 63.7514C163.958 63.7561 164.008 63.7609 164.055 63.7656L164.073 63.7672C164.24 63.7825 164.407 63.7493 164.555 63.6716C164.703 63.5939 164.826 63.4751 164.908 63.3294C164.99 63.1837 165.028 63.0173 165.018 62.8504C165.008 62.6834 164.95 62.523 164.851 62.3883C164.789 62.3046 164.727 62.2209 164.665 62.1372C164.571 62.0081 164.475 61.8813 164.381 61.7522C164.37 61.7399 164.36 61.7269 164.35 61.7133C164.242 61.5661 164.134 61.4213 164.027 61.2741C164.251 60.9593 164.544 60.7006 164.885 60.5181C166.064 59.8993 167.626 60.4386 168.407 61.5154C169.19 62.5924 169.279 64.0562 168.93 65.3399C168.594 66.4304 168.076 67.4559 167.396 68.3724C167.455 68.455 167.516 68.5352 167.575 68.6178C168.644 70.1338 169.563 71.7511 170.317 73.4463C170.201 71.5811 170.53 69.715 171.276 68.0016C172.026 66.4073 173.352 65.097 174.53 63.7434C175.945 62.1175 178.65 62.9818 178.786 65.1326C178.787 65.1534 178.789 65.1743 178.79 65.1951C178.62 65.2806 178.454 65.372 178.291 65.4693C178.086 65.5928 177.923 65.7754 177.824 65.9931C177.724 66.2108 177.693 66.4535 177.734 66.6893C177.774 66.9251 177.886 67.1431 178.052 67.3147C178.219 67.4863 178.434 67.6034 178.669 67.6509L178.693 67.6557C178.606 68.2484 178.475 68.8337 178.299 69.4065C177.794 71.0047 176.964 72.4814 175.862 73.7439C174.759 75.0064 173.408 76.0276 171.892 76.7433C171.793 76.7886 171.696 76.8339 171.596 76.8767C172.321 79.2826 172.731 81.7726 172.814 84.284C172.858 85.7655 172.782 87.2481 172.587 88.7173L172.597 88.6654C172.992 87.0399 173.936 85.6006 175.269 84.5905C177.249 83.1132 179.969 82.6619 182.084 81.4988C182.309 81.3687 182.567 81.3056 182.827 81.3171C183.087 81.3285 183.338 81.414 183.55 81.5635C183.763 81.713 183.929 81.9202 184.028 82.1607C184.127 82.4012 184.155 82.665 184.109 82.9209C184.105 82.9391 184.101 82.9573 184.098 82.9754C183.785 83.086 183.48 83.216 183.184 83.3645C183.014 83.4501 182.848 83.5415 182.685 83.6387C182.48 83.7623 182.317 83.9449 182.217 84.1626C182.118 84.3803 182.087 84.623 182.128 84.8588C182.168 85.0946 182.28 85.3126 182.446 85.4842C182.613 85.6558 182.828 85.7729 183.063 85.8204L183.087 85.8252C183.104 85.8285 183.119 85.8317 183.136 85.835C182.554 87.0614 181.765 88.1785 180.804 89.1373C179.618 90.2968 178.208 91.2019 176.659 91.797C175.111 92.3921 173.458 92.6647 171.8 92.598L171.798 92.5979C171.257 94.5314 170.517 96.4035 169.589 98.184L162.643 97.8606C162.621 97.7823 162.603 97.7015 162.584 97.6233C163.225 97.6937 163.872 97.6853 164.511 97.5983C164.025 96.9419 163.54 96.2805 163.054 95.6241C163.043 95.6118 163.032 95.5988 163.023 95.5853C162.777 95.2495 162.528 94.916 162.281 94.5802L162.281 94.5798C162.314 93.587 162.473 92.6025 162.757 91.6506L162.757 91.6504Z" fill="#F2F2F2"/>
<path d="M22.7961 31.5839C22.6187 31.6115 22.4371 31.5839 22.2759 31.5048C22.1147 31.4257 21.9817 31.299 21.8949 31.1418C21.8081 30.9846 21.7717 30.8045 21.7907 30.626C21.8097 30.4474 21.8831 30.279 22.001 30.1436C22.0135 30.054 22.0224 29.9896 22.0349 29.8999C22.025 29.8818 22.015 29.8637 22.005 29.8456C21.7792 29.4408 21.4388 29.1118 21.0266 28.8998C20.6145 28.6879 20.1488 28.6025 19.6882 28.6543C19.2277 28.7061 18.7927 28.8929 18.4379 29.1912C18.0831 29.4894 17.8244 29.8859 17.6942 30.3307C17.1736 32.1062 16.4607 33.9055 16.435 35.7258C16.424 36.5303 16.5526 37.3307 16.8151 38.0912C14.7654 34.6577 13.4779 30.8235 13.04 26.8488C12.9312 25.8512 12.8782 24.8484 12.8813 23.8449C12.8845 23.0222 12.924 22.2014 12.9995 21.3826C13.4146 16.939 14.8779 12.6573 17.2691 8.889C18.5294 8.01219 19.4907 6.77011 20.0234 5.33014C20.2168 4.81231 20.3342 4.26922 20.372 3.71775C20.2231 3.75401 20.0708 3.78311 19.9207 3.80945C19.8739 3.81703 19.8246 3.82491 19.7778 3.83252L19.7601 3.83525C19.5948 3.86077 19.4257 3.83797 19.273 3.76959C19.1204 3.7012 18.9907 3.59016 18.8997 3.44982C18.8087 3.30948 18.7603 3.14583 18.7601 2.97856C18.7599 2.8113 18.8081 2.64756 18.8989 2.50706C18.9554 2.41964 19.012 2.33227 19.0686 2.24493C19.1542 2.11025 19.2426 1.97778 19.3282 1.84313C19.3384 1.83011 19.3478 1.81652 19.3564 1.80243C19.4551 1.6488 19.5539 1.49765 19.6525 1.34401C19.4094 1.04372 19.1001 0.803666 18.7489 0.642552C17.5338 0.0977905 16.0084 0.732542 15.2956 1.85554C14.5804 2.97878 14.582 4.44531 15.0098 5.70498C15.412 6.7727 15.9929 7.76419 16.7277 8.63698C16.6744 8.72301 16.6183 8.80683 16.565 8.89287C15.591 10.4721 14.7741 12.143 14.1261 13.8816C14.1264 12.0128 13.683 10.1706 12.8325 8.50661C11.9859 6.96167 10.5806 5.7358 9.3215 4.45755C7.8091 2.92216 5.16225 3.95193 5.15964 6.10708C5.15961 6.12795 5.15964 6.1488 5.15972 6.16964C5.33424 6.24452 5.5059 6.32547 5.6747 6.4125C5.88691 6.52316 6.06075 6.69534 6.17343 6.90648C6.28611 7.11763 6.33238 7.35788 6.30618 7.59577C6.27999 7.83367 6.18254 8.0581 6.02661 8.23966C5.87068 8.42122 5.66354 8.55145 5.43234 8.61328L5.40866 8.61962C5.53169 9.20584 5.69911 9.78187 5.90946 10.3427C6.51235 11.9067 7.43185 13.3293 8.61029 14.5213C9.78874 15.7132 11.2007 16.6489 12.7577 17.2696C12.8598 17.3087 12.9593 17.348 13.0611 17.3846C12.486 19.8307 12.2315 22.3412 12.3039 24.8529C12.3514 26.3342 12.5185 27.8093 12.8038 29.2637L12.7907 29.2125C12.2959 27.6146 11.2649 26.2363 9.87164 25.3105C7.80483 23.9583 5.06191 23.676 2.87881 22.6458C2.64609 22.5298 2.38505 22.4828 2.12648 22.5103C1.8679 22.5378 1.62258 22.6386 1.41945 22.801C1.21632 22.9633 1.06385 23.1803 0.980018 23.4265C0.896189 23.6726 0.884499 23.9376 0.946328 24.1902C0.951054 24.2081 0.95583 24.2261 0.960651 24.244C1.27929 24.3351 1.59194 24.4459 1.8968 24.5759C2.07131 24.6508 2.24297 24.7317 2.41177 24.8187C2.62398 24.9294 2.79782 25.1016 2.9105 25.3127C3.02318 25.5239 3.06945 25.7641 3.04326 26.002C3.01706 26.2399 2.91961 26.4643 2.76368 26.6459C2.60775 26.8275 2.40062 26.9577 2.16941 27.0195L2.14572 27.0258C2.12865 27.0302 2.11404 27.0343 2.097 27.0387C2.75374 28.2268 3.61009 29.293 4.62853 30.1906C5.88397 31.2746 7.34759 32.0908 8.92967 32.5891C10.5117 33.0874 12.1789 33.2573 13.829 33.0884L13.8315 33.0881C14.4907 34.9846 15.3451 36.8073 16.3811 38.5271L23.2942 37.7751C23.3107 37.6956 23.3243 37.6139 23.3383 37.5347C22.7028 37.6445 22.0562 37.6761 21.413 37.6288C21.8575 36.9436 22.3014 36.2535 22.7458 35.5683C22.756 35.5553 22.7654 35.5418 22.774 35.5277C22.9991 35.1773 23.227 34.8291 23.4521 34.4787L23.4522 34.4782C23.3587 33.4894 23.1382 32.5166 22.7963 31.584L22.7961 31.5839Z" fill="#F2F2F2"/>
<path d="M118.306 29.0221C118.648 29.1162 118.966 29.2843 119.236 29.5143C119.506 29.7444 119.722 30.0309 119.87 30.3537C120.017 30.6765 120.092 31.0277 120.089 31.3826C120.087 31.7375 120.006 32.0874 119.853 32.4077L123.563 36.5321L121.606 39.3978L116.449 33.4998C115.928 33.2074 115.532 32.7341 115.337 32.1695C115.141 31.6049 115.16 30.9882 115.389 30.4362C115.618 29.8843 116.041 29.4355 116.579 29.1749C117.116 28.9142 117.731 28.8599 118.306 29.0221Z" fill="#A0616A"/>
<path d="M153.036 39.1497C152.702 38.6053 152.263 38.1324 151.745 37.7579C151.228 37.3835 150.641 37.1149 150.02 36.9676C149.398 36.8203 148.753 36.7971 148.123 36.8995C147.492 37.0018 146.888 37.2277 146.345 37.5641L134.144 45.1204L120.984 33.9333L117.709 36.982L132.248 55.8452L151.144 45.9944C150.703 46.2243 153.569 40.017 153.036 39.1497Z" fill="#CCCCCC"/>
<path d="M128.867 64.2747C128.868 70.3003 127.682 76.2671 125.377 81.8342C123.071 87.4014 119.692 92.4598 115.431 96.7206C111.17 100.981 106.112 104.361 100.545 106.666C94.9775 108.972 89.0107 110.157 82.9851 110.156C57.6457 110.156 37.1035 89.614 37.1035 64.2747C37.0992 59.3458 37.8893 54.4484 39.4435 49.771C42.4949 40.636 48.3408 32.6914 56.1544 27.0606C63.968 21.4297 73.354 18.3977 82.9851 18.3931C91.2914 18.3902 99.4425 20.643 106.568 24.9109C113.694 29.1789 119.527 35.3019 123.445 42.6262C124.416 44.4333 125.264 46.3043 125.981 48.2263C126.081 48.4939 126.178 48.7616 126.272 49.0318V49.0343C126.692 50.2221 127.063 51.432 127.383 52.6641C128.371 56.4551 128.87 60.357 128.867 64.2747Z" fill="#3F3D56"/>
<path d="M77.9652 33.319C75.9033 32.2039 73.6139 31.5745 71.2718 31.4787C68.9297 31.3829 66.5966 31.8232 64.4505 32.766C62.5609 33.5884 60.5713 35.0636 59.9409 37.7275C62.4904 36.2229 65.7906 38.6002 66.4466 42.4138L66.2935 42.456C65.947 45.0974 66.7205 47.9733 68.218 49.6112C68.4146 47.9099 69.5333 46.752 70.6336 46.0287C71.7338 45.3054 72.951 44.78 73.7909 43.5367C74.7865 42.0628 75.0393 39.9087 75.4348 37.9437C75.8303 35.9786 76.5807 33.8665 77.9652 33.319Z" fill="white"/>
<path d="M63.6943 55.7967C62.9882 56.857 62.0451 57.5223 61.1989 58.3507C60.3552 59.1817 59.5522 60.3032 59.384 61.7434C59.2769 62.6661 59.4426 63.6042 59.4197 64.5371C59.3968 65.47 59.0858 66.5202 58.4511 66.7522C57.4493 67.1141 56.6846 65.2534 55.6549 65.1234C54.8366 65.0214 54.1 66.3087 54.337 67.4251C54.5741 68.5416 55.688 69.036 56.3278 68.307C56.9064 69.2782 56.4986 71.0396 55.6294 71.3378C55.5376 71.9495 55.4459 72.5588 55.3566 73.1705C53.1594 71.6334 50.9392 70.0709 49.0709 67.8202C46.9929 65.3382 45.704 62.2918 45.3697 59.0721C45.1276 56.4849 45.487 53.5255 44.2992 51.5348C43.3484 49.9417 41.717 49.5899 40.2488 49.6893C39.9812 49.7072 39.711 49.7378 39.4434 49.7709C40.3092 47.1703 41.4089 44.6535 42.729 42.2514C43.0277 42.1232 43.3053 41.9504 43.5523 41.7391C44.9186 40.5793 45.5252 38.2317 46.634 36.608C46.7054 36.5034 46.7793 36.4015 46.8558 36.3021C47.9901 34.8211 49.5093 34.059 50.9775 33.3503C54.2274 31.7726 57.5717 30.1743 61.0026 30.3935L60.0264 30.4879C58.887 33.6792 57.7467 36.8705 56.6056 40.0618C56.4323 40.5512 56.2573 41.0415 56.0806 41.5326C55.4331 43.3474 54.7653 45.2796 54.8647 47.3111C54.9233 48.5142 55.3413 49.7989 56.1366 50.2118C56.8783 50.5942 57.6889 50.1252 58.4052 49.6613C58.7085 49.4675 59.0093 49.2738 59.3126 49.0775C60.401 48.3766 61.6067 47.6578 62.7563 48.1268C63.809 48.555 64.5865 49.985 64.7343 51.5271C64.8699 53.0262 64.5041 54.5279 63.6943 55.7967Z" fill="white"/>
<path d="M70.1676 77.5847C66.9888 75.6274 63.81 73.6702 60.6312 71.713L60.6851 71.574C58.7087 72.3268 57.8881 75.84 58.2147 78.7131C58.5414 81.5862 59.6489 84.1545 60.2084 86.954C60.9629 90.785 60.6781 94.748 59.3838 98.4318C63.5637 93.7416 67.263 88.6442 70.426 83.216C70.8678 82.5319 71.2045 81.7853 71.4248 81.0012C71.6267 80.1671 71.5957 79.1642 71.1913 78.4953C70.9311 78.1114 70.5792 77.7984 70.1676 77.5847Z" fill="white"/>
<path d="M57.6221 41.9766C57.2846 42.7355 57.1547 43.7475 57.461 44.5328C57.7738 45.3347 58.4352 45.6972 59.044 45.9989L60.8005 46.8696C61.3848 47.1592 62.0147 47.4518 62.6104 47.2135C63.3288 46.926 63.827 45.7996 63.6981 44.754C63.561 43.6412 62.8596 42.8758 62.2109 42.224C61.3031 41.3118 60.3953 40.3997 59.4875 39.4875L58.9759 40.1142C58.4225 40.6539 57.9648 41.2836 57.6221 41.9766Z" fill="white"/>
<path d="M119.451 53.8721C120.241 54.0582 121.031 54.2443 121.821 54.4304C121.684 57.0992 120.361 59.5691 118.587 60.4638C117.847 60.836 117.024 60.9736 116.412 61.6695C115.859 62.3016 115.579 63.2855 115.321 64.2261C114.87 65.8676 114.419 67.5092 113.968 69.1507C113.483 70.9197 112.862 72.885 111.602 73.5222C110.522 74.0702 109.285 73.3998 108.454 72.2757C107.623 71.1517 107.116 69.6401 106.624 68.1668C106.655 69.7727 105.908 71.3479 104.85 71.9062C103.79 72.4644 102.5 71.9597 101.791 70.7132C101.282 69.8186 101.07 68.6383 100.57 67.7309C100.071 66.8235 99.0232 66.3035 98.4777 67.1549C98.1183 67.7207 98.1641 68.5874 97.9857 69.3062C97.7079 70.4226 96.8667 71.1236 96.0332 71.1848C95.2022 71.246 94.3917 70.7668 93.6958 70.1168C92.2607 68.7709 91.2029 66.6349 90.7925 64.2618C90.6115 63.2039 90.5606 62.0518 90.8741 61.0602C91.1876 60.0687 91.9446 59.304 92.6966 59.4926C93.1911 58.4475 92.2148 57.0609 91.3354 57.1833C90.4535 57.3056 89.7627 58.2513 89.0388 58.9777C88.3174 59.7042 87.3081 60.2318 86.5816 59.5105C86.5867 60.1808 86.0412 60.6244 85.5696 60.5683C85.1006 60.5148 84.6826 60.1375 84.2518 59.8699C82.5874 58.8324 80.4742 59.5207 79.2915 61.4834C80.0307 58.3379 81.114 54.7286 83.3851 53.9894C84.313 53.6861 85.3249 53.9358 86.2018 53.4107C87.7541 52.4804 88.0676 48.9653 86.7269 47.515C86.8976 48.8863 86.8646 50.4871 86.1406 51.4251C85.4167 52.3631 83.8975 51.7513 83.9893 50.3647C83.7802 51.3206 82.7403 51.4659 82.2611 50.7318C81.7793 49.9977 81.8201 48.7971 82.1617 47.9203C82.5032 47.0434 83.0844 46.4138 83.6477 45.8097C84.8585 44.5123 86.0871 43.1995 87.489 42.3839C88.8935 41.5682 90.5147 41.2929 91.9217 42.1035C92.6635 42.5317 93.316 43.2454 94.073 43.6227C94.8301 44.0025 95.791 43.9541 96.2932 43.067C96.8565 42.078 96.5914 40.6098 96.8004 39.3735C97.1751 37.1891 99.3596 36.1669 100.57 37.6096C99.6655 37.3777 98.73 38.4482 98.6178 39.7457C98.5031 41.0431 99.1582 42.3533 100.035 42.7458C101.508 43.3984 102.951 41.7568 104.065 40.2376C105.227 38.6471 106.391 37.0574 107.557 35.4685C107.743 35.198 107.952 34.9439 108.182 34.7089C108.547 34.353 109.033 34.1493 109.543 34.1388C110.053 34.1284 110.548 34.3122 110.927 34.6528C112.104 35.6138 112.658 37.5842 113.624 38.9402C115.026 40.9106 117.123 41.3898 119.076 41.7721C120.531 42.0551 121.988 42.3397 123.445 42.626C124.416 44.4331 125.264 46.3041 125.981 48.2261C123.514 49.2738 121.237 51.234 119.451 53.8721Z" fill="white"/>
<path d="M124.156 84.5416C123.064 86.759 121.794 88.8842 120.358 90.8962C119.441 90.5036 118.454 91.2046 117.595 91.8622C116.698 92.5504 115.62 93.2208 114.7 92.5938C113.759 91.9514 113.456 90.1544 113.754 88.7295C114.052 87.3072 114.796 86.1754 115.518 85.0998C116.282 83.9578 117.101 82.7726 118.164 82.329C119.229 81.8855 120.598 82.5126 120.909 84.0267L121.663 84.0012C121.24 83.42 121.462 82.2169 122.03 82.0053C122.686 81.7581 123.254 82.6578 123.641 83.4532C123.815 83.8125 123.991 84.1745 124.156 84.5416Z" fill="white"/>
<path d="M95.2595 73.775C93.6378 73.8769 92.3532 71.8805 91.4995 69.9164C90.6459 67.9524 89.867 65.7063 88.4037 64.7066C87.5676 64.1354 86.6144 64.057 85.7075 63.7802C84.8005 63.5034 83.8513 62.9306 83.4177 61.7642L82.389 61.3486C81.0304 62.1126 79.6538 62.8904 78.4831 64.1336C77.1701 65.5284 76.3523 67.3163 76.1558 69.2217C75.9593 71.2809 76.6849 73.5769 78.0409 74.3504C79.1123 74.9617 80.3597 74.5764 81.4449 75.136C82.8009 75.835 83.6059 77.8659 83.9106 79.871C84.2153 81.8761 84.1381 83.96 84.3561 85.9879C84.5741 88.0158 85.175 90.1259 86.4185 91.1651C87.9745 92.4656 90.2578 91.3849 90.956 89.0176C91.2984 87.8564 91.2866 86.5462 91.5427 85.3408C91.9938 83.2181 93.2109 81.6432 94.1763 79.9019C95.1417 78.1607 95.9016 75.7957 95.2595 73.775Z" fill="white"/>
<path d="M79.2343 52.9162C79.3855 53.0554 79.5267 53.2052 79.6566 53.3645C79.7911 53.5964 79.8598 53.8606 79.8552 54.1286C79.8506 54.3967 79.773 54.6584 79.6307 54.8855C79.826 54.8744 80.0169 54.8229 80.1914 54.7342C80.3658 54.6456 80.5199 54.5217 80.6441 54.3705C80.9401 54.0334 81.2004 53.6666 81.421 53.276C81.5865 53.0063 81.7624 52.6416 81.6501 52.3213C81.5735 52.1026 81.3924 52.0093 81.2653 51.8449C81.064 51.5843 81.0141 51.1703 80.9099 50.8126C80.6849 50.04 80.1459 49.4719 79.5607 49.3906L79.6419 49.4062C79.3975 49.4899 79.2268 49.8781 79.2809 50.2274C79.3301 50.5455 79.5345 50.8095 79.5141 51.1339C79.4849 51.6004 79.0187 51.8193 78.9899 52.2859C78.9854 52.5199 79.0732 52.7464 79.2343 52.9162Z" fill="white"/>
<path d="M76.4556 44.9889C76.458 44.9882 76.4604 44.9881 76.4628 44.9875C76.5127 44.942 76.559 44.8927 76.6012 44.8401L76.4556 44.9889Z" fill="#E6E6E6"/>
<path d="M76.9419 47.1785C77.3005 46.9479 77.5007 46.3102 77.3821 45.7765C77.2643 45.2461 76.8474 44.8894 76.4628 44.9874C76.3512 45.1005 76.2127 45.1834 76.0603 45.2283C75.9078 45.2731 75.7465 45.2785 75.5915 45.2439C75.3537 45.1827 75.0926 45.025 74.8864 45.2042C74.7684 45.338 74.6859 45.4992 74.6462 45.6731C74.5699 45.9074 74.4936 46.1418 74.4172 46.376C74.381 46.4599 74.3715 46.553 74.3902 46.6424C74.4048 46.6783 74.4284 46.7098 74.4587 46.7339C74.489 46.7579 74.525 46.7738 74.5632 46.78C75.0212 46.915 75.4792 47.05 75.9372 47.185C76.2709 47.2834 76.6313 47.3782 76.9419 47.1785Z" fill="white"/>
<path d="M111.517 77.409C111.305 77.0624 111.093 76.7158 110.881 76.3692C110.674 75.9678 110.389 75.6109 110.045 75.3184C109.969 75.2549 109.881 75.2072 109.787 75.1781C109.692 75.149 109.593 75.1391 109.494 75.149C109.396 75.1588 109.301 75.1882 109.214 75.2355C109.127 75.2828 109.05 75.3469 108.989 75.4241L109.015 75.6221C109.497 76.2275 110.008 76.9001 110.13 77.7986C110.178 78.1528 110.162 78.5194 110.204 78.8752C110.246 79.231 110.366 79.5999 110.596 79.7533C110.929 79.976 111.321 79.6476 111.558 79.247C111.77 78.9179 111.865 78.527 111.828 78.1372C111.775 77.8757 111.669 77.6278 111.517 77.409Z" fill="white"/>
<path d="M120.939 64.1718C121 63.7703 121.061 63.3687 121.123 62.9672C121.222 62.5262 121.234 62.0701 121.159 61.6243C121.142 61.527 121.105 61.434 121.052 61.3509C120.998 61.2678 120.929 61.1962 120.847 61.1404C120.766 61.0846 120.674 61.0457 120.577 61.026C120.48 61.0062 120.38 61.006 120.283 61.0254L120.175 61.1934C120.155 61.9674 120.112 62.8107 119.627 63.5769C119.436 63.879 119.187 64.1487 118.99 64.4481C118.794 64.7475 118.648 65.1073 118.725 65.3725C118.837 65.7575 119.348 65.7584 119.787 65.6046C120.161 65.4894 120.486 65.2516 120.708 64.9296C120.836 64.6954 120.915 64.4375 120.939 64.1718Z" fill="#E6E6E6"/>
<path d="M114.838 77.8602C114.941 77.5627 114.792 77.2214 114.76 76.8925C114.745 76.4677 114.858 76.0482 115.084 75.6881C115.308 75.3484 115.478 74.9759 115.587 74.5838C115.633 74.4052 115.625 74.2168 115.563 74.043C115.493 73.8856 115.323 73.8138 115.226 73.9384L115.434 74.0726C115.153 74.0224 114.864 74.0364 114.589 74.1136C114.432 74.1737 114.292 74.2707 114.18 74.3964C114.069 74.5222 113.989 74.6729 113.948 74.836C113.914 75.0901 113.857 75.3409 113.78 75.5854C113.656 75.8409 113.415 75.9259 113.264 76.1501C113.161 76.3489 113.109 76.5702 113.112 76.7941C113.116 77.018 113.176 77.2374 113.285 77.4327C113.475 77.752 113.777 77.9894 114.132 78.0986C114.386 78.1899 114.721 78.1947 114.838 77.8602Z" fill="white"/>
<path d="M120.752 79.6445C120.844 79.8839 120.967 80.1101 121.118 80.3171C121.402 80.6023 121.786 80.4271 122.13 80.3577C122.442 80.3085 122.761 80.3446 123.054 80.462C123.347 80.5795 123.602 80.774 123.793 81.025C123.66 80.3607 123.37 79.738 122.946 79.2093C122.522 78.6806 121.978 78.2613 121.358 77.9866C120.548 77.6565 119.696 77.6246 118.853 77.595L118.708 77.6322C119.079 78.7112 120.243 78.687 120.752 79.6445Z" fill="white"/>
<path d="M95.7031 81.8512L95.7053 81.8559C95.7194 81.8288 95.7335 81.8016 95.7476 81.7744L95.7031 81.8512Z" fill="#E6E6E6"/>
<path d="M94.8061 83.5879C94.6104 83.9431 94.4421 84.3128 94.3027 84.6936C94.1181 85.3105 93.9959 85.9443 93.9379 86.5856C93.8923 86.9502 93.8783 87.4159 94.1067 87.5936C94.1723 87.6372 94.2515 87.6553 94.3295 87.6447C94.4075 87.6341 94.479 87.5955 94.5306 87.5361C94.6575 87.4018 94.7614 87.2474 94.8379 87.0793C95.2869 86.306 95.6355 85.4786 95.8753 84.6171C96.094 83.7098 96.0919 82.6415 95.7054 81.856C95.4057 82.4333 95.1059 83.0106 94.8061 83.5879Z" fill="white"/>
<path d="M86.1502 37.32C86.2927 37.4593 86.4728 37.5539 86.6685 37.5921C86.8641 37.6303 87.0666 37.6104 87.251 37.5349C87.633 37.3679 87.9833 37.1365 88.2868 36.8507C88.5381 36.6648 88.7513 36.4322 88.9147 36.1657C89.0048 36.0065 89.0625 35.831 89.0845 35.6494C89.1065 35.4678 89.0925 35.2836 89.0432 35.1075C88.9013 34.6926 88.5414 34.5535 88.2239 34.4594C87.7155 34.3086 87.2072 34.1579 86.6988 34.0071L87.0665 33.6757C86.6882 33.4726 86.2696 33.8495 86.0331 34.316C85.8815 34.6207 85.7758 34.9461 85.7194 35.2817C85.5929 36.014 85.7166 36.886 86.1502 37.32Z" fill="#E6E6E6"/>
<path d="M95.1254 34.3069C95.2687 34.4649 95.4668 34.5624 95.6793 34.5797C95.8919 34.597 96.1031 34.5328 96.27 34.4001C96.4137 34.2921 96.533 34.1552 96.6202 33.9981C96.7074 33.841 96.7606 33.6673 96.7762 33.4883C96.8122 33.0884 96.6145 32.644 96.3321 32.6094L96.3967 32.2351C95.8528 32.1368 95.1834 32.1172 94.8919 32.7777C94.7936 33.0308 94.7634 33.3052 94.8044 33.5735C94.8454 33.8419 94.9561 34.0948 95.1254 34.3069Z" fill="#E6E6E6"/>
<path d="M93.9261 14.3983C90.7372 14.0386 87.5359 14.9604 85.0266 16.961C82.5173 18.9616 80.9056 21.877 80.5458 25.066C79.7968 31.7066 83.2953 46.127 89.6737 52.0965C92.6771 40.6595 103.201 33.8758 104.594 27.7786C106.082 21.2636 100.567 15.1474 93.9261 14.3983Z" fill="#6C63FF"/>
<path d="M91.7207 29.1611C93.9002 29.1611 95.667 27.3943 95.667 25.2148C95.667 23.0354 93.9002 21.2686 91.7207 21.2686C89.5412 21.2686 87.7744 23.0354 87.7744 25.2148C87.7744 27.3943 89.5412 29.1611 91.7207 29.1611Z" fill="white"/>
<path d="M87.5715 57.7864C88.9991 57.7864 90.1563 56.6292 90.1563 55.2017C90.1563 53.7742 88.9991 52.6169 87.5715 52.6169C86.144 52.6169 84.9868 53.7742 84.9868 55.2017C84.9868 56.6292 86.144 57.7864 87.5715 57.7864Z" fill="#6C63FF"/>
<path opacity="0.2" d="M94.986 22.3875C95.4302 22.6544 95.8174 23.0062 96.1257 23.4227C96.4339 23.8393 96.6571 24.3126 96.7824 24.8154C96.9078 25.3182 96.9329 25.8408 96.8563 26.3533C96.7797 26.8659 96.6029 27.3583 96.3359 27.8025C96.069 28.2467 95.7172 28.634 95.3007 28.9422C94.8841 29.2505 94.4109 29.4736 93.908 29.599C92.8925 29.8522 91.818 29.6915 90.9209 29.1525C91.8356 29.356 92.7928 29.2273 93.6213 28.7895C94.4497 28.3516 95.0953 27.6333 95.4425 26.763C95.7898 25.8926 95.8159 24.9271 95.5163 24.0393C95.2166 23.1515 94.6108 22.3992 93.8073 21.9172C94.223 22.0094 94.621 22.1682 94.986 22.3875Z" fill="#231F20"/>
<path opacity="0.2" d="M104.609 27.7912C103.217 33.8884 92.6926 40.6721 89.6893 52.1091C89.0894 51.5423 88.5323 50.9319 88.0225 50.2829C91.3973 39.5325 101.266 33.0002 102.612 27.1092C103.816 21.8367 100.434 16.8259 95.5798 14.7092C101.455 16.1862 105.973 21.8208 104.609 27.7912Z" fill="#231F20"/>
<path d="M56.9455 29.7961C54.5507 29.5259 52.1467 30.2182 50.2623 31.7206C48.3779 33.2229 47.1675 35.4123 46.8974 37.8071C46.3349 42.794 48.9621 53.6232 53.7521 58.1061C56.0075 49.5173 63.9108 44.423 64.9566 39.8442C66.074 34.9517 61.9324 30.3586 56.9455 29.7961Z" fill="#6C63FF"/>
<path d="M55.2892 40.8824C56.9259 40.8824 58.2527 39.5556 58.2527 37.9189C58.2527 36.2821 56.9259 34.9553 55.2892 34.9553C53.6525 34.9553 52.3257 36.2821 52.3257 37.9189C52.3257 39.5556 53.6525 40.8824 55.2892 40.8824Z" fill="white"/>
<path d="M52.1735 62.3792C53.2455 62.3792 54.1145 61.5101 54.1145 60.4381C54.1145 59.3661 53.2455 58.4971 52.1735 58.4971C51.1015 58.4971 50.2324 59.3661 50.2324 60.4381C50.2324 61.5101 51.1015 62.3792 52.1735 62.3792Z" fill="#6C63FF"/>
<path opacity="0.2" d="M57.7412 35.7957C58.0748 35.9962 58.3656 36.2604 58.5971 36.5732C58.8286 36.8861 58.9962 37.2414 59.0903 37.619C59.1844 37.9967 59.2033 38.3891 59.1457 38.774C59.0882 39.1589 58.9554 39.5287 58.755 39.8623C58.5545 40.1958 58.2904 40.4867 57.9775 40.7181C57.6647 40.9496 57.3093 41.1172 56.9317 41.2114C56.5541 41.3055 56.1616 41.3243 55.7767 41.2668C55.3918 41.2093 55.0221 41.0765 54.6885 40.8761C55.3754 41.0288 56.0942 40.9322 56.7163 40.6034C57.3385 40.2746 57.8233 39.7352 58.084 39.0816C58.3448 38.428 58.3644 37.703 58.1394 37.0362C57.9144 36.3695 57.4595 35.8046 56.856 35.4426C57.1682 35.5118 57.4671 35.6311 57.7412 35.7957Z" fill="#231F20"/>
<path opacity="0.2" d="M64.9684 39.8539C63.9227 44.4327 56.0193 49.527 53.764 58.1158C53.3135 57.6901 52.8951 57.2318 52.5122 56.7444C55.0466 48.6712 62.458 43.7657 63.4684 39.3418C64.3727 35.3823 61.8325 31.6194 58.1875 30.0298C62.5997 31.1389 65.9924 35.3704 64.9684 39.8539Z" fill="#231F20"/>
<path d="M149.727 137.151H146.473L144.925 124.601L149.728 124.601L149.727 137.151Z" fill="#A0616A"/>
<path d="M151.477 143.329H149.169L148.756 141.15L147.701 143.329H141.577C141.284 143.329 140.998 143.236 140.761 143.062C140.525 142.888 140.35 142.643 140.263 142.363C140.176 142.082 140.18 141.781 140.276 141.504C140.372 141.227 140.554 140.987 140.795 140.82L145.685 137.443V135.239L150.829 135.546L151.477 143.329Z" fill="#2F2E41"/>
<path d="M137.124 137.151H133.87L132.322 124.601L137.125 124.601L137.124 137.151Z" fill="#A0616A"/>
<path d="M138.874 143.329H136.566L136.153 141.15L135.098 143.329H128.974C128.681 143.329 128.395 143.236 128.158 143.062C127.922 142.888 127.747 142.643 127.66 142.363C127.573 142.082 127.577 141.781 127.673 141.504C127.769 141.227 127.951 140.987 128.192 140.82L133.082 137.443V135.239L138.226 135.546L138.874 143.329Z" fill="#2F2E41"/>
<path d="M124.762 104.015C125.385 104.949 132.159 130.625 132.159 130.625L138.166 131.31L137.453 124.85L136.363 113.417L134.676 105.786C134.676 105.786 140.635 92.2244 141.011 91.144L141.279 90.3688L143.141 107.265C143.362 107.868 143.458 108.51 143.424 109.152C143.368 110.207 144.427 126.086 144.427 126.086L144.936 131.78L150.082 132.495L152.17 122.642C153.913 119.442 152.914 108.068 152.201 107.01C151.488 105.951 151.771 98.5788 151.771 98.5788C152.682 98.2584 158.111 79.7455 155.395 79.8548C155.569 78.8679 155.706 77.9868 155.706 77.9868L150.993 74.1854L139.196 71.1188L136.22 69.6897C136.22 69.6897 130.904 79.5186 130.957 80.0074C131.031 80.6265 130.889 81.252 130.556 81.779L125.189 99.7401C125.189 99.7401 124.134 103.071 124.762 104.015Z" fill="#2F2E41"/>
<path d="M154.4 39.7433L152.523 35.7588L146.136 36.0043L144.052 40.1495C144.052 40.1495 138.098 47.2612 137.905 49.5736C137.663 52.482 139.677 66.736 137.663 65.812C137.663 65.812 132.914 71.3864 135.724 71.3864C138.534 71.3864 151.246 79.366 152.08 80.2634C152.914 81.1608 156.637 81.7426 156.325 79.8692C156.013 77.9958 154.4 67.8639 154.4 67.8639L158.767 51.9326C160.024 48.493 160.415 44.6348 157.574 42.3244L154.4 39.7433Z" fill="#CCCCCC"/>
<path d="M130.74 28.0158C129.886 27.6767 128.973 27.5091 128.054 27.5227C127.135 27.5364 126.227 27.7309 125.383 28.0952C124.539 28.4595 123.775 28.9865 123.135 29.646C122.495 30.3056 121.991 31.0848 121.652 31.9391C120.225 35.5322 119.989 44.1126 122.643 48.4131C126.056 42.485 132.96 40.2961 134.663 37.1041C136.483 33.6933 134.333 29.4421 130.74 28.0158Z" fill="#6C63FF"/>
<path d="M127.867 36.0014C129.128 36.0014 130.15 34.9794 130.15 33.7186C130.15 32.4578 129.128 31.4358 127.867 31.4358C126.606 31.4358 125.584 32.4578 125.584 33.7186C125.584 34.9794 126.606 36.0014 127.867 36.0014Z" fill="white"/>
<path d="M120.999 51.3224C121.824 51.3224 122.494 50.653 122.494 49.8272C122.494 49.0015 121.824 48.332 120.999 48.332C120.173 48.332 119.503 49.0015 119.503 49.8272C119.503 50.653 120.173 51.3224 120.999 51.3224Z" fill="#6C63FF"/>
<path opacity="0.2" d="M130.119 32.6362C130.537 33.0735 130.765 33.6588 130.751 34.2637C130.738 34.8686 130.486 35.4435 130.049 35.8622C129.612 36.2808 129.027 36.5089 128.422 36.4964C127.817 36.4838 127.242 36.2317 126.823 35.7953C127.302 36.0477 127.856 36.1212 128.385 36.0026C128.914 35.884 129.384 35.581 129.709 35.1479C130.035 34.7148 130.197 34.1799 130.164 33.6388C130.132 33.0977 129.908 32.5859 129.532 32.1948C129.75 32.3094 129.948 32.4584 130.119 32.6362Z" fill="#231F20"/>
<path opacity="0.2" d="M134.67 37.1135C132.967 40.3055 126.063 42.4944 122.65 48.4225C122.401 48.0151 122.183 47.5898 121.997 47.1501C125.513 41.6617 132.014 39.5136 133.659 36.4296C135.131 33.6693 134.004 30.3588 131.616 28.4404C134.671 30.1568 136.338 33.9879 134.67 37.1135Z" fill="#231F20"/>
<path d="M120.325 49.3124C120.672 49.2408 121.031 49.2462 121.377 49.3284C121.722 49.4105 122.045 49.5673 122.323 49.7878C122.601 50.0083 122.828 50.2871 122.986 50.6045C123.145 50.922 123.232 51.2703 123.242 51.6251L128.42 53.613L127.98 57.0549L120.706 54.1448C120.109 54.1212 119.541 53.8795 119.11 53.4654C118.68 53.0512 118.416 52.4935 118.369 51.8978C118.322 51.3022 118.495 50.71 118.856 50.2335C119.216 49.757 119.739 49.4293 120.325 49.3124Z" fill="#A0616A"/>
<path d="M156.511 42.2195C155.966 41.8866 155.36 41.6647 154.729 41.5664C154.098 41.468 153.453 41.4953 152.832 41.6466C152.212 41.7979 151.627 42.0703 151.112 42.448C150.597 42.8258 150.161 43.3016 149.83 43.8481L142.396 56.1236L125.589 52.1397L124.058 56.3434L145.581 66.5387L156.482 49.1763C158.114 46.8828 158.914 43.6863 156.511 42.2195Z" fill="#CCCCCC"/>
<path d="M156.789 27.1755C156.789 28.3587 156.499 29.5238 155.944 30.5687C155.389 31.6136 154.586 32.5063 153.605 33.1684C152.625 33.8305 151.497 34.2418 150.32 34.3662C149.144 34.4906 147.955 34.3242 146.857 33.8817C145.76 33.4392 144.788 32.7341 144.027 31.8284C143.266 30.9226 142.739 29.8438 142.492 28.6867C142.245 27.5296 142.286 26.3296 142.611 25.192C142.936 24.0544 143.535 23.014 144.356 22.1622L144.391 22.1275C144.449 22.0668 144.507 22.0061 144.567 21.9482C144.568 21.9482 144.568 21.9481 144.569 21.948C144.569 21.9479 144.569 21.9477 144.569 21.9474C144.57 21.9471 144.57 21.9468 144.57 21.9464C144.57 21.9461 144.57 21.9457 144.57 21.9453C144.645 21.8759 144.721 21.8065 144.799 21.7401C145.843 20.8244 147.129 20.2291 148.503 20.0255C149.877 19.822 151.281 20.0187 152.546 20.5922C153.811 21.1657 154.884 22.0917 155.637 23.2593C156.389 24.4268 156.789 25.7865 156.789 27.1755Z" fill="#2F2E41"/>
<path d="M147.78 34.9089C151.127 34.9089 153.841 32.1953 153.841 28.8479C153.841 25.5005 151.127 22.7869 147.78 22.7869C144.432 22.7869 141.719 25.5005 141.719 28.8479C141.719 32.1953 144.432 34.9089 147.78 34.9089Z" fill="#9E616A"/>
<path d="M154.216 30.5763L153.212 30.399C152.651 30.297 152.134 30.0261 151.731 29.6225C151.328 29.219 151.058 28.702 150.957 28.1407L149.977 29.783L149.934 29.7972C147.599 30.5723 145.17 30.3405 142.509 29.0894C141.749 28.7285 141.011 28.3216 140.3 27.8709L140.247 27.8381L140.243 27.7765C140.107 25.8048 140.549 24.1576 141.489 23.1383C141.85 22.7548 142.287 22.4519 142.773 22.2493C143.259 22.0468 143.782 21.9492 144.309 21.9629C144.346 21.9532 144.38 21.9342 144.409 21.9077C144.422 21.8977 144.436 21.8879 144.449 21.8786V21.8684L144.519 21.8356C144.668 21.7653 144.821 21.698 144.973 21.6364C146.172 21.1722 147.478 21.0557 148.741 21.3004C150.003 21.5451 151.171 22.1411 152.11 23.0199C153.977 24.8022 154.834 27.7933 154.241 30.4631L154.216 30.5763Z" fill="#2F2E41"/>
<path d="M167 35.7404C164.938 34.6758 167.59 30.8121 167.057 28.553C166.524 26.294 162.686 25.5674 162.441 23.2593C162.197 20.9511 161.621 18.5705 160.098 16.819C159.125 15.6998 157.691 14.8736 156.214 15.0138C155.715 15.0612 155.231 15.2158 154.797 15.4669C154.362 15.718 153.987 16.0599 153.697 16.4691C153.406 16.8783 153.207 17.3453 153.114 17.8383C153.02 18.3313 153.034 18.8387 153.154 19.326C152.733 18.7303 151.645 18.8594 151.376 19.537C151.137 20.1393 151.666 20.8689 152.288 20.9222C153.103 21.928 154.035 22.9955 155.311 23.1984C155.514 23.2451 155.726 23.2449 155.929 23.198C156.132 23.1511 156.322 23.0586 156.484 22.9276C156.785 22.6393 156.808 22.063 156.452 21.8475C158.055 22.4845 158.995 24.2182 159.233 25.9272C159.471 27.6361 159.142 29.3652 158.925 31.0769C158.708 32.7886 158.615 34.5892 159.286 36.1788C160.079 38.0568 161.905 39.4029 163.897 39.8345C165.889 40.2662 168.011 39.8443 169.815 38.8938C171.618 37.9432 173.122 36.4921 174.351 34.8652C172.234 36.3679 169.307 36.9309 167 35.7404Z" fill="#2F2E41"/>
<path d="M153.958 30.4077C153.958 30.4077 152.163 23.7059 144.466 22.1591C144.458 22.1562 144.429 22.1447 144.391 22.1274C144.368 22.1129 144.339 22.0984 144.31 22.084C144.397 22.0348 144.481 21.9915 144.567 21.9481L144.569 21.9479L144.569 21.9472L144.57 21.9463L144.57 21.9452C144.645 21.8758 144.721 21.8064 144.799 21.7399L145.018 21.7486C145.018 21.7486 152.741 20.5256 153.958 30.4077Z" fill="#FD6584"/>
<path opacity="0.2" d="M149.938 51.9121L145.592 56.9482L138.409 54.8273L146.239 58.4356L149.938 51.9121Z" fill="black"/>
<path d="M176.029 143.709L109.197 143.783C109.121 143.783 109.047 143.753 108.993 143.699C108.939 143.645 108.909 143.571 108.909 143.495C108.909 143.419 108.939 143.345 108.993 143.291C109.047 143.237 109.121 143.207 109.197 143.206L176.029 143.132C176.106 143.132 176.179 143.162 176.233 143.216C176.287 143.27 176.318 143.344 176.318 143.42C176.318 143.497 176.287 143.57 176.233 143.624C176.179 143.679 176.106 143.709 176.029 143.709Z" fill="#CACACA"/>
<path d="M178.963 98.8618C175.833 98.8618 172.403 98.7436 168.673 98.5071C149.377 97.2817 124.384 93.0217 98.296 86.5119C72.2083 80.0021 48.1433 72.0199 30.5343 64.0363C21.9563 60.1471 15.3728 56.4657 10.9668 53.0942C6.30203 49.5249 4.26158 46.4136 4.90192 43.8473C6.14962 38.8475 17.1973 37.7537 26.2455 37.7166L26.2486 38.4436C13.823 38.4947 6.49257 40.4763 5.60749 44.0234C4.48004 48.5411 13.675 55.594 30.8345 63.3741C48.4049 71.3402 72.4256 79.307 98.472 85.8066C124.518 92.3059 149.466 96.5587 168.719 97.7814C187.521 98.9757 198.952 97.0694 200.08 92.5516C201.016 88.8006 194.845 83.275 182.705 76.9922L183.039 76.3465C191.86 80.9117 202.1 87.4593 200.785 92.7277C200.145 95.2941 196.882 97.0817 191.087 98.041C187.784 98.5878 183.726 98.8618 178.963 98.8618Z" fill="#6C63FF"/>
</g>
<defs>
<clipPath id="clip0_1_8735">
<rect width="200" height="143.339" fill="white" transform="translate(0.899902 0.444336)"/>
</clipPath>
</defs>
</svg>
