<svg width="200" height="145" viewBox="0 0 200 145" fill="none" xmlns="http://www.w3.org/2000/svg">
<g clip-path="url(#clip0_1_25401)">
<path opacity="0.1" d="M116.204 25.5148C103.382 25.0692 91.1606 20.9297 79.5082 16.4017C67.8558 11.8737 56.3065 6.8559 43.785 4.45656C35.7344 2.91162 26.5274 2.69434 20.042 7.01058C13.7996 11.1629 11.7833 18.3315 10.6987 24.9826C9.88299 29.9876 9.40975 35.254 11.6397 39.9403C13.192 43.1923 15.9467 45.9267 17.8526 49.0424C24.4816 59.8827 19.7952 73.2513 12.6101 83.8448C9.24034 88.8166 5.33105 93.5472 2.73099 98.8338C0.130934 104.12 -1.07334 110.177 1.20263 115.568C3.45834 120.909 8.83155 124.926 14.6541 127.749C26.4795 133.478 40.4134 135.117 54.0011 136.056C84.0785 138.113 114.318 137.221 144.475 136.33C155.635 135.999 166.846 135.666 177.824 133.936C183.921 132.977 190.217 131.456 194.644 127.784C200.262 123.122 201.656 115.23 197.89 109.383C191.574 99.5796 174.112 97.1434 169.696 86.6217C167.267 80.8305 169.763 74.3782 173.294 69.0068C180.868 57.4852 193.566 47.3759 194.235 34.2044C194.695 25.1576 188.591 16.0997 179.152 11.8185C169.26 7.3273 155.541 7.89445 148.244 15.3171C140.729 22.9645 127.523 25.907 116.204 25.5148Z" fill="#6C63FF"/>
<path d="M44.608 133.607C44.608 133.607 34.4803 125.951 32.5671 116.212C31.7912 112.121 29.7101 108.392 26.6359 105.585C25.1653 104.264 23.5769 103.081 21.8906 102.049" stroke="#535461" stroke-width="2" stroke-miterlimit="10"/>
<path d="M20.6513 95.9136C21.5389 97.1141 21.9403 102.202 21.9403 102.202C21.9403 102.202 17.195 100.333 16.3056 99.1342C15.8785 98.5579 15.6979 97.8356 15.8033 97.1261C15.9088 96.4166 16.2919 95.7781 16.8681 95.351C17.4444 94.9239 18.1667 94.7433 18.8762 94.8488C19.5857 94.9543 20.2242 95.3373 20.6513 95.9136Z" fill="#6C63FF"/>
<path d="M29.1623 99.9059C29.2543 101.396 26.8292 105.885 26.8292 105.885C26.8292 105.885 23.859 101.734 23.7651 100.245C23.7294 99.5345 23.975 98.8389 24.4486 98.3085C24.9222 97.7781 25.5858 97.4556 26.2955 97.4111C27.0052 97.3665 27.7038 97.6034 28.2401 98.0704C28.7764 98.5373 29.107 99.1968 29.1604 99.9059H29.1623Z" fill="#6C63FF"/>
<path d="M37.4118 111.381C36.7415 112.714 32.3793 115.366 32.3793 115.366C32.3793 115.366 31.9134 110.284 32.5837 108.951C32.9136 108.324 33.4765 107.851 34.1512 107.635C34.8259 107.419 35.5585 107.476 36.1913 107.795C36.8241 108.114 37.3066 108.668 37.5348 109.339C37.7631 110.009 37.7189 110.743 37.4118 111.381Z" fill="#6C63FF"/>
<path d="M41.7005 121.465C41.2641 122.892 37.4137 126.241 37.4137 126.241C37.4137 126.241 36.0935 121.312 36.5299 119.883C36.7396 119.197 37.2132 118.623 37.8463 118.286C38.4795 117.95 39.2204 117.879 39.9061 118.088C40.5917 118.298 41.166 118.772 41.5025 119.405C41.839 120.038 41.9103 120.779 41.7005 121.465Z" fill="#6C63FF"/>
<path d="M22.4395 109.494C23.9126 109.693 28.5695 107.59 28.5695 107.59C28.5695 107.59 24.64 104.334 23.1595 104.135C22.4489 104.04 21.7295 104.231 21.1596 104.666C20.5896 105.101 20.2158 105.744 20.1203 106.455C20.0248 107.165 20.2155 107.885 20.6505 108.455C21.0854 109.025 21.7289 109.398 22.4395 109.494Z" fill="#6C63FF"/>
<path d="M27.6043 121.225C29.0774 120.973 32.8836 117.576 32.8836 117.576C32.8836 117.576 28.1586 115.646 26.6873 115.898C26.335 115.956 25.9977 116.083 25.6948 116.272C25.3918 116.461 25.1293 116.707 24.9223 116.998C24.7153 117.289 24.568 117.618 24.4888 117.966C24.4096 118.314 24.4001 118.674 24.4609 119.026C24.5217 119.378 24.6515 119.714 24.8429 120.015C25.0344 120.317 25.2836 120.577 25.5762 120.782C25.8688 120.986 26.199 121.131 26.5477 121.207C26.8964 121.283 27.2568 121.289 27.608 121.225H27.6043Z" fill="#6C63FF"/>
<path d="M34.1874 131.941C35.6808 131.941 40.0081 129.236 40.0081 129.236C40.0081 129.236 35.679 126.534 34.1856 126.534C33.4687 126.534 32.7811 126.819 32.2742 127.326C31.7672 127.833 31.4824 128.52 31.4824 129.237C31.4824 129.954 31.7672 130.642 32.2742 131.149C32.7811 131.656 33.4687 131.941 34.1856 131.941H34.1874Z" fill="#6C63FF"/>
<path d="M142.994 67.3846C142.994 67.3846 149.236 56.327 158.646 53.1413C162.597 51.8292 166.016 49.2712 168.391 45.8512C169.504 44.2162 170.465 42.4823 171.261 40.6714" stroke="#535461" stroke-width="2" stroke-miterlimit="10"/>
<path d="M177.168 38.6458C176.097 39.6844 171.108 40.7598 171.108 40.7598C171.108 40.7598 172.333 35.8064 173.405 34.766C173.922 34.2817 174.609 34.0199 175.317 34.0369C176.026 34.054 176.699 34.3485 177.192 34.8571C177.686 35.3657 177.96 36.0478 177.955 36.7564C177.951 37.465 177.668 38.1435 177.168 38.6458Z" fill="#6C63FF"/>
<path d="M174.348 47.6009C172.875 47.8919 168.111 46.0836 168.111 46.0836C168.111 46.0836 171.83 42.585 173.294 42.2996C173.646 42.2215 174.009 42.2146 174.364 42.279C174.718 42.3434 175.056 42.4779 175.357 42.6747C175.659 42.8714 175.918 43.1264 176.12 43.4247C176.321 43.723 176.461 44.0586 176.531 44.4118C176.602 44.7649 176.6 45.1285 176.528 45.4812C176.456 45.834 176.314 46.1687 176.11 46.4658C175.907 46.7628 175.646 47.0163 175.344 47.2112C175.041 47.4062 174.702 47.5387 174.348 47.6009Z" fill="#6C63FF"/>
<path d="M164.08 57.3014C162.669 56.8135 159.463 52.8434 159.463 52.8434C159.463 52.8434 164.435 51.7054 165.849 52.1934C166.189 52.3061 166.503 52.4852 166.773 52.7202C167.043 52.9553 167.264 53.2416 167.422 53.5627C167.581 53.8837 167.674 54.2329 167.696 54.5902C167.719 54.9475 167.67 55.3057 167.552 55.644C167.435 55.9822 167.252 56.2938 167.014 56.5607C166.775 56.8276 166.486 57.0444 166.163 57.1986C165.84 57.3528 165.489 57.4413 165.132 57.459C164.774 57.4766 164.416 57.4231 164.08 57.3014Z" fill="#6C63FF"/>
<path d="M154.645 62.8916C153.171 62.6485 149.349 59.2695 149.349 59.2695C149.349 59.2695 154.061 57.3066 155.532 57.5497C156.24 57.6661 156.873 58.0591 157.291 58.6422C157.71 59.2253 157.879 59.9507 157.763 60.6589C157.646 61.367 157.253 61.9999 156.67 62.4182C156.087 62.8366 155.362 63.0062 154.654 62.8897L154.645 62.8916Z" fill="#6C63FF"/>
<path d="M163.951 42.2112C163.949 43.7046 166.658 48.0374 166.658 48.0374C166.658 48.0374 169.363 43.7101 169.363 42.2185C169.372 41.8577 169.309 41.4987 169.177 41.1626C169.046 40.8265 168.848 40.5202 168.597 40.2617C168.345 40.0032 168.044 39.7977 167.711 39.6574C167.379 39.5171 167.021 39.4448 166.66 39.4448C166.299 39.4448 165.942 39.5171 165.61 39.6574C165.277 39.7977 164.976 40.0032 164.724 40.2617C164.472 40.5202 164.275 40.8265 164.143 41.1626C164.012 41.4987 163.949 41.8577 163.958 42.2185L163.951 42.2112Z" fill="#6C63FF"/>
<path d="M153.007 48.8879C153.453 50.3131 157.327 53.6368 157.327 53.6368C157.327 53.6368 158.616 48.6982 158.167 47.273C157.934 46.6126 157.454 46.0685 156.828 45.7551C156.201 45.4417 155.478 45.3835 154.81 45.5928C154.142 45.8021 153.581 46.2625 153.245 46.8772C152.91 47.4918 152.826 48.2126 153.011 48.8879H153.007Z" fill="#6C63FF"/>
<path d="M143.272 56.8372C143.471 58.3103 146.726 62.2454 146.726 62.2454C146.726 62.2454 148.827 57.5959 148.628 56.1172C148.589 55.759 148.478 55.4122 148.303 55.0974C148.127 54.7825 147.891 54.5059 147.607 54.2839C147.323 54.0618 146.997 53.8988 146.65 53.8044C146.302 53.71 145.939 53.686 145.581 53.7341C145.224 53.7821 144.88 53.901 144.57 54.084C144.259 54.2669 143.988 54.5101 143.773 54.7992C143.558 55.0883 143.403 55.4176 143.316 55.7676C143.23 56.1176 143.215 56.4813 143.272 56.8372Z" fill="#6C63FF"/>
<path opacity="0.25" d="M177.168 38.6458C176.097 39.6844 171.108 40.7598 171.108 40.7598C171.108 40.7598 172.333 35.8064 173.405 34.766C173.922 34.2817 174.609 34.0199 175.317 34.0369C176.026 34.054 176.699 34.3485 177.192 34.8571C177.686 35.3657 177.96 36.0478 177.955 36.7564C177.951 37.465 177.668 38.1435 177.168 38.6458Z" fill="black"/>
<path opacity="0.25" d="M174.348 47.6009C172.875 47.8919 168.111 46.0836 168.111 46.0836C168.111 46.0836 171.83 42.585 173.294 42.2996C173.646 42.2215 174.009 42.2146 174.364 42.279C174.718 42.3434 175.056 42.4779 175.357 42.6747C175.659 42.8714 175.918 43.1264 176.12 43.4247C176.321 43.723 176.461 44.0586 176.531 44.4118C176.602 44.7649 176.6 45.1285 176.528 45.4812C176.456 45.834 176.314 46.1687 176.11 46.4658C175.907 46.7628 175.646 47.0163 175.344 47.2112C175.041 47.4062 174.702 47.5387 174.348 47.6009Z" fill="black"/>
<path opacity="0.25" d="M164.08 57.3014C162.669 56.8135 159.463 52.8434 159.463 52.8434C159.463 52.8434 164.435 51.7054 165.849 52.1934C166.189 52.3061 166.503 52.4852 166.773 52.7202C167.043 52.9553 167.264 53.2416 167.422 53.5627C167.581 53.8837 167.674 54.2329 167.696 54.5902C167.719 54.9475 167.67 55.3057 167.552 55.644C167.435 55.9822 167.252 56.2938 167.014 56.5607C166.775 56.8276 166.486 57.0444 166.163 57.1986C165.84 57.3528 165.489 57.4413 165.132 57.459C164.774 57.4766 164.416 57.4231 164.08 57.3014Z" fill="black"/>
<path opacity="0.25" d="M154.645 62.8916C153.171 62.6485 149.349 59.2695 149.349 59.2695C149.349 59.2695 154.061 57.3066 155.532 57.5497C156.24 57.6661 156.873 58.0591 157.291 58.6422C157.71 59.2253 157.879 59.9507 157.763 60.6589C157.646 61.367 157.253 61.9999 156.67 62.4182C156.087 62.8366 155.362 63.0062 154.654 62.8897L154.645 62.8916Z" fill="black"/>
<path opacity="0.25" d="M163.951 42.2112C163.949 43.7046 166.658 48.0374 166.658 48.0374C166.658 48.0374 169.363 43.7101 169.363 42.2185C169.372 41.8577 169.309 41.4987 169.177 41.1626C169.046 40.8265 168.848 40.5202 168.597 40.2617C168.345 40.0032 168.044 39.7977 167.711 39.6574C167.379 39.5171 167.021 39.4448 166.66 39.4448C166.299 39.4448 165.942 39.5171 165.61 39.6574C165.277 39.7977 164.976 40.0032 164.724 40.2617C164.472 40.5202 164.275 40.8265 164.143 41.1626C164.012 41.4987 163.949 41.8577 163.958 42.2185L163.951 42.2112Z" fill="black"/>
<path opacity="0.25" d="M153.007 48.8879C153.453 50.3131 157.327 53.6368 157.327 53.6368C157.327 53.6368 158.616 48.6982 158.167 47.273C157.934 46.6126 157.454 46.0685 156.828 45.7551C156.201 45.4417 155.478 45.3835 154.81 45.5928C154.142 45.8021 153.581 46.2625 153.245 46.8772C152.91 47.4918 152.826 48.2126 153.011 48.8879H153.007Z" fill="black"/>
<path opacity="0.25" d="M143.272 56.8372C143.471 58.3103 146.726 62.2454 146.726 62.2454C146.726 62.2454 148.827 57.5959 148.628 56.1172C148.589 55.759 148.478 55.4122 148.303 55.0974C148.127 54.7825 147.891 54.5059 147.607 54.2839C147.323 54.0618 146.997 53.8988 146.65 53.8044C146.302 53.71 145.939 53.686 145.581 53.7341C145.224 53.7821 144.88 53.901 144.57 54.084C144.259 54.2669 143.988 54.5101 143.773 54.7992C143.558 55.0883 143.403 55.4176 143.316 55.7676C143.23 56.1176 143.215 56.4813 143.272 56.8372Z" fill="black"/>
<path d="M143.353 67.1656C143.353 67.1656 144.579 54.5262 151.882 47.8051C154.963 45.004 157.052 41.28 157.837 37.1913C158.195 35.2476 158.373 33.2751 158.37 31.2988" stroke="#535461" stroke-width="2" stroke-miterlimit="10"/>
<path d="M162.947 27.0344C162.395 28.4191 158.263 31.4243 158.263 31.4243C158.263 31.4243 157.375 26.3991 157.933 25.0144C158.202 24.3495 158.724 23.8185 159.384 23.5382C160.044 23.258 160.788 23.2515 161.453 23.5201C162.118 23.7887 162.649 24.3104 162.929 24.9705C163.209 25.6306 163.216 26.375 162.947 27.0399V27.0344Z" fill="#6C63FF"/>
<path d="M163.999 36.3738C162.778 37.2319 157.683 37.5136 157.683 37.5136C157.683 37.5136 159.668 32.8107 160.888 31.9526C161.178 31.7359 161.508 31.5795 161.859 31.4927C162.21 31.4058 162.575 31.3903 162.932 31.447C163.289 31.5038 163.632 31.6316 163.938 31.823C164.245 32.0143 164.511 32.2653 164.719 32.561C164.927 32.8568 165.074 33.1913 165.15 33.5447C165.227 33.8982 165.232 34.2634 165.164 34.6187C165.097 34.9741 164.959 35.3123 164.759 35.6135C164.559 35.9146 164.3 36.1725 163.999 36.3719V36.3738Z" fill="#6C63FF"/>
<path d="M158.537 49.407C157.049 49.5322 152.508 47.1973 152.508 47.1973C152.508 47.1973 156.596 44.1406 158.084 44.0154C158.799 43.9553 159.508 44.1815 160.055 44.6443C160.603 45.107 160.944 45.7684 161.005 46.4828C161.065 47.1973 160.838 47.9064 160.376 48.4541C159.913 49.0018 159.252 49.3432 158.537 49.4033V49.407Z" fill="#6C63FF"/>
<path d="M152.182 58.3359C150.737 58.7042 145.868 57.1814 145.868 57.1814C145.868 57.1814 149.38 53.4783 150.825 53.1027C151.519 52.9227 152.256 53.0258 152.874 53.3893C153.492 53.7527 153.94 54.3468 154.12 55.0407C154.3 55.7347 154.197 56.4718 153.834 57.0897C153.47 57.7077 152.876 58.156 152.182 58.3359Z" fill="#6C63FF"/>
<path d="M152.311 35.6593C152.915 37.0238 157.14 39.8945 157.14 39.8945C157.14 39.8945 157.858 34.8417 157.254 33.4772C156.953 32.8388 156.414 32.3435 155.753 32.097C155.091 31.8505 154.36 31.8724 153.715 32.1581C153.069 32.4437 152.561 32.9705 152.299 33.6257C152.037 34.281 152.041 35.0128 152.311 35.6648V35.6593Z" fill="#6C63FF"/>
<path d="M145.012 46.1957C145.997 47.3171 150.884 48.7865 150.884 48.7865C150.884 48.7865 150.059 43.7503 149.074 42.6289C148.842 42.3565 148.557 42.133 148.238 41.9714C147.918 41.8098 147.569 41.7133 147.212 41.6876C146.855 41.6619 146.496 41.7075 146.157 41.8216C145.817 41.9358 145.504 42.1163 145.235 42.3526C144.965 42.5889 144.746 42.8764 144.589 43.1982C144.432 43.5201 144.34 43.87 144.319 44.2276C144.299 44.5852 144.349 44.9433 144.468 45.2811C144.587 45.619 144.772 45.9299 145.012 46.1957Z" fill="#6C63FF"/>
<path d="M139.324 57.4136C140.105 58.6842 144.673 60.9583 144.673 60.9583C144.673 60.9583 144.712 55.8558 143.937 54.5834C143.551 53.9959 142.951 53.5818 142.265 53.4289C141.579 53.2761 140.86 53.3965 140.262 53.7647C139.663 54.1328 139.231 54.7197 139.058 55.4009C138.884 56.0821 138.983 56.8041 139.333 57.4136H139.324Z" fill="#6C63FF"/>
<path d="M133.962 17.6667C134.268 16.5453 134.636 15.4184 134.894 14.2822C134.584 15.4184 134.214 16.549 133.962 17.6667Z" fill="url(#paint0_linear_1_25401)"/>
<path d="M132.592 28.4688C132.566 28.4246 132.547 28.3804 132.527 28.3399C132.527 28.3215 132.509 28.3068 132.501 28.2884C132.461 28.3073 132.42 28.3239 132.378 28.3381C132.297 28.3694 132.214 28.3988 132.129 28.4228C132.045 28.4467 132.01 28.4596 131.945 28.4743C131.892 28.4927 131.837 28.5069 131.781 28.5167L131.796 28.5498C131.864 28.5351 131.931 28.5222 131.999 28.5038L132.017 28.7321C132.094 28.7321 132.166 28.7211 132.236 28.7211C132.269 28.7193 132.303 28.7193 132.336 28.7211C132.479 28.7211 132.605 28.7211 132.704 28.7211C132.665 28.6382 132.625 28.5517 132.592 28.4688ZM169.972 87.97C169.107 86.8044 167.379 74.2939 167.379 74.2939C167.379 74.2939 163.982 65.3981 164.908 61.8479C165.834 58.2976 162.378 49.214 162.378 49.214C162.378 49.214 160.095 48.2215 159.971 46.7484C159.971 46.7484 150.648 43.8022 150.212 41.5925C149.858 39.7805 144.076 38.4805 141.999 38.0699C141.366 35.514 140.729 33.1294 140.259 31.8275C140.132 31.4224 140.012 31.0725 139.902 30.7963C139.108 28.7708 136.656 28.5867 134.877 28.7487C134.8 28.4035 134.657 28.0764 134.455 27.7857C134.426 27.6857 134.367 27.5966 134.288 27.5297C134.249 27.4972 134.209 27.4676 134.166 27.4413C134.134 27.3816 134.091 27.328 134.041 27.2829C133.99 27.2374 133.935 27.1979 133.875 27.1651C133.832 27.1419 133.788 27.1216 133.742 27.1043C133.636 27.0637 133.525 27.0335 133.413 27.0141C133.282 26.9871 133.149 26.9699 133.015 26.9625C133.34 26.8204 133.63 26.6085 133.864 26.342C134.023 26.1549 134.142 25.9366 134.212 25.7012C134.27 25.5054 134.296 25.3014 134.289 25.0972C134.242 25.1814 134.186 25.2609 134.124 25.3347C134.201 24.519 133.77 23.6904 133.523 22.8783C133.224 21.8211 133.169 20.7099 133.361 19.6282C133.608 17.9968 134.219 16.3469 134.634 14.6859C134.635 14.6768 134.635 14.6675 134.634 14.6583C134.851 13.8334 134.985 12.989 135.035 12.1374C135.107 10.4194 134.667 8.70506 133.96 7.13987C133.332 5.7533 132.406 4.38882 130.988 3.82535C129.934 3.39999 128.754 3.46812 127.62 3.39815C125.075 3.23979 122.648 2.34487 120.228 1.53097C117.809 0.717069 115.319 -0.0231743 112.773 0.118613C110.226 0.260401 107.606 1.48861 106.444 3.74249C106.075 4.4459 105.864 5.2285 105.424 5.88956C104.599 7.13619 103.122 7.76042 101.89 8.62036C100.658 9.48029 99.5735 10.7011 99.1279 12.1577C98.8845 12.9424 98.8502 13.7771 99.0284 14.5791C99.0685 14.7603 99.1202 14.9386 99.1831 15.1131C99.3579 15.5997 99.6305 16.0453 99.9841 16.4224C100.251 16.7011 100.557 16.9388 100.894 17.1276C101.316 17.3618 101.768 17.5377 102.238 17.6506C102.221 17.7058 102.205 17.7648 102.186 17.8218C102.157 17.9157 102.131 18.006 102.104 18.1073C102.043 18.3337 101.986 18.5639 101.938 18.7959C101.936 18.8125 101.936 18.8291 101.938 18.8457C101.712 19.893 101.598 20.9616 101.599 22.0331C101.599 22.5399 101.624 23.0463 101.676 23.5504C102.413 31.0228 108.582 36.9172 116.203 37.3002C116.465 37.3131 116.728 37.3204 116.995 37.3204C117.116 37.3204 117.236 37.3204 117.363 37.3204C117.483 37.4788 117.601 37.6408 117.713 37.7992C117.825 37.9575 117.929 38.1196 118.026 38.278L117.759 38.0017L117.492 37.7568C117.42 37.8562 117.339 37.9492 117.251 38.0349C117.077 37.9736 116.899 37.9232 116.719 37.8839C115.955 37.7145 114.791 37.6519 113.259 38.1141C111.85 38.5357 110.128 39.403 108.114 41.0511L98.2974 46.9436L92.9868 50.1734L91.0736 54.8506C91.0736 54.8506 89.6354 60.4079 88.0353 66.7755C87.9727 66.7939 87.9119 66.8123 87.8511 66.8344C87.7215 66.8196 87.5912 66.8122 87.4607 66.8123C86.5323 66.8101 85.6392 67.1678 84.9689 67.8102C84.2987 68.4527 83.9035 69.3299 83.8663 70.2575C80.6844 74.1245 80.5039 77.9914 81.2515 79.7665C81.3192 79.9328 81.4044 80.0915 81.5057 80.2398C81.9955 80.9469 82.9106 82.7699 83.8387 84.7125C83.8148 84.8727 83.8 85.0072 83.7927 85.1084C83.791 85.1416 83.791 85.1747 83.7927 85.2079C83.7927 85.2079 84.3451 93.5513 82.5037 95.9432C82.1004 96.4643 82.1612 97.1494 82.5037 97.908C83.7374 100.637 88.6153 104.281 88.6153 104.281C88.6153 104.281 94.4654 104.25 97.7247 103.894C97.7155 104.222 97.7081 104.548 97.7008 104.867C97.6271 108.085 97.6271 110.783 97.6271 110.783L97.5056 114.158C97.5056 114.158 96.4007 121.272 95.8483 123.233C95.5003 124.463 95.9017 135.852 96.2516 144.225H153.891C154.569 139.271 153.613 124.222 153.613 124.222C153.613 124.222 152.705 120.331 152.672 116.939C152.67 116.935 152.669 116.931 152.669 116.927C152.669 116.923 152.67 116.919 152.672 116.915C152.672 116.618 152.672 116.329 152.683 116.046L153.101 116.031L153.852 116.005H153.921C153.921 116.005 153.939 115.935 153.981 115.821C154.081 115.537 154.216 115.266 154.385 115.016C154.705 114.543 155.206 114.079 155.959 114.048C156.375 114.031 157.02 113.694 157.747 113.197C157.752 113.198 157.757 113.198 157.762 113.197C159.719 111.873 162.306 109.43 162.934 109.028C163.798 108.476 167.934 104.793 167.934 104.793C167.934 104.793 168.55 104.012 169.208 103.071L169.232 103.038C170.049 101.86 170.919 100.451 170.705 100.007C170.337 99.2117 170.952 97.3096 170.952 97.3096C172.872 93.7943 170.837 89.1356 169.972 87.97ZM134.365 31.3322C134.383 31.3872 134.394 31.444 134.398 31.5016C134.352 31.4408 134.306 31.3764 134.26 31.3175L134.216 31.2585L134.184 31.2143L134.254 31.1186C134.254 31.1186 134.254 31.1186 134.254 31.1315C134.303 31.1912 134.34 31.2592 134.365 31.3322ZM133.746 29.7007C133.545 29.7412 133.387 29.778 133.284 29.8057C133.153 29.5737 133.028 29.3416 132.916 29.1059C133.211 29.2772 133.489 29.4764 133.746 29.7007ZM133.4 29.9916C133.399 29.988 133.399 29.9843 133.4 29.9806L133.415 29.9916C133.49 30.0414 133.564 30.0892 133.632 30.139C133.693 30.1832 133.748 30.2255 133.803 30.2697C133.766 30.3341 133.726 30.4004 133.685 30.4538C133.621 30.3526 133.56 30.255 133.501 30.1537C133.464 30.1132 133.431 30.0579 133.4 29.9916ZM132.295 27.7194C132.651 27.6843 133.009 27.6843 133.365 27.7194C133.415 27.7194 133.459 27.7286 133.503 27.7359C133.603 27.7514 133.701 27.7767 133.796 27.8114C134.014 28.1159 134.147 28.4721 134.184 28.8445L134.085 28.8592L133.987 28.8776C133.803 28.9089 133.619 28.9402 133.475 28.9697L133.291 29.0083C133.046 29.0617 132.905 29.1023 132.899 29.1041C132.875 29.0544 132.851 29.0083 132.825 28.9605C132.785 28.8813 132.743 28.8003 132.706 28.7211C132.669 28.6419 132.621 28.5517 132.582 28.4688C132.557 28.4246 132.538 28.3804 132.518 28.3399C132.518 28.3215 132.5 28.3068 132.492 28.2884C132.481 28.2688 132.472 28.2485 132.465 28.2276C132.352 27.9993 132.249 27.7709 132.15 27.5463C132.139 27.5242 132.129 27.5002 132.12 27.4781L132.26 27.4689V27.5168L132.295 27.7194ZM88.3612 141.949C88.3465 139.207 88.1476 136.24 87.5952 133.456C87.3595 132.272 87.1164 131.088 86.8697 129.924C86.807 129.633 86.7463 129.346 86.6855 129.059L86.1184 129.134H86.0668C84.52 121.841 82.9033 115.414 82.9033 115.414C82.9033 115.414 79.6919 103.152 80.0638 102.175C80.1117 102.047 80.0509 101.705 79.9147 101.202C79.1376 98.4144 75.8931 90.7321 74.7588 88.1062C74.7588 88.0952 74.7495 88.0823 74.7459 88.0731C74.5617 87.633 74.4292 87.3365 74.3886 87.25L74.6556 83.3315L74.6704 83.0958L74.7054 82.5949L74.6906 82.582L74.7054 82.35C74.7054 82.35 71.9028 80.052 67.1556 78.3929C66.9715 78.3266 66.7763 78.2621 66.5829 78.1995C66.8205 76.6141 67.1354 74.8242 67.546 73.0804C67.5847 72.9055 67.627 72.7361 67.6712 72.5648C67.7099 72.3936 67.7541 72.2278 67.7983 72.0603C67.8682 71.7878 67.9437 71.5189 68.0211 71.2537C68.277 71.1727 68.5293 71.0825 68.7779 70.9867L68.8736 70.9499C71.9361 69.7583 74.463 67.4974 75.9865 64.5858C77.51 61.6742 77.9268 58.3092 77.1599 55.1139C76.7227 53.3017 75.9152 51.5995 74.7882 50.1145C74.7035 50.0003 74.6133 49.8861 74.5231 49.7738C74.4328 49.6615 74.3242 49.5363 74.2229 49.4221C74.7551 48.2123 75.383 47.0614 75.4346 45.8848C75.4438 45.7358 75.4438 45.5863 75.4346 45.4373V45.4189C75.3664 44.6621 75.0313 43.8961 74.2505 43.0914C73.1107 41.911 71.4884 41.3126 69.8662 41.0253C68.2439 40.7381 66.5903 40.7307 64.9588 40.5373C62.2538 40.2133 59.6188 39.3791 56.9137 39.1231C53.5819 38.8146 50.2274 39.3861 47.1856 40.7804C45.173 41.7011 43.1346 43.3105 43.013 45.5183C42.9136 47.3432 44.1842 49.0925 43.8637 50.8952C43.5452 52.6666 41.7406 54.0606 41.899 55.8523C41.9597 56.552 42.3188 57.1781 42.7681 57.736C42.9228 57.9202 43.0867 58.1043 43.2561 58.2884C43.9116 58.9827 44.6335 59.6492 44.9999 60.5239C45.0146 60.5607 45.0294 60.5976 45.0422 60.6344C45.3534 61.498 45.2135 62.59 44.4438 63.0853C44.4481 63.0886 44.4513 63.0931 44.453 63.0982C44.464 63.1129 44.4751 63.124 44.4843 63.1387C44.4854 63.1357 44.4854 63.1324 44.4843 63.1295C44.7572 63.453 45.1251 63.6824 45.5357 63.785L45.6923 63.8329C45.5652 63.971 45.4455 64.1146 45.324 64.2656L45.2448 64.3706C45.0419 64.6434 44.8573 64.9295 44.6924 65.2268C44.5985 65.3926 44.5082 65.5583 44.4327 65.724C44.1803 66.2292 43.9976 66.7662 43.8895 67.3205C43.6925 68.5395 43.9705 69.8101 43.6722 71.0033C43.304 72.4764 42.1384 73.6071 41.481 74.9752C40.2362 77.5532 40.9415 80.5786 41.1919 83.4254C41.5325 87.2923 40.9801 91.1758 40.4295 95.017C40.1374 97.0597 39.8452 99.1043 39.553 101.151C38.8165 106.287 38.0799 111.423 37.3434 116.56C37.0745 118.441 36.7559 120.426 35.502 121.879H35.5148C35.5148 121.879 35.5148 121.89 35.502 121.894C35.8784 122.059 36.2787 122.162 36.6878 122.2C38.3248 122.364 40.0594 121.572 41.5325 120.706C42.6991 120.032 43.804 119.256 44.8342 118.388C44.6832 118.94 44.5211 119.543 44.348 120.191C44.3486 120.197 44.3486 120.203 44.348 120.209C42.2691 128.127 38.9251 142.643 38.9251 142.643C38.9251 142.643 38.6213 143.275 38.2272 144.216H90.1547C89.547 143.479 88.9817 142.774 88.5398 142.205L88.3612 141.949ZM49.9127 68.7347C49.9256 68.7126 49.9348 68.6924 49.9477 68.6721C49.9477 68.731 49.9477 68.7881 49.9477 68.8433C49.9477 68.8986 49.9477 68.9483 49.9477 68.9999C49.9477 69.0514 49.9477 69.0459 49.9477 69.0717C49.9477 69.1472 49.9312 69.2227 49.9183 69.2982C49.9183 69.2982 49.9183 69.3074 49.9183 69.3147L50.1024 69.3829L50.316 69.4713C51.578 69.9697 52.8559 70.4208 54.1498 70.8247C54.2824 70.8671 54.4168 70.9076 54.5512 70.9462L54.5789 71.1746C54.612 71.4084 54.6433 71.646 54.6728 71.8835C54.6728 71.8835 54.6728 71.8946 54.6728 71.9019C54.7556 72.5593 54.8367 73.2148 54.9085 73.8556C54.9085 73.8556 51.5277 72.5667 51.57 74.5241C51.5681 74.559 51.5681 74.5941 51.57 74.629C51.5663 74.6756 51.5663 74.7224 51.57 74.769C51.6013 76.2937 52.0782 77.1978 52.174 77.6618C52.1683 77.681 52.1582 77.6987 52.1445 77.7134C52.0628 77.8911 52.0347 78.0889 52.0635 78.2824C52.0603 78.6118 52.0862 78.9408 52.1408 79.2657C52.0414 79.3264 51.9438 79.3872 51.8462 79.4498C51.7726 79.4958 51.7026 79.5474 51.6308 79.599C51.179 78.032 50.5881 76.5086 49.8649 75.047C49.3585 74.0048 48.7895 72.9184 48.795 71.7749C48.795 71.7012 48.795 71.6257 48.8042 71.5502C48.8248 71.2188 48.8879 70.8914 48.992 70.5761C49.0344 70.4564 49.0804 70.3386 49.132 70.2226C49.2523 69.9469 49.3869 69.6777 49.5353 69.416C49.631 69.2429 49.7323 69.0717 49.8299 68.8986C49.8612 68.847 49.8907 68.7936 49.9201 68.7421L49.9127 68.7347ZM132.592 28.4688C132.566 28.4246 132.547 28.3804 132.527 28.3399C132.527 28.3215 132.509 28.3068 132.501 28.2884C132.461 28.3073 132.42 28.3239 132.378 28.3381C132.297 28.3694 132.214 28.3988 132.129 28.4228C132.045 28.4467 132.01 28.4596 131.945 28.4743L131.781 28.5167L131.796 28.5498C131.864 28.5351 131.931 28.5222 131.999 28.5038L132.017 28.7321C132.094 28.7321 132.166 28.7211 132.236 28.7211H132.336C132.479 28.7211 132.605 28.7211 132.704 28.7211C132.665 28.6382 132.625 28.5517 132.592 28.4688Z" fill="url(#paint1_linear_1_25401)"/>
<path d="M92.3573 55.5152L91.2525 56.0032C91.2525 56.0032 84.0508 83.9814 84.0508 86.2427C84.0508 88.5039 99.3215 101.086 99.3215 101.086L101.704 85.0034C101.704 85.0034 98.283 48.122 92.3573 55.5152Z" fill="#E8F5FF"/>
<path d="M125.854 46.6155L119.474 43.2863C119.117 41.7628 118.482 40.3179 117.603 39.0234C116.669 37.6755 115.428 36.3516 113.882 35.661C109.972 33.908 130.417 24.7065 130.417 24.7065C130.739 25.8119 131.119 26.8998 131.553 27.9658C132.607 30.5659 134.354 33.9283 136.606 34.8858C140.435 36.5154 125.854 46.6155 125.854 46.6155Z" fill="#FFC1C7"/>
<path opacity="0.1" d="M131.553 27.9658C130.68 31.0382 128.863 33.7585 126.36 35.7426C123.857 37.7267 120.794 38.8743 117.603 39.0234C116.669 37.6755 115.428 36.3516 113.882 35.661C109.972 33.908 130.417 24.7065 130.417 24.7065C130.739 25.8119 131.119 26.8998 131.553 27.9658Z" fill="black"/>
<path d="M132.128 23.3202C132.129 26.3334 131.236 29.2792 129.562 31.7849C127.889 34.2907 125.51 36.2438 122.726 37.3973C119.942 38.5509 116.879 38.853 113.924 38.2654C110.968 37.6779 108.254 36.2271 106.123 34.0966C103.992 31.966 102.541 29.2514 101.953 26.2961C101.365 23.3408 101.667 20.2775 102.82 17.4937C103.973 14.7099 105.926 12.3306 108.432 10.6567C110.937 8.98288 113.883 8.08964 116.896 8.09001C118.899 8.08074 120.883 8.46835 122.735 9.23043C124.588 9.99252 126.27 11.114 127.687 12.5301C129.103 13.9461 130.225 15.6288 130.987 17.4808C131.749 19.3328 132.137 21.3175 132.128 23.3202Z" fill="#FFC1C7"/>
<path d="M134.327 44.6601L130.172 54.3532L126.508 60.7871H114.778L111.357 51.9907L112.744 42.8684H121.702L127.486 42.5425L129.439 41.8906L130.699 42.6051L134.327 44.6601Z" fill="#575A89"/>
<path opacity="0.1" d="M132.896 31.7388C132.896 31.7388 135.487 32.2913 133.167 34.1934C130.846 36.0956 122.842 42.1446 122.842 42.1446C122.842 42.1446 125.654 44.6489 125.072 47.5822L134.387 42.3895L136.045 34.0811C136.045 34.0811 136.231 31.5842 132.896 31.7388Z" fill="black"/>
<path opacity="0.1" d="M124.674 42.1445L118.748 43.1223C118.748 43.1223 119.971 47.6429 119.36 48.9264C119.341 48.9663 119.326 49.0075 119.314 49.0498L116.896 55.5849L118.708 60.7169L124.98 52.1636L122.842 48.9264C122.842 48.9264 125.101 45.9323 126.445 44.8937C127.79 43.8552 124.674 42.1445 124.674 42.1445Z" fill="black"/>
<path d="M124.674 41.8926L118.748 42.8685C118.748 42.8685 119.971 47.3892 119.36 48.6726C119.341 48.7125 119.326 48.7537 119.314 48.796L116.896 55.3311L118.708 60.4631L124.98 51.9043L122.842 48.6671C122.842 48.6671 125.101 45.673 126.445 44.6344C127.79 43.5959 124.674 41.8926 124.674 41.8926Z" fill="#DCE6F2"/>
<path d="M133.144 31.251C133.144 31.251 135.735 31.8035 133.413 33.7056C131.091 35.6078 122.842 42.1448 122.842 42.1448C122.842 42.1448 125.897 44.1611 125.317 47.0926L134.632 41.9017L136.29 33.5933C136.29 33.5933 136.474 31.0964 133.144 31.251Z" fill="#575A89"/>
<path opacity="0.1" d="M118.01 39.6001C118.01 39.6001 118.575 40.6571 121.07 42.5629C121.07 42.5629 116.916 44.7726 118.505 47.879L112.151 46.2218L111.173 43.1669L118.01 39.6001Z" fill="black"/>
<path d="M117.765 39.3569C117.765 39.3569 118.33 40.4139 120.825 42.3198C120.825 42.3198 116.671 44.5184 118.26 47.634L111.907 45.9768L110.93 42.9237L117.765 39.3569Z" fill="#575A89"/>
<path opacity="0.1" d="M134.327 44.66L130.172 54.3531L126.515 60.787H114.778L111.357 51.9906L112.742 42.8683H115.233C115.193 44.997 115.97 47.4976 115.92 48.4275C115.835 49.9558 118.2 58.2016 118.2 58.2016C118.2 58.2016 123.147 50.1989 125.101 49.4863C126.329 49.0388 128.931 45.3155 130.697 42.605L134.327 44.66Z" fill="black"/>
<path d="M150.691 95.6688L150.269 96.1991C150.269 96.1991 153.324 111.532 152.479 115.015C152.335 115.642 152.253 116.282 152.234 116.926V116.954C152.085 120.496 153.155 125.094 153.155 125.094C153.155 125.094 154.009 138.647 153.523 144.221H96.3253C95.9902 135.979 95.6293 125.301 95.957 124.117C96.5094 122.163 97.6143 115.075 97.6143 115.075L97.7358 111.717C97.7358 111.717 97.7358 108.47 97.8353 104.854C97.8776 103.228 97.9402 101.521 98.0304 100.007C98.1464 98.1031 98.3085 96.4993 98.5313 95.7111C98.6686 95.1138 98.7475 94.5045 98.767 93.8918C98.767 93.8348 98.767 93.7758 98.778 93.7169C98.778 93.5328 98.7965 93.3339 98.8038 93.1295C98.8038 93.0724 98.8038 93.0153 98.8038 92.9454C98.8388 91.7595 98.8259 90.3527 98.7873 88.8943C98.7873 88.8151 98.7873 88.7341 98.7873 88.6531C98.7559 87.5593 98.7099 86.4434 98.6584 85.3827C98.4981 82.0682 98.2901 79.2656 98.2901 79.2656L91.2651 55.9903L93.1581 51.3279L98.4116 48.1091L108.125 42.2442C112.863 38.3497 115.982 38.8174 117.172 39.2446C117.287 39.284 117.4 39.3301 117.511 39.3827C117.547 39.4011 117.577 39.4159 117.605 39.4324C117.642 39.4503 117.679 39.4713 117.713 39.495C117.387 39.6517 117.104 39.8848 116.888 40.1745C116.645 40.5041 116.471 40.8801 116.378 41.2793C116.316 41.5268 116.272 41.7785 116.247 42.0325C116.223 42.2995 116.214 42.5757 116.214 42.8537C116.227 43.4635 116.28 44.0718 116.371 44.6749C116.371 44.6859 116.371 44.7007 116.371 44.7154C116.432 45.1463 116.507 45.568 116.581 45.9639C116.58 45.9706 116.58 45.9774 116.581 45.9841C116.665 46.4463 116.75 46.8735 116.807 47.2418C116.818 47.3081 116.827 47.3689 116.837 47.4259C116.877 47.6693 116.896 47.9158 116.894 48.1625C116.914 48.7583 116.995 49.3504 117.133 49.9302C117.181 50.1733 117.236 50.433 117.297 50.7036C117.38 51.0719 117.47 51.4733 117.568 51.8821C117.621 52.1068 117.678 52.3388 117.737 52.569C117.759 52.661 117.783 52.7531 117.805 52.847L117.842 52.9925C118.234 54.5522 118.66 56.1045 118.921 57.0436C119.076 57.596 119.173 57.9367 119.173 57.9367C119.173 57.9367 121.947 53.4528 124.16 50.9007C124.193 50.8638 124.223 50.8289 124.254 50.7957C124.473 50.5434 124.688 50.3133 124.895 50.1107C125.346 49.6614 125.751 49.341 126.077 49.2231C126.146 49.1977 126.213 49.1662 126.278 49.1292C127.183 48.6155 128.646 46.7501 130.014 44.7964C130.148 44.6123 130.279 44.4116 130.411 44.2219C130.715 43.7837 131.01 43.3436 131.288 42.9219C131.502 42.5996 131.706 42.2866 131.899 41.9883C132.82 40.5557 133.468 39.4877 133.468 39.4877L134.746 39.4306L134.969 39.4195H135.118L140.92 39.1507C140.92 39.1507 141.171 39.193 141.583 39.2759C141.605 39.2759 141.627 39.2759 141.651 39.2906C143.71 39.6994 149.429 40.9939 149.779 42.7893C150.207 44.9879 159.432 47.9213 159.432 47.9213C159.553 49.3944 161.813 50.3648 161.813 50.3648C161.813 50.3648 165.234 59.4061 164.319 62.9489C163.415 66.4476 166.672 75.1022 166.759 75.3452L166.135 76.1334L150.691 95.6688Z" fill="#E8F5FF"/>
<path opacity="0.1" d="M132.894 31.096C132.894 31.096 138.541 29.494 139.825 32.792C141.108 36.0899 143.979 49.4088 143.979 49.4088C143.979 49.4088 136.525 50.8138 134.571 49.4088C133.425 48.5749 132.007 48.2041 130.599 48.3702L126.384 51.241L125.14 50.8727C125.14 50.8727 131.883 40.8481 133.349 37.4415C134.814 34.0349 135.31 32.5121 132.894 31.096Z" fill="black"/>
<path d="M132.649 30.3597C132.649 30.3597 138.3 28.7577 139.589 32.0557C140.878 35.3536 143.744 48.6724 143.744 48.6724C143.744 48.6724 136.291 50.0774 134.336 48.6724C133.191 47.8386 131.773 47.4676 130.366 47.6339L126.147 50.5046L124.902 50.1364C124.902 50.1364 131.646 40.1118 133.111 36.7052C134.577 33.2986 135.065 31.7794 132.649 30.3597Z" fill="#E8F5FF"/>
<path opacity="0.1" d="M94.7402 83.4932C94.7402 83.4932 98.9552 84.5317 99.7507 86.9145C100.546 89.2973 96.635 89.358 96.635 89.358C96.635 89.358 94.2522 85.1431 94.7402 83.4932Z" fill="black"/>
<path opacity="0.1" d="M110.44 101.086C110.44 101.086 100.117 122.223 102.5 124.24C104.882 126.256 110.44 101.086 110.44 101.086Z" fill="black"/>
<path opacity="0.1" d="M124.674 85.5098C124.674 85.5098 132.921 106.041 131.272 109.212C129.622 112.383 134.814 109.212 134.814 109.212L124.674 85.5098Z" fill="black"/>
<path d="M136.159 105.791C136.159 105.791 108.302 107.135 116.428 115.81C124.554 124.485 141.23 116.178 141.23 116.178L136.159 105.791Z" fill="#FFC1C7"/>
<path opacity="0.1" d="M132.128 23.3201C132.13 25.318 131.738 27.2968 130.973 29.1426C130.717 29.172 130.461 29.1904 130.214 29.2015C129.846 28.3931 130.043 27.4595 130.051 26.5701C130.058 25.6807 129.73 24.6348 128.874 24.3954C127.167 23.9148 125.988 27.106 124.305 26.5296C123.016 26.0914 123.353 24.1358 122.611 23.007C122.024 22.1139 120.847 21.8617 119.932 21.3019C117.986 20.1068 118.045 18.1954 117.141 16.3872C116.194 14.4924 114.194 15.0522 112.458 16.1699C111.139 17.0206 110.001 18.1605 108.591 18.8381C107.37 19.4273 105.998 19.6409 104.645 19.6722C103.812 19.7045 102.978 19.6165 102.17 19.4108C103.12 15.8373 105.338 12.7316 108.41 10.6727C111.481 8.61384 115.197 7.7424 118.863 8.2209C122.53 8.6994 125.897 10.4952 128.337 13.2733C130.778 16.0515 132.124 19.6224 132.126 23.3201H132.128Z" fill="black"/>
<path d="M112.464 15.6818C111.143 16.5325 110.007 17.6705 108.597 18.3518C107.376 18.9393 106.004 19.1529 104.651 19.1842C102.993 19.221 101.209 18.93 100.077 17.7331C99.0362 16.6283 98.7876 14.9287 99.2277 13.4795C99.6678 12.0303 100.723 10.8279 101.962 9.95691C103.201 9.08592 104.64 8.48379 105.461 7.23716C105.895 6.57794 106.105 5.80087 106.466 5.09929C107.621 2.85463 110.217 1.6393 112.727 1.48831C115.237 1.33731 117.725 2.08492 120.115 2.89514C122.505 3.70535 124.913 4.59659 127.436 4.76416C128.559 4.83413 129.727 4.76416 130.769 5.18952C132.17 5.75851 133.089 7.11931 133.715 8.50404C134.417 10.0655 134.853 11.7707 134.78 13.4758C134.625 17.1163 132.22 20.6886 133.277 24.1762C133.557 25.1061 134.082 26.0599 133.802 26.9899C133.393 28.347 131.642 28.6563 130.226 28.7208C129.858 27.9124 130.055 26.977 130.062 26.0894C130.069 25.2019 129.742 24.1541 128.887 23.9147C127.178 23.4378 126 26.6234 124.32 26.0489C123.041 25.6088 123.372 23.6551 122.628 22.5263C122.041 21.6314 120.862 21.381 119.949 20.8212C118.003 19.6261 118.062 17.7147 117.157 15.9065C116.204 14.0025 114.202 14.5622 112.464 15.6818Z" fill="#99607E"/>
<path d="M85.4521 85.7527L84.0471 86.2425C84.0471 86.2425 84.5995 94.5509 82.7581 96.9336C80.9167 99.3164 88.8053 105.24 88.8053 105.24C88.8053 105.24 99.618 105.179 99.9237 104.32C100.229 103.46 99.3712 88.9254 99.3712 88.9254C99.3712 88.9254 93.5671 86.6642 94.0551 83.0605C94.0551 83.0605 92.2837 91.5512 89.6578 91.1848C87.032 90.8184 84.0508 88.6253 85.4521 85.7527Z" fill="#E8F5FF"/>
<path opacity="0.1" d="M90.1384 93.7556C92.1856 93.7556 93.8451 92.2379 93.8451 90.3656C93.8451 88.4933 92.1856 86.9756 90.1384 86.9756C88.0912 86.9756 86.4316 88.4933 86.4316 90.3656C86.4316 92.2379 88.0912 93.7556 90.1384 93.7556Z" fill="black"/>
<path d="M94.1911 85.9975C94.1911 85.9975 93.4546 63.5176 87.0428 68.5262C80.6311 73.5349 80.5684 79.5249 81.7893 81.2945C83.0101 83.0641 86.925 91.9231 86.925 91.9231C87.5373 92.278 88.2251 92.4827 88.9318 92.5206C89.6386 92.5585 90.3442 92.4283 90.991 92.1409C91.6378 91.8534 92.2072 91.4168 92.6527 90.8669C93.0982 90.3169 93.4071 89.6692 93.554 88.9768L94.1911 85.9975Z" fill="#FFC1C7"/>
<path opacity="0.1" d="M134.188 29.0558C134.158 28.957 134.101 28.8688 134.022 28.8017C133.706 28.5126 133.024 28.4113 131.997 28.4997L132.039 28.9858C133.409 28.8679 133.68 29.1405 133.715 29.1865V29.2325L133.757 29.2933C133.928 29.5229 134.049 29.7856 134.112 30.0646C134.176 30.3437 134.18 30.6329 134.126 30.9137C133.825 32.4145 131.982 33.6096 131.964 33.6224L131.92 33.6482L131.892 33.6906C131.096 34.8709 126.598 38.202 125.421 39.0638L125.318 38.9459C124.791 39.4026 120.162 43.4555 119.912 45.0078C119.75 45.9819 118.652 46.3594 118.254 46.4644C117.835 46.1458 116.472 45.0612 115.763 43.8459C115.098 42.7024 117.774 40.4706 118.01 39.5996L117.641 39.2221C117.603 39.3621 114.167 42.5735 115.122 44.2142C115.888 45.5308 117.288 46.6577 117.778 47.0297C117.621 48.4512 116.647 56.7983 115.15 58.776C113.29 61.2342 111.727 73.6232 111.9 77.9486C112.053 81.7916 111.049 89.0504 107.698 92.1679C107.118 92.7313 106.418 93.1564 105.65 93.4115C104.883 93.6665 104.068 93.745 103.265 93.641H103.225H103.184C103.137 93.641 98.2753 94.1382 94.1911 90.6948C90.8489 87.883 88.956 83.2942 88.5619 77.0519H88.4809L88.4478 75.2344C89.3539 75.093 90.17 74.6058 90.7245 73.8753C91.2791 73.1448 91.5289 72.2278 91.4214 71.3169C91.314 70.4061 90.8577 69.5724 90.1485 68.9909C89.4392 68.4094 88.5322 68.1255 87.618 68.1987C86.7038 68.272 85.8535 68.6968 85.2459 69.3838C84.6383 70.0708 84.3207 70.9665 84.3597 71.8829C84.3987 72.7992 84.7913 73.6647 85.4551 74.2976C86.1189 74.9305 87.0021 75.2814 87.9193 75.2768H87.9598L87.9929 77.0832L87.8309 77.0942C88.236 83.5391 90.2247 88.3065 93.7234 91.2509C96.3826 93.4545 99.7793 94.5661 103.227 94.361C103.471 94.3878 103.717 94.4013 103.963 94.4015C105.544 94.4097 107.064 93.7982 108.199 92.6982C111.729 89.4113 112.802 81.8855 112.635 77.9118C112.45 73.3286 114.091 61.3852 115.737 59.2105C117.35 57.0764 118.328 48.7606 118.499 47.1494C119.083 46.9855 120.403 46.4681 120.628 45.1238C120.79 44.1516 123.882 41.1556 125.784 39.4965L125.727 39.4302C126.751 38.6826 129.934 36.3256 131.513 34.812C132.002 34.3424 132.489 33.8729 132.997 33.4254C133.608 32.884 134.385 32.0241 134.59 31.0077C134.659 30.6721 134.66 30.3259 134.591 29.9902C134.522 29.6546 134.385 29.3366 134.188 29.0558Z" fill="black"/>
<path d="M117.715 46.914C117.638 46.8606 115.804 45.5477 114.885 43.9677C113.931 42.327 117.367 39.1175 117.404 38.9775L117.772 39.355C117.538 40.2242 114.863 42.4578 115.528 43.5995C116.365 45.0413 118.13 46.3026 118.148 46.3155L117.715 46.914Z" fill="#353146"/>
<path d="M125.182 39.4213L124.895 39.0254C124.954 38.983 130.738 34.7994 131.649 33.4459L131.679 33.4054L131.721 33.3778C131.74 33.3649 133.583 32.1717 133.883 30.6691C133.938 30.3886 133.934 30.0995 133.871 29.8207C133.807 29.5419 133.686 29.2795 133.515 29.0505L133.472 28.9879V28.9437C133.435 28.8958 133.165 28.6252 131.795 28.743L131.752 28.255C132.782 28.1666 133.461 28.2679 133.778 28.557C133.857 28.6249 133.915 28.7136 133.945 28.813C134.145 29.093 134.284 29.4107 134.356 29.7468C134.427 30.0828 134.429 30.4299 134.362 30.7667C134.157 31.785 133.382 32.6449 132.769 33.1845C132.262 33.6319 131.774 34.1052 131.287 34.571C129.436 36.3443 125.385 39.2758 125.182 39.4213Z" fill="#E8F5FF"/>
<path d="M88.2105 74.5936L87.7227 74.6025L87.777 77.5685L88.2649 77.5596L88.2105 74.5936Z" fill="#E8F5FF"/>
<path d="M87.6818 75.0432C89.6496 75.0432 91.2449 73.448 91.2449 71.4801C91.2449 69.5123 89.6496 67.917 87.6818 67.917C85.7139 67.917 84.1187 69.5123 84.1187 71.4801C84.1187 73.448 85.7139 75.0432 87.6818 75.0432Z" fill="#6C63FF"/>
<path d="M87.6818 74.4393C89.3161 74.4393 90.6409 73.1144 90.6409 71.4801C90.6409 69.8458 89.3161 68.521 87.6818 68.521C86.0475 68.521 84.7227 69.8458 84.7227 71.4801C84.7227 73.1144 86.0475 74.4393 87.6818 74.4393Z" fill="#E8F5FF"/>
<path d="M103.732 94.1643C103.486 94.1646 103.24 94.1517 102.995 94.1256C99.5479 94.3286 96.1518 93.2172 93.4916 91.0155C89.9929 88.0692 88.0079 83.3074 87.5991 76.8569L88.3357 76.8109C88.7297 83.0532 90.6227 87.6439 93.9667 90.4538C98.0509 93.888 102.91 93.4001 102.958 93.4001H102.999H103.039C103.842 93.5035 104.657 93.4248 105.424 93.1698C106.192 92.9147 106.892 92.4899 107.473 91.9269C110.823 88.8095 111.826 81.5507 111.674 77.7077C111.489 73.3785 113.053 60.9896 114.914 58.5332C116.544 56.3806 117.555 46.6782 117.566 46.5806L117.594 46.3044L117.866 46.2565C117.883 46.2565 119.474 45.9546 119.673 44.765C119.93 43.2146 124.552 39.1616 125.077 38.7031L125.558 39.2555C123.648 40.9128 120.557 43.9106 120.402 44.8847C120.177 46.2326 118.857 46.7482 118.275 46.9102C118.091 48.5233 117.12 56.8372 115.513 58.9714C113.867 61.1461 112.226 73.0894 112.41 77.6727C112.569 81.6464 111.506 89.1741 107.976 92.4591C106.839 93.5618 105.315 94.1741 103.732 94.1643Z" fill="#353146"/>
<g opacity="0.1">
<path d="M133.697 18.9669C133.999 17.851 134.363 16.7278 134.617 15.5972C134.314 16.7333 133.947 17.851 133.697 18.9669Z" fill="black"/>
<path d="M130.616 27.7355C130.248 26.9271 130.445 25.9917 130.452 25.1041C130.46 24.2166 130.132 23.178 129.278 22.9294C127.569 22.4525 126.39 25.64 124.711 25.0636C123.422 24.6235 123.763 22.6698 123.019 21.541C122.431 20.6461 121.255 20.3957 120.341 19.8359C118.393 18.6408 118.452 16.7294 117.55 14.9212C116.601 13.0245 114.603 13.5843 112.865 14.7039C111.545 15.5546 110.409 16.6944 108.998 17.3739C107.777 17.9613 106.406 18.1749 105.052 18.2062C103.404 18.2449 101.611 17.9521 100.478 16.7552C99.6052 15.8345 99.2904 14.4848 99.4708 13.2197C99.4395 13.3063 99.4119 13.3928 99.3843 13.4794C98.9423 14.9285 99.2001 16.6318 100.233 17.733C101.366 18.9299 103.159 19.2208 104.807 19.184C106.162 19.1527 107.532 18.9391 108.755 18.3517C110.169 17.6704 111.305 16.5324 112.622 15.6817C114.36 14.5621 116.36 14.0023 117.307 15.899C118.209 17.7072 118.152 19.6186 120.098 20.8137C121.019 21.3661 122.188 21.6239 122.777 22.5188C123.514 23.6513 123.188 25.6013 124.47 26.0414C126.147 26.6159 127.326 23.4303 129.034 23.9072C129.889 24.1466 130.219 25.1962 130.209 26.0819C130.2 26.9676 130.009 27.9049 130.373 28.7133C131.789 28.6488 133.54 28.345 133.951 26.9824C134.008 26.7868 134.034 26.5837 134.028 26.3802C133.43 27.4132 131.891 27.6784 130.616 27.7355Z" fill="black"/>
</g>
<path opacity="0.1" d="M163.896 73.1076L166.034 75.3689C166.034 75.3689 167.744 87.8296 168.599 88.9952C169.453 90.1608 171.471 94.7975 169.576 98.2796C169.576 98.2796 168.965 100.174 169.332 100.968C169.698 101.762 166.584 105.734 166.584 105.734C166.584 105.734 162.491 109.398 161.635 109.949C160.778 110.499 156.259 114.896 154.733 114.957C153.206 115.018 152.707 116.913 152.707 116.913L144.093 117.218C144.093 117.218 139.335 116.97 138.3 117.642C138.3 117.642 138.853 110.372 133.537 105.606L140.317 103.163C140.317 103.163 142.884 102.058 143.677 100.904C144.176 100.196 144.885 99.6619 145.703 99.377C145.703 99.377 147.596 98.0328 147.656 97.2999C147.717 96.5671 149.971 95.6684 149.971 95.6684L148.695 84.7766L149.367 66.694C149.367 66.694 151.505 51.543 156.026 52.3992C160.546 53.2555 163.896 73.1076 163.896 73.1076Z" fill="black"/>
<path d="M164.632 73.1076L166.77 75.3689C166.77 75.3689 168.481 87.8296 169.335 88.9952C170.189 90.1608 172.208 94.7975 170.313 98.2796C170.313 98.2796 169.703 100.174 170.07 100.968C170.436 101.762 167.321 105.734 167.321 105.734C167.321 105.734 163.227 109.398 162.371 109.949C161.515 110.499 156.996 114.896 155.469 114.957C153.943 115.018 153.444 116.913 153.444 116.913L144.83 117.218C144.83 117.218 140.068 116.97 139.037 117.642C139.037 117.642 139.589 110.372 134.273 105.606L141.053 103.163C141.053 103.163 143.62 102.058 144.414 100.904C144.913 100.196 145.621 99.6619 146.439 99.377C146.439 99.377 148.332 98.0328 148.393 97.2999C148.454 96.5671 150.707 95.6684 150.707 95.6684L149.431 84.7766L150.103 66.694C150.103 66.694 152.241 51.543 156.762 52.3992C161.283 53.2555 164.632 73.1076 164.632 73.1076Z" fill="#E8F5FF"/>
<path opacity="0.1" d="M156.685 91.3743C156.685 91.3743 162.977 89.717 164.627 91.7426C166.276 93.7681 156.685 91.3743 156.685 91.3743Z" fill="black"/>
<path opacity="0.1" d="M155.219 94.1533C157.357 95.6504 163.954 95.7111 163.954 95.7111L155.219 94.1533Z" fill="black"/>
<path opacity="0.1" d="M158.456 101.637C158.64 101.697 162.991 106.341 164.818 104.937C166.645 103.532 158.456 101.637 158.456 101.637Z" fill="black"/>
<path opacity="0.1" d="M99.8555 62.6616C99.8555 62.6616 101.133 71.4598 100.504 75.0432C99.8739 78.6266 102.172 83.0662 102.172 83.0662L99.8555 62.6616Z" fill="black"/>
<path d="M71.564 66.2396C70.0909 67.3942 69.0155 70.1268 68.2366 73.1301C66.8776 78.3689 66.4338 84.4437 66.4338 84.4437C66.4338 84.4437 54.7041 81.7553 55.5585 80.5344C56.0962 79.7666 55.3744 73.9809 54.7723 69.7862C54.4132 67.3076 54.0928 65.3834 54.0928 65.3834C54.0928 65.3834 75.5966 63.0614 71.564 66.2396Z" fill="#FFCCD0"/>
<path opacity="0.1" d="M71.564 65.9947C70.0909 67.1511 69.0155 69.8819 68.2366 72.8852C65.8996 73.5948 63.4141 73.6589 61.0436 73.0705C58.6732 72.4821 56.5061 71.2632 54.7723 69.5431C54.4132 67.0627 54.0928 65.1384 54.0928 65.1384C54.0928 65.1384 75.5966 62.8183 71.564 65.9947Z" fill="black"/>
<path d="M77.8692 59.4134C77.8705 62.6162 76.7386 65.7161 74.674 68.1646C72.6093 70.6131 69.7451 72.2523 66.5881 72.792C63.4311 73.3317 60.185 72.7371 57.4242 71.1136C54.6634 69.49 52.566 66.9421 51.5032 63.9208C50.4404 60.8995 50.4806 57.5997 51.6169 54.6052C52.7531 51.6108 54.9121 49.1148 57.7117 47.5591C60.5113 46.0034 63.7709 45.4883 66.9138 46.1049C70.0567 46.7215 72.8801 48.4301 74.8843 50.9282C76.8157 53.3346 77.8687 56.3278 77.8692 59.4134Z" fill="#FFCCD0"/>
<path opacity="0.1" d="M88.5638 144.221H84.6969L84.3709 137.391L84.0303 130.322C84.0303 130.322 84.9086 130.191 86.3081 129.996L86.8734 129.92H86.9194C87.2251 131.355 87.5271 132.828 87.818 134.299C88.3023 136.911 88.5543 139.561 88.5712 142.217C88.5712 142.401 88.5712 142.586 88.5712 142.759C88.5822 143.25 88.5712 143.742 88.5638 144.221Z" fill="black"/>
<path d="M87.8218 144.221H39.3267C39.5366 143.744 39.6765 143.455 39.6765 143.455C39.6765 143.455 43.5564 126.481 45.5285 119.3C45.5291 119.293 45.5291 119.287 45.5285 119.281C45.7749 118.306 46.0724 117.344 46.4197 116.399C46.4422 116.335 46.4712 116.273 46.5063 116.215C47.4822 114.628 48.7049 112.917 46.9942 110.474C45.2836 108.03 45.8894 97.2782 45.8894 97.2782C45.8894 97.2782 47.9665 88.1136 50.1651 83.2265C50.4988 82.4695 50.9724 81.7823 51.5609 81.201C51.7523 81.0138 51.9566 80.8402 52.1723 80.6817C52.3363 80.5585 52.5072 80.4447 52.6842 80.341L52.7192 80.3189C53.6428 79.7953 54.6684 79.4769 55.7262 79.3854C56.4776 79.3068 57.236 79.3279 57.9819 79.448C61.5468 79.9709 64.401 80.8456 66.6696 81.8418C72.818 84.5431 74.6797 88.1633 74.7165 88.2388L74.7313 88.2701C74.978 88.8465 78.5872 97.2727 79.8872 101.204C80.2242 102.228 80.4083 102.948 80.3346 103.145C79.9664 104.121 83.1446 116.339 83.1446 116.339C83.1446 116.339 84.6177 122.231 86.0909 129.138C86.1553 129.425 86.2161 129.713 86.275 130.004C86.5383 131.258 86.7998 132.536 87.0521 133.812C87.5408 136.442 87.7929 139.11 87.8052 141.785C87.8322 142.618 87.8377 143.43 87.8218 144.221Z" fill="#FF748E"/>
<path opacity="0.1" d="M55.437 75.1829C55.437 75.1829 52.0912 73.8939 52.1317 75.8495C52.1722 77.8051 52.9475 78.7405 52.7025 79.0259C52.4576 79.3113 52.8241 81.022 52.8241 81.022C52.8241 81.022 57.3447 81.022 59.4218 81.9574C61.4989 82.8929 69.1555 84.7674 70.1332 85.3382C71.111 85.9091 74.7367 88.4686 74.7367 88.4686L75.0627 83.622C75.0627 83.622 71.3154 80.5267 65.167 78.9394C59.0186 77.3521 55.437 75.1829 55.437 75.1829Z" fill="black"/>
<path d="M55.437 74.9383C55.437 74.9383 52.0912 73.6493 52.1317 75.6049C52.1722 77.5604 52.9475 78.4959 52.7025 78.7813C52.4576 79.0667 52.8241 80.7774 52.8241 80.7774C52.8241 80.7774 57.3447 80.7774 59.4218 81.7146C61.4989 82.6519 69.1555 84.5246 70.1332 85.0936C71.111 85.6626 74.7367 88.224 74.7367 88.224L75.0664 83.3922C75.0664 83.3922 71.3191 80.2968 65.1707 78.7095C59.0222 77.1222 55.437 74.9383 55.437 74.9383Z" fill="#FF748E"/>
<path opacity="0.1" d="M65.5371 86.6016C65.5371 86.6016 71.9304 93.5234 71.6045 95.4403C71.2786 97.3572 65.5371 86.6016 65.5371 86.6016Z" fill="black"/>
<path opacity="0.1" d="M55.1516 111.606C55.1516 111.606 50.4652 115.924 49.0842 116.169C47.7031 116.414 50.143 117.228 51.7303 116.578C53.3176 115.928 56.7021 114.217 56.7021 114.217L55.1516 111.606Z" fill="black"/>
<path d="M89.7258 144.221H78.7971C77.2687 142.895 75.8232 141.667 74.9025 140.928C73.4294 139.746 72.3669 138.006 71.6893 136.607C71.5365 136.288 71.4039 135.99 71.2916 135.719C71.0904 135.253 70.9134 134.776 70.7612 134.292L78.8542 129.486C79.3014 129.866 79.7217 130.277 80.1119 130.716L80.2095 130.828C80.6588 131.359 81.0547 131.961 81.0896 132.454C81.1302 133.029 82.7285 135.251 84.3618 137.385C86.0191 139.556 87.7168 141.632 87.8292 141.772C87.8292 141.772 88.1091 142.153 88.5657 142.738C88.888 143.162 89.2857 143.67 89.7258 144.221Z" fill="#FFCCD0"/>
<path opacity="0.1" d="M74.8843 50.9283C74.4957 51.8048 74.1477 52.7145 74.0962 53.6904C73.9507 56.5077 74.1864 62.8072 71.0671 64.2214C69.5221 64.9174 67.8685 63.3891 66.1745 63.3522C64.9555 63.3264 63.8377 64.0998 63.0938 65.0666C62.3499 66.0333 61.8877 67.1805 61.3481 68.2743C60.857 69.2671 60.2913 70.2212 59.6559 71.1285C59.466 71.4061 59.2568 71.6701 59.0298 71.9184C57.1278 71.1158 55.434 69.8896 54.0776 68.3333C52.7213 66.777 51.738 64.9315 51.2029 62.9376C50.6677 60.9438 50.5948 58.854 50.9896 56.8277C51.3844 54.8013 52.2366 52.8918 53.4811 51.2447C54.7257 49.5976 56.3298 48.2563 58.1713 47.323C60.0127 46.3897 62.0429 45.8891 64.1072 45.8593C66.1714 45.8295 68.2152 46.2713 70.0829 47.151C71.9505 48.0307 73.5927 49.3252 74.8843 50.9357V50.9283Z" fill="black"/>
<path d="M73.8513 53.1931C73.704 56.0104 73.9415 62.3099 70.8204 63.7222C69.2754 64.4183 67.6218 62.8918 65.9278 62.8549C64.7087 62.8273 63.5929 63.6025 62.8471 64.5674C62.1013 65.5323 61.6428 66.6814 61.1014 67.777C60.6102 68.7697 60.0445 69.7238 59.4092 70.6312C59.0299 71.1688 58.61 71.7084 58.0263 72.0104C57.0098 72.5407 55.778 72.2424 54.6878 71.9017C53.2736 71.4561 51.8803 70.954 50.5079 70.3955C50.5394 70.1882 50.5554 69.979 50.5557 69.7694C50.5152 69.8467 50.471 69.9185 50.4268 69.9959L50.3403 70.1469C50.1838 70.4231 50.0309 70.6993 49.891 70.9829C49.8376 71.0915 49.786 71.2038 49.74 71.3162C49.5548 71.7342 49.4385 72.1794 49.3957 72.6346C49.3018 73.8628 49.9076 75.0284 50.4453 76.1333C52.5132 80.4071 53.7911 85.4047 52.2351 89.8885C51.5611 91.8386 50.3937 93.5713 49.5411 95.4551C48.0508 98.7915 47.6121 102.503 48.2835 106.095C48.7088 108.326 49.5614 110.536 49.3515 112.799C48.9832 116.694 45.6245 119.592 42.2602 121.585C40.4428 122.656 38.2184 123.61 36.2886 122.763C37.5186 121.327 37.8354 119.34 38.1005 117.465C38.826 112.352 39.5534 107.237 40.2826 102.119C40.5735 100.083 40.8638 98.0459 41.1536 96.0093C41.6949 92.1829 42.2437 88.3141 41.9048 84.4638C41.6581 81.6262 40.962 78.6136 42.1921 76.0449C42.8421 74.6841 44.0004 73.5571 44.3613 72.0914C44.6577 70.9 44.3815 69.6331 44.5767 68.4196C44.6836 67.8675 44.8644 67.3324 45.1144 66.8287C45.4327 66.1451 45.8483 65.5113 46.3481 64.9468C45.8547 64.8031 45.3943 64.6061 45.1144 64.1936C45.9062 63.678 46.0259 62.5161 45.6668 61.6433C45.3078 60.7705 44.5896 60.1057 43.9433 59.417C43.2969 58.7283 42.6746 57.9255 42.5935 56.9864C42.437 55.1984 44.2232 53.8137 44.538 52.0496C44.8566 50.2542 43.5971 48.5086 43.6984 46.6911C43.8162 44.4943 45.8344 42.8978 47.8268 41.9716C50.8334 40.5798 54.1547 40.008 57.4536 40.3143C60.1384 40.5685 62.7366 41.3989 65.414 41.7212C67.0289 41.9053 68.6659 41.9237 70.2698 42.2073C71.8736 42.4909 73.4812 43.0893 74.61 44.266C77.5857 47.3687 74.0207 49.9228 73.8513 53.1931Z" fill="#FFE0D0"/>
<path opacity="0.1" d="M71.3616 136.608C70.4225 136.202 68.7137 136.445 65.7803 135.551C62.847 134.658 62.2817 130.622 62.2817 130.622V130.609C62.2467 130.517 61.9742 129.917 60.1291 127.814C58.0906 125.492 53.6842 113.764 53.6842 113.764C53.6842 113.764 49.7767 109.567 49.9001 108.021C50.0235 106.474 49.2059 102.358 49.2869 97.7549C49.3679 93.1514 58.0833 90.0984 58.0833 90.0984C74.864 87.1245 70.9123 106.47 70.4649 107.936C70.0174 109.402 72.3394 113.361 72.3394 113.361C72.0116 115.084 73.6836 117.753 73.6836 117.753C73.6836 117.753 74.0887 120.113 74.1716 121.01C74.1762 121.051 74.1855 121.092 74.1992 121.131C74.4681 121.977 76.6593 122.743 77.5506 123.209C78.4878 123.698 81.5022 127.974 81.5022 127.974C82.1522 131.114 72.297 137.021 71.3616 136.608Z" fill="black"/>
<path d="M71.8495 135.872C70.9123 135.463 69.2016 135.708 66.2701 134.813C63.3386 133.918 62.7714 129.885 62.7714 129.885V129.872C62.7383 129.779 62.4639 129.18 60.6188 127.077C58.5804 124.755 54.1739 113.025 54.1739 113.025C54.1739 113.025 50.2665 108.831 50.388 107.284C50.5096 105.737 49.6957 101.622 49.7767 97.0219C49.8577 92.422 58.5675 89.3708 58.5675 89.3708C75.3482 86.397 71.3966 105.743 70.9491 107.208C70.5016 108.674 72.8236 112.633 72.8236 112.633C72.4959 114.357 74.1679 117.025 74.1679 117.025C74.1679 117.025 74.573 119.386 74.6577 120.282C74.6608 120.324 74.6694 120.365 74.6835 120.404C74.9523 121.249 77.1436 122.015 78.0366 122.481C78.9721 122.969 81.9883 127.247 81.9883 127.247C82.642 130.381 72.7868 136.288 71.8495 135.872Z" fill="#FF748E"/>
<path opacity="0.1" d="M58.8989 99.4712C58.8989 99.4712 66.2295 107.205 68.1428 107.205C70.056 107.205 58.8989 99.4712 58.8989 99.4712Z" fill="black"/>
<path d="M71.8496 135.872C70.9123 135.463 69.2017 135.708 66.2701 134.813C63.3386 133.918 62.7715 129.886 62.7715 129.886V129.873C64.7142 128.584 69.6344 124.943 71.5734 123.612C72.9379 122.678 74.0519 121.307 74.7038 120.397C74.9726 121.242 77.1639 122.008 78.0569 122.474C78.9924 122.962 82.0086 127.24 82.0086 127.24C82.642 130.381 72.7869 136.288 71.8496 135.872Z" fill="#FF748E"/>
<g opacity="0.1">
<path d="M45.1255 64.2137C45.1347 64.2284 45.1476 64.2413 45.1586 64.256C45.2139 64.1861 45.271 64.1161 45.3299 64.0498C45.2671 64.1108 45.1987 64.1657 45.1255 64.2137Z" fill="black"/>
<path d="M49.3975 72.6546C49.4748 71.6327 50.0217 70.7322 50.5336 69.8336C50.1985 69.7047 49.8634 69.574 49.5319 69.4377C49.5635 69.2311 49.5795 69.0225 49.5798 68.8135C49.0624 69.7342 48.4989 70.6401 48.4197 71.6769C48.3258 72.9069 48.9316 74.0707 49.4693 75.1755C51.5391 79.4476 52.8151 84.4451 51.2592 88.9308C50.5834 90.879 49.4178 92.6136 48.5652 94.4973C47.0754 97.8333 46.6373 101.544 47.3094 105.135C47.731 107.369 48.5854 109.577 48.3755 111.84C48.0072 115.734 44.6504 118.633 41.2843 120.623C39.9088 121.437 38.3012 122.183 36.7637 122.129C36.6213 122.358 36.4626 122.577 36.2886 122.783C38.2202 123.636 40.4428 122.676 42.2602 121.601C45.6282 119.612 48.9924 116.721 49.3607 112.819C49.5706 110.556 48.7162 108.348 48.2927 106.115C47.6204 102.524 48.0572 98.8135 49.5448 95.477C50.3919 93.595 51.5704 91.8586 52.2388 89.9104C53.7948 85.4248 52.5168 80.4272 50.4489 76.1551C49.9131 75.0429 49.3036 73.8847 49.3975 72.6546Z" fill="black"/>
<path d="M74.6062 44.2881C74.4251 44.1022 74.2306 43.9299 74.0243 43.7725C76.2561 46.6671 73.0337 49.1273 72.8735 52.2429C72.7298 55.0602 72.9655 61.3615 69.8444 62.772C68.3013 63.4699 66.6458 61.9416 64.9536 61.9047C63.7327 61.8789 62.6169 62.6542 61.8711 63.6191C61.1253 64.584 60.6668 65.733 60.1273 66.8268C59.6351 67.8194 59.0688 68.7735 58.4332 69.681C58.0649 70.2205 57.634 70.7582 57.0485 71.062C56.0357 71.5905 54.8038 71.294 53.7118 70.9515C52.65 70.6176 51.5979 70.2493 50.5557 69.8467C50.5535 70.0385 50.5375 70.2299 50.5078 70.4194C51.8815 70.9791 53.2754 71.4812 54.6896 71.9256C55.7797 72.2681 57.0116 72.5646 58.0262 72.0361C58.61 71.7323 59.0335 71.1928 59.411 70.6532C60.047 69.747 60.6128 68.7935 61.1032 67.8009C61.6446 66.7071 62.1013 65.5562 62.8489 64.5913C63.5965 63.6264 64.7105 62.8531 65.9295 62.8788C67.6236 62.9157 69.279 64.444 70.8221 63.7461C73.9433 62.3356 73.7058 56.0343 73.8512 53.217C74.0207 49.9412 77.5856 47.389 74.6062 44.2881Z" fill="black"/>
</g>
<path opacity="0.1" d="M50.3421 70.1487C50.1856 70.4249 50.0328 70.7011 49.8928 70.9847C49.8394 71.0933 49.7878 71.2056 49.7418 71.318C48.7769 70.3457 46.4273 68.0347 45.1162 67.3184C45.435 66.6352 45.8505 66.0014 46.3499 65.4365C46.3499 65.4365 49.4748 67.0883 50.3421 70.1487Z" fill="black"/>
<path d="M50.4286 69.9979C49.705 66.722 46.3499 64.9487 46.3499 64.9487C45.8501 65.5132 45.4345 66.1471 45.1162 66.8306C46.4991 67.5875 49.0476 70.1249 49.8928 70.9848L50.4286 69.9979Z" fill="#FF748E"/>
</g>
<defs>
<linearGradient id="paint0_linear_1_25401" x1="134.428" y1="17.6667" x2="134.428" y2="14.2822" gradientUnits="userSpaceOnUse">
<stop stop-color="#808080" stop-opacity="0.25"/>
<stop offset="0.54" stop-color="#808080" stop-opacity="0.12"/>
<stop offset="1" stop-color="#808080" stop-opacity="0.1"/>
</linearGradient>
<linearGradient id="paint1_linear_1_25401" x1="103.639" y1="144.221" x2="103.639" y2="0.0983597" gradientUnits="userSpaceOnUse">
<stop stop-color="#808080" stop-opacity="0.25"/>
<stop offset="0.54" stop-color="#808080" stop-opacity="0.12"/>
<stop offset="1" stop-color="#808080" stop-opacity="0.1"/>
</linearGradient>
<clipPath id="clip0_1_25401">
<rect width="200" height="144.121" fill="white" transform="translate(0 0.0981445)"/>
</clipPath>
</defs>
</svg>
